<?xml version="1.0" encoding="utf-8"?>
<!-- Generator: Adobe Illustrator 23.0.0, SVG Export Plug-In . SVG Version: 6.00 Build 0)  -->
<svg version="1.1" id="Layer_1" xmlns="http://www.w3.org/2000/svg" xmlns:xlink="http://www.w3.org/1999/xlink" x="0px" y="0px"
	 viewBox="0 0 750 148" style="enable-background:new 0 0 750 148;" xml:space="preserve">
<style type="text/css">
	.st0{fill:#5614D5;}
	.st1{fill:#836EFF;}
	.st2{fill:none;}
	.st3{fill:#00F9AC;}
	.st4{opacity:0.9;fill:#21D8A3;enable-background:new    ;}
	.st5{fill:#1F3155;}
</style>
<g>
	<g>
		<path class="st0" d="M51.7,136c14.4,0,28.8,0,43.2,0c-0.8,5-10.6,11.4-18.9,12.3C66.3,149.3,54.7,143.5,51.7,136z"/>
		<path class="st0" d="M141.8,115.9c-0.9-0.1-1.8,0-2.7,0c-2.1,0-4.3,0-6.9,0c0-1.6,0-2.8,0-3.9c0-17.7,0.1-35.5-0.1-53.2
			c0-4-0.4-8.1-1.2-12C124.3,14.1,91.4-6.5,59.1,1.7c-25.8,6.5-44.4,30-44.3,56.8c0.1,16.1,0,32.2,0,48.4c0,1.5,0,6,0,9
			c-2,0-7.6,0-9.6,0.1c-2.9,0.2-4.9,2.4-4.9,5.4c0,2.8,1.9,4.9,4.8,5.1c0.8,0.1,1.6,0.1,2.4,0.1c44,0,88,0,131.9,0
			c0.8,0,1.6,0,2.4-0.1c2.8-0.3,4.8-2.4,4.8-5.1C146.7,118.5,144.6,116.2,141.8,115.9z"/>
		<circle class="st1" cx="107.3" cy="97" r="5.9"/>
		<path class="st1" d="M112.6,52.9L112.6,52.9c0-0.6-0.1-1.1-0.2-1.6c-3.6-17.7-18.8-30.7-36.7-31.7c0,0,0,0-0.1,0
			c-0.8,0-1.5-0.1-2.3-0.1c0,0,0,0-0.1,0c0,0,0,0-0.1,0c-0.8,0-1.5,0-2.3,0.1c0,0,0,0-0.1,0c-17.9,1.1-33.1,14.1-36.7,31.7
			c-0.1,0.5-0.2,1-0.2,1.5l0.1,0.1c-0.3,2.1-0.5,4.2-0.5,6.4c0,1.7,0,38,0,42.9l12.2,13.2c0-9.2,0-50.9,0-56.1
			c0-12.4,8.7-23.6,20.9-26.7c1-0.3,2-0.4,3-0.6c0.2,0,0.3,0,0.5-0.1c0.4,0,0.8-0.1,1.2-0.1c0.6,0,1.1-0.1,1.7-0.1
			c0.1,0,0.2,0,0.3,0c0.1,0,0.2,0,0.3,0c0.6,0,1.1,0,1.7,0.1c0.4,0,0.8,0.1,1.2,0.1c0.2,0,0.3,0,0.5,0.1c1,0.1,2,0.3,3,0.6
			c12.1,3.1,20.9,14.3,20.9,26.7c0,2,0,19.1,0,27.1l12.2-8.2c0-4.6,0-18.4,0-18.9C113.2,57.2,113,55,112.6,52.9z"/>
		<path class="st2" d="M12.4,115.9c-2.4,0-4.8-0.1-7.3,0.1c-2.9,0.2-4.9,2.4-4.9,5.4c0,2.8,1.9,4.9,4.8,5.1c0.8,0.1,1.6,0.1,2.4,0.1
			c44,0,88,0,131.9,0c0.8,0,1.6,0,2.4-0.1c2.8-0.3,4.8-2.4,4.8-5.1c0.1-2.8-2.1-5.1-4.9-5.4c-0.9-0.1-1.8,0-2.7,0
			c-2.1,0-4.3,0-6.9,0c0-1.6,0-2.8,0-3.9c0-15.5,0-30.9,0-46.4l-81.9,54.6l-29.7-32l12.7-11.7L53,97.6l77.7-51.8
			C123.6,13.7,91.1-6.4,59.1,1.7c-25.8,6.5-44.4,30-44.3,56.8c0.1,16.1,0,32.2,0,48.4c0,2.2,0,4.5,0,6.7"/>
		<path class="st3" d="M132.1,58.8c0,2.3,0,4.6,0,6.8l14.9-9.9l-9.6-14.4l-6.7,4.4c0.1,0.3,0.2,0.7,0.2,1
			C131.7,50.7,132.1,54.8,132.1,58.8z"/>
		<path class="st2" d="M33.3,76.5L20.6,88.2l29.7,32l81.9-54.6c0-2.3,0-4.6,0-6.8c0-4-0.4-8.1-1.2-12c-0.1-0.3-0.2-0.7-0.2-1
			L53,97.6L33.3,76.5z"/>
		<path class="st4" d="M33.3,76.5L20.6,88.2l29.7,32l81.9-54.6c0-2.3,0-4.6,0-6.8c0-4-0.4-8.1-1.2-12c-0.1-0.3-0.2-0.7-0.2-1
			L53,97.6L33.3,76.5z"/>
	</g>
	<g>
		<path class="st5" d="M242.2,45.3c-1.7,0-3.1,0.6-4.1,1.8c-1.1,1.2-1.6,2.4-1.6,3.7v38.8c0,0-20.8-31.6-27.3-41.6
			c-0.9-1.9-2.6-2.8-4.9-2.8c-1.7,0-3.1,0.6-4.2,1.8c-1.1,1.2-1.6,2.4-1.6,3.7v50.9c0,1.6,0.6,2.9,1.7,4c1.1,1.1,2.5,1.6,4.1,1.6
			c1.6,0,3-0.6,4.1-1.6c1.1-1.1,1.7-2.4,1.7-4V63.1c0,0,20.6,31.3,27.2,41.4c1.1,1.9,2.8,2.9,5,2.9c1.6,0,2.9-0.5,4-1.6
			c1.1-1.1,1.7-2.4,1.7-4V50.8c0-1.4-0.5-2.6-1.6-3.8C245.2,45.9,243.8,45.3,242.2,45.3z"/>
		<path class="st5" d="M300.4,70c-1.6-1.7-3.5-3.2-5.6-4.4c-2.1-1.2-4.4-2.1-6.7-2.6c-2.3-0.5-4.7-0.8-7.1-0.8
			c-2.4,0-4.8,0.3-7.1,0.8c-2.3,0.6-4.6,1.4-6.7,2.6c-2.1,1.2-4,2.7-5.6,4.4c-1.6,1.7-2.9,3.9-3.9,6.4c-1,2.5-1.5,5.3-1.5,8.3
			c0,3,0.5,5.8,1.5,8.3c1,2.5,2.3,4.7,3.9,6.4c1.6,1.7,3.5,3.2,5.6,4.4c2.1,1.2,4.4,2.1,6.7,2.6c2.3,0.5,4.7,0.8,7.1,0.8
			c2.4,0,4.8-0.3,7.1-0.8c2.3-0.6,4.6-1.4,6.7-2.6c2.1-1.2,4-2.7,5.6-4.4c1.6-1.7,2.9-3.9,3.9-6.4c1-2.5,1.5-5.3,1.5-8.3
			s-0.5-5.8-1.5-8.3C303.3,73.9,302,71.7,300.4,70z M294.3,84.8c0,5.1-1.3,9.1-3.7,11.8c-2.5,2.7-5.6,4.1-9.5,4.1
			c-3.9,0-7.1-1.4-9.6-4.1c-2.5-2.7-3.8-6.7-3.8-11.8c0-5.1,1.3-9.1,3.8-11.9c2.5-2.7,5.7-4.1,9.6-4.1c3.9,0,7,1.3,9.5,4.1
			C293,75.6,294.3,79.6,294.3,84.8z"/>
		<path class="st5" d="M340.6,69.7c0.9,0,1.7-0.3,2.4-0.9c0.6-0.6,1-1.5,1-2.4s-0.3-1.7-1-2.4c-0.6-0.6-1.4-0.9-2.4-0.9h-14.9v-7
			c0-1.6-0.6-3-1.7-4.1c-1.1-1.1-2.5-1.6-4.1-1.6c-1.6,0-3,0.6-4.1,1.6c-1.1,1.1-1.7,2.5-1.7,4.1v34.9c0,4.4,1.6,8.3,4.8,11.5
			c3.2,3.3,7.2,4.9,11.8,4.9c2.7,0,5.2-0.6,7.4-1.8c2.2-1.2,3.9-2.5,5.2-4c0.4-0.4,0.6-0.9,0.6-1.5c0-0.6-0.2-1.1-0.6-1.6
			c-0.4-0.6-1-0.8-1.7-0.8c-0.5,0-1,0.2-1.6,0.7c-1.6,1.7-3.6,2.6-5.9,2.6c-2.2,0-4.1-0.8-5.8-2.4c-1.7-1.6-2.6-3.7-2.6-6.2V69.7
			H340.6z"/>
		<path class="st5" d="M357,44.5c-1.6,0-3,0.6-4.1,1.6c-1.1,1.1-1.7,2.5-1.7,4.1c0,1.6,0.6,3,1.7,4.1c1.1,1.1,2.5,1.7,4.1,1.7
			c1.6,0,3-0.6,4.1-1.7c1.1-1.1,1.7-2.5,1.7-4.1c0-1.6-0.6-3-1.7-4.1C360,45,358.6,44.5,357,44.5z"/>
		<path class="st5" d="M357,62.2c-1.7,0-3.1,0.6-4.2,1.8c-1.1,1.2-1.6,2.5-1.6,3.8v33.9c0,1.6,0.6,2.9,1.7,4
			c1.1,1.1,2.5,1.6,4.1,1.6c1.6,0,2.9-0.5,4-1.6c1.1-1.1,1.6-2.4,1.6-4V67.8c0-1.4-0.5-2.6-1.5-3.8C360.1,62.8,358.7,62.2,357,62.2z
			"/>
		<path class="st5" d="M387.7,50c1.7-1.6,3.6-2.4,5.9-2.4c2.3,0,4.2,0.8,5.9,2.6c0.5,0.4,1,0.5,1.5,0.5c0.7,0,1.3-0.3,1.7-0.8
			c0.4-0.5,0.6-1,0.6-1.6c0-0.7-0.2-1.2-0.5-1.6c-1.3-1.5-3-2.9-5.2-4c-2.2-1.2-4.7-1.8-7.4-1.8c-4.7,0-8.6,1.7-11.8,5
			c-3.2,3.3-4.8,7.2-4.8,11.6v44.3c0,1.4,0.6,2.7,1.7,3.9c1.1,1.1,2.5,1.7,4.1,1.7c1.6,0,2.9-0.6,4.1-1.7c1.1-1.1,1.7-2.4,1.7-3.9
			V69.7h13.3c0.9,0,1.7-0.3,2.4-0.9c0.6-0.6,1-1.5,1-2.4s-0.3-1.7-1-2.4c-0.6-0.6-1.4-0.9-2.4-0.9h-13.3v-6.9
			C385.2,53.6,386,51.6,387.7,50z"/>
		<path class="st5" d="M414.4,62.2c-1.7,0-3.1,0.6-4.2,1.8c-1.1,1.2-1.6,2.5-1.6,3.8v33.9c0,1.6,0.6,2.9,1.7,4
			c1.1,1.1,2.5,1.6,4.1,1.6c1.6,0,2.9-0.5,4-1.6c1.1-1.1,1.6-2.4,1.6-4V67.8c0-1.4-0.5-2.6-1.5-3.8C417.4,62.8,416,62.2,414.4,62.2z
			"/>
		<path class="st5" d="M414.4,44.5c-1.6,0-3,0.6-4.1,1.6c-1.1,1.1-1.7,2.5-1.7,4.1c0,1.6,0.6,3,1.7,4.1c1.1,1.1,2.5,1.7,4.1,1.7
			c1.6,0,3-0.6,4.1-1.7c1.1-1.1,1.7-2.5,1.7-4.1c0-1.6-0.6-3-1.7-4.1C417.3,45,416,44.5,414.4,44.5z"/>
		<path class="st5" d="M454.9,68.8c2.4,0,4.8,0.6,7.1,1.8c2.2,1.2,4.1,2.9,5.6,5c0.3,0.4,0.8,0.8,1.6,0.8c0.6,0,1.2-0.2,1.7-0.7
			c0.5-0.5,0.7-1,0.7-1.7c0-0.4-0.1-0.8-0.3-1.2c-1.9-3.2-4.7-5.8-8.4-7.7c-3.7-1.9-7.6-2.9-11.6-2.9c-2.7,0-5.5,0.5-8.2,1.5
			c-2.7,1-5.1,2.4-7.3,4.3c-2.2,1.8-4,4.2-5.3,7.2c-1.3,2.9-2,6.2-2,9.6c0,3.5,0.7,6.7,2,9.6c1.3,2.9,3.1,5.3,5.3,7.2
			c2.2,1.8,4.6,3.3,7.3,4.3c2.7,1,5.4,1.5,8.2,1.5c4,0,7.9-1,11.6-2.9c3.7-1.9,6.5-4.5,8.4-7.7c0.2-0.3,0.3-0.7,0.3-1.1
			c0-0.6-0.2-1.2-0.7-1.7c-0.5-0.5-1-0.7-1.7-0.7c-0.9,0-1.4,0.4-1.7,0.7c-1.4,2.1-3.3,3.8-5.6,5c-2.2,1.2-4.6,1.8-7.1,1.8
			c-4.1,0-7.6-1.5-10.6-4.4c-2.9-2.9-4.4-6.8-4.4-11.6c0-4.8,1.5-8.7,4.4-11.6C447.2,70.3,450.8,68.8,454.9,68.8z"/>
		<path class="st5" d="M500.3,62.2c-4.5,0-8.4,1-11.8,2.8c-3.4,1.9-6,4.2-7.9,6.8c-0.4,0.5-0.5,1-0.5,1.5c0,0.7,0.2,1.2,0.6,1.7
			c0.4,0.5,1,0.7,1.7,0.7c1,0,1.5-0.4,1.7-0.8c3.5-4,7.8-6.1,12.8-6.1c4.2,0,7.8,1.3,10.7,4c2.7,2.4,4.2,5.6,4.4,9.4
			c-1.6-1.4-3.5-2.5-5.8-3.4c-2.8-1-5.8-1.5-9-1.5c-3.6,0-6.9,0.5-9.8,1.6c-2.9,1.1-5.3,2.8-7.1,5.1c-1.8,2.3-2.7,5.1-2.7,8.3
			s0.9,6,2.7,8.3c1.8,2.3,4.2,4,7.1,5.1c2.9,1.1,6.2,1.6,9.8,1.6c3.4,0,6.7-0.6,9.7-1.8c2.4-0.9,4.5-2.3,6.1-4v0.5
			c0,1.5,0.5,2.8,1.5,3.8c1,0.9,2.2,1.4,3.6,1.4c1.4,0,2.6-0.5,3.7-1.4c1-1,1.6-2.2,1.6-3.8v-19c0-5.9-2.2-10.9-6.6-14.9
			C512.5,64.2,506.9,62.2,500.3,62.2z M488.9,92.3c0-2.8,1-4.9,3.2-6.5c2.2-1.6,5-2.4,8.3-2.4c3.4,0,6.2,0.8,8.4,2.4
			c2.2,1.6,3.2,3.7,3.2,6.5c0,2.8-1.1,5-3.2,6.6c-2.2,1.6-5,2.4-8.4,2.4c-3.4,0-6.2-0.8-8.3-2.4C490,97.3,488.9,95.2,488.9,92.3z"/>
		<path class="st5" d="M560.8,69.7c0.9,0,1.7-0.3,2.4-0.9c0.6-0.6,1-1.5,1-2.4s-0.3-1.7-1-2.4c-0.6-0.6-1.4-0.9-2.4-0.9h-14.9v-7
			c0-1.6-0.6-3-1.7-4.1c-1.1-1.1-2.5-1.6-4.1-1.6c-1.6,0-3,0.6-4.1,1.6c-1.1,1.1-1.7,2.5-1.7,4.1v34.9c0,4.4,1.6,8.3,4.8,11.5
			c3.2,3.3,7.2,4.9,11.8,4.9c2.7,0,5.2-0.6,7.4-1.8c2.2-1.2,3.9-2.5,5.2-4c0.4-0.4,0.6-0.9,0.6-1.5c0-0.6-0.2-1.1-0.6-1.6
			c-0.4-0.6-1-0.8-1.7-0.8c-0.5,0-1,0.2-1.6,0.7c-1.6,1.7-3.6,2.6-5.9,2.6c-2.2,0-4.1-0.8-5.8-2.4c-1.7-1.6-2.6-3.7-2.6-6.2V69.7
			H560.8z"/>
		<path class="st5" d="M577.2,62.2c-1.7,0-3.1,0.6-4.2,1.8c-1.1,1.2-1.6,2.5-1.6,3.8v33.9c0,1.6,0.6,2.9,1.7,4
			c1.1,1.1,2.5,1.6,4.1,1.6c1.6,0,2.9-0.5,4-1.6c1.1-1.1,1.6-2.4,1.6-4V67.8c0-1.4-0.5-2.6-1.5-3.8
			C580.3,62.8,578.9,62.2,577.2,62.2z"/>
		<path class="st5" d="M577.2,44.5c-1.6,0-3,0.6-4.1,1.6c-1.1,1.1-1.7,2.5-1.7,4.1c0,1.6,0.6,3,1.7,4.1c1.1,1.1,2.5,1.7,4.1,1.7
			c1.6,0,3-0.6,4.1-1.7c1.1-1.1,1.7-2.5,1.7-4.1c0-1.6-0.6-3-1.7-4.1C580.2,45,578.8,44.5,577.2,44.5z"/>
		<path class="st5" d="M635.4,70c-1.6-1.7-3.5-3.2-5.6-4.4c-2.1-1.2-4.4-2.1-6.7-2.6c-2.3-0.5-4.7-0.8-7.1-0.8s-4.8,0.3-7.1,0.8
			c-2.3,0.6-4.6,1.4-6.7,2.6c-2.1,1.2-4,2.7-5.6,4.4c-1.6,1.7-2.9,3.9-3.9,6.4c-1,2.5-1.5,5.3-1.5,8.3s0.5,5.8,1.5,8.3
			c1,2.5,2.3,4.7,3.9,6.4c1.6,1.7,3.5,3.2,5.6,4.4c2.1,1.2,4.4,2.1,6.7,2.6c2.3,0.5,4.7,0.8,7.1,0.8s4.8-0.3,7.1-0.8
			c2.3-0.6,4.6-1.4,6.7-2.6c2.1-1.2,4-2.7,5.6-4.4c1.6-1.7,2.9-3.9,3.9-6.4c1-2.5,1.5-5.3,1.5-8.3s-0.5-5.8-1.5-8.3
			C638.3,73.9,637,71.7,635.4,70z M629.3,84.8c0,5.1-1.3,9.1-3.7,11.8c-2.5,2.7-5.7,4.1-9.5,4.1c-3.9,0-7.1-1.4-9.6-4.1
			c-2.5-2.7-3.8-6.7-3.8-11.8c0-5.1,1.3-9.1,3.8-11.9c2.5-2.7,5.7-4.1,9.6-4.1c3.9,0,7.1,1.4,9.5,4.1
			C628,75.6,629.3,79.6,629.3,84.8z"/>
		<path class="st5" d="M683.8,64.5c-2.9-1.5-5.9-2.3-9.1-2.3c-3.4,0-6.6,0.9-9.5,2.6c-2.2,1.3-4.1,3-5.5,5v-2.4
			c0-1.3-0.5-2.5-1.5-3.6c-1-1.1-2.2-1.6-3.7-1.6c-1.5,0-2.7,0.5-3.8,1.6c-1,1-1.6,2.3-1.6,3.6v34.4c0,1.6,0.6,2.9,1.7,4
			c1.1,1.1,2.5,1.6,4.1,1.6c1.6,0,3-0.6,4.1-1.6c1.1-1.1,1.7-2.4,1.7-4V79.6c0-3,1-5.5,3.2-7.6c2.1-2.1,4.6-3.2,7.5-3.2
			c3,0,5.5,1,7.6,3.2c2.1,2.1,3.2,4.6,3.2,7.6v22.1c0,1.6,0.6,2.9,1.7,4c1.1,1.1,2.5,1.6,4,1.6c1.6,0,3-0.5,4.1-1.6
			c1.1-1.1,1.7-2.4,1.7-4V81c0-3.6-0.9-6.9-2.7-9.8C689,68.2,686.7,66,683.8,64.5z"/>
		<path class="st5" d="M748.7,97.8L710.6,47c-1-1.1-2.4-1.7-4.1-1.7c-1.5,0-2.7,0.5-3.7,1.5c-1.2,1.1-1.8,2.6-1.8,4.3
			c0,1.5,0.5,2.8,1.3,3.7l38.2,50.9c1.1,1.1,2.5,1.7,4.1,1.7c1.5,0,2.8-0.5,3.9-1.5c1.2-1.1,1.8-2.5,1.8-4.1
			C750.3,100.2,749.7,98.8,748.7,97.8z"/>
		<g>
			<path class="st5" d="M705.1,107.5c-0.8,0-1.6-0.3-2.4-0.8c-1.7-1.3-2.1-3.8-0.8-5.5l40.7-54.5c1.3-1.7,3.8-2.1,5.5-0.8
				c1.7,1.3,2.1,3.8,0.8,5.5l-40.7,54.5C707.5,107,706.3,107.5,705.1,107.5z"/>
		</g>
	</g>
</g>
</svg>
