<svg height="640" viewBox="0 0 633 640" width="633" xmlns="http://www.w3.org/2000/svg"><g fill="none" fill-rule="evenodd"><g fill-rule="nonzero"><path d="m222.6 586.6h186.1c-3.4 21.5-45.6 49-81.6 52.9-41.4 4.5-91.7-20.6-104.5-52.9z" fill="#fff"/><path d="m610.6 500c-3.8-.3-7.7-.1-11.6-.1-9.2 0-18.4 0-29.8 0 0-7 0-11.9 0-16.9 0-76.4.3-152.9-.3-229.3-.1-17.3-1.7-34.8-5.1-51.7-28.5-140.8-170.1-229.4-309.5-194.3-111.3 28-191.5 129.5-191 244.8.3 69.5 0 139 0 208.4 0 6.3 0 25.9-.1 38.9-8.5-.1-32.9-.2-41.4.3-12.7.7-21.2 10.5-21 23.1.2 12.2 8.3 20.9 20.7 22 3.5.3 6.9.2 10.4.2 189.5.1 379.1.1 568.6.1 3.5 0 7 .1 10.4-.3 12.2-1.2 20.7-10.2 20.9-22.2.3-11.9-8.8-22-21.2-23z" fill="#fff"/><g fill="#a1a1b5"><circle cx="461.9" cy="418.3" r="25.4"/><path d="m485.1 228.6.4-.3c-.3-2.2-.6-4.3-1.1-6.4-15.4-76.1-81-132.1-158-136.8-.1 0-.2 0-.3 0-3.3-.2-6.6-.3-10-.3-.1 0-.1 0-.2 0s-.1 0-.2 0c-3.3 0-6.7.1-10 .3-.1 0-.2 0-.3 0-77.1 4.6-142.6 60.7-158 136.8-.4 2.1-.7 4.3-1.1 6.4l.4.3c-1.5 9-2.3 18.2-2.2 27.5 0 7.4 0 163.6.1 184.8l52.6 56.8c0-39.8 0-219.2-.1-241.8-.2-53.4 37.6-101.7 89.9-114.9 4.3-1.1 8.7-1.9 13.1-2.5.7-.1 1.5-.2 2.2-.3 1.7-.2 3.3-.3 5-.5 2.4-.2 4.8-.3 7.2-.3h1.3 1.3c2.4 0 4.8.2 7.2.3 1.7.1 3.3.3 5 .5.7.1 1.5.2 2.2.3 4.4.6 8.8 1.4 13.1 2.5 52.3 13.2 90.1 61.5 89.9 114.9 0 8.5-.1 82.4-.1 116.9l52.6-35.1c0-20 0-79.4 0-81.6.4-9.3-.4-18.5-1.9-27.5z"/></g></g><path d="m53.1 499.8c-10.4.2-20.9-.3-31.3.3-12.7.7-21.2 10.5-21 23.1.2 12.2 8.3 20.9 20.7 22 3.5.3 6.9.2 10.4.2 189.5.1 379.1.1 568.6.1 3.5 0 7 .1 10.4-.3 12.2-1.2 20.7-10.2 20.9-22.2.2-12.1-8.9-22.1-21.2-23.2-3.8-.3-7.7-.1-11.6-.1-9.2 0-18.4 0-29.8 0 0-7 0-11.9 0-16.9 0-66.6.2-133.2-.1-199.8l-352.7 235.4-127.9-138 54.8-50.4 84.6 91.1 334.9-223.3c-30.5-138.3-170.5-224.8-308.6-190.1-111.3 28-191.5 129.5-191 244.8.3 69.5 0 139 0 208.4 0 9.7.2 19.3-.1 28.9"/><path d="m143.4 330-54.8 50.4 127.8 137.9 352.8-235.3c0-9.8-.1-19.6-.1-29.5-.1-17.3-1.7-34.8-5.1-51.7-.3-1.4-.7-2.8-1-4.2l-335 223.5z"/><g fill-rule="nonzero"><path d="m143.4 330-54.8 50.4 127.8 137.9 354.8-236.6c0-9.8-.1-19.6-.1-29.5-.1-17.3-1.7-34.8-5.1-51.7-.3-1.4-.7-2.8-1-4.2l-337 224.8z" fill="#51515b"/><path d="m568.6 253.9c.1 9.8.1 19.6.1 29.5l64.1-42.6-41.3-62-29 19.2c.3 1.4.7 2.8 1 4.2 3.4 16.9 5 34.5 5.1 51.7z" fill="#5f5f66"/></g></g></svg>