<?xml version="1.0" encoding="utf-8"?>
<!-- Generator: Adobe Illustrator 23.0.2, SVG Export Plug-In . SVG Version: 6.00 Build 0)  -->
<svg version="1.1" id="Layer_1" xmlns="http://www.w3.org/2000/svg" xmlns:xlink="http://www.w3.org/1999/xlink" x="0px" y="0px"
	 viewBox="0 0 200 200" style="enable-background:new 0 0 200 200;" xml:space="preserve">
<style type="text/css">
	.st0{fill:#5614D5;}
	.st1{fill:#FFFFFF;}
	.st2{font-family:'Roboto-Regular';}
	.st3{font-size:50px;}
</style>
<path class="st0" d="M198.93,99.86c0,4.59-7.58,8.59-8.21,13c-0.64,4.52,5.5,10.49,4.24,14.78c-1.28,4.37-9.68,6.07-11.55,10.15
	c-1.89,4.13,2.32,11.59-0.12,15.38c-2.45,3.81-10.99,3.07-13.95,6.48c-2.96,3.42-1.02,11.76-4.44,14.72
	c-3.41,2.96-11.39-0.15-15.2,2.31c-3.79,2.44-4.27,10.99-8.4,12.88c-4.08,1.87-10.87-3.36-15.24-2.08c-4.3,1.26-7.18,9.33-11.7,9.98
	c-4.41,0.63-9.44-6.3-14.03-6.3c-4.59,0-9.62,6.93-14.03,6.3c-4.52-0.64-7.41-8.72-11.7-9.98c-4.37-1.28-11.15,3.95-15.24,2.08
	c-4.13-1.89-4.61-10.45-8.4-12.88c-3.81-2.45-11.79,0.65-15.2-2.31c-3.42-2.96-1.48-11.31-4.44-14.72
	c-2.96-3.41-11.49-2.67-13.95-6.48c-2.44-3.79,1.77-11.25-0.12-15.38c-1.87-4.08-10.27-5.78-11.55-10.15
	c-1.26-4.3,4.88-10.26,4.24-14.78c-0.63-4.41-8.21-8.41-8.21-13c0-4.59,7.58-8.59,8.21-13c0.64-4.52-5.5-10.49-4.24-14.78
	c1.28-4.37,9.68-6.07,11.55-10.15c1.89-4.13-2.32-11.59,0.12-15.38c2.45-3.81,10.99-3.07,13.95-6.48
	c2.96-3.42,1.02-11.76,4.44-14.72c3.41-2.96,11.39,0.15,15.2-2.31c3.79-2.44,4.27-10.99,8.4-12.88c4.08-1.87,10.87,3.36,15.24,2.08
	c4.3-1.26,7.18-9.33,11.7-9.98c4.41-0.63,9.44,6.3,14.03,6.3c4.59,0,9.62-6.93,14.03-6.3c4.52,0.64,7.41,8.72,11.7,9.98
	c4.37,1.28,11.15-3.95,15.24-2.08c4.13,1.89,4.61,10.45,8.4,12.88c3.81,2.45,11.79-0.65,15.2,2.31c3.42,2.96,1.48,11.31,4.44,14.72
	c2.96,3.41,11.49,2.67,13.95,6.48c2.44,3.79-1.77,11.25,0.12,15.38c1.87,4.08,10.27,5.78,11.55,10.15
	c1.26,4.3-4.88,10.26-4.24,14.78C191.35,91.27,198.93,95.27,198.93,99.86z"/>
<text transform="matrix(1 0 0 1 51.9865 114.4711)" class="st1 st2 st3">PRO</text>
</svg>
