<svg enable-background="new 0 0 200 200" viewBox="0 0 200 200" xmlns="http://www.w3.org/2000/svg"><path d="m198.93 99.86c0 4.59-7.58 8.59-8.21 13-.64 4.52 5.5 10.49 4.24 14.78-1.28 4.37-9.68 6.07-11.55 10.15-1.89 4.13 2.32 11.59-.12 15.38-2.45 3.81-10.99 3.07-13.95 6.48-2.96 3.42-1.02 11.76-4.44 14.72-3.41 2.96-11.39-.15-15.2 2.31-3.79 2.44-4.27 10.99-8.4 12.88-4.08 1.87-10.87-3.36-15.24-2.08-4.3 1.26-7.18 9.33-11.7 9.98-4.41.63-9.44-6.3-14.03-6.3s-9.62 6.93-14.03 6.3c-4.52-.64-7.41-8.72-11.7-9.98-4.37-1.28-11.15 3.95-15.24 2.08-4.13-1.89-4.61-10.45-8.4-12.88-3.81-2.45-11.79.65-15.2-2.31-3.42-2.96-1.48-11.31-4.44-14.72s-11.49-2.67-13.95-6.48c-2.44-3.79 1.77-11.25-.12-15.38-1.87-4.08-10.27-5.78-11.55-10.15-1.26-4.3 4.88-10.26 4.24-14.78-.63-4.41-8.21-8.41-8.21-13s7.58-8.59 8.21-13c.64-4.52-5.5-10.49-4.24-14.78 1.28-4.37 9.68-6.07 11.55-10.15 1.89-4.13-2.32-11.59.12-15.38 2.45-3.81 10.99-3.07 13.95-6.48 2.96-3.42 1.02-11.76 4.44-14.72 3.41-2.96 11.39.15 15.2-2.31 3.79-2.44 4.27-10.99 8.4-12.88 4.08-1.87 10.87 3.36 15.24 2.08 4.3-1.26 7.18-9.33 11.7-9.98 4.41-.63 9.44 6.3 14.03 6.3s9.62-6.93 14.03-6.3c4.52.64 7.41 8.72 11.7 9.98 4.37 1.28 11.15-3.95 15.24-2.08 4.13 1.89 4.61 10.45 8.4 12.88 3.81 2.45 11.79-.65 15.2 2.31 3.42 2.96 1.48 11.31 4.44 14.72s11.49 2.67 13.95 6.48c2.44 3.79-1.77 11.25.12 15.38 1.87 4.08 10.27 5.78 11.55 10.15 1.26 4.3-4.88 10.26-4.24 14.78.63 4.41 8.21 8.41 8.21 13z" fill="#5614d5"/><text fill="#fff" font-family="'Roboto-Regular'" font-size="50" transform="translate(51.9865 114.4711)">PRO</text></svg>