<svg xmlns="http://www.w3.org/2000/svg" width="20" height="20" viewBox="0 0 20 20" fill="none">
<path d="M16.4 16.0016H3.6C2.9384 16.0016 2.4 16.54 2.4 17.2016C2.4 17.8632 2.9384 18.4016 3.6 18.4016H16.4C17.0616 18.4016 17.6 17.8632 17.6 17.2016C17.6 16.54 17.0616 16.0016 16.4 16.0016ZM18.4 4.00156C17.5176 4.00156 16.8 4.71918 16.8 5.60156C16.8 6.19438 17.128 6.70715 17.6088 6.98395C16.6832 9.17594 15.2392 10.5207 13.8896 10.3991C12.3888 10.2768 11.1648 8.50234 10.4896 5.53355C11.3552 5.31434 12 4.53434 12 3.60156C12 2.49836 11.1032 1.60156 9.99996 1.60156C8.89676 1.60156 7.99996 2.49836 7.99996 3.60156C7.99996 4.53438 8.64477 5.31438 9.51035 5.53355C8.83516 8.50234 7.61113 10.2768 6.11035 10.3991C4.76637 10.5207 3.31594 9.17594 2.39117 6.98395C2.87195 6.70715 3.19996 6.19434 3.19996 5.60156C3.19996 4.71918 2.48234 4.00156 1.59996 4.00156C0.717617 4.00156 0 4.71918 0 5.60156C0 6.42238 0.623984 7.09277 1.42078 7.18395L2.9616 15.2016H17.0384L18.5792 7.18395C19.376 7.09277 20 6.42238 20 5.60156C20 4.71918 19.2824 4.00156 18.4 4.00156Z" fill="#FDA92B"/>
</svg>