<svg width="16" height="16" viewBox="0 0 16 16" fill="none" xmlns="http://www.w3.org/2000/svg">
<path fill-rule="evenodd" clip-rule="evenodd" d="M8 1.83398C7.56151 1.83398 7.1301 1.97508 6.05374 2.34352L5.67187 2.47423C4.66347 2.81941 3.92806 3.07135 3.41173 3.28111C3.154 3.38581 2.96727 3.47355 2.83619 3.54967C2.77148 3.58725 2.72689 3.61826 2.69711 3.64247C2.67186 3.66299 2.66224 3.67461 2.66086 3.67631C2.65957 3.6784 2.65129 3.69225 2.63962 3.72501C2.6263 3.76242 2.61153 3.81604 2.59714 3.89069C2.56803 4.04178 2.54596 4.24933 2.53072 4.52926C2.50018 5.09006 2.5 5.87287 2.5 6.94509V7.99489C2.5 11.445 5.07993 13.143 6.79919 13.894C7.04684 14.0022 7.18986 14.0634 7.34907 14.1041C7.50112 14.1431 7.68667 14.1673 8 14.1673C8.31333 14.1673 8.49888 14.1431 8.65093 14.1041C8.81014 14.0634 8.95316 14.0022 9.20081 13.894C10.9201 13.143 13.5 11.445 13.5 7.99489V6.94509C13.5 5.87287 13.4998 5.09006 13.4693 4.52926C13.454 4.24933 13.432 4.04178 13.4029 3.89069C13.3885 3.81604 13.3737 3.76242 13.3604 3.72501C13.3487 3.69223 13.3404 3.67838 13.3391 3.67631C13.3377 3.6746 13.3281 3.66298 13.3029 3.64247C13.2731 3.61826 13.2285 3.58725 13.1638 3.54967C13.0327 3.47355 12.846 3.38581 12.5883 3.28111C12.0719 3.07135 11.3365 2.81941 10.3281 2.47423L9.94626 2.34352C8.8699 1.97508 8.43849 1.83398 8 1.83398ZM5.81559 1.36806C6.77821 1.03837 7.37498 0.833984 8 0.833984C8.62502 0.833984 9.22179 1.03837 10.1844 1.36806C10.2127 1.37774 10.2412 1.38752 10.2701 1.39741L10.6694 1.53407C11.6569 1.87212 12.4191 2.133 12.9646 2.35464C13.2395 2.46629 13.4758 2.57443 13.666 2.68492C13.8491 2.79125 14.0328 2.92388 14.1576 3.10168C14.2809 3.27743 14.3447 3.49348 14.3848 3.70146C14.4265 3.91769 14.4516 4.17707 14.4678 4.47489C14.5 5.06625 14.5 5.87639 14.5 6.9272V7.99489C14.5 12.0623 11.428 14.0123 9.60111 14.8104L9.58304 14.8183C9.35651 14.9172 9.14359 15.0103 8.89893 15.0729C8.64062 15.139 8.36617 15.1673 8 15.1673C7.63383 15.1673 7.35938 15.139 7.10107 15.0729C6.85641 15.0103 6.64348 14.9172 6.41695 14.8183L6.39889 14.8104C4.57202 14.0123 1.5 12.0623 1.5 7.99489V6.92725C1.5 5.87642 1.5 5.06626 1.5322 4.47489C1.54842 4.17707 1.57354 3.91769 1.61521 3.70146C1.65529 3.49348 1.71907 3.27743 1.84242 3.10168C1.96721 2.92388 2.1509 2.79125 2.33399 2.68492C2.52424 2.57443 2.76052 2.46629 3.03535 2.35464C3.58094 2.133 4.34308 1.87212 5.33063 1.53408L5.72989 1.39741C5.75878 1.38752 5.78734 1.37774 5.81559 1.36806Z" fill="#6A4BFF"/>
</svg>
