<svg width="16" height="16" viewBox="0 0 16 16" fill="none" xmlns="http://www.w3.org/2000/svg">
<path fill-rule="evenodd" clip-rule="evenodd" d="M8.03161 0.832032H7.96578C7.52255 0.832009 7.14062 0.831988 6.8348 0.873105C6.50704 0.917171 6.19287 1.01654 5.93804 1.27137C5.68321 1.52621 5.58383 1.84038 5.53977 2.16814C5.49865 2.47397 5.49867 2.85588 5.4987 3.29912L5.4987 4.91739C5.34231 4.86211 5.17402 4.83204 4.9987 4.83204H2.9987C2.17027 4.83204 1.4987 5.50361 1.4987 6.33204V14.1654H1.33203C1.05589 14.1654 0.832031 14.3892 0.832031 14.6654C0.832031 14.9415 1.05589 15.1654 1.33203 15.1654H14.6654C14.9415 15.1654 15.1654 14.9415 15.1654 14.6654C15.1654 14.3892 14.9415 14.1654 14.6654 14.1654H14.4987V9.66537C14.4987 8.83694 13.8271 8.16537 12.9987 8.16537H10.9987C10.8234 8.16537 10.6551 8.19545 10.4987 8.25072L10.4987 3.29912C10.4987 2.85588 10.4987 2.47397 10.4576 2.16814C10.4136 1.84038 10.3142 1.52621 10.0594 1.27137C9.80453 1.01654 9.49035 0.917171 9.16259 0.873105C8.85677 0.831988 8.47484 0.832009 8.03161 0.832032ZM13.4987 14.1654V9.66537C13.4987 9.38923 13.2748 9.16537 12.9987 9.16537H10.9987C10.7226 9.16537 10.4987 9.38923 10.4987 9.66537V14.1654H13.4987ZM9.4987 14.1654V3.33204C9.4987 2.8465 9.49764 2.53264 9.46654 2.30139C9.43739 2.08452 9.39031 2.01654 9.35225 1.97848C9.31419 1.94042 9.24621 1.89335 9.02935 1.86419C8.79809 1.8331 8.48424 1.83203 7.9987 1.83203C7.51316 1.83203 7.1993 1.8331 6.96805 1.86419C6.75118 1.89335 6.68321 1.94042 6.64514 1.97848C6.60708 2.01654 6.56001 2.08452 6.53085 2.30139C6.49976 2.53264 6.4987 2.8465 6.4987 3.33203V14.1654H9.4987ZM5.4987 14.1654V6.33204C5.4987 6.05589 5.27484 5.83204 4.9987 5.83204H2.9987C2.72256 5.83204 2.4987 6.05589 2.4987 6.33204V14.1654H5.4987Z" fill="#535D77"/>
</svg>
