<svg width="16" height="16" viewBox="0 0 16 16" fill="none" xmlns="http://www.w3.org/2000/svg">
<path d="M9.66797 4.33398H11.668M11.668 4.33398H13.668M11.668 4.33398V6.33398M11.668 4.33398V2.33398" stroke="#535D77" stroke-linecap="round"/>
<path d="M1.66797 4.33268C1.66797 3.0756 1.66797 2.44706 2.05849 2.05654C2.44902 1.66602 3.07756 1.66602 4.33464 1.66602C5.59171 1.66602 6.22025 1.66602 6.61078 2.05654C7.0013 2.44706 7.0013 3.0756 7.0013 4.33268C7.0013 5.58976 7.0013 6.2183 6.61078 6.60882C6.22025 6.99935 5.59171 6.99935 4.33464 6.99935C3.07756 6.99935 2.44902 6.99935 2.05849 6.60882C1.66797 6.2183 1.66797 5.58976 1.66797 4.33268Z" stroke="#535D77"/>
<path d="M9 11.6667C9 10.4096 9 9.78105 9.39052 9.39052C9.78105 9 10.4096 9 11.6667 9C12.9237 9 13.5523 9 13.9428 9.39052C14.3333 9.78105 14.3333 10.4096 14.3333 11.6667C14.3333 12.9237 14.3333 13.5523 13.9428 13.9428C13.5523 14.3333 12.9237 14.3333 11.6667 14.3333C10.4096 14.3333 9.78105 14.3333 9.39052 13.9428C9 13.5523 9 12.9237 9 11.6667Z" stroke="#535D77"/>
<path d="M1.66797 11.6667C1.66797 10.4096 1.66797 9.78105 2.05849 9.39052C2.44902 9 3.07756 9 4.33464 9C5.59171 9 6.22025 9 6.61078 9.39052C7.0013 9.78105 7.0013 10.4096 7.0013 11.6667C7.0013 12.9237 7.0013 13.5523 6.61078 13.9428C6.22025 14.3333 5.59171 14.3333 4.33464 14.3333C3.07756 14.3333 2.44902 14.3333 2.05849 13.9428C1.66797 13.5523 1.66797 12.9237 1.66797 11.6667Z" stroke="#535D77"/>
</svg>
