<svg width="16" height="16" viewBox="0 0 16 16" fill="none" xmlns="http://www.w3.org/2000/svg">
<path d="M6.07423 14.0063V13.5813C6.08361 13.547 6.09923 13.5157 6.10548 13.4813C6.24298 12.5876 6.98673 11.8813 7.85859 11.822C8.83359 11.7532 9.65859 12.3095 9.92734 13.2157C9.96172 13.3344 9.98672 13.4594 10.018 13.5813V14.0063C10.0086 14.0344 9.99297 14.0594 9.98984 14.0907C9.85547 14.9157 9.26172 15.5438 8.44922 15.7219C8.38672 15.7344 8.32422 15.7532 8.26172 15.7688H7.83672C7.80859 15.7594 7.78047 15.7438 7.75234 15.7407C6.93984 15.6094 6.32111 15.0313 6.13359 14.2282C6.11484 14.1501 6.09298 14.0782 6.07423 14.0063ZM10.018 1.99386L10.018 2.41889C10.0086 2.45326 9.99297 2.48451 9.98984 2.51889C9.84922 3.41889 9.10234 4.12201 8.22109 4.17826C7.24922 4.24076 6.42734 3.67826 6.16172 2.76889C6.12734 2.65325 6.10234 2.53451 6.07422 2.41887V1.99387C6.08359 1.96575 6.09922 1.94075 6.10547 1.91262C6.25547 1.10012 6.72734 0.568872 7.51484 0.315747C7.61797 0.281372 7.72734 0.262622 7.83359 0.234497H8.25859C8.28672 0.243872 8.31484 0.259497 8.34297 0.262622C9.15859 0.396997 9.77422 0.971997 9.96172 1.77512C9.98048 1.85012 9.99923 1.922 10.018 1.99386ZM10.018 7.78762V8.21262C10.0086 8.247 9.99297 8.27825 9.98672 8.31262C9.84609 9.2095 9.07109 9.93137 8.19609 9.96887C7.21172 10.0126 6.37734 9.41887 6.14297 8.50325C6.11797 8.40637 6.09609 8.3095 6.07422 8.21262V7.78762C6.08359 7.75325 6.09922 7.722 6.10547 7.68762C6.24297 6.79075 7.02109 6.06886 7.89609 6.02825C8.88047 5.98137 9.71484 6.57825 9.94922 7.49387C9.97422 7.59387 9.99609 7.69075 10.018 7.78762Z" fill="#092161"/>
</svg>
