<svg width="36" height="36" viewBox="0 0 36 36" fill="none" xmlns="http://www.w3.org/2000/svg">
<path d="M12.6182 28.008H22.2347C23.7782 28.008 25.2542 27.369 26.3117 26.2395L32.3732 19.764C33.0167 19.0755 33.0077 18.0045 32.3507 17.3295C31.6802 16.641 30.5687 16.6185 29.8712 17.28L25.2227 21.69C25.1057 22.8285 24.1517 23.7195 22.9862 23.7195H18.0047C17.7527 23.7195 17.5547 23.517 17.5547 23.2695C17.5547 23.022 17.7527 22.8195 18.0047 22.8195H23.4542C24.5027 22.806 24.6692 21.2445 23.6612 20.979C23.5127 20.943 23.3597 20.9205 23.1977 20.9205H18.7202C18.2747 20.9115 17.8607 20.799 17.5277 20.5875C15.4172 19.269 13.3472 18.8415 11.3762 19.323C8.72122 19.971 7.05622 22.068 6.51172 22.8555L12.3707 27.7515C12.4652 27.828 12.5462 27.9135 12.6182 28.008Z" fill="#6A4BFF"/>
<path d="M9.59483 31.0769C9.94133 31.3694 10.4543 31.3199 10.7423 30.9734L11.8988 29.5919C12.1868 29.2454 12.1418 28.7324 11.7953 28.4444L5.64383 23.3054C5.30183 23.0174 4.78433 23.0624 4.49633 23.4089L3.33983 24.7904C3.05183 25.1369 3.09683 25.6499 3.44333 25.9424L9.59483 31.0769Z" fill="#6A4BFF"/>
<path d="M14.6655 12.2714C14.8365 12.2714 15.003 12.2534 15.1605 12.2129V15.1919C15.1605 15.4394 15.363 15.6419 15.6105 15.6419H18.5895C18.549 15.7994 18.531 15.9659 18.531 16.1324C18.531 17.2844 19.467 18.2204 20.6145 18.2204C21.7665 18.2204 22.7025 17.2844 22.7025 16.1324C22.7025 15.9659 22.68 15.7994 22.644 15.6419H25.6185C25.866 15.6419 26.0685 15.4394 26.0685 15.1919V12.2129C26.2305 12.2534 26.397 12.2714 26.5635 12.2714C27.7155 12.2714 28.6515 11.3354 28.6515 10.1879C28.6515 9.03589 27.7155 8.09989 26.5635 8.09989C26.397 8.09989 26.2305 8.12239 26.0685 8.15839V5.18389C26.0685 4.93189 25.866 4.73389 25.6185 4.73389H22.0185C21.8565 4.73389 21.7035 4.81939 21.627 4.95889C21.546 5.10289 21.546 5.27389 21.6315 5.41339C21.744 5.59789 21.8025 5.80939 21.8025 6.02089C21.8025 6.67789 21.2715 7.20889 20.6145 7.20889C19.962 7.20889 19.431 6.67789 19.431 6.02089C19.431 5.80939 19.4895 5.59789 19.5975 5.41339C19.683 5.27389 19.6875 5.10289 19.6065 4.95889C19.5255 4.81939 19.377 4.73389 19.215 4.73389H15.6105C15.363 4.73389 15.1605 4.93189 15.1605 5.18389V8.15839C15.003 8.12239 14.8365 8.09989 14.6655 8.09989C13.518 8.09989 12.582 9.03589 12.582 10.1879C12.582 11.3354 13.518 12.2714 14.6655 12.2714Z" fill="#6A4BFF"/>
</svg>
