<svg width="36" height="36" viewBox="0 0 36 36" fill="none" xmlns="http://www.w3.org/2000/svg">
<g clip-path="url(#clip0_808_3311)">
<g clip-path="url(#clip1_808_3311)">
<path d="M27.3876 6.14686C27.3876 5.30227 27.058 4.50717 26.4607 3.9098L23.4779 0.927C22.8888 0.337852 22.0525 0 21.2203 0H21.0391V6.32812H27.3877L27.3876 6.14686Z" fill="#6A4BFF"/>
<path d="M19.2612 21.7643C19.4631 21.1515 19.8153 20.5809 20.2747 20.1184L27.4158 13.0061V8.4375H20.0048C19.4219 8.4375 18.9844 7.96577 18.9844 7.38281V0H3.16406C1.41933 0 0 1.41933 0 3.16406V32.8359C0 34.5807 1.41933 36 3.16406 36H24.2236C25.9683 36 27.4158 34.5807 27.4158 32.8359V24.9644L26.2567 26.0953C25.7871 26.5608 25.2371 26.8997 24.617 27.1067L21.2635 28.2263L20.7526 28.2542C19.908 28.2542 19.1088 27.8432 18.6124 27.1552C18.12 26.4703 17.9861 25.5824 18.2539 24.7801L19.2612 21.7643ZM5.27344 18.9844H15.7861C16.369 18.9844 16.8408 19.4561 16.8408 20.0391C16.8408 20.622 16.369 21.0938 15.7861 21.0938H5.27344C4.69048 21.0938 4.21875 20.622 4.21875 20.0391C4.21875 19.4561 4.69048 18.9844 5.27344 18.9844ZM4.21875 15.8203C4.21875 15.2374 4.69048 14.7656 5.27344 14.7656H15.7861C16.369 14.7656 16.8408 15.2374 16.8408 15.8203C16.8408 16.4033 16.369 16.875 15.7861 16.875H5.27344C4.69048 16.875 4.21875 16.4033 4.21875 15.8203ZM4.21875 24.2578C4.21875 23.6749 4.69048 23.2031 5.27344 23.2031H15.7861C16.369 23.2031 16.8408 23.6749 16.8408 24.2578C16.8408 24.8408 16.369 25.3125 15.7861 25.3125H5.27344C4.69048 25.3125 4.21875 24.8408 4.21875 24.2578ZM20.0048 29.5312C20.5878 29.5312 21.0595 30.003 21.0595 30.5859C21.0595 31.1689 20.5879 31.6406 20.0048 31.6406H13.6767C13.0937 31.6406 12.622 31.1689 12.622 30.5859C12.622 30.003 13.0937 29.5312 13.6767 29.5312H20.0048ZM5.27344 12.6562C4.69048 12.6562 4.21875 12.1845 4.21875 11.6016C4.21875 11.0186 4.69048 10.5469 5.27344 10.5469H20.0048C20.5878 10.5469 21.0595 11.0186 21.0595 11.6016C21.0595 12.1845 20.5878 12.6562 20.0048 12.6562H5.27344Z" fill="#6A4BFF"/>
<path d="M21.1721 22.6973L20.2546 25.4501C20.117 25.8625 20.5094 26.2547 20.9218 26.117L23.673 25.1981L21.1721 22.6973Z" fill="#6A4BFF"/>
<path d="M29.3641 14.0137L22.418 20.9598L25.4136 23.9554C26.9836 22.3852 30.0383 19.3301 32.3594 17.009L29.3641 14.0137Z" fill="#6A4BFF"/>
<path d="M35.3792 10.9886C35.0085 10.6158 34.4626 10.4026 33.8837 10.4026C33.3048 10.4026 32.759 10.6158 32.3861 10.9897L30.8535 12.5223L33.8487 15.5175C34.6877 14.6784 35.2677 14.0984 35.3814 13.9847C36.2053 13.1596 36.2052 11.8157 35.3792 10.9886Z" fill="#6A4BFF"/>
<path d="M35.3828 13.9845L35.383 13.9843C35.3856 13.9816 35.3868 13.9805 35.389 13.9783C35.3868 13.9805 35.3856 13.9817 35.3828 13.9845Z" fill="#6A4BFF"/>
<path d="M35.3887 13.9781C35.392 13.9747 35.396 13.9708 35.398 13.9688C35.3959 13.9709 35.392 13.9747 35.3887 13.9781Z" fill="#6A4BFF"/>
<path d="M35.3984 13.969C35.4053 13.9622 35.4054 13.9621 35.3984 13.969V13.969Z" fill="#6A4BFF"/>
</g>
</g>
<defs>
<clipPath id="clip0_808_3311">
<rect width="36" height="36" fill="white"/>
</clipPath>
<clipPath id="clip1_808_3311">
<rect width="36" height="36" fill="white"/>
</clipPath>
</defs>
</svg>
