<svg width="300" height="auto" viewBox="0 0 85 52" fill="none" xmlns="http://www.w3.org/2000/svg">
<rect x="61" width="24" height="24" rx="12" fill="#D4FFF3"/>
<path d="M79.1649 12.4187C79.1846 12.8891 79.0169 13.3481 78.6986 13.695C78.3803 14.0419 77.9374 14.2484 77.467 14.2691C77.4395 14.2704 77.4121 14.2711 77.3847 14.2711C77.2597 14.271 77.1351 14.2575 77.013 14.2307C76.6508 14.79 76.1758 15.2675 75.6185 15.6327C75.0611 15.9979 74.4337 16.2428 73.7763 16.3517C73.6986 16.5801 73.5434 16.7742 73.3378 16.9004C73.1321 17.0265 72.8888 17.0769 72.6499 17.0427C72.4111 17.0086 72.1916 16.892 72.0296 16.7132C71.8675 16.5344 71.7731 16.3047 71.7625 16.0636C71.7519 15.8225 71.8258 15.5853 71.9716 15.393C72.1173 15.2007 72.3256 15.0653 72.5606 15.0103C72.7955 14.9553 73.0423 14.9842 73.2583 15.0918C73.4742 15.1995 73.6458 15.3792 73.7433 15.5999C74.6688 15.4287 75.5049 14.9382 76.1059 14.2139C76.7068 13.4895 77.0346 12.5772 77.0319 11.636C77.0319 9.41244 75.2229 7.60343 72.9993 7.60343C70.7758 7.60343 68.9667 9.41244 68.9667 11.636C68.9666 12.3236 69.1423 12.9998 69.4772 13.6003C69.4886 13.6201 69.4971 13.6414 69.5025 13.6636C69.5349 13.7535 69.5314 13.8524 69.4929 13.9398C69.4543 14.0272 69.3836 14.0965 69.2955 14.1332C69.0795 14.2241 68.8476 14.2709 68.6133 14.2709C68.5857 14.2709 68.5581 14.2702 68.5304 14.269C68.0603 14.248 67.6176 14.0414 67.2996 13.6945C66.9815 13.3476 66.814 12.8887 66.8337 12.4185C66.8417 12.231 66.8372 12.0637 66.8329 11.9019C66.8289 11.7496 66.8247 11.5921 66.8316 11.4277C66.8522 10.9686 67.0497 10.5353 67.3827 10.2186C67.7157 9.90179 68.1583 9.72615 68.6179 9.72843C69.3559 8.03994 71.0419 6.85689 72.9993 6.85689C74.9568 6.85689 76.6428 8.03994 77.3808 9.72845C77.8404 9.72583 78.2832 9.90132 78.6162 10.2181C78.9493 10.5349 79.1467 10.9683 79.1671 11.4275C79.174 11.5921 79.1698 11.7496 79.1657 11.9019C79.1615 12.0637 79.157 12.2311 79.1649 12.4187ZM76.13 11.636C76.1298 12.1156 76.0195 12.5888 75.8075 13.019C75.5955 13.4493 75.2875 13.8251 74.9074 14.1175C74.5272 14.4098 74.0849 14.611 73.6147 14.7054C73.1444 14.7998 72.6588 14.785 72.1952 14.662L70.928 15.3938C70.8641 15.4307 70.7907 15.4479 70.717 15.443C70.6433 15.4382 70.5727 15.4117 70.5141 15.3667C70.4556 15.3218 70.4116 15.2605 70.3879 15.1905C70.3642 15.1206 70.3617 15.0452 70.3808 14.9739L70.7047 13.7658C70.1684 13.1861 69.87 12.4258 69.8688 11.636C69.8688 9.90932 71.2731 8.50466 72.9993 8.50466C74.7256 8.50466 76.13 9.90932 76.13 11.636ZM72.129 11.636C72.129 11.537 72.0897 11.4421 72.0197 11.3721C71.9497 11.3021 71.8547 11.2628 71.7557 11.2628H71.7551C71.6813 11.2629 71.6092 11.2849 71.5479 11.326C71.4866 11.3671 71.4389 11.4254 71.4107 11.4937C71.3826 11.5619 71.3753 11.6369 71.3898 11.7093C71.4043 11.7816 71.4399 11.8481 71.4921 11.9002C71.5443 11.9524 71.6108 11.9878 71.6832 12.0022C71.7556 12.0165 71.8306 12.0091 71.8988 11.9808C71.967 11.9525 72.0252 11.9047 72.0662 11.8433C72.1072 11.782 72.129 11.7098 72.129 11.636ZM73.3727 11.636C73.3727 11.6238 73.372 11.6116 73.3707 11.5994C73.3695 11.5872 73.3677 11.5751 73.3652 11.5631C73.363 11.5512 73.36 11.5394 73.3563 11.5278C73.3528 11.5161 73.3486 11.5046 73.3441 11.4932C73.3396 11.4817 73.3341 11.471 73.3284 11.4603C73.3227 11.4496 73.3165 11.4391 73.3098 11.429C73.303 11.4188 73.2956 11.4089 73.2878 11.3994C73.2802 11.3899 73.2719 11.3808 73.2632 11.3722C73.2548 11.3635 73.2456 11.3553 73.2361 11.3474C73.2266 11.3399 73.2167 11.3324 73.2065 11.3257C73.1963 11.319 73.1859 11.3127 73.1751 11.307C73.1644 11.3013 73.1532 11.2961 73.142 11.2914C73.1308 11.2867 73.1193 11.2826 73.1077 11.2792C73.0844 11.2717 73.0604 11.2669 73.036 11.2647C72.9995 11.2612 72.9626 11.263 72.9265 11.27C72.9145 11.2724 72.9027 11.2755 72.891 11.2792C72.8793 11.2826 72.8678 11.2867 72.8566 11.2914C72.8454 11.2961 72.8342 11.3013 72.8235 11.307C72.8128 11.3128 72.8024 11.319 72.7921 11.3257C72.7819 11.3324 72.772 11.3399 72.7628 11.3474C72.7531 11.3553 72.7441 11.3635 72.7354 11.3722C72.7267 11.3808 72.7185 11.3899 72.7108 11.3994C72.7031 11.4089 72.6959 11.4188 72.6892 11.429C72.6823 11.4391 72.676 11.4496 72.6702 11.4603C72.6645 11.471 72.6593 11.482 72.6548 11.4932C72.6501 11.5045 72.6459 11.516 72.6423 11.5278C72.6389 11.5392 72.6359 11.5512 72.6334 11.5631C72.631 11.5751 72.6291 11.5872 72.6279 11.5994C72.6267 11.6116 72.6262 11.6238 72.6262 11.636C72.6262 11.6482 72.6267 11.6607 72.6279 11.6729C72.6291 11.685 72.631 11.697 72.6334 11.7089C72.6359 11.7209 72.6389 11.7328 72.6423 11.7445C72.6459 11.7562 72.6501 11.7676 72.6548 11.7789C72.6593 11.7902 72.6645 11.8012 72.6702 11.812C72.6759 11.8227 72.6824 11.8331 72.6892 11.8433C72.6959 11.8535 72.7031 11.8633 72.7108 11.8727C72.7185 11.8822 72.7268 11.8914 72.7354 11.9001C72.7441 11.9085 72.7531 11.917 72.7628 11.9247C72.7722 11.9325 72.782 11.9397 72.7921 11.9463C72.8024 11.9531 72.8128 11.9595 72.8235 11.9653C72.8451 11.9765 72.8677 11.9858 72.891 11.9931C72.9026 11.9966 72.9146 11.9996 72.9265 12.0021C72.9505 12.007 72.975 12.0094 72.9994 12.0093C73.0983 12.009 73.1931 11.9698 73.2632 11.9001C73.2804 11.8826 73.296 11.8636 73.3098 11.8433C73.3165 11.8331 73.3227 11.8227 73.3284 11.812C73.3341 11.8013 73.3394 11.7901 73.3441 11.7789C73.3488 11.7677 73.3528 11.756 73.3563 11.7445C73.36 11.7329 73.363 11.721 73.3652 11.7089C73.3677 11.697 73.3695 11.685 73.3707 11.6729C73.372 11.6606 73.3727 11.6483 73.3727 11.636ZM74.6169 11.636C74.6169 11.537 74.5776 11.4421 74.5076 11.3721C74.4376 11.3021 74.3427 11.2628 74.2437 11.2628H74.2429C74.1691 11.2629 74.097 11.2849 74.0358 11.326C73.9745 11.3671 73.9267 11.4255 73.8986 11.4937C73.8705 11.5619 73.8632 11.6369 73.8776 11.7093C73.8921 11.7817 73.9277 11.8481 73.98 11.9002C74.0322 11.9524 74.0987 11.9878 74.1711 12.0022C74.2435 12.0165 74.3185 12.0091 74.3867 11.9808C74.4548 11.9525 74.5131 11.9047 74.5541 11.8433C74.5951 11.782 74.6169 11.7098 74.6169 11.636Z" fill="#00B783"/>
<rect y="28" width="24" height="24" rx="12" fill="#E4EEFF"/>
<g clip-path="url(#clip0_40_2)">
<path d="M7.67637 36.739C7.58706 36.5604 7.36983 36.4879 7.19122 36.5773L6.41658 36.9646C6.23795 37.0539 6.16556 37.2711 6.25487 37.4498C6.34448 37.629 6.562 37.7005 6.74003 37.6115L7.51466 37.2242C7.69327 37.1348 7.76567 36.9176 7.67637 36.739Z" fill="#0058E4"/>
<path d="M6.41657 34.513L7.1912 34.9003C7.36957 34.9895 7.5869 34.9176 7.67636 34.7386C7.76568 34.56 7.69328 34.3428 7.51465 34.2535L6.74001 33.8662C6.56138 33.7768 6.3442 33.8493 6.25486 34.0279C6.16557 34.2065 6.23796 34.4237 6.41657 34.513Z" fill="#0058E4"/>
<path d="M16.4877 37.2241L17.2623 37.6114C17.4407 37.7006 17.658 37.6286 17.7475 37.4497C17.8368 37.2711 17.7644 37.0539 17.5858 36.9645L16.8111 36.5772C16.6326 36.488 16.4153 36.5603 16.326 36.739C16.2367 36.9176 16.3091 37.1348 16.4877 37.2241Z" fill="#0058E4"/>
<path d="M16.8111 34.9004L17.5858 34.513C17.7644 34.4237 17.8368 34.2065 17.7475 34.0279C17.6582 33.8492 17.441 33.7768 17.2623 33.8662L16.4877 34.2535C16.3091 34.3428 16.2367 34.56 16.326 34.7386C16.4156 34.9179 16.6332 34.9893 16.8111 34.9004Z" fill="#0058E4"/>
<path d="M8.33797 41.5053C9.0629 41.3878 9.55531 40.7048 9.43779 39.9799C9.32027 39.255 8.63733 38.7625 7.9124 38.8801C7.18747 38.9976 6.69506 39.6805 6.81258 40.4055C6.9301 41.1304 7.61304 41.6228 8.33797 41.5053Z" fill="#0058E4"/>
<path d="M16.0853 41.5068C16.8102 41.3893 17.3026 40.7063 17.1851 39.9814C17.0676 39.2564 16.3846 38.764 15.6597 38.8815C14.9348 38.999 14.4424 39.682 14.5599 40.4069C14.6774 41.1319 15.3604 41.6243 16.0853 41.5068Z" fill="#0058E4"/>
<path d="M10.1476 42.2829L10.166 42.2755C10.1223 42.1889 10.0845 42.0988 10.0533 42.0057C9.95487 41.9167 9.83975 41.8439 9.711 41.7924L9.50703 41.7108C9.14229 42.0429 8.65802 42.2458 8.12697 42.2458C7.59586 42.2458 7.11124 42.0431 6.74635 41.711L6.54293 41.7924C6.10908 41.9659 5.82874 42.38 5.82874 42.8474V45.8089C5.82874 46.0086 5.99064 46.1705 6.19034 46.1705H9.04094C9.0008 46.0573 8.97874 45.9356 8.97874 45.8089V44.0094C8.97874 43.2445 9.43755 42.5668 10.1476 42.2829Z" fill="#0058E4"/>
<path d="M17.4568 41.7924L17.2534 41.711C16.8885 42.0431 16.4039 42.2458 15.8728 42.2458C15.3418 42.2458 14.8575 42.0429 14.4928 41.7108L14.2888 41.7924C14.16 41.8439 14.0449 41.9167 13.9465 42.0057C13.9152 42.0988 13.8775 42.1889 13.8338 42.2755L13.8523 42.2829C14.5622 42.5668 15.0211 43.2445 15.0211 44.0094V45.8089C15.0211 45.9356 14.999 46.0573 14.9589 46.1705H17.8094C18.0091 46.1705 18.171 46.0086 18.171 45.8089V42.8474C18.171 42.38 17.8907 41.9659 17.4568 41.7924Z" fill="#0058E4"/>
<path d="M13.584 42.9544L13.3806 42.873C13.0157 43.2051 12.5311 43.4078 12 43.4078C11.4689 43.4078 10.9843 43.2051 10.6194 42.873L10.416 42.9544C9.98212 43.1279 9.70178 43.542 9.70178 44.0094V45.8089C9.70178 46.0086 9.86369 46.1705 10.0634 46.1705H13.9366C14.1363 46.1705 14.2982 46.0086 14.2982 45.8089V44.0094C14.2982 43.542 14.0179 43.1279 13.584 42.9544Z" fill="#0058E4"/>
<path d="M12.211 42.6678C12.936 42.5503 13.4284 41.8673 13.3108 41.1424C13.1933 40.4174 12.5104 39.925 11.7854 40.0425C11.0605 40.1601 10.5681 40.843 10.6856 41.568C10.8031 42.2929 11.4861 42.7853 12.211 42.6678Z" fill="#0058E4"/>
<path d="M11.7453 39.0923C11.8131 39.1601 11.9051 39.1982 12.001 39.1982C12.0969 39.1982 12.1889 39.1601 12.2567 39.0923L14.832 36.5169C15.4463 35.9025 15.4463 34.903 14.832 34.2887C14.2176 33.6743 13.2181 33.6743 12.6038 34.2886L12.001 34.8913L11.3982 34.2886C10.7839 33.6743 9.78428 33.6743 9.17003 34.2886C8.55349 34.9049 8.55453 35.9016 9.16998 36.5169L11.7453 39.0923Z" fill="#0058E4"/>
</g>
<defs>
<clipPath id="clip0_40_2">
<rect width="12.3429" height="12.3429" fill="white" transform="translate(5.8291 33.8286)"/>
</clipPath>
</defs>
</svg>
