<svg width="21" height="21" viewBox="0 0 21 21" fill="none" xmlns="http://www.w3.org/2000/svg">
<path d="M12.2293 9.54386C12.1697 9.50341 12.0881 9.51973 12.0477 9.58005C11.8107 9.93697 11.3075 9.95613 11.2813 9.95613C11.2763 9.95613 11.2742 9.95613 11.2692 9.95613C10.649 9.95613 10.412 10.4855 10.4028 10.5068C10.3744 10.5735 10.4049 10.6501 10.4695 10.6792C10.4865 10.6863 10.5057 10.6913 10.522 10.6913C10.5724 10.6913 10.62 10.6629 10.6419 10.6125C10.6441 10.6075 10.8073 10.2435 11.2259 10.2201V10.8978C11.2089 11.0439 11.1401 11.1589 11.0173 11.2448C10.8903 11.3335 10.7207 11.3789 10.5121 11.3789C10.263 11.3789 10.0594 11.293 9.90894 11.1227C9.75566 10.9524 9.67903 10.7111 9.67903 10.3996L9.68116 9.65243C9.69322 9.3771 9.76702 9.15926 9.90894 9.00386C10.0622 8.83355 10.263 8.74769 10.5121 8.74769C10.7207 8.74769 10.8903 8.79311 11.0173 8.88181C11.1443 8.9705 11.216 9.09256 11.2281 9.25079C11.2281 9.25576 11.2281 9.26286 11.2281 9.26783C11.2281 9.35865 11.3026 9.43316 11.3934 9.43316C11.4842 9.43316 11.5587 9.35865 11.5587 9.26783C11.5587 9.26286 11.5587 9.25576 11.5587 9.25079C11.5346 9.01379 11.4268 8.82717 11.233 8.68596C11.0393 8.54333 10.7981 8.47379 10.5057 8.47379C10.1587 8.47379 9.87842 8.58874 9.66555 8.81581C9.46473 9.02869 9.359 9.30898 9.34694 9.65384C9.34694 9.67797 9.34481 9.70139 9.34481 9.72551L9.34694 10.3982H9.34481C9.34481 10.7786 9.45267 11.083 9.66555 11.31C9.87842 11.5371 10.1587 11.6521 10.5057 11.6521C10.7981 11.6521 11.0393 11.5825 11.2338 11.4413C11.4111 11.3122 11.5162 11.1419 11.5524 10.9311L11.5595 10.1797C11.7773 10.1271 12.0739 10.0072 12.2612 9.7248C12.3081 9.66591 12.2918 9.5843 12.2293 9.54386ZM14.5348 1.84688H16.3712C16.4528 1.84688 16.5195 1.78018 16.5195 1.69858C16.5195 1.61697 16.4528 1.55027 16.3712 1.55027H14.5348C14.4532 1.55027 14.3865 1.61697 14.3865 1.69858C14.3865 1.78018 14.4532 1.84688 14.5348 1.84688ZM4.69767 1.84688H6.53411C6.61571 1.84688 6.68241 1.78018 6.68241 1.69858C6.68241 1.61697 6.615 1.55027 6.53411 1.55027H4.69767C4.61607 1.55027 4.54937 1.61697 4.54937 1.69858C4.54937 1.78018 4.61394 1.84688 4.69767 1.84688ZM16.4649 3.039C16.5472 3.039 16.6132 3.1057 16.6132 3.18731C16.6132 3.26962 16.5465 3.33561 16.4649 3.33561C16.3826 3.33561 16.3166 3.26891 16.3166 3.18731C16.3159 3.1057 16.3826 3.039 16.4649 3.039ZM10.4915 2.57209C10.5738 2.57209 10.6398 2.63879 10.6398 2.72039C10.6398 2.802 10.5731 2.8687 10.4915 2.8687C10.4099 2.8687 10.3432 2.802 10.3432 2.72039C10.3432 2.63879 10.4092 2.57209 10.4915 2.57209ZM7.73829 3.19015C7.74042 3.19015 7.74325 3.19015 7.74538 3.19015C8.30312 3.19015 8.55219 2.84032 8.74165 2.51532C8.8041 2.40746 9.03401 2.04841 9.359 1.95545C9.76134 1.83837 10.1899 2.02499 10.3574 2.39114C10.3815 2.44365 10.434 2.47487 10.4865 2.477C10.4887 2.477 10.4915 2.477 10.4936 2.477C10.4958 2.477 10.4986 2.477 10.5029 2.477C10.5554 2.47487 10.6079 2.44365 10.632 2.39114C10.7995 2.02499 11.2281 1.83837 11.6304 1.95545C11.9561 2.05125 12.186 2.40817 12.2478 2.51532C12.4372 2.84315 12.6856 3.19015 13.2511 3.19015C13.591 3.19015 13.9934 2.93611 14.1055 2.45004C14.1991 2.0477 14.0267 1.68368 13.6506 1.49989C13.5761 1.4637 13.4881 1.49279 13.4519 1.56659C13.4158 1.6411 13.4448 1.72909 13.5186 1.76528C13.8756 1.94268 13.8443 2.25632 13.8153 2.38263C13.7578 2.63169 13.5378 2.89495 13.2476 2.89495C12.8765 2.89495 12.6991 2.70833 12.5004 2.3656C12.4025 2.19813 12.1293 1.79082 11.7106 1.66877C11.2536 1.53466 10.7697 1.69503 10.4922 2.04699C10.2148 1.69503 9.73083 1.53466 9.27385 1.66877C8.85519 1.79082 8.582 2.19813 8.48407 2.3656C8.28538 2.70762 8.10799 2.89495 7.74396 2.89495C7.74184 2.89495 7.739 2.89495 7.739 2.89495C7.42323 2.89283 7.2217 2.67214 7.16422 2.4543C7.13584 2.3514 7.07553 1.99945 7.47787 1.76031C7.54741 1.71987 7.57153 1.62833 7.52825 1.55666C7.48638 1.48783 7.39839 1.4637 7.32601 1.50699C6.86407 1.78231 6.7924 2.218 6.87826 2.53377C6.98399 2.92405 7.33098 3.18731 7.73829 3.19015ZM4.46564 3.039C4.54795 3.039 4.61394 3.1057 4.61394 3.18731C4.61394 3.26962 4.54724 3.33561 4.46564 3.33561C4.38403 3.33561 4.31662 3.26962 4.31662 3.18731C4.31662 3.1057 4.38332 3.039 4.46564 3.039ZM4.0491 1.5524C4.13142 1.5524 4.19741 1.6191 4.19741 1.70071C4.19741 1.78231 4.13071 1.84901 4.0491 1.84901C3.9675 1.84901 3.90009 1.78302 3.90009 1.70071C3.90009 1.61839 3.96679 1.5524 4.0491 1.5524ZM16.9914 1.5524C17.0737 1.5524 17.1397 1.6191 17.1397 1.70071C17.1397 1.78231 17.073 1.84901 16.9914 1.84901C16.9098 1.84901 16.8431 1.78231 16.8431 1.70071C16.8431 1.6191 16.9091 1.5524 16.9914 1.5524ZM17.7861 11.0638C17.8685 11.0638 17.9345 11.1305 17.9345 11.2121C17.9345 11.2944 17.8678 11.3604 17.7861 11.3604C17.7038 11.3604 17.6378 11.2937 17.6378 11.2121C17.6378 11.1305 17.7038 11.0638 17.7861 11.0638ZM17.1901 14.4592C17.2724 14.4592 17.3384 14.5259 17.3384 14.6075C17.3384 14.6898 17.2717 14.7558 17.1901 14.7558C17.1085 14.7558 17.0418 14.6891 17.0418 14.6075C17.0418 14.5252 17.1078 14.4592 17.1901 14.4592ZM16.2371 14.8829C16.3194 14.8829 16.3854 14.9496 16.3854 15.0312C16.3854 15.1135 16.3187 15.1795 16.2371 15.1795C16.1548 15.1795 16.0888 15.1128 16.0888 15.0312C16.0888 14.9488 16.1555 14.8829 16.2371 14.8829ZM7.4289 2.25632C7.4289 2.47629 7.60843 2.65582 7.82841 2.65582C8.04838 2.65582 8.22791 2.47629 8.22791 2.25632C8.22791 2.03634 8.04909 1.85611 7.82911 1.85611C7.60914 1.85398 7.4289 2.03351 7.4289 2.25632ZM7.82911 2.15059C7.88659 2.15059 7.93413 2.19813 7.93413 2.25561C7.93413 2.31309 7.88659 2.36063 7.82911 2.36063C7.77164 2.36063 7.7241 2.31309 7.7241 2.25561C7.72339 2.19884 7.77164 2.15059 7.82911 2.15059ZM13.2156 2.65582C13.4356 2.65582 13.6152 2.47629 13.6152 2.25632C13.6152 2.03634 13.4356 1.85682 13.2156 1.85682C12.9957 1.85682 12.8161 2.03634 12.8161 2.25632C12.8161 2.47629 12.9957 2.65582 13.2156 2.65582ZM13.2156 2.15059C13.2731 2.15059 13.3207 2.19813 13.3207 2.25561C13.3207 2.31309 13.2731 2.36063 13.2156 2.36063C13.1582 2.36063 13.1106 2.31309 13.1106 2.25561C13.1106 2.19884 13.1582 2.15059 13.2156 2.15059ZM10.896 2.50539C10.8193 2.53377 10.781 2.61821 10.8101 2.69485C10.8385 2.77148 10.9229 2.8098 10.9996 2.78355C11.0237 2.77432 11.5978 2.58273 12.0384 3.26749C12.0668 3.31078 12.1151 3.33419 12.1626 3.33419C12.1889 3.33419 12.218 3.3271 12.2414 3.31007C12.3109 3.26678 12.3301 3.17383 12.2868 3.10641C11.827 2.3954 11.1763 2.4025 10.896 2.50539ZM10.0963 2.50539C10.075 2.49829 9.87842 2.42875 9.6102 2.4692C9.36113 2.50539 9.0042 2.6466 8.70759 3.10854C8.66431 3.17808 8.68347 3.26891 8.75301 3.3122C8.77713 3.32923 8.80552 3.33632 8.83177 3.33632C8.87932 3.33632 8.92757 3.3122 8.95595 3.26962C9.39377 2.58486 9.96854 2.77645 9.9948 2.78568C10.0714 2.81406 10.1552 2.77361 10.1843 2.69698C10.2134 2.62034 10.1729 2.53377 10.0963 2.50539ZM16.9077 2.90986L17.6286 2.09098V3.27104C17.6286 3.35264 17.6953 3.41934 17.7769 3.41934C17.8585 3.41934 17.9252 3.35264 17.9252 3.27104V1.70071C17.9252 1.63826 17.8869 1.58362 17.8294 1.56163C17.772 1.53963 17.7074 1.55666 17.6669 1.60207L16.6877 2.71543C16.6323 2.77787 16.6402 2.87083 16.7019 2.92405C16.7594 2.9794 16.8523 2.9723 16.9077 2.90986ZM3.23733 3.42218C3.31893 3.42218 3.38563 3.35548 3.38563 3.27388V2.09311L4.10658 2.91198C4.16122 2.97443 4.25489 2.9794 4.31449 2.92689C4.37694 2.87154 4.38119 2.77858 4.32868 2.71827L3.34944 1.60278C3.309 1.55737 3.24442 1.54034 3.18695 1.56163C3.12947 1.58362 3.09115 1.63826 3.09115 1.70071V3.27388C3.09115 3.35477 3.15572 3.42218 3.23733 3.42218ZM13.6897 3.56836C13.6201 3.56339 13.5555 3.61165 13.5385 3.67835C13.5215 3.74789 13.5555 3.81956 13.6173 3.84865C13.8522 3.95864 14.065 4.00192 14.2566 4.00192C14.6228 4.00192 14.9151 3.84155 15.1188 3.67409C15.4445 3.40586 15.612 3.0681 15.619 3.0539C15.6524 2.98436 15.6283 2.90063 15.5616 2.86231C15.4104 2.77361 15.15 2.71897 14.7526 2.96024C14.5539 3.08229 14.4007 3.22846 14.3744 3.25472C14.0104 3.57546 13.7067 3.56836 13.6897 3.56836ZM14.5731 3.47469C14.5752 3.47256 14.5781 3.46973 14.5802 3.4676C14.693 3.35477 15.0109 3.09435 15.26 3.08229C15.1883 3.18518 15.0805 3.32426 14.9343 3.44631C14.7186 3.62371 14.4887 3.70957 14.2446 3.7046C14.346 3.65209 14.4581 3.57546 14.5731 3.47469ZM5.50164 2.8616C5.43494 2.89992 5.41082 2.98436 5.44488 3.05319C5.45197 3.06739 5.61944 3.40515 5.94514 3.67338C6.1488 3.84084 6.43831 4.00121 6.8073 4.00121C7.00102 4.00121 7.21461 3.95793 7.44664 3.84794C7.51122 3.81672 7.54244 3.74718 7.52541 3.67764C7.50838 3.60881 7.44593 3.56339 7.37427 3.56552C7.3622 3.56552 7.05566 3.57475 6.69163 3.25401C6.66538 3.22846 6.51211 3.08229 6.31342 2.96024C5.91605 2.72039 5.65279 2.77574 5.50164 2.8616ZM6.49295 3.47469C6.60577 3.57546 6.71789 3.64925 6.82078 3.7046C6.30349 3.70957 5.96146 3.31432 5.80535 3.08229C6.05442 3.09435 6.37303 3.35548 6.48514 3.4676C6.48869 3.46973 6.49082 3.47256 6.49295 3.47469ZM17.9607 15.5052C17.8124 15.381 17.6492 15.3086 17.4988 15.2682C17.5562 15.2249 17.6116 15.1745 17.6591 15.1199C18.0253 14.6891 18.0281 14.0548 17.6641 13.6425C17.6088 13.58 17.5158 13.5758 17.4555 13.6304C17.393 13.6858 17.3888 13.7787 17.4434 13.839C17.7095 14.1406 17.7045 14.6075 17.4342 14.9283C17.2142 15.1866 16.7948 15.249 16.6707 15.2632C16.2946 15.3036 15.8731 15.3902 15.646 15.9047C15.6098 15.9834 15.5885 16.0721 15.5836 16.1679C15.5311 16.1509 15.4736 16.1417 15.4161 16.1417C15.1167 16.1417 14.8726 16.3858 14.8726 16.6852C14.8726 16.891 14.9875 17.0705 15.1571 17.1614C15.1067 17.2068 15.0592 17.2572 15.0159 17.3146C14.5128 16.637 13.7088 16.2112 12.8232 16.2112C12.6962 16.2112 12.5692 16.2204 12.4472 16.2375C13.1752 16.0147 13.8522 15.6677 14.4702 15.2078C15.2678 14.6118 15.9306 13.8334 16.3854 12.9598C16.8644 12.0402 17.1064 11.0468 17.1064 10.0129C17.1064 10.0058 17.1064 10.0008 17.1064 9.99374C17.1064 9.99161 17.1064 9.99161 17.1064 9.98877C17.1064 9.98594 17.1064 9.98381 17.1064 9.98168C17.1014 9.14152 16.9148 8.38509 16.6494 7.73368C16.7473 7.75284 16.841 7.75994 16.9247 7.75994C17.5449 7.75994 17.8174 7.33347 17.8465 7.2838C17.9806 7.05886 18.0019 6.78566 17.9252 6.53943C17.9274 6.53234 17.9274 6.5224 17.9274 6.51318V3.81459C17.9274 3.73299 17.8607 3.66628 17.7791 3.66628C17.6974 3.66628 17.6307 3.73299 17.6307 3.81459V6.08174C17.3796 5.8639 17.0155 5.83977 16.8644 5.83977C16.572 5.8419 16.3904 5.79649 16.2563 5.56658C16.1434 5.37286 16.2087 5.17133 16.3208 5.05638C16.462 4.91304 16.6629 4.89388 16.8594 5.00103C16.9311 5.03935 17.0219 5.01522 17.0602 4.94355C17.0986 4.87189 17.0744 4.78106 17.0028 4.74274C16.6912 4.57031 16.3421 4.61359 16.1101 4.84776C15.8802 5.08263 15.8369 5.42963 16.0001 5.71205C16.213 6.0782 16.5366 6.13071 16.8545 6.13071C16.8594 6.13071 16.8615 6.13071 16.8665 6.13071C16.9623 6.13071 17.271 6.1449 17.4484 6.31236C17.6783 6.53021 17.7379 6.87223 17.5875 7.12627C17.5875 7.12627 17.5853 7.1284 17.5853 7.13124C17.5733 7.15252 17.2887 7.63647 16.494 7.38243C16.2548 6.87507 15.9767 6.44364 15.7184 6.09948L15.6006 6.1896L15.7177 6.09877L15.6701 6.03633C15.1599 5.18198 15.7489 4.27157 16.0554 3.88626L16.2279 3.6897C16.2804 3.62726 16.2754 3.5343 16.2137 3.48108C16.1541 3.4307 16.0675 3.43354 16.0129 3.48818C16.0079 3.49314 15.9816 3.5194 15.9412 3.56481C15.6751 3.83517 14.6363 4.79312 13.6286 4.29286L13.6002 4.2737L13.5861 4.26447C12.6835 3.7784 11.7929 3.49811 10.9428 3.42644C10.8328 3.17524 10.6867 2.98365 10.5022 2.98365C10.3155 2.98365 10.1694 3.17737 10.0565 3.43354C8.86654 3.48605 7.38704 4.25454 7.32459 4.28576C6.31129 4.79667 5.26748 3.83375 5.00138 3.56339C4.96093 3.51798 4.93184 3.49172 4.92971 3.48676C4.87436 3.43141 4.7885 3.42928 4.7289 3.47966C4.66645 3.53217 4.66219 3.62584 4.7147 3.68828L4.8992 3.8969C5.00635 4.03031 5.14259 4.22403 5.25754 4.45606C5.54493 5.03793 5.5499 5.56658 5.27457 6.03136C4.93184 6.45783 4.65439 6.90558 4.44151 7.37747C3.63967 7.6386 3.35228 7.14968 3.34022 7.1284C3.34022 7.12627 3.33809 7.12627 3.33809 7.12343C3.18695 6.86939 3.24655 6.52737 3.47646 6.30952C3.65386 6.14206 3.96253 6.12787 4.05833 6.12787H4.06046C4.38119 6.12787 4.71187 6.07749 4.92474 5.70921C5.08795 5.42608 5.04467 5.07625 4.81476 4.84421C4.58272 4.60721 4.23289 4.56676 3.92209 4.73919C3.84971 4.77751 3.82345 4.86834 3.86461 4.94001C3.90293 5.01168 3.99376 5.03793 4.06542 4.99748C4.26411 4.88963 4.46493 4.90878 4.60401 5.05283C4.71683 5.16779 4.77928 5.3686 4.66858 5.56232C4.53731 5.7901 4.35778 5.83552 4.07039 5.83552C4.06826 5.83552 4.06542 5.83552 4.06117 5.83552C3.92918 5.83552 3.62335 5.85467 3.37854 6.01291V3.85078C3.37854 3.76918 3.31184 3.70247 3.23023 3.70247C3.14863 3.70247 3.08193 3.76918 3.08193 3.85078V6.34075C2.91872 6.63239 2.90949 6.98932 3.07696 7.2767C3.09328 7.30792 3.19617 7.48036 3.42608 7.6095C3.55806 7.6833 3.74682 7.75284 3.99872 7.75284C4.08955 7.75284 4.19031 7.74362 4.29817 7.72162C4.03988 8.4156 3.91002 9.16281 3.90577 9.97671C3.90577 9.97884 3.90577 9.97884 3.90577 9.98168V9.98381C3.90577 9.9909 3.90577 9.998 3.90577 10.003C3.90577 11.4732 4.42306 12.9166 5.36114 14.0682C6.19208 15.0879 7.32175 15.8444 8.57419 16.2304C8.4422 16.2112 8.30809 16.202 8.17469 16.202C7.29621 16.202 6.49863 16.6206 5.99623 17.2891C5.95579 17.2366 5.91037 17.1862 5.85999 17.1429C6.01823 17.0471 6.12609 16.8747 6.12609 16.676C6.12609 16.3765 5.88199 16.1324 5.58254 16.1324C5.52719 16.1324 5.47468 16.1417 5.4243 16.1566C5.4172 16.0629 5.39591 15.9749 5.36185 15.8954C5.13195 15.381 4.71328 15.2944 4.3372 15.254C4.21302 15.2398 3.79365 15.1773 3.57368 14.919C3.29622 14.6054 3.29126 14.1385 3.55665 13.8369C3.61199 13.7745 3.60419 13.6815 3.54458 13.6283C3.48214 13.5729 3.38918 13.5807 3.33596 13.6404C2.97478 14.0519 2.97691 14.6863 3.34093 15.1177C3.38847 15.1752 3.44382 15.2227 3.5013 15.266C3.35015 15.3065 3.18766 15.381 3.03935 15.503C2.68739 15.7926 2.50786 16.2765 2.5029 16.935C2.49083 16.9946 2.51709 17.057 2.5696 17.0904C2.59373 17.1046 2.61998 17.1117 2.64624 17.1117C2.65546 17.1117 2.66752 17.1096 2.67746 17.1067H2.67959C2.68455 17.1067 2.68668 17.1046 2.69165 17.1018C2.69875 17.0996 2.70868 17.0968 2.71578 17.0925C2.7179 17.0925 2.7179 17.0904 2.72074 17.0904C2.74487 17.0762 2.76616 17.057 2.78035 17.0329C2.83783 16.9584 3.07483 16.8655 3.27139 16.8243C4.03988 16.6568 4.20025 16.1374 4.17612 15.8883C4.16903 15.8067 4.09736 15.7471 4.01575 15.7542C3.93415 15.7613 3.87454 15.833 3.88164 15.9146C3.88164 15.9167 3.88377 15.96 3.86958 16.0246C3.83339 16.1729 3.70211 16.4291 3.20894 16.5369C3.20682 16.5369 3.20682 16.5369 3.20398 16.5369C3.1465 16.549 2.97407 16.5894 2.8137 16.6639C2.85698 16.2375 2.99323 15.9267 3.22526 15.7329C3.58219 15.4363 4.05336 15.5201 4.05833 15.5222C4.07536 15.5243 4.08955 15.5243 4.10374 15.5222C4.18251 15.5392 4.24992 15.5485 4.3003 15.5534C4.69555 15.5967 4.93681 15.6826 5.08795 16.0203C5.20503 16.2864 5.0546 16.5923 4.85095 16.7455C4.74805 16.8243 4.47273 16.9804 4.16406 16.7264C4.10161 16.6739 4.00866 16.6831 3.95544 16.7455C3.90293 16.808 3.91215 16.9009 3.9746 16.9542C4.11368 17.0691 4.26908 17.1358 4.42945 17.155C4.22366 17.3224 4.08458 17.5332 4.02214 17.6432C3.82132 17.9902 3.65812 18.1768 3.38776 18.1796V17.1429C3.38776 17.0613 3.32106 16.9946 3.23946 16.9946C3.15785 16.9946 3.09115 17.0613 3.09115 17.1429V18.345C3.09115 18.4046 3.12734 18.455 3.17701 18.4791C3.20327 18.4982 3.23449 18.5124 3.26784 18.5124H6.71505C6.76756 18.5124 6.81085 18.4862 6.83923 18.4457C6.85839 18.4266 6.87542 18.4024 6.88252 18.3741C7.01876 17.8447 7.49561 17.4764 8.04128 17.4764C8.52949 17.4764 8.96305 17.773 9.14754 18.2165H8.83248C8.70334 17.8979 8.39182 17.685 8.03986 17.685C7.65455 17.685 7.31466 17.9462 7.21177 18.3173C7.19048 18.3961 7.23802 18.4777 7.31466 18.4989C7.39342 18.5202 7.47503 18.4727 7.49632 18.3961C7.56302 18.152 7.78583 17.9817 8.03774 17.9817C8.22436 17.9817 8.39182 18.0725 8.49471 18.2165H8.40814C8.32654 18.2165 8.25984 18.2832 8.25984 18.3648C8.25984 18.4464 8.32654 18.5131 8.40814 18.5131H8.70759C8.71256 18.5124 8.71966 18.5146 8.72462 18.5146C8.73172 18.5146 8.73882 18.5146 8.74378 18.5124H9.33771C9.41932 18.5124 9.48602 18.4457 9.48602 18.3641C9.48602 18.357 9.48602 18.3499 9.48389 18.3428C9.48602 18.3237 9.48602 18.3024 9.48176 18.2804C9.3072 17.6318 8.71327 17.1791 8.04057 17.1791C7.38917 17.1791 6.81723 17.6006 6.61855 18.2158H5.84509C5.90753 18.0171 5.99126 17.8326 6.09628 17.6602C6.10338 17.651 6.10835 17.641 6.11544 17.6318C6.55326 16.9449 7.31963 16.5043 8.16972 16.5043C8.67282 16.5043 9.15606 16.6575 9.56549 16.9449C9.57756 16.952 9.58962 16.9591 9.60168 16.962C9.66413 17.0365 9.72586 17.1152 9.78618 17.1968C9.80037 17.216 9.81243 17.2352 9.82662 17.2543C9.81243 17.558 9.97777 17.8766 10.3198 18.2023C10.3319 18.2385 10.3439 18.269 10.351 18.2932V18.3244C10.351 18.406 10.4177 18.4727 10.4993 18.4727C10.5689 18.4727 10.6235 18.4273 10.6405 18.3627C10.6405 18.3606 10.6618 18.2882 10.7051 18.169C11.0138 17.8674 11.167 17.5729 11.1649 17.2877C11.1841 17.2593 11.2054 17.2281 11.2274 17.199C11.2941 17.1081 11.3636 17.0194 11.436 16.9357C11.8433 16.6533 12.3194 16.505 12.8176 16.505C13.8905 16.505 14.8286 17.2039 15.1401 18.2165H14.3666C14.1701 17.6013 13.5981 17.1798 12.9446 17.1798C12.2719 17.1798 11.6808 17.6325 11.5034 18.2811C11.4963 18.3052 11.4963 18.3286 11.5034 18.3528C11.5034 18.3577 11.5034 18.3599 11.5034 18.3648C11.5034 18.4464 11.5701 18.5131 11.6517 18.5131H12.9496C13.0312 18.5131 13.0979 18.4464 13.0979 18.3648C13.0979 18.2832 13.0312 18.2165 12.9496 18.2165H12.4777C12.5806 18.0732 12.748 17.9817 12.9346 17.9817C13.1908 17.9817 13.4136 18.1541 13.4782 18.4031C13.4952 18.4699 13.5548 18.5131 13.6215 18.5131C13.6336 18.5131 13.6457 18.511 13.6577 18.5082C13.7365 18.489 13.7847 18.4074 13.7656 18.3286C13.6677 17.9504 13.3278 17.6843 12.9346 17.6843C12.5848 17.6843 12.274 17.8972 12.142 18.2158H11.8426C12.0242 17.773 12.4599 17.4757 12.9488 17.4757C13.4945 17.4757 13.9714 17.8447 14.1076 18.3733C14.1097 18.3854 14.1168 18.3975 14.1218 18.4095C14.141 18.4691 14.1963 18.5124 14.263 18.5124H17.7755C17.8571 18.5124 17.9238 18.4457 17.9238 18.3641C17.9238 18.362 17.9238 18.357 17.9238 18.3549C17.9238 18.3528 17.9238 18.3478 17.9238 18.3457V18.3173C17.9259 18.3031 17.9259 18.2889 17.9259 18.274C17.9259 18.2719 17.9259 18.269 17.9238 18.2669V17.1443C17.9238 17.0627 17.8571 16.996 17.7755 16.996C17.6939 16.996 17.6272 17.0627 17.6272 17.1443V18.1498C17.3781 18.1307 17.2227 17.9462 17.0311 17.6162C16.9687 17.5112 16.8396 17.3125 16.648 17.1493C16.7799 17.1209 16.9063 17.0585 17.024 16.9598C17.0865 16.9073 17.0957 16.8137 17.0432 16.7512C16.9907 16.6888 16.897 16.6795 16.8346 16.7321C16.528 16.9861 16.2527 16.83 16.1477 16.7512C15.944 16.5979 15.7936 16.2893 15.9107 16.026C16.0618 15.6882 16.3031 15.5995 16.6983 15.5591C16.7487 15.5541 16.8154 15.5449 16.8949 15.5279C16.9091 15.53 16.9261 15.53 16.9424 15.5279C16.9474 15.5279 17.4143 15.442 17.7734 15.7386C18.0083 15.9323 18.1466 16.2439 18.1878 16.6724C18.0253 16.5958 17.85 16.5554 17.7954 16.5433C17.7932 16.5433 17.7932 16.5433 17.7904 16.5433C17.2994 16.4354 17.1653 16.1821 17.1298 16.0331C17.1156 15.9707 17.1156 15.9281 17.1177 15.9231C17.1248 15.8415 17.0652 15.7698 16.9836 15.7627C16.902 15.7557 16.8303 15.8153 16.8232 15.8969C16.7991 16.1481 16.9595 16.6654 17.7308 16.8328C17.9295 16.8761 18.1807 16.974 18.2261 17.0485C18.2261 17.0485 18.2261 17.0507 18.2282 17.0507C18.2353 17.0599 18.2424 17.0698 18.2495 17.0769C18.2516 17.079 18.2545 17.079 18.2566 17.0819C18.2637 17.0869 18.2708 17.0939 18.2779 17.0961C18.28 17.0982 18.285 17.101 18.2871 17.101C18.2942 17.106 18.3013 17.1081 18.3084 17.1103C18.3105 17.1103 18.3155 17.1124 18.3176 17.1124C18.3269 17.1145 18.3389 17.1174 18.351 17.1174C18.3602 17.1174 18.368 17.1174 18.3772 17.1152C18.3794 17.1152 18.3822 17.1152 18.3843 17.1131C18.3914 17.111 18.3985 17.1081 18.4085 17.106H18.4106C18.4177 17.1039 18.4227 17.0989 18.4298 17.0968L18.4319 17.0947C18.4368 17.0925 18.4411 17.0876 18.4439 17.0854C18.4461 17.0833 18.451 17.0805 18.4532 17.0762C18.4553 17.0741 18.4603 17.0691 18.4624 17.067C18.4645 17.062 18.4695 17.0599 18.4716 17.0549C18.4737 17.05 18.4766 17.0478 18.4787 17.0429C18.4808 17.0379 18.4837 17.0358 18.4858 17.0308C18.4879 17.0258 18.4879 17.0216 18.4908 17.0166C18.4929 17.0116 18.4929 17.0074 18.4957 17.0024C18.4957 16.9974 18.4979 16.9932 18.4979 16.9903C18.4979 16.9854 18.5 16.9811 18.5 16.9733V16.9676C18.4993 16.2907 18.3176 15.7996 17.9607 15.5052ZM5.53783 18.213H3.97956C4.11155 18.0789 4.20451 17.9185 4.27617 17.7943C4.33862 17.6865 4.56853 17.3274 4.89352 17.2344C5.2767 17.1216 5.63576 17.2536 5.81316 17.5573C5.69607 17.7603 5.60241 17.9809 5.53783 18.213ZM5.57828 16.9272C5.44204 16.9272 5.33134 16.8172 5.33134 16.6803C5.33134 16.5433 5.44133 16.4333 5.57828 16.4333C5.71452 16.4333 5.82522 16.5433 5.82522 16.6803C5.82522 16.8172 5.71239 16.9272 5.57828 16.9272ZM14.3602 14.9091C12.9623 14.7466 11.9519 15.3469 11.3487 15.8784C11.0876 16.1083 10.8818 16.3453 10.7264 16.5461C10.698 16.527 10.671 16.5078 10.6476 16.4958V16.0743C11.7801 14.9368 12.9056 14.5969 13.652 14.5132C14.1473 14.4578 14.5476 14.5039 14.7867 14.5493C14.6497 14.6771 14.5085 14.7963 14.3602 14.9091ZM16.1151 12.8215C15.9717 13.0968 15.8064 13.3601 15.624 13.6141C15.4346 13.5545 15.1975 13.4991 14.913 13.4729C15.5474 12.6682 15.9497 11.7081 16.0789 10.6955C16.2846 10.6714 16.5699 10.5827 16.7878 10.4415C16.7303 11.2724 16.5053 12.0721 16.1151 12.8215ZM15.1074 10.1499L15.2799 10.1428C15.3373 10.3989 15.5311 10.6047 15.7851 10.6742C15.651 11.6989 15.2252 12.6661 14.5447 13.4559C14.2169 13.4559 13.8358 13.4942 13.4051 13.5878C14.4106 12.769 15.0663 11.5357 15.1074 10.1499ZM12.2939 13.932C12.1981 13.9703 12.1314 14.0015 12.0973 14.0157C11.7 14.174 11.2735 14.2769 10.8286 14.3102L14.8002 10.3386C14.681 11.938 13.6847 13.2934 12.2939 13.932ZM16.8019 9.98948C16.797 10.1236 16.4308 10.3414 16.108 10.394C16.0625 10.401 16.0171 10.406 15.9738 10.406C15.9164 10.406 15.861 10.394 15.8113 10.3727C15.6602 10.3081 15.5552 10.1598 15.5552 9.98735C15.5552 9.81492 15.6602 9.66662 15.8113 9.60204C15.8617 9.58076 15.9164 9.56869 15.9738 9.56869C16.0171 9.56869 16.0625 9.57366 16.108 9.58076C16.4308 9.63327 16.7948 9.85111 16.8019 9.9831C16.8019 9.9831 16.8019 9.98665 16.8019 9.98948ZM15.4161 6.20167L15.4785 6.2854C16.0221 7.0106 16.6586 8.13389 16.7807 9.53179C16.5649 9.39271 16.2825 9.30402 16.0789 9.2806C15.9256 8.06932 15.387 6.97512 14.5894 6.13C14.6228 6.06046 14.6419 5.98169 14.6419 5.90009C14.6419 5.7901 14.6086 5.68721 14.5532 5.60348L15.233 4.82789C15.1046 5.32035 15.167 5.78726 15.4161 6.20167ZM13.4314 4.52347L13.4626 4.54476L13.4789 4.5547C13.7159 4.67462 13.9699 4.73422 14.2332 4.73422C14.5107 4.73422 14.8009 4.66752 15.0925 4.53341L14.3262 5.40692C14.2566 5.37357 14.18 5.35654 14.0963 5.35654C13.9884 5.35654 13.8905 5.38776 13.8067 5.44027C13.0524 4.88962 12.1598 4.52347 11.1876 4.40355C11.1635 4.22899 11.116 3.97992 11.0443 3.73582C11.8128 3.82169 12.6146 4.08565 13.4314 4.52347ZM14.346 5.90009C14.346 6.00795 14.2744 6.1009 14.1757 6.13496C14.1516 6.14206 14.1253 6.14703 14.0991 6.14703C14.092 6.14703 14.0821 6.14703 14.075 6.14703C13.965 6.1378 13.8763 6.05336 13.8571 5.94834C13.855 5.93415 13.8522 5.91712 13.8522 5.90293C13.8522 5.8859 13.8543 5.8717 13.8571 5.85538C13.8784 5.74753 13.9699 5.66379 14.0821 5.6567C14.087 5.6567 14.0941 5.6567 14.0991 5.6567C14.1041 5.6567 14.1083 5.6567 14.1133 5.6567C14.2233 5.66379 14.3169 5.74256 14.3411 5.84829C14.3432 5.86248 14.346 5.87454 14.346 5.88873C14.3432 5.89015 14.346 5.89512 14.346 5.90009ZM11.1997 4.70513C12.0902 4.82221 12.9141 5.16211 13.6109 5.66521C13.5747 5.73688 13.5555 5.81636 13.5555 5.90222C13.5555 6.01008 13.5868 6.108 13.6414 6.19457L12.4493 7.55415C12.3939 7.6166 12.4017 7.70955 12.4635 7.76277C12.4919 7.7869 12.5259 7.79896 12.5614 7.79896C12.6018 7.79896 12.643 7.78193 12.6742 7.74858L13.8642 6.39113C13.9359 6.42732 14.0154 6.44648 14.1012 6.44648C14.2112 6.44648 14.312 6.41313 14.3957 6.35778C15.1379 7.15252 15.6382 8.17221 15.7865 9.3026C15.5303 9.37426 15.3317 9.58501 15.2792 9.84827L15.1088 9.85537C15.0727 8.76117 14.649 7.71736 13.9096 6.90558C13.8543 6.84598 13.7613 6.84101 13.701 6.89636C13.6414 6.95171 13.6364 7.04466 13.6918 7.10498C14.3432 7.81812 14.7306 8.72357 14.8051 9.68081L13.2128 8.09345C13.1553 8.03597 13.0617 8.03597 13.0042 8.09345C12.9467 8.15092 12.9467 8.24459 13.0042 8.30207L14.7136 10.0115L10.5 14.2251L6.28646 10.0115L7.98168 8.31626C8.03915 8.25878 8.03915 8.16511 7.98168 8.10764C7.9242 8.05016 7.83053 8.05016 7.77306 8.10764L6.2013 9.6801C6.28504 8.59087 6.77324 7.61163 7.51831 6.89849L8.26055 7.74574C8.28893 7.7791 8.33009 7.79613 8.37337 7.79613C8.40673 7.79613 8.44291 7.78406 8.4713 7.75994C8.53374 7.70459 8.538 7.61163 8.48549 7.55132L7.74042 6.70193C8.41098 6.14206 9.25114 5.78017 10.1729 5.71063L8.90912 6.96306C8.85164 7.02054 8.85164 7.11421 8.90912 7.17168C8.9375 7.20007 8.97582 7.21497 9.01414 7.21497C9.05246 7.21497 9.08865 7.20078 9.11916 7.17168L10.5078 5.7972L11.8561 7.14543C11.9135 7.2029 12.0072 7.2029 12.0647 7.14543C12.1222 7.08795 12.1222 6.99428 12.0647 6.93681L10.8392 5.71134C11.5985 5.76881 12.3209 6.02285 12.951 6.4557C13.0177 6.50112 13.1113 6.48408 13.1568 6.41738C13.2022 6.35068 13.1851 6.25701 13.1184 6.2116C12.3904 5.71134 11.5431 5.43317 10.6576 5.40692V5.30119C10.9343 5.23449 11.1571 4.99748 11.1997 4.70513ZM6.874 6.48409C6.95773 6.48409 7.0365 6.46493 7.10604 6.43157L7.31892 6.67568C6.47379 7.48248 5.93521 8.60506 5.89192 9.85253L5.772 9.84544C5.71452 9.56515 5.49668 9.34517 5.21639 9.28769C5.36256 8.17931 5.85077 7.17878 6.56888 6.39326C6.65828 6.45073 6.76118 6.48409 6.874 6.48409ZM6.62706 5.94337C6.62706 5.93131 6.62706 5.92209 6.62919 5.91002C6.62919 5.90293 6.63132 5.89796 6.63132 5.89086C6.65261 5.78584 6.74414 5.70424 6.85413 5.69714C6.8591 5.69714 6.86336 5.69714 6.8662 5.69714C6.86903 5.69714 6.86832 5.69714 6.87116 5.69714C6.98399 5.69714 7.07978 5.77378 7.10817 5.8788C7.11313 5.90009 7.11739 5.92209 7.11739 5.94337C7.11739 5.9604 7.11526 5.97672 7.11242 5.99376C7.09114 6.09878 6.9996 6.18038 6.88961 6.18747C6.88252 6.18747 6.87755 6.18747 6.87045 6.18747C6.83923 6.18747 6.80801 6.18038 6.78175 6.17044C6.69447 6.13709 6.62706 6.04626 6.62706 5.94337ZM5.76987 10.142L5.89192 10.1491C5.93237 11.5378 6.59087 12.7732 7.59921 13.5921C7.16564 13.4963 6.7853 13.458 6.45463 13.4559C5.77981 12.6682 5.35121 11.706 5.2171 10.6856C5.49242 10.6281 5.71027 10.4152 5.76987 10.142ZM6.19847 10.3386L10.1701 14.3102C8.05406 14.1498 6.35884 12.4553 6.19847 10.3386ZM10.0941 4.3773C10.1587 3.92954 10.3787 3.33136 10.4936 3.2831C10.6256 3.33348 10.8286 3.95367 10.891 4.37446C10.9031 4.4589 10.9102 4.53554 10.9102 4.59798C10.9102 4.62424 10.908 4.64836 10.9031 4.67249C10.8669 4.86621 10.6973 5.01451 10.4915 5.01451C10.2857 5.01451 10.1154 4.86621 10.0799 4.67249C10.075 4.64836 10.0729 4.62211 10.0729 4.59798C10.075 4.5327 10.0821 4.4589 10.0941 4.3773ZM10.3524 5.29906V5.40195C9.28449 5.4353 8.30809 5.83551 7.54173 6.47699L7.33098 6.23502C7.38633 6.15128 7.41968 6.04839 7.41968 5.94054C7.41968 5.84971 7.39555 5.76314 7.35724 5.68934C8.05902 5.17488 8.88925 4.82718 9.79185 4.70513C9.83301 5.00245 10.0601 5.24158 10.3524 5.29906ZM6.6966 4.73422C6.95986 4.73422 7.2139 4.67462 7.45303 4.5547C7.46722 4.5476 8.83461 3.83659 9.94016 3.74079C9.86849 3.98276 9.82024 4.23396 9.79682 4.40639C8.81332 4.52844 7.90575 4.90878 7.14649 5.47362C7.06559 5.42608 6.97405 5.39982 6.874 5.39982C6.79027 5.39982 6.7115 5.41898 6.64196 5.45233L5.83728 4.53554C6.13176 4.66681 6.41915 4.73422 6.6966 4.73422ZM5.50164 6.21586L5.51371 6.19883C5.76278 5.78726 5.82522 5.31751 5.70033 4.82434L6.41844 5.64534C6.3638 5.72979 6.33045 5.83268 6.33045 5.94054C6.33045 6.0193 6.34748 6.09381 6.37799 6.16335C5.59531 7.00635 5.06808 8.08848 4.91765 9.28557C4.70477 9.31892 4.42235 9.40974 4.20876 9.5467C4.2932 8.2822 4.71683 7.188 5.50164 6.21586ZM4.19741 9.98452C4.20238 9.84544 4.58769 9.65384 4.89139 9.59211C4.9581 9.57792 5.02054 9.57082 5.07305 9.57082C5.1135 9.57082 5.14969 9.57579 5.188 9.58785C5.36256 9.63823 5.49171 9.7986 5.49171 9.99019C5.49171 10.1818 5.36256 10.3422 5.188 10.3925C5.15181 10.4018 5.1135 10.4096 5.07305 10.4096C5.0177 10.4096 4.95597 10.4025 4.89139 10.3883C4.58769 10.3237 4.20167 10.1321 4.19741 9.99303C4.19741 9.98665 4.19741 9.98665 4.19741 9.98452ZM4.2116 10.4252C4.42448 10.5643 4.70974 10.6551 4.92049 10.6884C5.0475 11.7039 5.44984 12.6661 6.08635 13.47C5.8018 13.4963 5.56409 13.5488 5.37321 13.6091C4.68561 12.6661 4.28824 11.5761 4.2116 10.4252ZM5.58609 13.8866C5.57899 13.8774 5.57189 13.8695 5.5648 13.8603C6.28575 13.6616 7.0734 13.7667 7.62617 13.8986C8.2939 14.059 8.78281 14.291 8.78707 14.2939L8.7892 14.2889C9.31855 14.4997 9.89545 14.6168 10.4986 14.6168C11.0996 14.6168 11.6744 14.5018 12.2009 14.291C12.2009 14.291 12.2059 14.2889 12.2151 14.284C12.2776 14.2577 12.3421 14.2314 12.4017 14.2023C12.6054 14.1186 12.9474 13.9937 13.3597 13.8958C13.9174 13.7617 14.7079 13.6567 15.4282 13.8575C15.304 14.0108 15.1741 14.1569 15.0358 14.2981C14.8349 14.2428 14.3226 14.1378 13.6308 14.2123C12.8793 14.2939 11.773 14.6146 10.6427 15.6584V15.3973C10.6427 15.3157 10.576 15.249 10.4944 15.249C10.4128 15.249 10.346 15.3157 10.346 15.3973V15.6442C9.22347 14.6125 8.12218 14.2939 7.37497 14.2123C6.66609 14.1356 6.14667 14.2506 5.95791 14.3031C5.83232 14.174 5.7053 14.0328 5.58609 13.8866ZM6.2155 14.5522C6.45463 14.5046 6.85981 14.4564 7.36433 14.5139C8.6934 14.6622 9.71309 15.4214 10.3524 16.0579V16.4915C10.3311 16.5036 10.307 16.5178 10.2808 16.5369C10.1254 16.3382 9.92171 16.1062 9.66555 15.8813C9.06239 15.3476 8.04696 14.7438 6.64409 14.9119V14.9141C6.49579 14.7991 6.35174 14.6792 6.2155 14.5522ZM9.93377 16.8988C9.65348 16.5398 9.34694 16.2694 9.0411 16.0657L9.04323 16.0586C9.03614 16.0565 9.02904 16.0537 9.02194 16.0537C8.51174 15.7209 7.99942 15.5747 7.58785 15.5151C7.39413 15.4143 7.20254 15.3022 7.01805 15.1802C7.92065 15.1539 8.73952 15.4605 9.4626 16.0948C9.71167 16.3127 9.90823 16.5376 10.0565 16.7313C10.0104 16.781 9.96925 16.8364 9.93377 16.8988ZM10.649 17.7964C10.6129 17.8397 10.5745 17.8823 10.532 17.9256C10.5227 17.9348 10.5107 17.9469 10.4986 17.9568L10.4965 17.9589L10.4944 17.9611V17.9561C10.4894 17.9511 10.4823 17.9469 10.4773 17.9391C10.4298 17.8937 10.3886 17.8482 10.3503 17.8028C10.1757 17.5942 10.0991 17.4005 10.1254 17.2238C10.1275 17.2096 10.1303 17.1954 10.1346 17.1805C10.1537 17.1039 10.1899 17.0372 10.2325 16.9797C10.2687 16.9322 10.3091 16.891 10.3496 16.8555C10.3858 16.8243 10.4213 16.798 10.4525 16.7768C10.4667 16.7675 10.4787 16.7597 10.4908 16.7526C10.4908 16.7526 10.4929 16.7526 10.4929 16.7505H10.4951C10.5121 16.7597 10.5284 16.7718 10.5504 16.7867C10.5788 16.8059 10.6129 16.8321 10.6462 16.8612C10.6895 16.8995 10.7321 16.9449 10.7683 16.9953C10.8115 17.0578 10.847 17.1273 10.8619 17.2061C10.8619 17.211 10.8641 17.2181 10.8669 17.2231C10.8939 17.3962 10.8193 17.5878 10.649 17.7964ZM11.2338 16.7164C11.2288 16.7214 11.2245 16.7257 11.2217 16.7306C11.1663 16.7931 11.1167 16.8548 11.0705 16.9151C11.0344 16.8527 10.9939 16.7952 10.9506 16.7448C11.0989 16.5511 11.3005 16.3184 11.5538 16.0963C12.2719 15.464 13.0886 15.1575 13.9841 15.1795C13.7975 15.3015 13.6059 15.4165 13.4094 15.5172C12.3847 15.6726 11.6836 16.2041 11.2338 16.7164ZM15.4111 16.434C15.5474 16.434 15.6581 16.544 15.6581 16.681C15.6581 16.8179 15.5481 16.9279 15.4111 16.9279C15.2742 16.9279 15.1642 16.8179 15.1642 16.681C15.1649 16.5469 15.2749 16.434 15.4111 16.434ZM16.1583 17.2025C16.484 17.2983 16.714 17.6552 16.7757 17.7624C16.8523 17.8965 16.9552 18.0739 17.1064 18.2123H15.4516C15.3891 17.9873 15.3004 17.7744 15.1883 17.5779C15.3707 17.2529 15.7773 17.0904 16.1583 17.2025ZM3.54387 6.80269C3.54387 7.04466 3.74043 7.24335 3.98453 7.24335C4.22863 7.24335 4.42448 7.04679 4.42448 6.80269C4.42448 6.56072 4.22792 6.36203 3.98382 6.36203C3.73972 6.36203 3.54387 6.56072 3.54387 6.80269ZM4.12787 6.80269C4.12787 6.88146 4.0633 6.94603 3.98453 6.94603C3.90577 6.94603 3.84119 6.88146 3.84119 6.80269C3.84119 6.72393 3.90577 6.65935 3.98453 6.65935C4.0633 6.65865 4.12787 6.72393 4.12787 6.80269ZM17.4079 6.80269C17.4079 6.56072 17.2114 6.36203 16.9673 6.36203C16.7253 6.36203 16.5266 6.55859 16.5266 6.80269C16.5266 7.04466 16.7232 7.24335 16.9673 7.24335C17.2114 7.24335 17.4079 7.04679 17.4079 6.80269ZM16.8239 6.80269C16.8239 6.72393 16.8885 6.65935 16.9673 6.65935C17.046 6.65935 17.1106 6.72393 17.1106 6.80269C17.1106 6.88146 17.046 6.94603 16.9673 6.94603C16.8885 6.94887 16.8239 6.8843 16.8239 6.80269ZM17.8316 7.89902C17.7762 7.87773 17.7116 7.88979 17.6691 7.93237C17.4753 8.13105 17.1567 8.12396 17.1518 8.12396C17.1496 8.12396 17.1468 8.12396 17.1468 8.12396C17.068 8.12396 17.0035 8.1864 16.9985 8.26517C16.9964 8.34677 17.0581 8.41631 17.1397 8.41844C17.1539 8.41844 17.3888 8.42554 17.6279 8.31555V10.731C17.6279 10.8126 17.6946 10.8793 17.7762 10.8793C17.8578 10.8793 17.9245 10.8126 17.9245 10.731V8.03526C17.9224 7.97565 17.8869 7.9203 17.8316 7.89902ZM3.21107 10.88C3.29268 10.88 3.35938 10.8133 3.35938 10.7317V8.31555C3.59851 8.42554 3.83339 8.41844 3.84758 8.41844C3.92918 8.41631 3.99376 8.34677 3.98879 8.26517C3.98666 8.18427 3.91712 8.1197 3.83552 8.12396C3.83339 8.12396 3.51265 8.13105 3.31822 7.93237C3.27565 7.88979 3.2132 7.87773 3.15572 7.89902C3.10038 7.9203 3.0649 7.97565 3.0649 8.03526V10.7331C3.06206 10.8155 3.12947 10.88 3.21107 10.88ZM17.9486 13.343C17.9486 13.2614 17.8819 13.1947 17.8003 13.1947H16.8424C16.7608 13.1947 16.6941 13.2614 16.6941 13.343C16.6941 13.4246 16.7608 13.4913 16.8424 13.4913H17.8003C17.8819 13.492 17.9486 13.4268 17.9486 13.343ZM16.9552 13.9107C17.0368 13.9107 17.1035 13.844 17.1035 13.7624C17.1035 13.6808 17.0368 13.6141 16.9552 13.6141H16.5862C16.5046 13.6141 16.4379 13.6808 16.4379 13.7624C16.4379 13.844 16.5046 13.9107 16.5862 13.9107H16.9552ZM17.3143 14.1839C17.3143 14.1023 17.2476 14.0356 17.166 14.0356H16.2513C16.1697 14.0356 16.103 14.1023 16.103 14.1839C16.103 14.2655 16.1697 14.3322 16.2513 14.3322H17.166C17.2476 14.3322 17.3143 14.2676 17.3143 14.1839ZM16.7352 14.6075C16.7352 14.5259 16.6685 14.4592 16.5869 14.4592H15.871C15.7893 14.4592 15.7226 14.5259 15.7226 14.6075C15.7226 14.6891 15.7893 14.7558 15.871 14.7558H16.5869C16.6678 14.7558 16.7352 14.6891 16.7352 14.6075ZM15.4062 14.8829C15.3246 14.8829 15.2579 14.9496 15.2579 15.0312C15.2579 15.1128 15.3246 15.1795 15.4062 15.1795H15.8135C15.8951 15.1795 15.9618 15.1128 15.9618 15.0312C15.9618 14.9496 15.8951 14.8829 15.8135 14.8829H15.4062ZM17.8003 12.3496H17.2667C17.1851 12.3496 17.1184 12.4163 17.1184 12.4979C17.1184 12.5795 17.1851 12.6462 17.2667 12.6462H17.8003C17.8819 12.6462 17.9486 12.5795 17.9486 12.4979C17.9486 12.417 17.8819 12.3496 17.8003 12.3496ZM17.8003 12.7732H17.056C16.9744 12.7732 16.9077 12.8399 16.9077 12.9215C16.9077 13.0031 16.9744 13.0698 17.056 13.0698H17.8003C17.8819 13.0698 17.9486 13.0031 17.9486 12.9215C17.9486 12.8399 17.8819 12.7732 17.8003 12.7732ZM17.8003 11.5045H17.5633C17.4817 11.5045 17.415 11.5712 17.415 11.6528C17.415 11.7344 17.4817 11.8011 17.5633 11.8011H17.8003C17.8819 11.8011 17.9486 11.7344 17.9486 11.6528C17.9486 11.5719 17.8819 11.5045 17.8003 11.5045ZM17.8003 11.9281H17.4363C17.3547 11.9281 17.288 11.9948 17.288 12.0764C17.288 12.158 17.3547 12.2247 17.4363 12.2247H17.8003C17.8819 12.2247 17.9486 12.158 17.9486 12.0764C17.9486 11.9955 17.8819 11.9281 17.8003 11.9281ZM3.20611 11.0716C3.28842 11.0716 3.35441 11.1383 3.35441 11.2199C3.35441 11.3022 3.28771 11.3682 3.20611 11.3682C3.12379 11.3682 3.0578 11.3015 3.0578 11.2199C3.0578 11.1376 3.12379 11.0716 3.20611 11.0716ZM3.80429 14.4635C3.88661 14.4635 3.9526 14.5302 3.9526 14.6118C3.9526 14.6941 3.8859 14.7601 3.80429 14.7601C3.72198 14.7601 3.65599 14.6934 3.65599 14.6118C3.65599 14.5302 3.72269 14.4635 3.80429 14.4635ZM4.75728 14.8878C4.83959 14.8878 4.90559 14.9545 4.90559 15.0361C4.90559 15.1184 4.83888 15.1844 4.75728 15.1844C4.67568 15.1844 4.60897 15.1177 4.60897 15.0361C4.60897 14.9538 4.67568 14.8878 4.75728 14.8878ZM3.19191 13.4963H4.14987C4.23147 13.4963 4.29817 13.4296 4.29817 13.348C4.29817 13.2664 4.23076 13.1997 4.14916 13.1997H3.1912C3.1096 13.1997 3.0429 13.2664 3.0429 13.348C3.0429 13.4317 3.11031 13.4963 3.19191 13.4963ZM4.40532 13.6212H4.03633C3.95473 13.6212 3.88803 13.6879 3.88803 13.7695C3.88803 13.8511 3.95473 13.9178 4.03633 13.9178H4.40532C4.48692 13.9178 4.55363 13.8511 4.55363 13.7695C4.55363 13.6879 4.48692 13.6212 4.40532 13.6212ZM4.74096 14.0427H3.82629C3.74469 14.0427 3.67799 14.1094 3.67799 14.191C3.67799 14.2726 3.74469 14.3393 3.82629 14.3393H4.74096C4.82256 14.3393 4.88926 14.2726 4.88926 14.191C4.88926 14.1073 4.82185 14.0427 4.74096 14.0427ZM5.1213 14.4635H4.40532C4.32372 14.4635 4.25702 14.5302 4.25702 14.6118C4.25702 14.6934 4.32372 14.7601 4.40532 14.7601H5.1213C5.20291 14.7601 5.26961 14.6934 5.26961 14.6118C5.26961 14.5309 5.20291 14.4635 5.1213 14.4635ZM5.03047 15.0361C5.03047 15.1177 5.09718 15.1844 5.17878 15.1844H5.58609C5.66769 15.1844 5.73439 15.1177 5.73439 15.0361C5.73439 14.9545 5.66769 14.8878 5.58609 14.8878H5.17878C5.09718 14.8878 5.03047 14.9545 5.03047 15.0361ZM3.19191 12.6512H3.72553C3.80713 12.6512 3.87383 12.5845 3.87383 12.5029C3.87383 12.4213 3.80713 12.3546 3.72553 12.3546H3.19191C3.11031 12.3546 3.04361 12.4213 3.04361 12.5029C3.0429 12.5845 3.11031 12.6512 3.19191 12.6512ZM3.19191 13.0755H3.93628C4.01788 13.0755 4.08458 13.0088 4.08458 12.9272C4.08458 12.8456 4.01788 12.7789 3.93628 12.7789H3.19191C3.11031 12.7789 3.04361 12.8456 3.04361 12.9272C3.04361 13.0088 3.11031 13.0755 3.19191 13.0755ZM3.19191 11.806H3.42892C3.51052 11.806 3.57722 11.7393 3.57722 11.6577C3.57722 11.5761 3.51052 11.5094 3.42892 11.5094H3.19191C3.11031 11.5094 3.04361 11.5761 3.04361 11.6577C3.04361 11.7393 3.11031 11.806 3.19191 11.806ZM3.19191 12.2275H3.55594C3.63754 12.2275 3.70424 12.1608 3.70424 12.0792C3.70424 11.9976 3.63754 11.9309 3.55594 11.9309H3.19191C3.11031 11.9309 3.04361 11.9976 3.04361 12.0792C3.0429 12.163 3.11031 12.2275 3.19191 12.2275ZM10.4965 17.9589C10.4986 17.9568 10.4958 17.9568 10.4958 17.954L10.4965 17.9589ZM17.2284 4.44684C17.2305 4.44684 17.2305 4.44684 17.2284 4.44684C17.2951 4.44684 17.3554 4.40142 17.3717 4.33401C17.4243 4.12326 17.403 3.94374 17.3022 3.79543C17.1418 3.5563 16.8474 3.51088 16.814 3.50592C16.7374 3.49669 16.6657 3.54423 16.6487 3.62087C16.5933 3.87207 16.6245 4.07359 16.7445 4.2219C16.9219 4.4369 17.1993 4.44471 17.2284 4.44684ZM17.0609 3.96289C17.0893 4.00831 17.1064 4.06082 17.1064 4.12326C17.0631 4.10623 17.0155 4.07998 16.9822 4.0374C16.9439 3.98986 16.9247 3.92741 16.9247 3.84794C16.9722 3.87207 17.0248 3.91038 17.0609 3.96289ZM16.2662 2.3067C16.1058 2.06757 15.8113 2.02215 15.778 2.01719C15.7014 2.00796 15.6297 2.0555 15.6127 2.13214C15.5573 2.38334 15.5885 2.58486 15.7085 2.73317C15.8809 2.94888 16.1583 2.95598 16.1896 2.95598C16.2563 2.95598 16.3166 2.91057 16.3329 2.84315C16.3882 2.63666 16.3663 2.45501 16.2662 2.3067ZM15.9426 2.54796C15.9043 2.50042 15.8851 2.43798 15.8851 2.3585C15.9355 2.38263 15.988 2.42094 16.0214 2.47345C16.0498 2.51887 16.0668 2.57138 16.0668 2.63382C16.0242 2.6175 15.976 2.59125 15.9426 2.54796ZM4.20663 3.50592C4.17328 3.51088 3.88093 3.5563 3.71843 3.79543C3.62051 3.94374 3.59638 4.12326 3.64889 4.33401C3.66592 4.39859 3.72553 4.44684 3.79294 4.44684C3.82416 4.44684 4.10161 4.43974 4.27405 4.22403C4.39326 4.07572 4.42448 3.87207 4.36984 3.623C4.35494 3.54636 4.28327 3.49669 4.20663 3.50592ZM4.04627 4.0374C4.01291 4.08069 3.96466 4.10694 3.91925 4.12326C3.91925 4.06082 3.93628 4.00618 3.96466 3.96289C4.00085 3.91038 4.05336 3.87207 4.1009 3.84794C4.10161 3.92741 4.08246 3.98986 4.04627 4.0374ZM5.22206 2.01648C5.18871 2.02144 4.89636 2.06686 4.73315 2.3067C4.63523 2.45501 4.6111 2.63453 4.66432 2.84528C4.68064 2.90986 4.74096 2.9574 4.80766 2.9574C4.83888 2.9574 5.11633 2.9503 5.28877 2.73459C5.40869 2.58628 5.43991 2.38263 5.38456 2.13356C5.36824 2.05763 5.2987 2.00725 5.22206 2.01648ZM5.05886 2.54796C5.02551 2.59125 4.97796 2.6175 4.93255 2.63453C4.93255 2.57209 4.94958 2.51745 4.97796 2.47416C5.01344 2.42165 5.06595 2.38334 5.11421 2.35921C5.11421 2.43798 5.09718 2.50042 5.05886 2.54796ZM15.167 8.97902C15.1763 9.05566 15.2387 9.111 15.3132 9.111C15.3182 9.111 15.3253 9.111 15.3302 9.111C15.4118 9.10178 15.4693 9.02727 15.4594 8.94567C15.3111 7.65279 14.4276 6.73812 14.3893 6.6998C14.3318 6.64232 14.2382 6.6402 14.1807 6.69767C14.1232 6.75515 14.1211 6.84882 14.1786 6.90629C14.1878 6.91481 15.0308 7.78903 15.167 8.97902ZM5.68614 9.10817C5.69111 9.10817 5.6982 9.10817 5.70317 9.10817C5.77768 9.10817 5.84225 9.05282 5.84935 8.97618C5.98559 7.7869 6.82859 6.91268 6.83568 6.90558C6.89316 6.84811 6.89103 6.75231 6.83355 6.69696C6.77537 6.63949 6.67957 6.63949 6.62493 6.6998C6.58661 6.73812 5.7053 7.65279 5.55486 8.94567C5.54777 9.02656 5.60525 9.09823 5.68614 9.10817Z" fill="#092161"/>
</svg>
