<svg width="36" height="36" viewBox="0 0 36 36" fill="none" xmlns="http://www.w3.org/2000/svg">
<g clip-path="url(#clip0_808_3348)">
<path d="M35.4209 19.3107C35.4766 20.6398 35.0027 21.9367 34.1033 22.9169C33.2039 23.8971 31.9525 24.4805 30.6235 24.5391C30.5458 24.5427 30.4682 24.5445 30.3908 24.5445C30.0377 24.5443 29.6856 24.5061 29.3407 24.4306C28.3172 26.0108 26.9751 27.3601 25.4003 28.392C23.8256 29.4239 22.0528 30.1157 20.1953 30.4233C19.9756 31.0687 19.5373 31.6171 18.9562 31.9737C18.3751 32.3302 17.6876 32.4725 17.0127 32.376C16.3378 32.2794 15.7178 31.9501 15.2599 31.4449C14.802 30.9398 14.5351 30.2905 14.5051 29.6094C14.4752 28.9282 14.6842 28.258 15.0959 27.7146C15.5077 27.1712 16.0964 26.7888 16.7602 26.6334C17.4241 26.478 18.1214 26.5594 18.7315 26.8636C19.3417 27.1678 19.8265 27.6756 20.1019 28.2992C22.717 27.8156 25.0794 26.4296 26.7774 24.383C28.4755 22.3363 29.4015 19.7586 29.3941 17.0992C29.3941 10.8164 24.2827 5.70508 17.9999 5.70508C11.7172 5.70508 6.60581 10.8164 6.60581 17.0992C6.60546 19.042 7.10197 20.9525 8.04813 22.6493C8.08019 22.7053 8.10426 22.7655 8.11963 22.8281C8.21102 23.0822 8.20125 23.3616 8.09235 23.6086C7.98344 23.8556 7.78374 24.0513 7.53456 24.1552C6.92443 24.4119 6.26912 24.5442 5.60716 24.5441C5.52925 24.5441 5.45118 24.5422 5.37295 24.5386C4.04452 24.4793 2.79385 23.8955 1.89518 22.9154C0.996508 21.9353 0.523175 20.6388 0.578969 19.3102C0.601399 18.7804 0.588883 18.3077 0.576649 17.8506C0.565258 17.4202 0.553376 16.9751 0.572923 16.5107C0.631259 15.2135 1.18928 13.9891 2.1301 13.0941C3.07093 12.1991 4.32157 11.7028 5.62009 11.7093C7.70528 6.93843 12.4692 3.5957 17.9999 3.5957C23.5307 3.5957 28.2947 6.93843 30.3799 11.7093C31.6785 11.7019 32.9296 12.1978 33.8706 13.0928C34.8116 13.9878 35.3693 15.2125 35.4269 16.5099C35.4465 16.975 35.4347 17.4201 35.4232 17.8504C35.4111 18.3076 35.3985 18.7805 35.4209 19.3107ZM26.8456 17.0992C26.8451 18.4544 26.5333 19.7913 25.9344 21.0069C25.3354 22.2226 24.4653 23.2844 23.3911 24.1105C22.3168 24.9366 21.0672 25.505 19.7386 25.7718C18.4099 26.0386 17.0377 25.9966 15.7279 25.6492L12.1475 27.7169C11.9668 27.8212 11.7593 27.8696 11.5511 27.856C11.343 27.8424 11.1435 27.7673 10.978 27.6403C10.8125 27.5133 10.6884 27.3401 10.6213 27.1426C10.5543 26.945 10.5473 26.732 10.6013 26.5305L11.5164 23.117C10.001 21.479 9.15783 19.3306 9.15463 17.0992C9.15463 12.2204 13.1224 8.25152 17.9999 8.25152C22.8775 8.25152 26.8456 12.2204 26.8456 17.0992ZM15.5408 17.0992C15.5408 16.8195 15.4297 16.5512 15.2319 16.3534C15.0341 16.1557 14.7658 16.0445 14.4861 16.0445H14.4843C14.2758 16.0449 14.0721 16.1071 13.8989 16.2232C13.7257 16.3394 13.5908 16.5042 13.5113 16.697C13.4318 16.8897 13.4112 17.1017 13.4521 17.3062C13.493 17.5106 13.5936 17.6984 13.7412 17.8457C13.8888 17.993 14.0767 18.0932 14.2813 18.1338C14.4858 18.1743 14.6978 18.1533 14.8904 18.0734C15.083 17.9936 15.2476 17.8584 15.3634 17.685C15.4792 17.5116 15.541 17.3077 15.541 17.0992H15.5408ZM19.0548 17.0992C19.0548 17.0647 19.0529 17.0302 19.0492 16.9959C19.0459 16.9614 19.0408 16.9271 19.0338 16.8932C19.0275 16.8594 19.019 16.8261 19.0084 16.7934C18.9987 16.7603 18.9867 16.728 18.9741 16.6956C18.9614 16.6633 18.9459 16.633 18.9298 16.6028C18.9137 16.5724 18.8961 16.5428 18.877 16.5142C18.8578 16.4853 18.8371 16.4574 18.8151 16.4305C18.7934 16.4037 18.7702 16.3781 18.7455 16.3539C18.7216 16.3293 18.6956 16.3061 18.6689 16.2836C18.6421 16.2625 18.614 16.2414 18.5852 16.2224C18.5566 16.2034 18.527 16.1858 18.4966 16.1697C18.4663 16.1535 18.4348 16.1388 18.403 16.1254C18.3714 16.1121 18.339 16.1006 18.3061 16.0909C18.2403 16.0698 18.1724 16.0561 18.1036 16.0502C18.0003 16.0402 17.8961 16.0452 17.7942 16.0649C17.7603 16.0718 17.7268 16.0805 17.6937 16.0909C17.6608 16.1006 17.6284 16.1121 17.5967 16.1254C17.5651 16.1388 17.5334 16.1535 17.5032 16.1697C17.473 16.1859 17.4434 16.2034 17.4145 16.2224C17.3856 16.2414 17.3576 16.2625 17.3316 16.2836C17.3042 16.3061 17.2789 16.3293 17.2543 16.3539C17.2296 16.3781 17.2063 16.4037 17.1846 16.4305C17.1628 16.4574 17.1424 16.4853 17.1235 16.5142C17.1042 16.5428 17.0863 16.5724 17.0701 16.6028C17.0538 16.6329 17.0393 16.6639 17.0264 16.6956C17.0131 16.7276 17.0013 16.7602 16.9912 16.7934C16.9815 16.8257 16.973 16.8595 16.966 16.8932C16.9591 16.9271 16.9539 16.9614 16.9505 16.9959C16.947 17.0303 16.9455 17.0648 16.9455 17.0992C16.9455 17.1337 16.947 17.1688 16.9505 17.2033C16.9539 17.2375 16.9591 17.2715 16.966 17.3052C16.973 17.339 16.9815 17.3727 16.9912 17.4058C17.0013 17.4387 17.0131 17.4711 17.0264 17.5028C17.0393 17.5347 17.0538 17.566 17.0701 17.5963C17.0862 17.6266 17.1045 17.6561 17.1235 17.6849C17.1424 17.7136 17.1628 17.7413 17.1846 17.7679C17.2065 17.7948 17.2298 17.8206 17.2543 17.8452C17.2789 17.8691 17.3042 17.893 17.3316 17.9148C17.3581 17.9368 17.3857 17.9572 17.4145 17.976C17.4434 17.995 17.4729 18.0133 17.5032 18.0295C17.5643 18.0613 17.628 18.0876 17.6937 18.1082C17.7267 18.118 17.7605 18.1265 17.7942 18.1335C17.862 18.1474 17.931 18.1542 18.0002 18.1539C18.2796 18.1532 18.5474 18.0422 18.7455 17.8452C18.7941 17.7959 18.8382 17.7422 18.877 17.6849C18.896 17.6561 18.9136 17.6266 18.9298 17.5963C18.9459 17.5661 18.9607 17.5345 18.9741 17.5028C18.9874 17.4712 18.9987 17.4381 19.0084 17.4058C19.019 17.3728 19.0274 17.3392 19.0338 17.3052C19.0407 17.2715 19.0458 17.2375 19.0492 17.2033C19.0528 17.1687 19.0546 17.1339 19.0546 17.0991L19.0548 17.0992ZM22.5705 17.0992C22.5705 16.8195 22.4594 16.5512 22.2616 16.3534C22.0638 16.1557 21.7955 16.0445 21.5158 16.0445H21.5137C21.3052 16.0449 21.1015 16.1071 20.9284 16.2233C20.7552 16.3394 20.6203 16.5043 20.5408 16.697C20.4613 16.8898 20.4407 17.1018 20.4816 17.3062C20.5225 17.5107 20.6231 17.6984 20.7707 17.8457C20.9183 17.993 21.1062 18.0933 21.3108 18.1338C21.5153 18.1743 21.7273 18.1533 21.9199 18.0734C22.1125 17.9935 22.2771 17.8584 22.3929 17.685C22.5087 17.5116 22.5705 17.3077 22.5705 17.0992Z" fill="#6A4BFF"/>
</g>
<defs>
<clipPath id="clip0_808_3348">
<rect width="36" height="36" fill="white"/>
</clipPath>
</defs>
</svg>
