<svg width="162" height="32" viewBox="0 0 162 32" fill="none" xmlns="http://www.w3.org/2000/svg">
<path d="M11.0957 29.3262H20.4009C20.2283 30.4033 18.118 31.7817 16.3296 31.9759C14.2409 32.1909 11.7422 30.9419 11.0957 29.3262Z" fill="#5614D5"/>
<path d="M30.502 24.996C30.3082 24.9852 30.114 24.9852 29.9202 24.996H28.4339V24.1561C28.4339 20.3438 28.4555 16.5098 28.4124 12.6966C28.4129 11.8285 28.3265 10.9625 28.1543 10.1116C27.5294 7.04361 25.7876 4.31697 23.2664 2.46044C20.7452 0.603902 17.6245 -0.250229 14.5093 0.0636793C11.3941 0.377587 8.50646 1.83716 6.40638 4.15937C4.3063 6.48157 3.14341 9.50091 3.14323 12.6319C3.16481 16.0999 3.14323 19.5678 3.14323 23.0574V24.996C2.71253 24.996 1.50593 24.996 1.07523 25.0175C0.781448 25.0324 0.505592 25.1633 0.308265 25.3815C0.110938 25.5996 0.00828132 25.8872 0.0228473 26.181C0.0179453 26.3212 0.0408691 26.461 0.0902947 26.5923C0.13972 26.7235 0.214668 26.8437 0.310809 26.9459C0.40695 27.0481 0.522379 27.1302 0.650429 27.1875C0.778479 27.2448 0.916612 27.2761 1.05685 27.2797C1.22857 27.2977 1.40124 27.3049 1.57385 27.3013H29.9881C30.1608 27.3049 30.3334 27.2977 30.5051 27.2797C30.7847 27.2619 31.0471 27.1385 31.239 26.9345C31.431 26.7305 31.5383 26.4611 31.5392 26.181C31.552 25.8879 31.4514 25.6012 31.2582 25.3805C31.065 25.1597 30.7941 25.022 30.502 24.996Z" fill="#5614D5"/>
<path d="M23.0713 22.196C23.773 22.196 24.3418 21.6271 24.3418 20.9254C24.3418 20.2237 23.773 19.6549 23.0713 19.6549C22.3696 19.6549 21.8008 20.2237 21.8008 20.9254C21.8008 21.6271 22.3696 22.196 23.0713 22.196Z" fill="#836EFF"/>
<path d="M24.2114 11.4236C24.209 11.3077 24.1945 11.1922 24.1683 11.0792C23.7871 9.22904 22.8052 7.55667 21.3752 6.32224C19.9453 5.08782 18.1475 4.36055 16.2614 4.25354H16.2399C16.0673 4.25354 15.9202 4.23196 15.7444 4.23196H15.7021C15.5367 4.2284 15.3712 4.23561 15.2067 4.25354H15.1851C13.3015 4.36882 11.5078 5.09935 10.0796 6.33291C8.65149 7.56647 7.66785 9.23481 7.27984 11.0816C7.25513 11.1865 7.24068 11.2936 7.23669 11.4013L7.25827 11.4228C7.18941 11.8791 7.15336 12.3398 7.15039 12.8012V22.0457L9.77855 24.8888V12.8052C9.79121 11.4845 10.2393 10.2048 11.0532 9.16459C11.8672 8.12439 13.0016 7.38178 14.2805 7.0519C14.4963 6.98717 14.7112 6.9656 14.927 6.92245C14.9643 6.92581 15.0017 6.91831 15.0349 6.90087C15.1212 6.90087 15.2075 6.8793 15.293 6.8793C15.4224 6.8793 15.5327 6.85772 15.6589 6.85772H15.7884C15.9108 6.85418 16.0332 6.8614 16.1544 6.8793C16.2407 6.8793 16.327 6.90087 16.4125 6.90087C16.4498 6.89752 16.4872 6.90501 16.5203 6.92245C16.7395 6.94478 16.956 6.98813 17.1668 7.0519C18.4437 7.38554 19.5757 8.12916 20.3891 9.16854C21.2024 10.2079 21.652 11.4856 21.6688 12.8052V18.6425L24.2969 16.8765V12.8052C24.3332 12.343 24.3045 11.8779 24.2114 11.4236Z" fill="#836EFF"/>
<path d="M28.4126 12.6974V14.1621L31.6225 12.0294L29.5545 8.92816L28.1113 9.87586C28.136 9.94533 28.1506 10.018 28.1545 10.0916C28.3256 10.9497 28.412 11.8224 28.4126 12.6974Z" fill="#00F9AC"/>
<path opacity="0.9" d="M7.12976 16.5106L4.39453 19.0301L10.7919 25.9229L28.4331 14.1621V12.6942C28.4337 11.8261 28.3472 10.9601 28.175 10.1092C28.1503 10.0397 28.1358 9.96705 28.1318 9.89343L11.3736 21.0549L7.12976 16.5106Z" fill="#21D8A3"/>
<path d="M52.1291 9.78879C51.9622 9.78194 51.7958 9.81328 51.6428 9.88044C51.4898 9.9476 51.3541 10.0488 51.2462 10.1763C51.0311 10.3873 50.9075 10.6742 50.9018 10.9754V19.3313C50.9018 19.3313 46.4213 12.5248 45.0214 10.3705C44.9275 10.1746 44.7763 10.012 44.5877 9.90422C44.3991 9.79645 44.1822 9.74866 43.9658 9.76722C43.7959 9.76245 43.6271 9.79464 43.4709 9.86155C43.3147 9.92847 43.175 10.0285 43.0612 10.1548C42.8462 10.3657 42.7225 10.6527 42.7168 10.9538V21.9132C42.7154 22.0742 42.7471 22.2338 42.8101 22.382C42.873 22.5302 42.9659 22.6638 43.0828 22.7746C43.1989 22.889 43.337 22.9785 43.4888 23.0377C43.6406 23.097 43.8029 23.1246 43.9658 23.119C44.2931 23.12 44.6086 22.9969 44.8488 22.7746C44.9657 22.6638 45.0586 22.5302 45.1215 22.382C45.1845 22.2338 45.2162 22.0742 45.2147 21.9132V13.6228C45.2147 13.6228 49.652 20.3645 51.0736 22.5404C51.1771 22.7346 51.3328 22.896 51.5231 23.0064C51.7134 23.1168 51.9308 23.1718 52.1507 23.1653C52.3103 23.1707 52.4693 23.1429 52.6176 23.0836C52.7659 23.0243 52.9002 22.9349 53.0121 22.8209C53.129 22.7102 53.2219 22.5765 53.2849 22.4283C53.3478 22.2801 53.3796 22.1205 53.3781 21.9595V10.9738C53.3763 10.6662 53.2524 10.3719 53.0337 10.1556C52.7908 9.92111 52.4667 9.78968 52.1291 9.78879Z" fill="#1F3155"/>
<path d="M64.6658 15.1074C64.3125 14.7337 63.906 14.4144 63.4592 14.1597C63.0091 13.9015 62.5226 13.713 62.0161 13.6003C61.0094 13.3705 59.9639 13.3705 58.9572 13.6003C58.4537 13.7226 57.9685 13.9106 57.5141 14.1597C57.0674 14.4144 56.6608 14.7337 56.3075 15.1074C55.9445 15.5108 55.6597 15.9782 55.4677 16.4858C55.0368 17.6388 55.0368 18.9086 55.4677 20.0616C55.6597 20.5692 55.9445 21.0367 56.3075 21.4401C56.6608 21.8137 57.0674 22.1331 57.5141 22.3878C57.9642 22.6459 58.4507 22.8345 58.9572 22.9471C59.9639 23.1769 61.0094 23.1769 62.0161 22.9471C62.5196 22.8249 63.0049 22.6368 63.4592 22.3878C63.906 22.1331 64.3125 21.8137 64.6658 21.4401C65.0288 21.0366 65.3136 20.5692 65.5056 20.0616C65.9365 18.9086 65.9365 17.6388 65.5056 16.4858C65.3136 15.9782 65.0288 15.5108 64.6658 15.1074ZM63.3522 18.2957C63.4068 19.2123 63.1224 20.1171 62.5531 20.8376C62.2963 21.1242 61.9803 21.3516 61.627 21.5041C61.2736 21.6565 60.8914 21.7304 60.5066 21.7205C60.1188 21.7305 59.7333 21.6568 59.3764 21.5044C59.0196 21.352 58.6997 21.1246 58.4386 20.8376C57.8537 20.1245 57.5613 19.216 57.6204 18.2957C57.5652 17.3692 57.8569 16.4554 58.4386 15.7323C58.6997 15.4452 59.0196 15.2178 59.3764 15.0654C59.7333 14.913 60.1188 14.8393 60.5066 14.8493C60.892 14.8345 61.2758 14.9061 61.6299 15.0589C61.984 15.2117 62.2994 15.4418 62.5531 15.7323C63.1257 16.4599 63.4099 17.3732 63.3514 18.2973L63.3522 18.2957Z" fill="#1F3155"/>
<path d="M73.3242 15.0427C73.5146 15.0439 73.6987 14.9748 73.8412 14.8485C73.9771 14.7104 74.0543 14.5252 74.057 14.3315C74.0586 14.2358 74.0406 14.1408 74.0041 14.0524C73.9676 13.9639 73.9133 13.8839 73.8446 13.8172C73.7759 13.7506 73.6943 13.6987 73.6048 13.6649C73.5153 13.631 73.4198 13.6158 73.3242 13.6203H70.1151V12.1157C70.1167 11.9514 70.0851 11.7886 70.0222 11.6369C69.9593 11.4851 69.8665 11.3477 69.7492 11.2327C69.6331 11.1183 69.495 11.0287 69.3431 10.9695C69.1913 10.9103 69.029 10.8827 68.8662 10.8883C68.5389 10.8873 68.2234 11.0103 67.9832 11.2327C67.8659 11.3477 67.773 11.4851 67.7102 11.6369C67.6473 11.7886 67.6157 11.9514 67.6172 12.1157V19.6334C67.6263 20.575 68.0073 21.4748 68.6772 22.1366C69.3471 22.7984 70.2514 23.1684 71.1931 23.1661C71.7487 23.1734 72.2971 23.0401 72.7873 22.7785C73.2089 22.561 73.5879 22.2692 73.906 21.9171C73.948 21.8753 73.9812 21.8255 74.0034 21.7706C74.0257 21.7156 74.0365 21.6567 74.0354 21.5975C74.0349 21.4709 73.989 21.3487 73.906 21.2531C73.8654 21.1948 73.8103 21.1481 73.7461 21.1178C73.6818 21.0875 73.6108 21.0747 73.54 21.0805C73.4106 21.0873 73.2882 21.141 73.1956 21.2315C73.0352 21.409 72.839 21.5506 72.6201 21.647C72.4011 21.7434 72.1643 21.7924 71.925 21.7909C71.4401 21.7833 70.9778 21.5843 70.639 21.2374C70.3001 20.8904 70.1121 20.4236 70.1159 19.9386V15.0427H73.3242Z" fill="#1F3155"/>
<path d="M76.8564 9.61619C76.5291 9.61517 76.2136 9.73824 75.9734 9.9606C75.7987 10.1352 75.6797 10.3578 75.6315 10.6001C75.5832 10.8424 75.6079 11.0935 75.7024 11.3218C75.797 11.55 75.9571 11.7451 76.1625 11.8823C76.3679 12.0196 76.6093 12.0929 76.8564 12.0929C77.1034 12.0929 77.3449 12.0196 77.5503 11.8823C77.7557 11.7451 77.9158 11.55 78.0103 11.3218C78.1048 11.0935 78.1295 10.8424 78.0813 10.6001C78.0331 10.3578 77.9141 10.1352 77.7394 9.9606C77.6233 9.84618 77.4852 9.75663 77.3334 9.69741C77.1816 9.6382 77.0192 9.61056 76.8564 9.61619Z" fill="#1F3155"/>
<path d="M76.8564 13.4293C76.6866 13.4246 76.5177 13.4568 76.3615 13.5237C76.2053 13.5906 76.0656 13.6906 75.9519 13.8169C75.7366 14.0355 75.6133 14.3284 75.6075 14.6351V21.9371C75.606 22.0981 75.6377 22.2577 75.7007 22.4059C75.7636 22.5541 75.8565 22.6878 75.9734 22.7985C76.0895 22.9129 76.2276 23.0025 76.3794 23.0617C76.5312 23.1209 76.6936 23.1485 76.8564 23.1429C77.0159 23.1468 77.1746 23.1183 77.3228 23.0591C77.471 22.9998 77.6056 22.9111 77.7184 22.7983C77.8312 22.6854 77.92 22.5508 77.9792 22.4027C78.0385 22.2545 78.067 22.0958 78.063 21.9363V14.6359C78.0606 14.3332 77.9468 14.042 77.7434 13.8177C77.6351 13.6895 77.4988 13.5878 77.345 13.5205C77.1913 13.4531 77.0241 13.422 76.8564 13.4293Z" fill="#1F3155"/>
<path d="M83.4702 10.8012C83.6371 10.635 83.8354 10.5037 84.0535 10.4149C84.2716 10.3262 84.5053 10.2817 84.7407 10.2842C84.9804 10.2799 85.2181 10.3277 85.4375 10.4243C85.6568 10.5209 85.8526 10.6639 86.0113 10.8436C86.1015 10.9165 86.2149 10.9547 86.3309 10.9514C86.401 10.9524 86.4705 10.9374 86.5339 10.9075C86.5973 10.8776 86.6531 10.8336 86.6969 10.7788C86.7799 10.6833 86.8259 10.561 86.8263 10.4344C86.8303 10.3107 86.7923 10.1894 86.7185 10.09C86.4062 9.73179 86.0259 9.43901 85.5998 9.22862C85.1096 8.96705 84.5612 8.83373 84.0056 8.84107C83.5302 8.83294 83.0583 8.92459 82.6205 9.11013C82.1826 9.29567 81.7886 9.57096 81.4638 9.91823C81.1337 10.2449 80.8722 10.6342 80.6946 11.0632C80.5171 11.4923 80.427 11.9526 80.4297 12.4169V21.9587C80.4397 22.2752 80.5707 22.5758 80.7957 22.7985C80.9107 22.9158 81.0482 23.0087 81.1999 23.0716C81.3516 23.1344 81.5145 23.1661 81.6787 23.1645C82.0097 23.1635 82.327 23.032 82.5617 22.7985C82.6765 22.6907 82.7682 22.5607 82.8311 22.4163C82.894 22.2719 82.9269 22.1162 82.9277 21.9587V15.0443H85.7923C85.9827 15.0455 86.1669 14.9764 86.3093 14.8501C86.4452 14.712 86.5224 14.5268 86.5251 14.3331C86.5267 14.2374 86.5087 14.1424 86.4722 14.054C86.4357 13.9655 86.3814 13.8855 86.3127 13.8188C86.2441 13.7522 86.1624 13.7003 86.0729 13.6665C85.9834 13.6326 85.8879 13.6174 85.7923 13.6219H82.9277V12.1357C82.9164 11.8872 82.959 11.6393 83.0527 11.409C83.1463 11.1786 83.2888 10.9713 83.4702 10.8012Z" fill="#1F3155"/>
<path d="M89.2217 13.4294C89.0518 13.4246 88.8829 13.4568 88.7268 13.5237C88.5706 13.5906 88.4308 13.6907 88.3171 13.8169C88.1018 14.0355 87.9785 14.3284 87.9727 14.6352V21.9371C87.9712 22.0981 88.003 22.2577 88.0659 22.4059C88.1289 22.5542 88.2218 22.6878 88.3387 22.7985C88.4547 22.9129 88.5929 23.0025 88.7447 23.0617C88.8965 23.1209 89.0588 23.1485 89.2217 23.1429C89.3812 23.1469 89.5399 23.1183 89.688 23.0591C89.8362 22.9999 89.9708 22.9111 90.0836 22.7983C90.1965 22.6854 90.2852 22.5509 90.3444 22.4027C90.4037 22.2545 90.4322 22.0958 90.4283 21.9363V14.636C90.4258 14.3332 90.312 14.042 90.1086 13.8177C89.9975 13.6929 89.8607 13.5936 89.7076 13.5266C89.5545 13.4596 89.3887 13.4264 89.2217 13.4294Z" fill="#1F3155"/>
<path d="M89.2216 9.61619C88.8943 9.61517 88.5788 9.73823 88.3386 9.96059C88.1639 10.1352 88.0449 10.3578 87.9967 10.6001C87.9485 10.8424 87.9732 11.0935 88.0677 11.3217C88.1622 11.55 88.3223 11.7451 88.5277 11.8823C88.7331 12.0196 88.9746 12.0929 89.2216 12.0929C89.4686 12.0929 89.7101 12.0196 89.9155 11.8823C90.1209 11.7451 90.281 11.55 90.3755 11.3217C90.4701 11.0935 90.4948 10.8424 90.4465 10.6001C90.3983 10.3578 90.2793 10.1352 90.1046 9.96059C89.9873 9.84793 89.8489 9.75951 89.6974 9.70041C89.5459 9.64131 89.3842 9.61269 89.2216 9.61619Z" fill="#1F3155"/>
<path d="M97.9461 14.8509C98.4798 14.8541 99.0047 14.9872 99.4755 15.2385C99.9542 15.5015 100.367 15.8698 100.682 16.3156C100.721 16.3702 100.773 16.4144 100.833 16.4444C100.893 16.4745 100.959 16.4895 101.027 16.4882C101.095 16.4891 101.162 16.4761 101.225 16.4501C101.288 16.4242 101.345 16.3858 101.393 16.3372C101.443 16.2908 101.482 16.234 101.508 16.1708C101.534 16.1076 101.546 16.0395 101.544 15.9712C101.542 15.8813 101.52 15.7929 101.479 15.7131C101.047 14.9988 100.419 14.4231 99.6697 14.0543C98.8989 13.6487 98.042 13.4344 97.171 13.4294C96.5681 13.431 95.9703 13.5392 95.4051 13.749C94.829 13.9596 94.2961 14.2735 93.8325 14.6751C93.3326 15.0928 92.9409 15.6248 92.6906 16.2261C92.4036 16.8777 92.2569 17.5822 92.2599 18.2942C92.2546 19.0063 92.4015 19.7113 92.6906 20.3622C92.9522 20.957 93.3421 21.4867 93.8325 21.9132C94.3015 22.3072 94.833 22.6203 95.4051 22.8393C95.9697 23.051 96.5679 23.1593 97.171 23.1589C98.042 23.1539 98.8989 22.9396 99.6697 22.534C100.419 22.1652 101.047 21.5895 101.479 20.8752C101.523 20.8033 101.546 20.7199 101.544 20.6354C101.544 20.5674 101.531 20.4999 101.505 20.437C101.479 20.3741 101.441 20.3171 101.393 20.2695C101.346 20.2193 101.289 20.1798 101.226 20.1537C101.163 20.1277 101.095 20.1156 101.027 20.1184C100.958 20.1165 100.891 20.129 100.827 20.155C100.764 20.181 100.708 20.22 100.661 20.2695C100.356 20.7249 99.9409 21.0955 99.454 21.3466C98.8432 21.6771 98.1419 21.8013 97.4548 21.7004C96.7677 21.5996 96.1317 21.2793 95.6416 20.7873C95.0309 20.0981 94.6938 19.2093 94.6938 18.2886C94.6938 17.3678 95.0309 16.479 95.6416 15.7898C95.9444 15.4885 96.304 15.2504 96.6996 15.0892C97.0952 14.928 97.5189 14.847 97.9461 14.8509Z" fill="#1F3155"/>
<path d="M107.726 13.4294C106.841 13.4169 105.968 13.6242 105.184 14.0327C104.517 14.3916 103.936 14.8914 103.482 15.4974C103.409 15.5876 103.371 15.701 103.374 15.817C103.37 15.9508 103.417 16.0811 103.503 16.183C103.548 16.2348 103.605 16.2754 103.668 16.3016C103.732 16.3278 103.801 16.3389 103.869 16.334C103.94 16.3434 104.013 16.3321 104.078 16.3015C104.143 16.2709 104.197 16.2222 104.235 16.1614C104.569 15.7518 104.989 15.4214 105.466 15.1942C105.943 14.967 106.464 14.8486 106.992 14.8477C107.843 14.8228 108.67 15.132 109.297 15.7091C109.584 15.9643 109.817 16.2755 109.98 16.6237C110.142 16.9719 110.233 17.3497 110.244 17.734C109.874 17.4185 109.451 17.1705 108.995 17.0012C108.372 16.7837 107.717 16.6756 107.057 16.6816C106.338 16.6678 105.623 16.7845 104.946 17.026C104.344 17.2437 103.815 17.6241 103.416 18.1247C103.038 18.6441 102.834 19.2701 102.834 19.9126C102.834 20.5552 103.038 21.1812 103.416 21.7006C103.815 22.2012 104.344 22.5816 104.946 22.7993C105.623 23.0408 106.338 23.1575 107.057 23.1437C107.772 23.1484 108.481 23.0169 109.146 22.7562C109.644 22.5725 110.093 22.2779 110.46 21.8948V22.0026C110.453 22.1497 110.477 22.2965 110.529 22.4341C110.582 22.5716 110.662 22.6968 110.765 22.8018C110.868 22.9068 110.992 22.9894 111.129 23.0444C111.265 23.0994 111.412 23.1256 111.559 23.1213C111.853 23.1202 112.136 23.0132 112.358 22.8201C112.469 22.715 112.557 22.588 112.616 22.4471C112.675 22.3063 112.705 22.1546 112.702 22.0018V17.9098C112.713 17.3037 112.591 16.7027 112.345 16.1485C112.1 15.5943 111.736 15.1002 111.281 14.7007C110.3 13.8405 109.029 13.386 107.726 13.4294ZM105.27 19.9131C105.256 19.6403 105.313 19.3686 105.433 19.1237C105.554 18.8787 105.735 18.6686 105.96 18.5131C106.499 18.1755 107.122 17.9965 107.758 17.9965C108.393 17.9965 109.017 18.1755 109.555 18.5131C109.78 18.6686 109.961 18.8787 110.082 19.1237C110.202 19.3686 110.259 19.6403 110.245 19.9131C110.254 20.1881 110.196 20.4613 110.076 20.7089C109.956 20.9566 109.777 21.1713 109.555 21.3346C109.024 21.6965 108.389 21.8778 107.746 21.8516C107.11 21.8813 106.481 21.6995 105.959 21.3346C105.736 21.1728 105.556 20.9584 105.436 20.7104C105.316 20.4623 105.259 20.1884 105.27 19.9131Z" fill="#1F3155"/>
<path d="M120.757 15.0427C120.947 15.0439 121.131 14.9748 121.274 14.8485C121.409 14.7102 121.486 14.5251 121.489 14.3315C121.49 14.2359 121.473 14.1409 121.436 14.0524C121.4 13.964 121.345 13.8839 121.277 13.8173C121.208 13.7506 121.127 13.6987 121.037 13.6649C120.948 13.631 120.852 13.6158 120.757 13.6203H117.547V12.1157C117.548 11.9514 117.517 11.7886 117.454 11.6368C117.391 11.4851 117.298 11.3476 117.181 11.2327C117.065 11.1183 116.927 11.0287 116.775 10.9695C116.623 10.9103 116.461 10.8827 116.298 10.8883C115.971 10.8873 115.655 11.0103 115.415 11.2327C115.298 11.3477 115.205 11.4851 115.142 11.6369C115.079 11.7886 115.047 11.9514 115.049 12.1157V19.6334C115.058 20.575 115.439 21.4748 116.109 22.1366C116.779 22.7984 117.683 23.1684 118.625 23.1661C119.18 23.1734 119.729 23.0401 120.219 22.7785C120.641 22.561 121.02 22.2692 121.338 21.9171C121.38 21.8753 121.413 21.8255 121.435 21.7706C121.457 21.7156 121.468 21.6567 121.467 21.5975C121.467 21.4709 121.421 21.3487 121.338 21.2531C121.297 21.1948 121.242 21.1481 121.178 21.1178C121.113 21.0875 121.042 21.0747 120.972 21.0805C120.842 21.0873 120.72 21.141 120.627 21.2315C120.467 21.4091 120.27 21.5507 120.051 21.6471C119.832 21.7435 119.595 21.7925 119.356 21.7909C118.871 21.7833 118.409 21.5843 118.07 21.2374C117.731 20.8904 117.543 20.4236 117.547 19.9386V15.0427H120.757Z" fill="#1F3155"/>
<path d="M124.29 13.4293C124.12 13.4246 123.951 13.4568 123.795 13.5237C123.639 13.5906 123.499 13.6906 123.385 13.8169C123.17 14.0355 123.047 14.3284 123.041 14.6351V21.9371C123.04 22.0981 123.071 22.2577 123.134 22.4059C123.197 22.5541 123.29 22.6878 123.407 22.7985C123.523 22.9129 123.661 23.0025 123.813 23.0617C123.965 23.1209 124.127 23.1485 124.29 23.1429C124.45 23.1468 124.608 23.1183 124.756 23.0591C124.905 22.9998 125.039 22.9111 125.152 22.7983C125.265 22.6854 125.354 22.5508 125.413 22.4027C125.472 22.2545 125.501 22.0958 125.497 21.9363V14.6359C125.494 14.3332 125.38 14.042 125.177 13.8177C125.069 13.6895 124.932 13.5878 124.779 13.5205C124.625 13.4531 124.458 13.422 124.29 13.4293Z" fill="#1F3155"/>
<path d="M124.289 9.61619C123.962 9.61517 123.646 9.73824 123.406 9.9606C123.231 10.1353 123.112 10.358 123.063 10.6005C123.015 10.8429 123.039 11.0943 123.134 11.3228C123.229 11.5513 123.389 11.7466 123.594 11.884C123.8 12.0214 124.042 12.0948 124.289 12.0948C124.536 12.0948 124.778 12.0214 124.983 11.884C125.189 11.7466 125.349 11.5513 125.444 11.3228C125.538 11.0943 125.563 10.8429 125.514 10.6005C125.466 10.358 125.347 10.1353 125.172 9.9606C125.056 9.84618 124.918 9.75663 124.766 9.69741C124.614 9.6382 124.452 9.61056 124.289 9.61619Z" fill="#1F3155"/>
<path d="M136.825 15.1074C136.472 14.7337 136.065 14.4144 135.619 14.1597C135.168 13.9015 134.682 13.7129 134.175 13.6003C133.169 13.3705 132.123 13.3705 131.117 13.6003C130.613 13.7226 130.128 13.9106 129.673 14.1597C129.227 14.4144 128.821 14.7338 128.468 15.1074C128.105 15.5108 127.82 15.9782 127.628 16.4858C127.197 17.6388 127.197 18.9086 127.628 20.0616C127.82 20.5692 128.105 21.0366 128.468 21.4401C128.821 21.8137 129.227 22.133 129.673 22.3878C130.124 22.6459 130.61 22.8345 131.117 22.9471C132.123 23.1769 133.169 23.1769 134.175 22.9471C134.679 22.8249 135.164 22.6368 135.619 22.3878C136.065 22.1331 136.472 21.8137 136.825 21.4401C137.188 21.0366 137.473 20.5692 137.665 20.0616C138.096 18.9086 138.096 17.6388 137.665 16.4858C137.473 15.9782 137.188 15.5108 136.825 15.1074ZM135.511 18.2957C135.565 19.2123 135.281 20.1171 134.712 20.8376C134.446 21.1166 134.127 21.3388 133.774 21.4906C133.42 21.6425 133.039 21.7208 132.654 21.7208C132.27 21.7208 131.889 21.6425 131.535 21.4906C131.181 21.3388 130.862 21.1166 130.597 20.8376C130.012 20.1245 129.72 19.216 129.779 18.2957C129.724 17.3692 130.015 16.4554 130.597 15.7323C130.858 15.4452 131.178 15.2178 131.535 15.0654C131.892 14.913 132.277 14.8393 132.665 14.8493C133.05 14.8372 133.433 14.9101 133.787 15.0627C134.14 15.2153 134.456 15.4439 134.712 15.7323C135.284 16.4598 135.569 17.3731 135.511 18.2973V18.2957Z" fill="#1F3155"/>
<path d="M147.251 13.9248C146.648 13.6025 145.974 13.4324 145.29 13.4294C144.57 13.4284 143.863 13.6216 143.244 13.9887C142.777 14.2595 142.373 14.6267 142.059 15.0659V14.5481C142.055 14.2583 141.941 13.9808 141.739 13.773C141.64 13.6599 141.517 13.5704 141.378 13.5108C141.24 13.4512 141.09 13.4231 140.94 13.4286C140.787 13.4254 140.635 13.4544 140.494 13.5138C140.353 13.5731 140.226 13.6614 140.122 13.773C139.91 13.9761 139.786 14.2545 139.777 14.5481V21.9579C139.776 22.1189 139.808 22.2785 139.871 22.4267C139.934 22.575 140.026 22.7086 140.143 22.8193C140.259 22.9337 140.398 23.0233 140.549 23.0825C140.701 23.1417 140.863 23.1693 141.026 23.1637C141.354 23.1647 141.669 23.0417 141.909 22.8193C142.026 22.7086 142.119 22.575 142.182 22.4267C142.245 22.2785 142.277 22.1189 142.275 21.9579V17.177C142.267 16.8707 142.324 16.5662 142.443 16.2838C142.562 16.0015 142.74 15.7478 142.965 15.5397C143.173 15.3208 143.424 15.1466 143.702 15.028C143.979 14.9095 144.279 14.8489 144.581 14.8501C144.887 14.8418 145.191 14.899 145.474 15.0179C145.756 15.1369 146.01 15.3148 146.218 15.5397C146.439 15.7508 146.614 16.0051 146.733 16.2867C146.851 16.5684 146.911 16.8714 146.908 17.177V21.9371C146.906 22.0982 146.938 22.2578 147.001 22.406C147.064 22.5542 147.157 22.6878 147.273 22.7985C147.387 22.9109 147.521 22.9993 147.669 23.0585C147.817 23.1176 147.976 23.1464 148.135 23.1429C148.298 23.1486 148.46 23.1209 148.612 23.0617C148.764 23.0025 148.902 22.9129 149.018 22.7985C149.135 22.6878 149.228 22.5542 149.291 22.406C149.354 22.2578 149.385 22.0982 149.384 21.9371V17.4783C149.393 16.7337 149.192 16.0017 148.802 15.3671C148.419 14.7596 147.885 14.2624 147.251 13.9248Z" fill="#1F3155"/>
<path d="M161.23 21.0973L153.024 10.1548C152.911 10.0341 152.774 9.93898 152.622 9.87584C152.47 9.8127 152.305 9.78301 152.141 9.78879C151.993 9.78395 151.845 9.80985 151.708 9.86486C151.57 9.91988 151.445 10.0028 151.342 10.1084C151.215 10.2269 151.115 10.3712 151.048 10.5314C150.982 10.6917 150.95 10.8643 150.956 11.0377C150.948 11.3293 151.048 11.6136 151.235 11.8368L159.466 22.8009C159.581 22.9182 159.718 23.0111 159.87 23.074C160.022 23.1369 160.185 23.1685 160.349 23.1669C160.659 23.1724 160.96 23.0579 161.189 22.8473C161.313 22.7365 161.412 22.6003 161.478 22.448C161.545 22.2956 161.579 22.1307 161.576 21.9643C161.579 21.804 161.55 21.6447 161.491 21.4959C161.431 21.347 161.343 21.2115 161.23 21.0973Z" fill="#1F3155"/>
<path d="M151.839 23.1869C151.654 23.1791 151.474 23.1192 151.322 23.0143C151.143 22.8787 151.026 22.6786 150.993 22.457C150.961 22.2354 151.017 22.01 151.149 21.8292L159.916 10.09C159.982 10.0008 160.066 9.92561 160.161 9.86864C160.257 9.81168 160.363 9.77409 160.473 9.75803C160.583 9.74196 160.695 9.74773 160.803 9.77502C160.911 9.8023 161.012 9.85056 161.101 9.91703C161.19 9.98351 161.266 10.0669 161.323 10.1625C161.38 10.258 161.417 10.3638 161.433 10.4739C161.449 10.584 161.443 10.6962 161.416 10.804C161.389 10.9118 161.341 11.0133 161.274 11.1025L152.507 22.8425C152.434 22.952 152.334 23.0411 152.217 23.1014C152.101 23.1616 151.97 23.1911 151.839 23.1869Z" fill="#1F3155"/>
</svg>
