<svg width="16" height="16" viewBox="0 0 16 16" fill="none" xmlns="http://www.w3.org/2000/svg">
<g clip-path="url(#clip0_5008_2720)">
<path d="M9.48608 6.72368C9.48608 6.50093 9.30545 6.32031 9.0827 6.32031H4.64556C4.42281 6.32031 4.24219 6.50093 4.24219 6.72368C4.24219 6.94643 4.42281 7.12705 4.64556 7.12705H9.0827C9.30545 7.12705 9.48608 6.94643 9.48608 6.72368Z" fill="#2B3C6A" stroke="#2B3C6A" stroke-width="0.2"/>
<path d="M4.64556 8.35938C4.42281 8.35938 4.24219 8.54 4.24219 8.76275C4.24219 8.9855 4.42281 9.16612 4.64556 9.16612H6.99814C7.2209 9.16612 7.40152 8.9855 7.40152 8.76275C7.40152 8.54 7.2209 8.35938 6.99814 8.35938H4.64556Z" fill="#2B3C6A" stroke="#2B3C6A" stroke-width="0.2"/>
<path d="M12.1421 6.74913C11.9194 6.74913 11.7388 6.92975 11.7388 7.1525V10.4149C11.7388 11.0253 11.2422 11.5219 10.6317 11.5219H7.93359C7.84619 11.5219 7.76103 11.5501 7.69111 11.603L5.36139 13.355C5.30223 13.3994 5.24665 13.381 5.21886 13.3657C5.19063 13.3514 5.14402 13.316 5.14581 13.2438L5.19063 11.9396C5.19421 11.8303 5.15343 11.724 5.07768 11.6456C5.00194 11.5667 4.89706 11.5223 4.7877 11.5223H2.9138C2.30335 11.5223 1.80675 11.0262 1.80675 10.4153V5.08186C1.80675 4.46919 2.30335 3.9708 2.9138 3.9708H7.88428C8.10704 3.9708 8.28766 3.79018 8.28766 3.56743C8.28766 3.34468 8.10704 3.16406 7.88428 3.16406H2.9138C1.85874 3.16406 1 4.02459 1 5.08231V10.4153C1 11.4704 1.85874 12.3295 2.9138 12.3295H4.36998L4.33951 13.2178C4.32875 13.5827 4.52282 13.9143 4.84686 14.0824C4.98535 14.1546 5.1346 14.19 5.28251 14.19C5.48106 14.19 5.67782 14.1259 5.84544 14.0008L8.06805 12.3295H10.6313C11.6863 12.3295 12.5451 11.4708 12.5451 10.4153V7.15295C12.5455 6.92975 12.3649 6.74913 12.1421 6.74913Z" fill="#2B3C6A" stroke="#2B3C6A" stroke-width="0.2"/>
<path d="M14.3218 2.90604C14.2487 2.68194 14.069 2.51432 13.8409 2.45785L12.81 2.20104L12.2471 1.30017C11.9974 0.899494 11.3458 0.90039 11.0966 1.30017L10.5336 2.20104L9.50278 2.45785C9.27464 2.51432 9.09447 2.68194 9.02186 2.90604C8.94925 3.13013 8.99587 3.37171 9.14736 3.55233L9.83041 4.36534L9.75601 5.42486C9.73942 5.65971 9.8434 5.88246 10.0339 6.02095C10.1522 6.10701 10.2912 6.15138 10.4319 6.15138C10.5175 6.15138 10.604 6.13479 10.6869 6.10118L11.672 5.70319L12.6567 6.10118C12.875 6.18992 13.1188 6.15944 13.3098 6.0214C13.5002 5.88291 13.6042 5.66016 13.5881 5.42486L13.5137 4.36534L14.1967 3.55188C14.3478 3.37171 14.3948 3.13013 14.3218 2.90604ZM12.7907 3.97138C12.7235 4.05161 12.6899 4.15469 12.6975 4.25957L12.7692 5.27696L11.8235 4.89465C11.7751 4.87493 11.7236 4.86507 11.6725 4.86507C11.6214 4.86507 11.5699 4.87493 11.5214 4.89465L10.5762 5.27696L10.6475 4.25957C10.6546 4.15514 10.621 4.05161 10.5542 3.97138L9.89853 3.19064L10.8881 2.94368C10.9894 2.91814 11.0773 2.85494 11.1324 2.7662L11.6729 1.90164L12.2135 2.7662C12.269 2.85494 12.3564 2.91859 12.4577 2.94368L13.4473 3.19064L12.7907 3.97138Z" fill="#2B3C6A" stroke="#2B3C6A" stroke-width="0.2"/>
</g>
<defs>
<clipPath id="clip0_5008_2720">
<rect width="16" height="16" fill="white"/>
</clipPath>
</defs>
</svg>
