<svg width="141" height="116" viewBox="0 0 141 116" fill="none" xmlns="http://www.w3.org/2000/svg">
<g clip-path="url(#clip0_808_2782)">
<path d="M140 92.2528H0V92.3229H140V92.2528Z" fill="#EBEBEB"/>
<path d="M125.971 96.7673H116.697V96.8375H125.971V96.7673Z" fill="#EBEBEB"/>
<path d="M92.7426 97.5284H90.3086V97.5986H92.7426V97.5284Z" fill="#EBEBEB"/>
<path d="M116.417 94.163H111.043V94.2331H116.417V94.163Z" fill="#EBEBEB"/>
<path d="M26.7835 94.634H14.6895V94.7042H26.7835V94.634Z" fill="#EBEBEB"/>
<path d="M31.0486 94.634H29.2754V94.7042H31.0486V94.634Z" fill="#EBEBEB"/>
<path d="M63.0418 95.8185H36.8125V95.8886H63.0418V95.8185Z" fill="#EBEBEB"/>
<path d="M66.3632 79.7442H12.2955C11.4143 79.7442 10.6973 79.0259 10.6973 78.1433V2.01355C10.6973 1.13089 11.4143 0.412598 12.2955 0.412598H66.3632C67.2441 0.412598 67.9612 1.13089 67.9612 2.01355V78.1433C67.9612 79.0259 67.2441 79.7442 66.3632 79.7442ZM12.2955 0.482997C11.4527 0.482997 10.7673 1.1696 10.7673 2.01383V78.1435C10.7673 78.9878 11.4527 79.6744 12.2955 79.6744H66.3632C67.2057 79.6744 67.8912 78.9878 67.8912 78.1435V2.01355C67.8912 1.1696 67.2057 0.482716 66.3632 0.482716L12.2955 0.482997Z" fill="#EBEBEB"/>
<path d="M126.927 79.7442H72.8597C71.9785 79.7442 71.2617 79.0259 71.2617 78.1433V2.01355C71.2617 1.13089 71.9788 0.412598 72.8597 0.412598H126.927C127.809 0.412598 128.525 1.13089 128.525 2.01355V78.1433C128.526 79.0259 127.809 79.7442 126.927 79.7442ZM72.8597 0.482997C72.0172 0.482997 71.3317 1.1696 71.3317 2.01383V78.1435C71.3317 78.9878 72.0172 79.6744 72.8597 79.6744H126.927C127.77 79.6744 128.455 78.9878 128.455 78.1435V2.01355C128.455 1.1696 127.77 0.482716 126.927 0.482716L72.8597 0.482997Z" fill="#EBEBEB"/>
<path d="M110.061 6.36169H28.3613V44.6515H110.061V6.36169Z" fill="#E6E6E6"/>
<path d="M111.293 6.36169H28.9375V44.6515H111.293V6.36169Z" fill="#F0F0F0"/>
<path d="M110.061 44.6515H28.3613V46.6047H110.061V44.6515Z" fill="#E6E6E6"/>
<path d="M113.344 44.6515H30.9883V46.6047H113.344V44.6515Z" fill="#F0F0F0"/>
<path d="M109.568 42.9256V8.08789L30.6588 8.08789V42.9256L109.568 42.9256Z" fill="#FAFAFA"/>
<path d="M39.127 42.9256L43.9228 8.08789H51.4066L46.6105 42.9256H39.127Z" fill="white"/>
<path d="M31.4572 41.2076C31.3891 41.2076 31.334 41.1524 31.334 41.0842V9.21081C31.334 9.14266 31.3891 9.0874 31.4572 9.0874C31.5252 9.0874 31.5804 9.14266 31.5804 9.21081V41.0845C31.5804 41.1524 31.5252 41.2076 31.4572 41.2076Z" fill="#F0F0F0"/>
<path d="M48.2188 42.9256L53.0146 8.08789H55.9322L51.1363 42.9256H48.2188Z" fill="white"/>
<path d="M109.568 42.9255V8.08777H109.35V42.9255H109.568Z" fill="#E6E6E6"/>
<path opacity="0.6" d="M111.7 10.6902H30.0003L29.8418 8.75854H111.542L111.7 10.6902Z" fill="#EBEBEB"/>
<path opacity="0.6" d="M111.7 13.8583H30.0003L29.8418 11.9266H111.542L111.7 13.8583Z" fill="#EBEBEB"/>
<path opacity="0.6" d="M111.7 17.0261H30.0003L29.8418 15.0945H111.542L111.7 17.0261Z" fill="#EBEBEB"/>
<path opacity="0.6" d="M111.7 20.1941H30.0003L29.8418 18.2625H111.542L111.7 20.1941Z" fill="#EBEBEB"/>
<path opacity="0.6" d="M111.7 23.3622H30.0003L29.8418 21.4305H111.542L111.7 23.3622Z" fill="#EBEBEB"/>
<path opacity="0.6" d="M111.7 26.53H30.0003L29.8418 24.5984H111.542L111.7 26.53Z" fill="#EBEBEB"/>
<path d="M122.92 54.2771H110.451V92.253H122.92V54.2771Z" fill="#E6E6E6"/>
<path d="M119.59 92.2531H122.92V87.0107H116.1L119.59 92.2531Z" fill="#FAFAFA"/>
<path d="M88.9235 54.2771H76.4551V92.253H88.9235V54.2771Z" fill="#E6E6E6"/>
<path d="M122.919 54.2771H86.0176V90.4488H122.919V54.2771Z" fill="#FAFAFA"/>
<path d="M89.3468 92.2531H86.0176V87.0107H92.8378L89.3468 92.2531Z" fill="#FAFAFA"/>
<path d="M120.338 67.7559H88.6016V76.8079H120.338V67.7559Z" fill="#F0F0F0"/>
<path d="M120.338 78.7427H88.6016V87.7947H120.338V78.7427Z" fill="#F0F0F0"/>
<path d="M114.042 68.7238H94.8966C94.1736 68.7238 93.5879 68.1367 93.5879 67.4128V66.9719H115.351V67.4128C115.35 68.1367 114.764 68.7238 114.042 68.7238Z" fill="#FAFAFA"/>
<path d="M120.338 56.7688H88.6016V65.8208H120.338V56.7688Z" fill="#F0F0F0"/>
<path d="M114.042 57.7367H94.8966C94.1736 57.7367 93.5879 57.1497 93.5879 56.4258V55.9849H115.351V56.4258C115.35 57.1497 114.764 57.7367 114.042 57.7367Z" fill="#FAFAFA"/>
<path d="M114.042 79.7105H94.8966C94.1736 79.7105 93.5879 79.1234 93.5879 78.3995V77.9586H115.351V78.3995C115.35 79.1234 114.764 79.7105 114.042 79.7105Z" fill="#FAFAFA"/>
<path d="M14.9567 62.3736C15.6514 60.3761 21.1287 63.0924 23.3514 66.4029C24.8317 68.6074 25.7361 70.9606 26.1584 74.1218C26.1077 70.5149 26.0503 66.6396 25.994 62.9825C25.5446 62.0707 24.5181 59.9683 23.7798 58.3022C21.3163 52.7438 15.4587 50.6739 13.4352 47.1643C10.7836 42.5659 10.799 35.6679 13.0561 33.1787C15.0177 31.0157 21.5135 45.6419 22.2451 47.2759C24.7617 52.8964 25.4934 57.0676 25.9649 61.1084C25.9111 57.6734 25.8599 54.5197 25.8176 52.0864C25.6801 44.1495 25.5082 41.5966 25.4295 40.811C25.1582 40.4273 24.8382 39.9802 24.652 39.7404C23.0801 37.7132 19.5921 35.3 17.8491 32.353C15.3039 28.0503 15.7152 22.9005 17.5005 20.9829C19.367 18.9778 22.6668 23.7167 24.4187 28.4121C26.1707 33.1075 25.422 37.6015 25.9134 41.501C26.0161 42.2658 26.1217 45.1707 26.2208 49.2003C26.7523 44.8647 27.8109 41.9601 29.7729 39.2535C32.1859 35.9246 34.2691 31.8706 36.2574 32.3945C38.2457 32.9185 37.1755 38.2825 35.6025 42.0482C34.2017 45.4018 27.2913 48.7467 26.2729 51.4429C26.3927 56.9049 26.5 63.8245 26.5759 70.267C27.1207 66.9392 26.7461 66.6598 28.9785 61.565C30.3057 58.5361 35.747 54.8008 36.396 56.8819C37.0327 58.9243 36.0586 62.8961 34.0045 65.6509C32.3475 67.8731 28.6708 67.8706 27.8199 69.2494C27.6214 69.5711 26.9651 70.8044 26.5901 71.5134C26.6789 79.3788 26.7187 86.3216 26.6747 88.6888L26.318 88.7127C26.3351 88.1015 26.2919 84.1003 26.2219 78.8055C25.3293 75.9881 19.3188 74.3434 17.4621 71.4136C15.5198 68.3477 14.1234 64.7697 14.9567 62.3736Z" fill="#E6E6E6"/>
<path d="M20.6079 92.2529H32.1439C32.7742 92.2529 33.3174 91.808 33.4425 91.1893L34.2615 87.1451H18.4902L19.3092 91.1893C19.4344 91.8083 19.9776 92.2529 20.6079 92.2529Z" fill="#F0F0F0"/>
<path d="M18.1604 88.713H34.5913C34.985 88.713 35.316 88.4168 35.3599 88.0247L35.6959 85.0348C35.7474 84.5754 35.3888 84.1732 34.9273 84.1732H17.8244C17.3629 84.1732 17.004 84.5754 17.0558 85.0348L17.3918 88.0247C17.4357 88.4168 17.7667 88.713 18.1604 88.713Z" fill="#F0F0F0"/>
<path d="M49.7974 74.0839H39.9395V92.253H49.7974V74.0839Z" fill="#E0E0E0"/>
<path d="M74.9232 92.2527H41.9128L38.4453 67.5999H71.4556L74.9232 92.2527Z" fill="#E6E6E6"/>
<path d="M79.7376 92.2527H43.2234L39.7559 67.5999H76.2701L79.7376 92.2527Z" fill="#F0F0F0"/>
<path d="M46.7979 88.399L43.877 71.4536H72.6962L75.6172 88.399H46.7979Z" fill="white"/>
<path d="M59.1825 88.399L49.3867 71.4536H52.46L62.2558 88.399H59.1825Z" fill="#FAFAFA"/>
<path d="M63.5575 88.399L53.7617 71.4536H59.0022L68.798 88.399H63.5575Z" fill="#FAFAFA"/>
<path d="M69.9999 104.92C99.9828 104.92 124.289 103.498 124.289 101.744C124.289 99.9901 99.9828 98.5682 69.9999 98.5682C40.0169 98.5682 15.7109 99.9901 15.7109 101.744C15.7109 103.498 40.0169 104.92 69.9999 104.92Z" fill="#F5F5F5"/>
<path d="M39.9405 48.2438C39.8789 48.2438 39.8271 48.1967 39.8218 48.1342L39.1997 40.6449C39.1941 40.5793 39.2428 40.5218 39.3086 40.5162C39.3702 40.5114 39.4315 40.5594 39.4371 40.6253L40.0593 48.1145C40.0649 48.1802 40.0161 48.2377 39.9503 48.2433C39.947 48.2435 39.9439 48.2438 39.9405 48.2438Z" fill="#6A4BFF"/>
<path d="M40.3096 52.6922C40.248 52.6922 40.1962 52.6451 40.1908 52.5826L40.0024 50.3155C39.9968 50.2499 40.0455 50.1924 40.1113 50.1868C40.1743 50.1786 40.2345 50.2297 40.2398 50.2959L40.4283 52.5629C40.4339 52.6286 40.3852 52.6861 40.3194 52.6917C40.3163 52.692 40.3129 52.6922 40.3096 52.6922Z" fill="#6A4BFF"/>
<path d="M103.301 74.003H45.4888C44.0137 74.003 42.7064 72.7941 42.5835 71.3163L39.3276 32.1135C39.205 30.636 40.3113 29.4269 41.7866 29.4269H99.5993C101.074 29.4269 102.382 30.6357 102.505 32.1135L105.761 71.3163C105.883 72.7938 104.777 74.003 103.301 74.003Z" fill="white"/>
<path d="M103.302 74.1148H45.4892C43.9537 74.1148 42.6004 72.8636 42.4727 71.3258L39.2169 32.123C39.1545 31.375 39.3899 30.6696 39.8791 30.137C40.366 29.6069 41.0436 29.3149 41.787 29.3149H99.6C101.135 29.3149 102.488 30.5664 102.616 32.1043L105.872 71.3067C105.935 72.0547 105.699 72.7599 105.21 73.2922C104.723 73.8226 104.045 74.1148 103.302 74.1148ZM41.787 29.539C41.1069 29.539 40.4878 29.8052 40.0437 30.2887C39.5971 30.7745 39.3827 31.4193 39.4395 32.1045L42.6953 71.307C42.8138 72.7318 44.0671 73.8907 45.4895 73.8907H103.302C103.983 73.8907 104.602 73.6246 105.046 73.141C105.492 72.655 105.707 72.0104 105.65 71.3255L102.394 32.123C102.275 30.6982 101.022 29.539 99.6003 29.539H41.787Z" fill="#6A4BFF"/>
<path d="M99.5993 29.4271H41.7866C40.3116 29.4271 39.205 30.636 39.3276 32.1138H102.504C102.382 30.636 101.074 29.4271 99.5993 29.4271Z" fill="#6A4BFF"/>
<path d="M43.1395 30.7703C43.1661 31.0903 42.9286 31.3497 42.6091 31.3497C42.2897 31.3497 42.0091 31.0903 41.9825 30.7703C41.9559 30.4502 42.1933 30.1908 42.5128 30.1908C42.8323 30.1908 43.1129 30.4502 43.1395 30.7703Z" fill="white"/>
<path d="M45.4907 30.7703C45.5173 31.0903 45.2799 31.3497 44.9604 31.3497C44.6409 31.3497 44.3607 31.0903 44.3341 30.7703C44.3075 30.4502 44.5449 30.1908 44.8644 30.1908C45.1839 30.1908 45.4641 30.4502 45.4907 30.7703Z" fill="white"/>
<path d="M47.8443 30.7703C47.8709 31.0903 47.6334 31.3497 47.3139 31.3497C46.9945 31.3497 46.7139 31.0903 46.6876 30.7703C46.661 30.4502 46.8984 30.1908 47.2179 30.1908C47.5374 30.1908 47.8177 30.4502 47.8443 30.7703Z" fill="white"/>
<path d="M98.2861 68.8656H49.6543C48.4817 68.8656 47.4426 67.9047 47.3449 66.73L45.0738 39.3869C44.9763 38.2122 45.8558 37.2513 47.0285 37.2513H95.66C96.8326 37.2513 97.8717 38.2122 97.9694 39.3869L100.241 66.73C100.338 67.9047 99.4587 68.8656 98.2861 68.8656Z" fill="#F0F0F0"/>
<path opacity="0.1" d="M83.2457 42.0388L68.1795 60.2088C66.1128 62.7014 67.4221 66.501 70.5836 67.1859L95.02 72.4798C98.3946 73.211 101.214 69.8686 99.9321 66.6575L90.5619 43.1936C89.3486 40.1552 85.3331 39.5216 83.2457 42.0388Z" fill="#263238"/>
<path opacity="0.1" d="M49.712 44.5866L44.4645 58.741C43.7642 60.6297 45.2804 62.6009 47.2821 62.4043L62.6063 60.899C64.755 60.6878 65.8151 58.175 64.4685 56.4843L54.3922 43.8349C53.0711 42.177 50.4492 42.598 49.712 44.5866Z" fill="#263238"/>
<path d="M88.4432 37.4642L74.359 57.9492C72.4404 60.7396 74.14 64.5754 77.4927 65.0222L103.383 68.4737C106.976 68.9528 109.648 65.2202 108.043 61.9645L96.2367 38.0279C94.7051 34.9225 90.4049 34.6112 88.4432 37.4642Z" fill="#6A4BFF"/>
<path d="M78.1084 63.1859C77.1668 63.0605 76.3484 62.4656 75.9191 61.5953C75.4899 60.7247 75.5392 59.7604 76.0513 59.0152L90.1711 38.4786C90.6832 37.734 91.5512 37.364 92.4926 37.4894C93.4342 37.615 94.2527 38.2096 94.6819 39.0799L106.518 63.0768C106.947 63.9474 106.897 64.9116 106.385 65.6569C105.873 66.4015 105.005 66.7715 104.064 66.6461L78.1084 63.1859Z" fill="white"/>
<path d="M91.289 44.7488L92.9379 44.9687C93.9983 45.1101 94.8145 46.0763 94.7604 47.1267L94.6499 49.2813C94.6459 49.3604 94.6367 49.4386 94.623 49.5155L93.4498 56.0085C93.2806 56.9441 92.4272 57.5494 91.459 57.4204C90.4885 57.2911 89.7076 56.4648 89.6387 55.4949L89.163 48.7848C89.1574 48.7071 89.1568 48.6295 89.1607 48.5523L89.2713 46.3952C89.3254 45.3445 90.2287 44.6075 91.289 44.7488ZM91.1574 59.2101L91.6071 59.2701C92.5557 59.3966 93.2854 60.2607 93.2372 61.2003C93.1891 62.1399 92.381 62.799 91.4324 62.6728L90.9827 62.6128C90.034 62.4863 89.3044 61.6221 89.3525 60.6826C89.401 59.743 90.2091 59.0836 91.1574 59.2101Z" fill="#6A4BFF"/>
<path d="M55.1274 40.5954L51.2604 55.2849C50.7482 57.23 52.4431 59.0419 54.414 58.6565L69.4142 55.7247C71.522 55.3127 72.3458 52.7326 70.8679 51.1718L59.7351 39.414C58.2674 37.8641 55.6712 38.5297 55.1274 40.5954Z" fill="#6A4BFF"/>
<path d="M54.3846 57.4667C53.8391 57.5733 53.2716 57.3817 52.867 56.9543C52.4621 56.5265 52.3042 55.9524 52.445 55.4181L56.3219 40.6915C56.4625 40.1575 56.8721 39.7749 57.4178 39.6683C57.9633 39.5618 58.5308 39.7533 58.9354 40.1808L70.0965 51.9683C70.5014 52.396 70.6593 52.9701 70.5185 53.5044C70.3779 54.0384 69.9683 54.421 69.4228 54.5276L54.3846 57.4667Z" fill="white"/>
<path d="M58.145 44.149L59.1004 43.9622C59.7147 43.8421 60.3523 44.2519 60.5239 44.8771L60.8764 46.1597C60.8893 46.2068 60.8994 46.2542 60.9064 46.3019L61.5031 50.3284C61.589 50.9087 61.2326 51.4261 60.6718 51.5358C60.1095 51.6458 59.5185 51.3112 59.2942 50.7567L57.7424 46.9184C57.7245 46.8738 57.7091 46.8286 57.6965 46.7826L57.3437 45.4983C57.172 44.8734 57.5307 44.269 58.145 44.149ZM60.8484 52.6423L61.1091 52.5912C61.6588 52.4838 62.2288 52.8504 62.3826 53.4097C62.5363 53.9692 62.2154 54.5097 61.6658 54.6171L61.4054 54.6681C60.8557 54.7756 60.2856 54.409 60.1319 53.8497C59.9779 53.2902 60.2988 52.7497 60.8484 52.6423Z" fill="#6A4BFF"/>
</g>
<defs>
<clipPath id="clip0_808_2782">
<rect width="140" height="116" fill="white" transform="translate(0.5)"/>
</clipPath>
</defs>
</svg>
