<svg width="24" height="25" viewBox="0 0 24 25" fill="none" xmlns="http://www.w3.org/2000/svg">
<path fill-rule="evenodd" clip-rule="evenodd" d="M13.4374 5.14605C12.7641 4.11603 11.2359 4.11602 10.5626 5.14605L7.16316 10.3463L4.56478 8.87411C3.26302 8.13656 1.69785 9.29241 2.05047 10.7309L3.81575 17.9319C3.89523 18.2562 4.18964 18.4846 4.52808 18.4846H19.4719C19.8104 18.4846 20.1048 18.2562 20.1843 17.9319L21.9495 10.7309C22.3022 9.2924 20.737 8.13657 19.4352 8.87411L16.8368 10.3463L13.4374 5.14605ZM12.2053 5.92836C12.1092 5.78121 11.8908 5.78121 11.7947 5.92835L8.01794 11.7057C7.80654 12.0291 7.37505 12.1324 7.03666 11.9407L3.83432 10.1264C3.64835 10.021 3.42475 10.1862 3.47513 10.3916L5.10494 17.0401H18.8951L20.5249 10.3916C20.5752 10.1862 20.3517 10.021 20.1657 10.1264L16.9633 11.9407C16.6249 12.1324 16.1935 12.0291 15.9821 11.7057L12.2053 5.92836Z" fill="white"/>
<path d="M5.15861 19.9292C4.75388 19.9292 4.42578 20.2526 4.42578 20.6515C4.42578 21.0503 4.75388 21.3737 5.15861 21.3737H18.838C19.2427 21.3737 19.5708 21.0503 19.5708 20.6515C19.5708 20.2526 19.2427 19.9292 18.838 19.9292H5.15861Z" fill="white"/>
</svg>
