<svg width="18" height="18" viewBox="0 0 18 18" fill="none" xmlns="http://www.w3.org/2000/svg">
<path d="M9 0.75C7.36831 0.75 5.77325 1.23385 4.41655 2.14038C3.05984 3.0469 2.00242 4.33537 1.378 5.84286C0.753575 7.35035 0.590197 9.00915 0.908525 10.6095C1.22685 12.2098 2.01259 13.6798 3.16637 14.8336C4.32016 15.9874 5.79017 16.7732 7.39051 17.0915C8.99085 17.4098 10.6497 17.2464 12.1571 16.622C13.6646 15.9976 14.9531 14.9402 15.8596 13.5835C16.7661 12.2268 17.25 10.6317 17.25 9C17.2487 6.81237 16.3791 4.71471 14.8322 3.16782C13.2853 1.62093 11.1876 0.751311 9 0.75ZM8.25 3.75C8.25 3.55109 8.32902 3.36032 8.46967 3.21967C8.61033 3.07902 8.80109 3 9 3C9.19892 3 9.38968 3.07902 9.53033 3.21967C9.67099 3.36032 9.75 3.55109 9.75 3.75V6.75C9.75 6.94891 9.67099 7.13968 9.53033 7.28033C9.38968 7.42098 9.19892 7.5 9 7.5C8.80109 7.5 8.61033 7.42098 8.46967 7.28033C8.32902 7.13968 8.25 6.94891 8.25 6.75V3.75ZM9 14.25C7.87174 14.2505 6.77335 13.8874 5.86774 13.2145C4.96212 12.5415 4.29749 11.5946 3.97243 10.5142C3.64737 9.4338 3.67918 8.27738 4.06315 7.21646C4.44711 6.15554 5.16279 5.24662 6.10403 4.6245C6.18611 4.56739 6.27878 4.52727 6.3766 4.5065C6.47441 4.48574 6.57539 4.48474 6.6736 4.50357C6.77181 4.5224 6.86526 4.56067 6.94845 4.61615C7.03165 4.67162 7.10291 4.74317 7.15805 4.82659C7.21319 4.91001 7.25109 5.00362 7.26952 5.1019C7.28795 5.20018 7.28654 5.30116 7.26538 5.39888C7.24422 5.49661 7.20372 5.58913 7.14628 5.67098C7.08884 5.75283 7.01561 5.82237 6.9309 5.8755C6.25872 6.3202 5.7477 6.96964 5.47357 7.72757C5.19944 8.48549 5.1768 9.31156 5.409 10.0834C5.64119 10.8552 6.11587 11.5316 6.76269 12.0125C7.4095 12.4933 8.19403 12.753 9 12.753C9.80598 12.753 10.5905 12.4933 11.2373 12.0125C11.8841 11.5316 12.3588 10.8552 12.591 10.0834C12.8232 9.31156 12.8006 8.48549 12.5264 7.72757C12.2523 6.96964 11.7413 6.3202 11.0691 5.8755C10.9844 5.82237 10.9112 5.75283 10.8537 5.67098C10.7963 5.58913 10.7558 5.49661 10.7346 5.39888C10.7135 5.30116 10.7121 5.20018 10.7305 5.1019C10.7489 5.00362 10.7868 4.91001 10.842 4.82659C10.8971 4.74317 10.9684 4.67162 11.0516 4.61615C11.1348 4.56067 11.2282 4.5224 11.3264 4.50357C11.4246 4.48474 11.5256 4.48574 11.6234 4.5065C11.7212 4.52727 11.8139 4.56739 11.896 4.6245C12.8372 5.24662 13.5529 6.15554 13.9369 7.21646C14.3208 8.27738 14.3526 9.4338 14.0276 10.5142C13.7025 11.5946 13.0379 12.5415 12.1323 13.2145C11.2267 13.8874 10.1283 14.2505 9 14.25Z" fill="#ADA6D6"/>
</svg>
