<svg width="26" height="26" viewBox="0 0 26 26" fill="none" xmlns="http://www.w3.org/2000/svg">
<g filter="url(#filter0_d_7694_4290)">
<g clip-path="url(#paint0_angular_7694_4290_clip_path)" data-figma-skip-parse="true"><g transform="matrix(0 0.00950475 -0.0095034 0 12.7547 11.2547)"><foreignObject x="-1052.75" y="-1052.75" width="2105.51" height="2105.51"><div xmlns="http://www.w3.org/1999/xhtml" style="background:conic-gradient(from 90deg,rgba(40, 168, 249, 1) 0deg,rgba(135, 55, 255, 1) 89.7884deg,rgba(138, 55, 255, 1) 177.75deg,rgba(97, 20, 251, 1) 185.66deg,rgba(150, 106, 240, 1) 206.981deg,rgba(33, 216, 163, 1) 249.474deg,rgba(0, 255, 181, 1) 270.075deg,rgba(38, 223, 170, 1) 286.095deg,rgba(72, 113, 234, 1) 358.143deg,rgba(40, 168, 249, 1) 360deg);height:100%;width:100%;opacity:1"></div></foreignObject></g></g><path fill-rule="evenodd" clip-rule="evenodd" d="M12.5175 1.92706C12.5487 1.8223 12.6452 1.75 12.7547 1.75C12.8643 1.75 12.9608 1.8223 12.992 1.92706C12.992 1.92706 13.4262 3.38254 13.8916 4.94365C14.6332 7.43078 16.5787 9.37632 19.0658 10.1179C20.627 10.5833 22.0824 11.0175 22.0824 11.0175C22.1872 11.0487 22.2595 11.1452 22.2595 11.2548C22.2595 11.3643 22.1872 11.4608 22.0824 11.492C22.0824 11.492 20.627 11.9262 19.0658 12.3916C16.5787 13.1332 14.6332 15.0787 13.8916 17.5659C13.4262 19.127 12.992 20.5824 12.992 20.5824C12.9608 20.6872 12.8643 20.7595 12.7547 20.7595C12.6452 20.7595 12.5487 20.6872 12.5175 20.5824C12.5175 20.5824 12.0833 19.127 11.6179 17.5659C10.8763 15.0787 8.93076 13.1332 6.44364 12.3916C4.88254 11.9262 3.42706 11.492 3.42706 11.492C3.32229 11.4608 3.25 11.3643 3.25 11.2548C3.25 11.1452 3.32229 11.0487 3.42706 11.0175C3.42706 11.0175 4.88254 10.5833 6.44364 10.1179C8.93076 9.37632 10.8763 7.43078 11.6179 4.94365C12.0833 3.38254 12.5175 1.92706 12.5175 1.92706Z" data-figma-gradient-fill="{&#34;type&#34;:&#34;GRADIENT_ANGULAR&#34;,&#34;stops&#34;:[{&#34;color&#34;:{&#34;r&#34;:0.52941179275512695,&#34;g&#34;:0.21568627655506134,&#34;b&#34;:1.0,&#34;a&#34;:1.0},&#34;position&#34;:0.24941226840019226},{&#34;color&#34;:{&#34;r&#34;:0.54248368740081787,&#34;g&#34;:0.21568627655506134,&#34;b&#34;:1.0,&#34;a&#34;:1.0},&#34;position&#34;:0.49374905228614807},{&#34;color&#34;:{&#34;r&#34;:0.38039216399192810,&#34;g&#34;:0.078431375324726105,&#34;b&#34;:0.98431372642517090,&#34;a&#34;:1.0},&#34;position&#34;:0.51572245359420776},{&#34;color&#34;:{&#34;r&#34;:0.59084969758987427,&#34;g&#34;:0.41568627953529358,&#34;b&#34;:0.94117647409439087,&#34;a&#34;:1.0},&#34;position&#34;:0.57494693994522095},{&#34;color&#34;:{&#34;r&#34;:0.12941177189350128,&#34;g&#34;:0.84705883264541626,&#34;b&#34;:0.63921570777893066,&#34;a&#34;:1.0},&#34;position&#34;:0.69298285245895386},{&#34;color&#34;:{&#34;r&#34;:0.0,&#34;g&#34;:1.0,&#34;b&#34;:0.71038252115249634,&#34;a&#34;:1.0},&#34;position&#34;:0.75020724534988403},{&#34;color&#34;:{&#34;r&#34;:0.14901961386203766,&#34;g&#34;:0.87450981140136719,&#34;b&#34;:0.66895425319671631,&#34;a&#34;:1.0},&#34;position&#34;:0.79470694065093994},{&#34;color&#34;:{&#34;r&#34;:0.28235295414924622,&#34;g&#34;:0.44313725829124451,&#34;b&#34;:0.91764706373214722,&#34;a&#34;:1.0},&#34;position&#34;:0.99484074115753174},{&#34;color&#34;:{&#34;r&#34;:0.15686275064945221,&#34;g&#34;:0.65882354974746704,&#34;b&#34;:0.97647058963775635,&#34;a&#34;:1.0},&#34;position&#34;:1.0}],&#34;stopsVar&#34;:[{&#34;color&#34;:{&#34;r&#34;:0.52941179275512695,&#34;g&#34;:0.21568627655506134,&#34;b&#34;:1.0,&#34;a&#34;:1.0},&#34;position&#34;:0.24941226840019226},{&#34;color&#34;:{&#34;r&#34;:0.54248368740081787,&#34;g&#34;:0.21568627655506134,&#34;b&#34;:1.0,&#34;a&#34;:1.0},&#34;position&#34;:0.49374905228614807},{&#34;color&#34;:{&#34;r&#34;:0.38039216399192810,&#34;g&#34;:0.078431375324726105,&#34;b&#34;:0.98431372642517090,&#34;a&#34;:1.0},&#34;position&#34;:0.51572245359420776},{&#34;color&#34;:{&#34;r&#34;:0.59084969758987427,&#34;g&#34;:0.41568627953529358,&#34;b&#34;:0.94117647409439087,&#34;a&#34;:1.0},&#34;position&#34;:0.57494693994522095},{&#34;color&#34;:{&#34;r&#34;:0.12941177189350128,&#34;g&#34;:0.84705883264541626,&#34;b&#34;:0.63921570777893066,&#34;a&#34;:1.0},&#34;position&#34;:0.69298285245895386},{&#34;color&#34;:{&#34;r&#34;:0.0,&#34;g&#34;:1.0,&#34;b&#34;:0.71038252115249634,&#34;a&#34;:1.0},&#34;position&#34;:0.75020724534988403},{&#34;color&#34;:{&#34;r&#34;:0.14901961386203766,&#34;g&#34;:0.87450981140136719,&#34;b&#34;:0.66895425319671631,&#34;a&#34;:1.0},&#34;position&#34;:0.79470694065093994},{&#34;color&#34;:{&#34;r&#34;:0.28235295414924622,&#34;g&#34;:0.44313725829124451,&#34;b&#34;:0.91764706373214722,&#34;a&#34;:1.0},&#34;position&#34;:0.99484074115753174},{&#34;color&#34;:{&#34;r&#34;:0.15686275064945221,&#34;g&#34;:0.65882354974746704,&#34;b&#34;:0.97647058963775635,&#34;a&#34;:1.0},&#34;position&#34;:1.0}],&#34;transform&#34;:{&#34;m00&#34;:-1.8929655359081450e-15,&#34;m01&#34;:-19.006805419921875,&#34;m02&#34;:22.258150100708008,&#34;m10&#34;:19.009496688842773,&#34;m11&#34;:-3.2690633511821277e-13,&#34;m12&#34;:1.750},&#34;opacity&#34;:1.0,&#34;blendMode&#34;:&#34;NORMAL&#34;,&#34;visible&#34;:true}"/>
<g clip-path="url(#paint1_angular_7694_4290_clip_path)" data-figma-skip-parse="true"><g transform="matrix(0 0.00950475 -0.0095034 0 12.7547 11.2547)"><foreignObject x="-1052.75" y="-1052.75" width="2105.51" height="2105.51"><div xmlns="http://www.w3.org/1999/xhtml" style="background:conic-gradient(from 90deg,rgba(0, 142, 232, 1) 0deg,rgba(121, 31, 255, 1) 89.7884deg,rgba(124, 31, 254, 1) 177.75deg,rgba(83, 0, 250, 1) 185.66deg,rgba(149, 97, 254, 1) 206.981deg,rgba(0, 240, 172, 1) 249.474deg,rgba(0, 219, 155, 1) 270.075deg,rgba(0, 212, 152, 1) 286.095deg,rgba(36, 90, 250, 1) 358.143deg,rgba(0, 142, 232, 1) 360deg);height:100%;width:100%;opacity:1"></div></foreignObject></g></g><path d="M12.5175 1.92706L12.7571 1.99853L12.7571 1.99835L12.5175 1.92706ZM12.992 1.92706L12.7524 1.99835L12.7524 1.99853L12.992 1.92706ZM13.8916 4.94365L13.652 5.01507L13.652 5.01508L13.8916 4.94365ZM19.0658 10.1179L18.9944 10.3575L18.9944 10.3575L19.0658 10.1179ZM22.0824 11.0175L22.011 11.2571L22.0111 11.2571L22.0824 11.0175ZM22.0824 11.492L22.0111 11.2524L22.011 11.2524L22.0824 11.492ZM19.0658 12.3916L18.9944 12.152L18.9944 12.152L19.0658 12.3916ZM13.8916 17.5659L13.652 17.4944L13.652 17.4944L13.8916 17.5659ZM12.992 20.5824L12.7524 20.511L12.7524 20.5112L12.992 20.5824ZM12.5175 20.5824L12.7571 20.5112L12.7571 20.511L12.5175 20.5824ZM11.6179 17.5659L11.8575 17.4944L11.8575 17.4944L11.6179 17.5659ZM6.44364 12.3916L6.51508 12.152L6.51506 12.152L6.44364 12.3916ZM3.42706 11.492L3.49853 11.2524L3.49835 11.2524L3.42706 11.492ZM3.42706 11.0175L3.49835 11.2571L3.49853 11.2571L3.42706 11.0175ZM6.44364 10.1179L6.51506 10.3575L6.51508 10.3575L6.44364 10.1179ZM11.6179 4.94365L11.8575 5.01508L11.8575 5.01507L11.6179 4.94365ZM12.5175 1.92706L12.7571 1.99835C12.7568 1.99929 12.7562 2 12.7547 2V1.75V1.5C12.5343 1.5 12.3405 1.64531 12.2779 1.85578L12.5175 1.92706ZM12.7547 1.75V2C12.7533 2 12.7526 1.99929 12.7524 1.99835L12.992 1.92706L13.2316 1.85578C13.169 1.64531 12.9752 1.5 12.7547 1.5V1.75ZM12.992 1.92706C12.7524 1.99853 12.7524 1.99854 12.7524 1.99855C12.7524 1.99856 12.7524 1.99858 12.7524 1.9986C12.7525 1.99864 12.7525 1.99871 12.7525 1.9988C12.7526 1.99898 12.7526 1.99924 12.7527 1.99959C12.7529 2.0003 12.7533 2.00135 12.7537 2.00276C12.7545 2.00556 12.7558 2.00974 12.7574 2.01526C12.7607 2.0263 12.7656 2.0427 12.772 2.06412C12.7848 2.10696 12.8035 2.16992 12.8275 2.25034C12.8755 2.41118 12.9443 2.64189 13.0277 2.92139C13.1944 3.48039 13.4193 4.23453 13.652 5.01507L13.8916 4.94365L14.1312 4.87222C13.8985 4.09166 13.6736 3.3375 13.5068 2.77849C13.4235 2.49898 13.3547 2.26826 13.3067 2.10741C13.2827 2.02699 13.2639 1.96403 13.2511 1.92118C13.2447 1.89976 13.2398 1.88336 13.2365 1.87232C13.2349 1.8668 13.2336 1.86262 13.2328 1.85982C13.2324 1.85842 13.2321 1.85736 13.2319 1.85665C13.2318 1.8563 13.2317 1.85604 13.2316 1.85586C13.2316 1.85577 13.2316 1.8557 13.2316 1.85566C13.2316 1.85564 13.2316 1.85562 13.2316 1.85561C13.2316 1.8556 13.2316 1.85559 12.992 1.92706ZM13.8916 4.94365L13.652 5.01508C14.4177 7.58303 16.4265 9.5918 18.9944 10.3575L19.0658 10.1179L19.1373 9.87832C16.731 9.16084 14.8487 7.27852 14.1312 4.87221L13.8916 4.94365ZM19.0658 10.1179L18.9944 10.3575C19.775 10.5902 20.5291 10.8151 21.0881 10.9818C21.3676 11.0652 21.5983 11.134 21.7592 11.182C21.8396 11.2059 21.9025 11.2247 21.9454 11.2375C21.9668 11.2439 21.9832 11.2488 21.9942 11.2521C21.9998 11.2537 22.0039 11.255 22.0067 11.2558C22.0081 11.2562 22.0092 11.2565 22.0099 11.2568C22.0103 11.2569 22.0105 11.2569 22.0107 11.257C22.0108 11.257 22.0108 11.257 22.0109 11.2571C22.0109 11.2571 22.0109 11.2571 22.0109 11.2571C22.011 11.2571 22.011 11.2571 22.0824 11.0175C22.1539 10.7779 22.1539 10.7779 22.1539 10.7779C22.1539 10.7779 22.1539 10.7779 22.1538 10.7779C22.1538 10.7779 22.1537 10.7779 22.1536 10.7779C22.1535 10.7778 22.1532 10.7777 22.1528 10.7776C22.1521 10.7774 22.1511 10.7771 22.1497 10.7767C22.1469 10.7758 22.1427 10.7746 22.1372 10.773C22.1261 10.7697 22.1097 10.7648 22.0883 10.7584C22.0455 10.7456 21.9825 10.7268 21.9021 10.7028C21.7412 10.6548 21.5105 10.586 21.231 10.5027C20.672 10.3359 19.9178 10.111 19.1373 9.87832L19.0658 10.1179ZM22.0824 11.0175L22.0111 11.2571C22.0102 11.2569 22.0095 11.2562 22.0095 11.2548H22.2595H22.5095C22.5095 11.0343 22.3642 10.8405 22.1537 10.7779L22.0824 11.0175ZM22.2595 11.2548H22.0095C22.0095 11.2533 22.0102 11.2527 22.0111 11.2524L22.0824 11.492L22.1537 11.7316C22.3642 11.669 22.5095 11.4752 22.5095 11.2548H22.2595ZM22.0824 11.492C22.011 11.2524 22.011 11.2524 22.0109 11.2524C22.0109 11.2524 22.0109 11.2524 22.0109 11.2524C22.0108 11.2525 22.0108 11.2525 22.0107 11.2525C22.0105 11.2526 22.0103 11.2526 22.0099 11.2527C22.0092 11.253 22.0081 11.2533 22.0067 11.2537C22.0039 11.2545 21.9998 11.2558 21.9942 11.2574C21.9832 11.2607 21.9668 11.2656 21.9454 11.272C21.9025 11.2848 21.8396 11.3036 21.7592 11.3275C21.5983 11.3755 21.3676 11.4443 21.0881 11.5277C20.5291 11.6944 19.775 11.9193 18.9944 12.152L19.0658 12.3916L19.1373 12.6312C19.9178 12.3985 20.672 12.1736 21.231 12.0068C21.5105 11.9235 21.7412 11.8547 21.9021 11.8067C21.9825 11.7827 22.0455 11.7639 22.0883 11.7511C22.1097 11.7447 22.1261 11.7398 22.1372 11.7365C22.1427 11.7349 22.1469 11.7337 22.1497 11.7328C22.1511 11.7324 22.1521 11.7321 22.1528 11.7319C22.1532 11.7318 22.1535 11.7317 22.1536 11.7316C22.1537 11.7316 22.1538 11.7316 22.1538 11.7316C22.1539 11.7316 22.1539 11.7316 22.1539 11.7316C22.1539 11.7316 22.1539 11.7316 22.0824 11.492ZM19.0658 12.3916L18.9944 12.152C16.4265 12.9177 14.4177 14.9265 13.652 17.4944L13.8916 17.5659L14.1312 17.6373C14.8487 15.231 16.731 13.3487 19.1373 12.6312L19.0658 12.3916ZM13.8916 17.5659L13.652 17.4944C13.4193 18.275 13.1944 19.0291 13.0277 19.5881C12.9443 19.8676 12.8755 20.0983 12.8275 20.2592C12.8035 20.3396 12.7848 20.4025 12.772 20.4454C12.7656 20.4668 12.7607 20.4832 12.7574 20.4942C12.7558 20.4998 12.7545 20.5039 12.7537 20.5067C12.7533 20.5081 12.7529 20.5092 12.7527 20.5099C12.7526 20.5103 12.7526 20.5105 12.7525 20.5107C12.7525 20.5108 12.7525 20.5109 12.7524 20.5109C12.7524 20.5109 12.7524 20.5109 12.7524 20.5109C12.7524 20.511 12.7524 20.511 12.992 20.5824C13.2316 20.6539 13.2316 20.6539 13.2316 20.6539C13.2316 20.6539 13.2316 20.6539 13.2316 20.6538C13.2316 20.6538 13.2316 20.6537 13.2316 20.6536C13.2317 20.6535 13.2318 20.6532 13.2319 20.6528C13.2321 20.6521 13.2324 20.6511 13.2328 20.6497C13.2336 20.6469 13.2349 20.6427 13.2365 20.6372C13.2398 20.6261 13.2447 20.6097 13.2511 20.5883C13.2639 20.5455 13.2827 20.4825 13.3067 20.4021C13.3547 20.2412 13.4235 20.0105 13.5068 19.731C13.6736 19.172 13.8985 18.4178 14.1312 17.6373L13.8916 17.5659ZM12.992 20.5824L12.7524 20.5112C12.7526 20.5102 12.7533 20.5095 12.7547 20.5095V20.7595V21.0095C12.9752 21.0095 13.169 20.8642 13.2316 20.6537L12.992 20.5824ZM12.7547 20.7595V20.5095C12.7562 20.5095 12.7568 20.5102 12.7571 20.5112L12.5175 20.5824L12.2779 20.6537C12.3405 20.8642 12.5343 21.0095 12.7547 21.0095V20.7595ZM12.5175 20.5824C12.7571 20.511 12.7571 20.511 12.7571 20.5109C12.7571 20.5109 12.7571 20.5109 12.7571 20.5109C12.757 20.5109 12.757 20.5108 12.757 20.5107C12.7569 20.5105 12.7569 20.5103 12.7568 20.5099C12.7565 20.5092 12.7562 20.5081 12.7558 20.5067C12.755 20.5039 12.7537 20.4998 12.7521 20.4942C12.7488 20.4832 12.7439 20.4668 12.7375 20.4454C12.7247 20.4025 12.7059 20.3396 12.682 20.2592C12.634 20.0983 12.5652 19.8676 12.4818 19.5881C12.3151 19.0291 12.0902 18.275 11.8575 17.4944L11.6179 17.5659L11.3783 17.6373C11.611 18.4178 11.8359 19.172 12.0027 19.731C12.086 20.0105 12.1548 20.2412 12.2028 20.4021C12.2268 20.4825 12.2456 20.5455 12.2584 20.5883C12.2648 20.6097 12.2697 20.6261 12.2729 20.6372C12.2746 20.6427 12.2758 20.6469 12.2767 20.6497C12.2771 20.6511 12.2774 20.6521 12.2776 20.6528C12.2777 20.6532 12.2778 20.6535 12.2779 20.6536C12.2779 20.6537 12.2779 20.6538 12.2779 20.6538C12.2779 20.6539 12.2779 20.6539 12.2779 20.6539C12.2779 20.6539 12.2779 20.6539 12.5175 20.5824ZM11.6179 17.5659L11.8575 17.4944C11.0918 14.9265 9.08302 12.9177 6.51508 12.152L6.44364 12.3916L6.37221 12.6312C8.77851 13.3487 10.6608 15.231 11.3783 17.6373L11.6179 17.5659ZM6.44364 12.3916L6.51506 12.152C5.73453 11.9193 4.98039 11.6944 4.42139 11.5277C4.14189 11.4443 3.91118 11.3755 3.75034 11.3275C3.66992 11.3036 3.60696 11.2848 3.56412 11.272C3.5427 11.2656 3.5263 11.2607 3.51526 11.2574C3.50974 11.2558 3.50556 11.2545 3.50276 11.2537C3.50135 11.2533 3.5003 11.253 3.49959 11.2527C3.49924 11.2526 3.49898 11.2526 3.4988 11.2525C3.49871 11.2525 3.49864 11.2525 3.4986 11.2524C3.49858 11.2524 3.49856 11.2524 3.49855 11.2524C3.49854 11.2524 3.49853 11.2524 3.42706 11.492C3.35559 11.7316 3.3556 11.7316 3.35561 11.7316C3.35562 11.7316 3.35564 11.7316 3.35566 11.7316C3.3557 11.7316 3.35577 11.7316 3.35586 11.7316C3.35604 11.7317 3.3563 11.7318 3.35665 11.7319C3.35736 11.7321 3.35842 11.7324 3.35982 11.7328C3.36262 11.7337 3.3668 11.7349 3.37232 11.7365C3.38336 11.7398 3.39976 11.7447 3.42118 11.7511C3.46403 11.7639 3.52699 11.7827 3.60741 11.8067C3.76826 11.8547 3.99898 11.9235 4.27848 12.0068C4.8375 12.1736 5.59165 12.3985 6.37222 12.6312L6.44364 12.3916ZM3.42706 11.492L3.49835 11.2524C3.49929 11.2527 3.5 11.2533 3.5 11.2548H3.25H3C3 11.4752 3.1453 11.669 3.35578 11.7316L3.42706 11.492ZM3.25 11.2548H3.5C3.5 11.2562 3.49929 11.2569 3.49835 11.2571L3.42706 11.0175L3.35578 10.7779C3.1453 10.8405 3 11.0343 3 11.2548H3.25ZM3.42706 11.0175C3.49853 11.2571 3.49854 11.2571 3.49855 11.2571C3.49856 11.2571 3.49858 11.2571 3.4986 11.2571C3.49864 11.257 3.49871 11.257 3.4988 11.257C3.49898 11.2569 3.49924 11.2569 3.49959 11.2568C3.5003 11.2565 3.50135 11.2562 3.50275 11.2558C3.50556 11.255 3.50974 11.2537 3.51526 11.2521C3.5263 11.2488 3.5427 11.2439 3.56412 11.2375C3.60696 11.2247 3.66992 11.2059 3.75034 11.182C3.91118 11.134 4.14189 11.0652 4.42139 10.9818C4.98039 10.8151 5.73453 10.5902 6.51506 10.3575L6.44364 10.1179L6.37222 9.87832C5.59165 10.111 4.8375 10.3359 4.27848 10.5027C3.99898 10.586 3.76826 10.6548 3.60741 10.7028C3.52699 10.7268 3.46403 10.7456 3.42118 10.7584C3.39976 10.7648 3.38336 10.7697 3.37232 10.773C3.3668 10.7746 3.36262 10.7758 3.35982 10.7767C3.35842 10.7771 3.35736 10.7774 3.35665 10.7776C3.3563 10.7777 3.35604 10.7778 3.35586 10.7779C3.35577 10.7779 3.3557 10.7779 3.35566 10.7779C3.35564 10.7779 3.35562 10.7779 3.35561 10.7779C3.3556 10.7779 3.35559 10.7779 3.42706 11.0175ZM6.44364 10.1179L6.51508 10.3575C9.08302 9.5918 11.0918 7.58303 11.8575 5.01508L11.6179 4.94365L11.3783 4.87221C10.6608 7.27852 8.77851 9.16084 6.37221 9.87832L6.44364 10.1179ZM11.6179 4.94365L11.8575 5.01507C12.0902 4.23453 12.3151 3.48039 12.4818 2.92139C12.5652 2.64189 12.634 2.41118 12.682 2.25034C12.7059 2.16992 12.7247 2.10696 12.7375 2.06412C12.7439 2.0427 12.7488 2.0263 12.7521 2.01526C12.7537 2.00974 12.755 2.00556 12.7558 2.00276C12.7562 2.00135 12.7565 2.0003 12.7568 1.99959C12.7569 1.99924 12.7569 1.99898 12.757 1.9988C12.757 1.99871 12.757 1.99864 12.7571 1.9986C12.7571 1.99858 12.7571 1.99856 12.7571 1.99855C12.7571 1.99854 12.7571 1.99853 12.5175 1.92706C12.2779 1.85559 12.2779 1.8556 12.2779 1.85561C12.2779 1.85562 12.2779 1.85564 12.2779 1.85566C12.2779 1.8557 12.2779 1.85577 12.2779 1.85586C12.2778 1.85604 12.2777 1.8563 12.2776 1.85665C12.2774 1.85736 12.2771 1.85842 12.2767 1.85982C12.2758 1.86262 12.2746 1.8668 12.2729 1.87232C12.2697 1.88336 12.2648 1.89976 12.2584 1.92118C12.2456 1.96403 12.2268 2.02699 12.2028 2.10741C12.1548 2.26826 12.086 2.49898 12.0027 2.77849C11.8359 3.3375 11.611 4.09166 11.3783 4.87222L11.6179 4.94365Z" data-figma-gradient-fill="{&#34;type&#34;:&#34;GRADIENT_ANGULAR&#34;,&#34;stops&#34;:[{&#34;color&#34;:{&#34;r&#34;:0.47487607598304749,&#34;g&#34;:0.12479341775178909,&#34;b&#34;:1.0,&#34;a&#34;:1.0},&#34;position&#34;:0.24941226840019226},{&#34;color&#34;:{&#34;r&#34;:0.48894730210304260,&#34;g&#34;:0.12407059222459793,&#34;b&#34;:0.99977463483810425,&#34;a&#34;:1.0},&#34;position&#34;:0.49374905228614807},{&#34;color&#34;:{&#34;r&#34;:0.32721731066703796,&#34;g&#34;:0.0,&#34;b&#34;:0.98165190219879150,&#34;a&#34;:1.0},&#34;position&#34;:0.51572245359420776},{&#34;color&#34;:{&#34;r&#34;:0.58681595325469971,&#34;g&#34;:0.38119104504585266,&#34;b&#34;:0.99806565046310425,&#34;a&#34;:1.0},&#34;position&#34;:0.57494693994522095},{&#34;color&#34;:{&#34;r&#34;:0.0027860051486641169,&#34;g&#34;:0.94489932060241699,&#34;b&#34;:0.67769956588745117,&#34;a&#34;:1.0},&#34;position&#34;:0.69298285245895386},{&#34;color&#34;:{&#34;r&#34;:0.0,&#34;g&#34;:0.85892426967620850,&#34;b&#34;:0.61016476154327393,&#34;a&#34;:1.0},&#34;position&#34;:0.75020724534988403},{&#34;color&#34;:{&#34;r&#34;:9.4009577878750861e-05,&#34;g&#34;:0.83430361747741699,&#34;b&#34;:0.59794420003890991,&#34;a&#34;:1.0},&#34;position&#34;:0.79470694065093994},{&#34;color&#34;:{&#34;r&#34;:0.14343066513538361,&#34;g&#34;:0.35535442829132080,&#34;b&#34;:0.98078799247741699,&#34;a&#34;:1.0},&#34;position&#34;:0.99484074115753174},{&#34;color&#34;:{&#34;r&#34;:0.0,&#34;g&#34;:0.55810636281967163,&#34;b&#34;:0.91128307580947876,&#34;a&#34;:1.0},&#34;position&#34;:1.0}],&#34;stopsVar&#34;:[{&#34;color&#34;:{&#34;r&#34;:0.47487607598304749,&#34;g&#34;:0.12479341775178909,&#34;b&#34;:1.0,&#34;a&#34;:1.0},&#34;position&#34;:0.24941226840019226},{&#34;color&#34;:{&#34;r&#34;:0.48894730210304260,&#34;g&#34;:0.12407059222459793,&#34;b&#34;:0.99977463483810425,&#34;a&#34;:1.0},&#34;position&#34;:0.49374905228614807},{&#34;color&#34;:{&#34;r&#34;:0.32721731066703796,&#34;g&#34;:0.0,&#34;b&#34;:0.98165190219879150,&#34;a&#34;:1.0},&#34;position&#34;:0.51572245359420776},{&#34;color&#34;:{&#34;r&#34;:0.58681595325469971,&#34;g&#34;:0.38119104504585266,&#34;b&#34;:0.99806565046310425,&#34;a&#34;:1.0},&#34;position&#34;:0.57494693994522095},{&#34;color&#34;:{&#34;r&#34;:0.0027860051486641169,&#34;g&#34;:0.94489932060241699,&#34;b&#34;:0.67769956588745117,&#34;a&#34;:1.0},&#34;position&#34;:0.69298285245895386},{&#34;color&#34;:{&#34;r&#34;:0.0,&#34;g&#34;:0.85892426967620850,&#34;b&#34;:0.61016476154327393,&#34;a&#34;:1.0},&#34;position&#34;:0.75020724534988403},{&#34;color&#34;:{&#34;r&#34;:9.4009577878750861e-05,&#34;g&#34;:0.83430361747741699,&#34;b&#34;:0.59794420003890991,&#34;a&#34;:1.0},&#34;position&#34;:0.79470694065093994},{&#34;color&#34;:{&#34;r&#34;:0.14343066513538361,&#34;g&#34;:0.35535442829132080,&#34;b&#34;:0.98078799247741699,&#34;a&#34;:1.0},&#34;position&#34;:0.99484074115753174},{&#34;color&#34;:{&#34;r&#34;:0.0,&#34;g&#34;:0.55810636281967163,&#34;b&#34;:0.91128307580947876,&#34;a&#34;:1.0},&#34;position&#34;:1.0}],&#34;transform&#34;:{&#34;m00&#34;:-1.8929655359081450e-15,&#34;m01&#34;:-19.006805419921875,&#34;m02&#34;:22.258150100708008,&#34;m10&#34;:19.009496688842773,&#34;m11&#34;:-3.2690633511821277e-13,&#34;m12&#34;:1.750},&#34;opacity&#34;:1.0,&#34;blendMode&#34;:&#34;NORMAL&#34;,&#34;visible&#34;:true}"/>
</g>
<foreignObject x="2.24997" y="0.749973" width="21.0118" height="21.0118"><div xmlns="http://www.w3.org/1999/xhtml" style="backdrop-filter:blur(0.5px);clip-path:url(#bgblur_0_7694_4290_clip_path);height:100%;width:100%"></div></foreignObject><path data-figma-bg-blur-radius="1.00003" fill-rule="evenodd" clip-rule="evenodd" d="M12.5177 1.92707C12.5489 1.8223 12.6455 1.75 12.755 1.75C12.8645 1.75 12.9611 1.8223 12.9922 1.92707C12.9922 1.92707 13.4265 3.38258 13.8919 4.94373C14.6335 7.43093 16.5791 9.37652 19.0663 10.1181C20.6274 10.5835 22.0829 11.0178 22.0829 11.0178C22.1877 11.0489 22.26 11.1455 22.26 11.255C22.26 11.3645 22.1877 11.4611 22.0829 11.4922C22.0829 11.4922 20.6274 11.9265 19.0663 12.3919C16.5791 13.1335 14.6335 15.0791 13.8919 17.5663C13.4265 19.1274 12.9922 20.5829 12.9922 20.5829C12.9611 20.6877 12.8645 20.76 12.755 20.76C12.6455 20.76 12.5489 20.6877 12.5177 20.5829C12.5177 20.5829 12.0835 19.1274 11.6181 17.5663C10.8765 15.0791 8.93091 13.1335 6.44373 12.3919C4.88258 11.9265 3.42707 11.4922 3.42707 11.4922C3.3223 11.4611 3.25 11.3645 3.25 11.255C3.25 11.1455 3.3223 11.0489 3.42707 11.0178C3.42707 11.0178 4.88258 10.5835 6.44373 10.1181C8.93091 9.37652 10.8765 7.43093 11.6181 4.94373C12.0835 3.38258 12.5177 1.92707 12.5177 1.92707Z" fill="white" fill-opacity="0.01"/>
<g filter="url(#filter2_f_7694_4290)">
<path d="M10.8626 6.39238C10.2983 7.98589 8.93967 9.19484 7.24919 9.60762L10.5008 9.17655L10.8626 6.39238Z" fill="#FFFAE9"/>
</g>
<foreignObject x="13.25" y="4.99997" width="7.25005" height="6.25005"><div xmlns="http://www.w3.org/1999/xhtml" style="backdrop-filter:blur(0.5px);clip-path:url(#bgblur_1_7694_4290_clip_path);height:100%;width:100%"></div></foreignObject><g data-figma-bg-blur-radius="1.00003" style="mix-blend-mode:lighten">
<path d="M14.3772 6.29777C14.3319 6.1995 14.2892 6.09994 14.2493 5.99915L14.3772 6.29777C15.3167 8.33376 17.39 9.81516 19.4993 10.2491L18.3284 10.0149C16.7139 9.69205 15.3618 8.59499 14.7132 7.08161L14.3772 6.29777Z" fill="white" fill-opacity="0.1"/>
</g>
<foreignObject x="12.8945" y="11.25" width="7.10552" height="6.93755"><div xmlns="http://www.w3.org/1999/xhtml" style="backdrop-filter:blur(0.5px);clip-path:url(#bgblur_2_7694_4290_clip_path);height:100%;width:100%"></div></foreignObject><g data-figma-bg-blur-radius="1.00003" style="mix-blend-mode:lighten">
<path d="M18.6995 12.3478C18.7998 12.3129 18.9005 12.2809 19.0012 12.2517L18.6995 12.3478C16.5478 13.0953 14.5278 15.1261 13.8934 17.1874L14.2374 16.0472C14.7136 14.4693 15.9368 13.2274 17.5073 12.7274L18.6995 12.3478Z" fill="white" fill-opacity="0.1"/>
</g>
<foreignObject x="6.24997" y="11.5" width="7.00005" height="9.25005"><div xmlns="http://www.w3.org/1999/xhtml" style="backdrop-filter:blur(0.5px);clip-path:url(#bgblur_3_7694_4290_clip_path);height:100%;width:100%"></div></foreignObject><g data-figma-bg-blur-radius="1.00003" style="mix-blend-mode:lighten">
<path d="M7.25067 12.5014C9.88192 13.885 11.7506 16.2513 12.2506 19.7513L12.0276 17.4098C11.8565 15.613 10.7302 14.0478 9.08082 13.3148L7.25067 12.5014Z" fill="white" fill-opacity="0.11"/>
</g>
<foreignObject x="2.24997" y="0.749973" width="11.6446" height="11.504"><div xmlns="http://www.w3.org/1999/xhtml" style="backdrop-filter:blur(0.5px);clip-path:url(#bgblur_4_7694_4290_clip_path);height:100%;width:100%"></div></foreignObject><path data-figma-bg-blur-radius="1.00003" d="M12.755 1.75C12.6455 1.75 12.5489 1.8223 12.5177 1.92707C12.5177 1.92707 12.0835 3.38258 11.6181 4.94373C10.8765 7.43093 8.93091 9.37652 6.44373 10.1181C4.88258 10.5835 3.42707 11.0178 3.42707 11.0178C3.3223 11.0489 3.25 11.1455 3.25 11.255L9.5038 10.2897C11.5002 9.98151 12.9535 8.23317 12.8917 6.21405L12.755 1.75Z" fill="url(#paint2_linear_7694_4290)" fill-opacity="0.6"/>
<g filter="url(#filter7_f_7694_4290)" style="mix-blend-mode:plus-lighter">
<path d="M12.75 5.625L13.1994 10.0275C13.2411 10.4359 13.5641 10.7589 13.9725 10.8006L18.375 11.25L13.9725 11.6994C13.5641 11.7411 13.2411 12.0641 13.1994 12.4725L12.75 16.875L12.3006 12.4725C12.2589 12.0641 11.9359 11.7411 11.5275 11.6994L7.125 11.25L11.5275 10.8006C11.9359 10.7589 12.2589 10.4359 12.3006 10.0274C12.462 8.44645 12.5716 7.37213 12.75 5.625Z" fill="url(#paint3_linear_7694_4290)" fill-opacity="0.4"/>
</g>
<g filter="url(#filter8_f_7694_4290)">
<path d="M12.7488 6.92188L13.0601 9.97122C13.1122 10.4817 13.5159 10.8854 14.0264 10.9375L17.0757 11.2488L14.0264 11.5601C13.5159 11.6122 13.1122 12.0159 13.0601 12.5264L12.7488 15.5757L12.4375 12.5264C12.3854 12.0159 11.9817 11.6122 11.4712 11.5601L8.42188 11.2488L11.4712 10.9375C11.9817 10.8854 12.3854 10.4815 12.4375 9.97095C12.5438 8.93023 12.6247 8.13792 12.7488 6.92188Z" fill="url(#paint4_linear_7694_4290)"/>
</g>
<g filter="url(#filter9_f_7694_4290)" style="mix-blend-mode:plus-lighter">
<path d="M14.9659 9.18078L13.221 11.3225L14.9659 13.4642L12.8242 11.7193L11.7847 12.9457L10.6825 13.4642C10.6825 13.4642 12.4274 12.4013 12.4274 11.3225C12.4274 10.2436 10.6825 9.18078 10.6825 9.18078C10.6825 9.18078 11.9878 11.6072 12.8242 10.9257C13.6606 10.2443 14.1295 9.86222 14.9659 9.18078Z" fill="url(#paint5_linear_7694_4290)" fill-opacity="0.6"/>
</g>
<g filter="url(#filter10_f_7694_4290)">
<path d="M14.609 9.53867L13.4796 10.9249C13.2905 11.1569 13.2905 11.4899 13.4796 11.722L14.609 13.1082L13.2228 11.9788C12.9907 11.7897 12.6577 11.7897 12.4256 11.9788L11.0395 13.1082L12.1688 11.722C12.3579 11.4899 12.3579 11.1569 12.1688 10.9249L11.0395 9.53867L12.4256 10.6681C12.6577 10.8571 12.9908 10.857 13.2229 10.668C13.696 10.2825 14.0562 9.98906 14.609 9.53867Z" fill="url(#paint6_linear_7694_4290)"/>
</g>
<defs>
<filter id="filter0_d_7694_4290" x="-4.76837e-07" y="-2.38419e-07" width="25.5078" height="25.5078" filterUnits="userSpaceOnUse" color-interpolation-filters="sRGB">
<feFlood flood-opacity="0" result="BackgroundImageFix"/>
<feColorMatrix in="SourceAlpha" type="matrix" values="0 0 0 0 0 0 0 0 0 0 0 0 0 0 0 0 0 0 127 0" result="hardAlpha"/>
<feOffset dy="1.5"/>
<feGaussianBlur stdDeviation="1.5"/>
<feComposite in2="hardAlpha" operator="out"/>
<feColorMatrix type="matrix" values="0 0 0 0 0.201309 0 0 0 0 0.0591256 0 0 0 0 0.533072 0 0 0 0.35 0"/>
<feBlend mode="normal" in2="BackgroundImageFix" result="effect1_dropShadow_7694_4290"/>
<feBlend mode="normal" in="SourceGraphic" in2="effect1_dropShadow_7694_4290" result="shape"/>
</filter>
<clipPath id="paint0_angular_7694_4290_clip_path"><path fill-rule="evenodd" clip-rule="evenodd" d="M12.5175 1.92706C12.5487 1.8223 12.6452 1.75 12.7547 1.75C12.8643 1.75 12.9608 1.8223 12.992 1.92706C12.992 1.92706 13.4262 3.38254 13.8916 4.94365C14.6332 7.43078 16.5787 9.37632 19.0658 10.1179C20.627 10.5833 22.0824 11.0175 22.0824 11.0175C22.1872 11.0487 22.2595 11.1452 22.2595 11.2548C22.2595 11.3643 22.1872 11.4608 22.0824 11.492C22.0824 11.492 20.627 11.9262 19.0658 12.3916C16.5787 13.1332 14.6332 15.0787 13.8916 17.5659C13.4262 19.127 12.992 20.5824 12.992 20.5824C12.9608 20.6872 12.8643 20.7595 12.7547 20.7595C12.6452 20.7595 12.5487 20.6872 12.5175 20.5824C12.5175 20.5824 12.0833 19.127 11.6179 17.5659C10.8763 15.0787 8.93076 13.1332 6.44364 12.3916C4.88254 11.9262 3.42706 11.492 3.42706 11.492C3.32229 11.4608 3.25 11.3643 3.25 11.2548C3.25 11.1452 3.32229 11.0487 3.42706 11.0175C3.42706 11.0175 4.88254 10.5833 6.44364 10.1179C8.93076 9.37632 10.8763 7.43078 11.6179 4.94365C12.0833 3.38254 12.5175 1.92706 12.5175 1.92706Z"/></clipPath><clipPath id="paint1_angular_7694_4290_clip_path"><path d="M12.5175 1.92706L12.7571 1.99853L12.7571 1.99835L12.5175 1.92706ZM12.992 1.92706L12.7524 1.99835L12.7524 1.99853L12.992 1.92706ZM13.8916 4.94365L13.652 5.01507L13.652 5.01508L13.8916 4.94365ZM19.0658 10.1179L18.9944 10.3575L18.9944 10.3575L19.0658 10.1179ZM22.0824 11.0175L22.011 11.2571L22.0111 11.2571L22.0824 11.0175ZM22.0824 11.492L22.0111 11.2524L22.011 11.2524L22.0824 11.492ZM19.0658 12.3916L18.9944 12.152L18.9944 12.152L19.0658 12.3916ZM13.8916 17.5659L13.652 17.4944L13.652 17.4944L13.8916 17.5659ZM12.992 20.5824L12.7524 20.511L12.7524 20.5112L12.992 20.5824ZM12.5175 20.5824L12.7571 20.5112L12.7571 20.511L12.5175 20.5824ZM11.6179 17.5659L11.8575 17.4944L11.8575 17.4944L11.6179 17.5659ZM6.44364 12.3916L6.51508 12.152L6.51506 12.152L6.44364 12.3916ZM3.42706 11.492L3.49853 11.2524L3.49835 11.2524L3.42706 11.492ZM3.42706 11.0175L3.49835 11.2571L3.49853 11.2571L3.42706 11.0175ZM6.44364 10.1179L6.51506 10.3575L6.51508 10.3575L6.44364 10.1179ZM11.6179 4.94365L11.8575 5.01508L11.8575 5.01507L11.6179 4.94365ZM12.5175 1.92706L12.7571 1.99835C12.7568 1.99929 12.7562 2 12.7547 2V1.75V1.5C12.5343 1.5 12.3405 1.64531 12.2779 1.85578L12.5175 1.92706ZM12.7547 1.75V2C12.7533 2 12.7526 1.99929 12.7524 1.99835L12.992 1.92706L13.2316 1.85578C13.169 1.64531 12.9752 1.5 12.7547 1.5V1.75ZM12.992 1.92706C12.7524 1.99853 12.7524 1.99854 12.7524 1.99855C12.7524 1.99856 12.7524 1.99858 12.7524 1.9986C12.7525 1.99864 12.7525 1.99871 12.7525 1.9988C12.7526 1.99898 12.7526 1.99924 12.7527 1.99959C12.7529 2.0003 12.7533 2.00135 12.7537 2.00276C12.7545 2.00556 12.7558 2.00974 12.7574 2.01526C12.7607 2.0263 12.7656 2.0427 12.772 2.06412C12.7848 2.10696 12.8035 2.16992 12.8275 2.25034C12.8755 2.41118 12.9443 2.64189 13.0277 2.92139C13.1944 3.48039 13.4193 4.23453 13.652 5.01507L13.8916 4.94365L14.1312 4.87222C13.8985 4.09166 13.6736 3.3375 13.5068 2.77849C13.4235 2.49898 13.3547 2.26826 13.3067 2.10741C13.2827 2.02699 13.2639 1.96403 13.2511 1.92118C13.2447 1.89976 13.2398 1.88336 13.2365 1.87232C13.2349 1.8668 13.2336 1.86262 13.2328 1.85982C13.2324 1.85842 13.2321 1.85736 13.2319 1.85665C13.2318 1.8563 13.2317 1.85604 13.2316 1.85586C13.2316 1.85577 13.2316 1.8557 13.2316 1.85566C13.2316 1.85564 13.2316 1.85562 13.2316 1.85561C13.2316 1.8556 13.2316 1.85559 12.992 1.92706ZM13.8916 4.94365L13.652 5.01508C14.4177 7.58303 16.4265 9.5918 18.9944 10.3575L19.0658 10.1179L19.1373 9.87832C16.731 9.16084 14.8487 7.27852 14.1312 4.87221L13.8916 4.94365ZM19.0658 10.1179L18.9944 10.3575C19.775 10.5902 20.5291 10.8151 21.0881 10.9818C21.3676 11.0652 21.5983 11.134 21.7592 11.182C21.8396 11.2059 21.9025 11.2247 21.9454 11.2375C21.9668 11.2439 21.9832 11.2488 21.9942 11.2521C21.9998 11.2537 22.0039 11.255 22.0067 11.2558C22.0081 11.2562 22.0092 11.2565 22.0099 11.2568C22.0103 11.2569 22.0105 11.2569 22.0107 11.257C22.0108 11.257 22.0108 11.257 22.0109 11.2571C22.0109 11.2571 22.0109 11.2571 22.0109 11.2571C22.011 11.2571 22.011 11.2571 22.0824 11.0175C22.1539 10.7779 22.1539 10.7779 22.1539 10.7779C22.1539 10.7779 22.1539 10.7779 22.1538 10.7779C22.1538 10.7779 22.1537 10.7779 22.1536 10.7779C22.1535 10.7778 22.1532 10.7777 22.1528 10.7776C22.1521 10.7774 22.1511 10.7771 22.1497 10.7767C22.1469 10.7758 22.1427 10.7746 22.1372 10.773C22.1261 10.7697 22.1097 10.7648 22.0883 10.7584C22.0455 10.7456 21.9825 10.7268 21.9021 10.7028C21.7412 10.6548 21.5105 10.586 21.231 10.5027C20.672 10.3359 19.9178 10.111 19.1373 9.87832L19.0658 10.1179ZM22.0824 11.0175L22.0111 11.2571C22.0102 11.2569 22.0095 11.2562 22.0095 11.2548H22.2595H22.5095C22.5095 11.0343 22.3642 10.8405 22.1537 10.7779L22.0824 11.0175ZM22.2595 11.2548H22.0095C22.0095 11.2533 22.0102 11.2527 22.0111 11.2524L22.0824 11.492L22.1537 11.7316C22.3642 11.669 22.5095 11.4752 22.5095 11.2548H22.2595ZM22.0824 11.492C22.011 11.2524 22.011 11.2524 22.0109 11.2524C22.0109 11.2524 22.0109 11.2524 22.0109 11.2524C22.0108 11.2525 22.0108 11.2525 22.0107 11.2525C22.0105 11.2526 22.0103 11.2526 22.0099 11.2527C22.0092 11.253 22.0081 11.2533 22.0067 11.2537C22.0039 11.2545 21.9998 11.2558 21.9942 11.2574C21.9832 11.2607 21.9668 11.2656 21.9454 11.272C21.9025 11.2848 21.8396 11.3036 21.7592 11.3275C21.5983 11.3755 21.3676 11.4443 21.0881 11.5277C20.5291 11.6944 19.775 11.9193 18.9944 12.152L19.0658 12.3916L19.1373 12.6312C19.9178 12.3985 20.672 12.1736 21.231 12.0068C21.5105 11.9235 21.7412 11.8547 21.9021 11.8067C21.9825 11.7827 22.0455 11.7639 22.0883 11.7511C22.1097 11.7447 22.1261 11.7398 22.1372 11.7365C22.1427 11.7349 22.1469 11.7337 22.1497 11.7328C22.1511 11.7324 22.1521 11.7321 22.1528 11.7319C22.1532 11.7318 22.1535 11.7317 22.1536 11.7316C22.1537 11.7316 22.1538 11.7316 22.1538 11.7316C22.1539 11.7316 22.1539 11.7316 22.1539 11.7316C22.1539 11.7316 22.1539 11.7316 22.0824 11.492ZM19.0658 12.3916L18.9944 12.152C16.4265 12.9177 14.4177 14.9265 13.652 17.4944L13.8916 17.5659L14.1312 17.6373C14.8487 15.231 16.731 13.3487 19.1373 12.6312L19.0658 12.3916ZM13.8916 17.5659L13.652 17.4944C13.4193 18.275 13.1944 19.0291 13.0277 19.5881C12.9443 19.8676 12.8755 20.0983 12.8275 20.2592C12.8035 20.3396 12.7848 20.4025 12.772 20.4454C12.7656 20.4668 12.7607 20.4832 12.7574 20.4942C12.7558 20.4998 12.7545 20.5039 12.7537 20.5067C12.7533 20.5081 12.7529 20.5092 12.7527 20.5099C12.7526 20.5103 12.7526 20.5105 12.7525 20.5107C12.7525 20.5108 12.7525 20.5109 12.7524 20.5109C12.7524 20.5109 12.7524 20.5109 12.7524 20.5109C12.7524 20.511 12.7524 20.511 12.992 20.5824C13.2316 20.6539 13.2316 20.6539 13.2316 20.6539C13.2316 20.6539 13.2316 20.6539 13.2316 20.6538C13.2316 20.6538 13.2316 20.6537 13.2316 20.6536C13.2317 20.6535 13.2318 20.6532 13.2319 20.6528C13.2321 20.6521 13.2324 20.6511 13.2328 20.6497C13.2336 20.6469 13.2349 20.6427 13.2365 20.6372C13.2398 20.6261 13.2447 20.6097 13.2511 20.5883C13.2639 20.5455 13.2827 20.4825 13.3067 20.4021C13.3547 20.2412 13.4235 20.0105 13.5068 19.731C13.6736 19.172 13.8985 18.4178 14.1312 17.6373L13.8916 17.5659ZM12.992 20.5824L12.7524 20.5112C12.7526 20.5102 12.7533 20.5095 12.7547 20.5095V20.7595V21.0095C12.9752 21.0095 13.169 20.8642 13.2316 20.6537L12.992 20.5824ZM12.7547 20.7595V20.5095C12.7562 20.5095 12.7568 20.5102 12.7571 20.5112L12.5175 20.5824L12.2779 20.6537C12.3405 20.8642 12.5343 21.0095 12.7547 21.0095V20.7595ZM12.5175 20.5824C12.7571 20.511 12.7571 20.511 12.7571 20.5109C12.7571 20.5109 12.7571 20.5109 12.7571 20.5109C12.757 20.5109 12.757 20.5108 12.757 20.5107C12.7569 20.5105 12.7569 20.5103 12.7568 20.5099C12.7565 20.5092 12.7562 20.5081 12.7558 20.5067C12.755 20.5039 12.7537 20.4998 12.7521 20.4942C12.7488 20.4832 12.7439 20.4668 12.7375 20.4454C12.7247 20.4025 12.7059 20.3396 12.682 20.2592C12.634 20.0983 12.5652 19.8676 12.4818 19.5881C12.3151 19.0291 12.0902 18.275 11.8575 17.4944L11.6179 17.5659L11.3783 17.6373C11.611 18.4178 11.8359 19.172 12.0027 19.731C12.086 20.0105 12.1548 20.2412 12.2028 20.4021C12.2268 20.4825 12.2456 20.5455 12.2584 20.5883C12.2648 20.6097 12.2697 20.6261 12.2729 20.6372C12.2746 20.6427 12.2758 20.6469 12.2767 20.6497C12.2771 20.6511 12.2774 20.6521 12.2776 20.6528C12.2777 20.6532 12.2778 20.6535 12.2779 20.6536C12.2779 20.6537 12.2779 20.6538 12.2779 20.6538C12.2779 20.6539 12.2779 20.6539 12.2779 20.6539C12.2779 20.6539 12.2779 20.6539 12.5175 20.5824ZM11.6179 17.5659L11.8575 17.4944C11.0918 14.9265 9.08302 12.9177 6.51508 12.152L6.44364 12.3916L6.37221 12.6312C8.77851 13.3487 10.6608 15.231 11.3783 17.6373L11.6179 17.5659ZM6.44364 12.3916L6.51506 12.152C5.73453 11.9193 4.98039 11.6944 4.42139 11.5277C4.14189 11.4443 3.91118 11.3755 3.75034 11.3275C3.66992 11.3036 3.60696 11.2848 3.56412 11.272C3.5427 11.2656 3.5263 11.2607 3.51526 11.2574C3.50974 11.2558 3.50556 11.2545 3.50276 11.2537C3.50135 11.2533 3.5003 11.253 3.49959 11.2527C3.49924 11.2526 3.49898 11.2526 3.4988 11.2525C3.49871 11.2525 3.49864 11.2525 3.4986 11.2524C3.49858 11.2524 3.49856 11.2524 3.49855 11.2524C3.49854 11.2524 3.49853 11.2524 3.42706 11.492C3.35559 11.7316 3.3556 11.7316 3.35561 11.7316C3.35562 11.7316 3.35564 11.7316 3.35566 11.7316C3.3557 11.7316 3.35577 11.7316 3.35586 11.7316C3.35604 11.7317 3.3563 11.7318 3.35665 11.7319C3.35736 11.7321 3.35842 11.7324 3.35982 11.7328C3.36262 11.7337 3.3668 11.7349 3.37232 11.7365C3.38336 11.7398 3.39976 11.7447 3.42118 11.7511C3.46403 11.7639 3.52699 11.7827 3.60741 11.8067C3.76826 11.8547 3.99898 11.9235 4.27848 12.0068C4.8375 12.1736 5.59165 12.3985 6.37222 12.6312L6.44364 12.3916ZM3.42706 11.492L3.49835 11.2524C3.49929 11.2527 3.5 11.2533 3.5 11.2548H3.25H3C3 11.4752 3.1453 11.669 3.35578 11.7316L3.42706 11.492ZM3.25 11.2548H3.5C3.5 11.2562 3.49929 11.2569 3.49835 11.2571L3.42706 11.0175L3.35578 10.7779C3.1453 10.8405 3 11.0343 3 11.2548H3.25ZM3.42706 11.0175C3.49853 11.2571 3.49854 11.2571 3.49855 11.2571C3.49856 11.2571 3.49858 11.2571 3.4986 11.2571C3.49864 11.257 3.49871 11.257 3.4988 11.257C3.49898 11.2569 3.49924 11.2569 3.49959 11.2568C3.5003 11.2565 3.50135 11.2562 3.50275 11.2558C3.50556 11.255 3.50974 11.2537 3.51526 11.2521C3.5263 11.2488 3.5427 11.2439 3.56412 11.2375C3.60696 11.2247 3.66992 11.2059 3.75034 11.182C3.91118 11.134 4.14189 11.0652 4.42139 10.9818C4.98039 10.8151 5.73453 10.5902 6.51506 10.3575L6.44364 10.1179L6.37222 9.87832C5.59165 10.111 4.8375 10.3359 4.27848 10.5027C3.99898 10.586 3.76826 10.6548 3.60741 10.7028C3.52699 10.7268 3.46403 10.7456 3.42118 10.7584C3.39976 10.7648 3.38336 10.7697 3.37232 10.773C3.3668 10.7746 3.36262 10.7758 3.35982 10.7767C3.35842 10.7771 3.35736 10.7774 3.35665 10.7776C3.3563 10.7777 3.35604 10.7778 3.35586 10.7779C3.35577 10.7779 3.3557 10.7779 3.35566 10.7779C3.35564 10.7779 3.35562 10.7779 3.35561 10.7779C3.3556 10.7779 3.35559 10.7779 3.42706 11.0175ZM6.44364 10.1179L6.51508 10.3575C9.08302 9.5918 11.0918 7.58303 11.8575 5.01508L11.6179 4.94365L11.3783 4.87221C10.6608 7.27852 8.77851 9.16084 6.37221 9.87832L6.44364 10.1179ZM11.6179 4.94365L11.8575 5.01507C12.0902 4.23453 12.3151 3.48039 12.4818 2.92139C12.5652 2.64189 12.634 2.41118 12.682 2.25034C12.7059 2.16992 12.7247 2.10696 12.7375 2.06412C12.7439 2.0427 12.7488 2.0263 12.7521 2.01526C12.7537 2.00974 12.755 2.00556 12.7558 2.00276C12.7562 2.00135 12.7565 2.0003 12.7568 1.99959C12.7569 1.99924 12.7569 1.99898 12.757 1.9988C12.757 1.99871 12.757 1.99864 12.7571 1.9986C12.7571 1.99858 12.7571 1.99856 12.7571 1.99855C12.7571 1.99854 12.7571 1.99853 12.5175 1.92706C12.2779 1.85559 12.2779 1.8556 12.2779 1.85561C12.2779 1.85562 12.2779 1.85564 12.2779 1.85566C12.2779 1.8557 12.2779 1.85577 12.2779 1.85586C12.2778 1.85604 12.2777 1.8563 12.2776 1.85665C12.2774 1.85736 12.2771 1.85842 12.2767 1.85982C12.2758 1.86262 12.2746 1.8668 12.2729 1.87232C12.2697 1.88336 12.2648 1.89976 12.2584 1.92118C12.2456 1.96403 12.2268 2.02699 12.2028 2.10741C12.1548 2.26826 12.086 2.49898 12.0027 2.77849C11.8359 3.3375 11.611 4.09166 11.3783 4.87222L11.6179 4.94365Z"/></clipPath><clipPath id="bgblur_0_7694_4290_clip_path" transform="translate(-2.24997 -0.749973)"><path fill-rule="evenodd" clip-rule="evenodd" d="M12.5177 1.92707C12.5489 1.8223 12.6455 1.75 12.755 1.75C12.8645 1.75 12.9611 1.8223 12.9922 1.92707C12.9922 1.92707 13.4265 3.38258 13.8919 4.94373C14.6335 7.43093 16.5791 9.37652 19.0663 10.1181C20.6274 10.5835 22.0829 11.0178 22.0829 11.0178C22.1877 11.0489 22.26 11.1455 22.26 11.255C22.26 11.3645 22.1877 11.4611 22.0829 11.4922C22.0829 11.4922 20.6274 11.9265 19.0663 12.3919C16.5791 13.1335 14.6335 15.0791 13.8919 17.5663C13.4265 19.1274 12.9922 20.5829 12.9922 20.5829C12.9611 20.6877 12.8645 20.76 12.755 20.76C12.6455 20.76 12.5489 20.6877 12.5177 20.5829C12.5177 20.5829 12.0835 19.1274 11.6181 17.5663C10.8765 15.0791 8.93091 13.1335 6.44373 12.3919C4.88258 11.9265 3.42707 11.4922 3.42707 11.4922C3.3223 11.4611 3.25 11.3645 3.25 11.255C3.25 11.1455 3.3223 11.0489 3.42707 11.0178C3.42707 11.0178 4.88258 10.5835 6.44373 10.1181C8.93091 9.37652 10.8765 7.43093 11.6181 4.94373C12.0835 3.38258 12.5177 1.92707 12.5177 1.92707Z"/>
</clipPath><filter id="filter2_f_7694_4290" x="5.85" y="4.99063" width="6.41328" height="6.01875" filterUnits="userSpaceOnUse" color-interpolation-filters="sRGB">
<feFlood flood-opacity="0" result="BackgroundImageFix"/>
<feBlend mode="normal" in="SourceGraphic" in2="BackgroundImageFix" result="shape"/>
<feGaussianBlur stdDeviation="0.7" result="effect1_foregroundBlur_7694_4290"/>
</filter>
<clipPath id="bgblur_1_7694_4290_clip_path" transform="translate(-13.25 -4.99997)"><path d="M14.3772 6.29777C14.3319 6.1995 14.2892 6.09994 14.2493 5.99915L14.3772 6.29777C15.3167 8.33376 17.39 9.81516 19.4993 10.2491L18.3284 10.0149C16.7139 9.69205 15.3618 8.59499 14.7132 7.08161L14.3772 6.29777Z"/>
</clipPath><clipPath id="bgblur_2_7694_4290_clip_path" transform="translate(-12.8945 -11.25)"><path d="M18.6995 12.3478C18.7998 12.3129 18.9005 12.2809 19.0012 12.2517L18.6995 12.3478C16.5478 13.0953 14.5278 15.1261 13.8934 17.1874L14.2374 16.0472C14.7136 14.4693 15.9368 13.2274 17.5073 12.7274L18.6995 12.3478Z"/>
</clipPath><clipPath id="bgblur_3_7694_4290_clip_path" transform="translate(-6.24997 -11.5)"><path d="M7.25067 12.5014C9.88192 13.885 11.7506 16.2513 12.2506 19.7513L12.0276 17.4098C11.8565 15.613 10.7302 14.0478 9.08082 13.3148L7.25067 12.5014Z"/>
</clipPath><clipPath id="bgblur_4_7694_4290_clip_path" transform="translate(-2.24997 -0.749973)"><path d="M12.755 1.75C12.6455 1.75 12.5489 1.8223 12.5177 1.92707C12.5177 1.92707 12.0835 3.38258 11.6181 4.94373C10.8765 7.43093 8.93091 9.37652 6.44373 10.1181C4.88258 10.5835 3.42707 11.0178 3.42707 11.0178C3.3223 11.0489 3.25 11.1455 3.25 11.255L9.5038 10.2897C11.5002 9.98151 12.9535 8.23317 12.8917 6.21405L12.755 1.75Z"/>
</clipPath><filter id="filter7_f_7694_4290" x="6.69231" y="5.19231" width="12.1154" height="12.1154" filterUnits="userSpaceOnUse" color-interpolation-filters="sRGB">
<feFlood flood-opacity="0" result="BackgroundImageFix"/>
<feBlend mode="normal" in="SourceGraphic" in2="BackgroundImageFix" result="shape"/>
<feGaussianBlur stdDeviation="0.216346" result="effect1_foregroundBlur_7694_4290"/>
</filter>
<filter id="filter8_f_7694_4290" x="7.77284" y="6.27284" width="9.95042" height="9.95042" filterUnits="userSpaceOnUse" color-interpolation-filters="sRGB">
<feFlood flood-opacity="0" result="BackgroundImageFix"/>
<feBlend mode="normal" in="SourceGraphic" in2="BackgroundImageFix" result="shape"/>
<feGaussianBlur stdDeviation="0.324519" result="effect1_foregroundBlur_7694_4290"/>
</filter>
<filter id="filter9_f_7694_4290" x="9.74465" y="8.24075" width="6.15913" height="6.16304" filterUnits="userSpaceOnUse" color-interpolation-filters="sRGB">
<feFlood flood-opacity="0" result="BackgroundImageFix"/>
<feBlend mode="normal" in="SourceGraphic" in2="BackgroundImageFix" result="shape"/>
<feGaussianBlur stdDeviation="0.469471" result="effect1_foregroundBlur_7694_4290"/>
</filter>
<filter id="filter10_f_7694_4290" x="8.92752" y="7.42752" width="7.79339" height="7.79339" filterUnits="userSpaceOnUse" color-interpolation-filters="sRGB">
<feFlood flood-opacity="0" result="BackgroundImageFix"/>
<feBlend mode="normal" in="SourceGraphic" in2="BackgroundImageFix" result="shape"/>
<feGaussianBlur stdDeviation="1.05577" result="effect1_foregroundBlur_7694_4290"/>
</filter>
<linearGradient id="paint2_linear_7694_4290" x1="12.25" y1="2.25" x2="6.5" y2="11" gradientUnits="userSpaceOnUse">
<stop stop-color="white" stop-opacity="0.1"/>
<stop offset="0.517946" stop-color="white" stop-opacity="0.15"/>
<stop offset="0.866947" stop-color="white" stop-opacity="0.1"/>
</linearGradient>
<linearGradient id="paint3_linear_7694_4290" x1="12.75" y1="5.625" x2="12.75" y2="16.875" gradientUnits="userSpaceOnUse">
<stop stop-color="#B083FF"/>
<stop offset="1" stop-color="#FEFDFF"/>
</linearGradient>
<linearGradient id="paint4_linear_7694_4290" x1="12.7488" y1="6.92188" x2="12.7488" y2="15.5757" gradientUnits="userSpaceOnUse">
<stop stop-color="#B083FF"/>
<stop offset="1" stop-color="#FEFDFF"/>
</linearGradient>
<linearGradient id="paint5_linear_7694_4290" x1="14.9659" y1="9.18078" x2="10.6825" y2="13.4642" gradientUnits="userSpaceOnUse">
<stop stop-color="#B083FF"/>
<stop offset="1" stop-color="#FEFDFF"/>
</linearGradient>
<linearGradient id="paint6_linear_7694_4290" x1="14.609" y1="9.53867" x2="11.0395" y2="13.1082" gradientUnits="userSpaceOnUse">
<stop stop-color="#B083FF"/>
<stop offset="1" stop-color="#FEFDFF"/>
</linearGradient>
</defs>
</svg>
