<svg viewBox="0 0 16 16" xmlns="http://www.w3.org/2000/svg">
<path d="M4.3035 12.6667L1.3335 15V2.66667C1.3335 2.48986 1.40373 2.32029 1.52876 2.19526C1.65378 2.07024 1.82335 2 2.00016 2H14.0002C14.177 2 14.3465 2.07024 14.4716 2.19526C14.5966 2.32029 14.6668 2.48986 14.6668 2.66667V12C14.6668 12.1768 14.5966 12.3464 14.4716 12.4714C14.3465 12.5964 14.177 12.6667 14.0002 12.6667H4.3035ZM3.84216 11.3333H13.3335V3.33333H2.66683V12.2567L3.84216 11.3333ZM7.3335 6.66667H8.66683V8H7.3335V6.66667ZM4.66683 6.66667H6.00016V8H4.66683V6.66667ZM10.0002 6.66667H11.3335V8H10.0002V6.66667Z"/>
</svg>
