<svg height="20" viewBox="0 0 20 20" width="20" xmlns="http://www.w3.org/2000/svg"><path d="m18.067 1.609c-.497-.326-1.193-.615-2.069-.858-1.742-.484-4.05-.75-6.498-.75s-4.756.267-6.498.75c-.877.243-1.573.532-2.069.858-.619.407-.933.874-.933 1.391v12c0 .517.314.985.933 1.391.497.326 1.193.615 2.069.858 1.742.484 4.05.75 6.498.75s4.756-.267 6.498-.751c.877-.243 1.573-.532 2.069-.858.619-.406.933-.874.933-1.391v-12c0-.517-.314-.985-.933-1.391zm-14.797.105c1.658-.46 3.87-.714 6.23-.714s4.573.254 6.23.714c1.795.499 2.27 1.059 2.27 1.286s-.474.787-2.27 1.286c-1.658.46-3.87.714-6.23.714s-4.573-.254-6.23-.714c-1.795-.499-2.27-1.059-2.27-1.286s.474-.787 2.27-1.286zm12.46 14.572c-1.658.46-3.87.714-6.23.714s-4.573-.254-6.23-.714c-1.795-.499-2.27-1.059-2.27-1.286v-2.566c.492.309 1.164.583 2.002.816 1.742.484 4.05.75 6.498.75s4.756-.267 6.498-.751c.838-.233 1.511-.507 2.002-.816v2.566c0 .227-.474.787-2.27 1.286zm0-4c-1.658.46-3.87.714-6.23.714s-4.573-.254-6.23-.714c-1.795-.499-2.27-1.059-2.27-1.286v-2.566c.492.309 1.164.583 2.002.816 1.742.484 4.05.75 6.498.75s4.756-.267 6.498-.75c.838-.233 1.511-.507 2.002-.816v2.566c0 .227-.474.787-2.27 1.286zm0-4c-1.658.46-3.87.714-6.23.714s-4.573-.254-6.23-.714c-1.795-.499-2.27-1.059-2.27-1.286v-2.566c.492.309 1.164.583 2.002.816 1.742.484 4.05.75 6.498.75s4.756-.267 6.498-.75c.838-.233 1.511-.507 2.002-.816v2.566c0 .227-.474.787-2.27 1.286z"/></svg>