<svg width="18" height="18" viewBox="0 0 18 18" fill="none" xmlns="http://www.w3.org/2000/svg">
<path d="M16.8236 6.5246C16.713 6.45274 16.6305 6.34513 16.5897 6.21973C16.5489 6.09433 16.5524 5.95873 16.5996 5.8356C16.7547 5.43445 16.8069 5.00084 16.7514 4.57435C16.6958 4.14785 16.5344 3.74206 16.2817 3.39402C16.029 3.04598 15.6932 2.76677 15.3048 2.58188C14.9165 2.397 14.4881 2.31233 14.0586 2.3356C13.9273 2.33991 13.7984 2.30037 13.6921 2.22323C13.5858 2.14609 13.5082 2.03574 13.4716 1.9096C13.3606 1.49473 13.1476 1.11421 12.852 0.802675C12.5564 0.491145 12.1875 0.258498 11.779 0.125914C11.3705 -0.00666982 10.9354 -0.0349804 10.5132 0.0435596C10.0909 0.1221 9.69508 0.304996 9.36159 0.575598C9.25919 0.658575 9.13139 0.703853 8.99959 0.703853C8.86779 0.703853 8.73999 0.658575 8.63759 0.575598C8.3039 0.304784 7.90773 0.121794 7.4852 0.0433074C7.06267 -0.035179 6.62722 -0.0066652 6.21854 0.12625C5.80985 0.259164 5.44093 0.492253 5.1454 0.804269C4.84988 1.11628 4.63714 1.4973 4.52659 1.9126C4.48864 2.03794 4.41073 2.14742 4.30474 2.22433C4.19876 2.30125 4.07051 2.34138 3.93959 2.3386C3.51049 2.31546 3.08243 2.40011 2.69444 2.58484C2.30646 2.76957 1.97089 3.0485 1.71836 3.39618C1.46582 3.74387 1.30435 4.14925 1.24867 4.57534C1.19299 5.00144 1.24487 5.4347 1.39959 5.8356C1.44638 5.95878 1.44968 6.09424 1.40894 6.21955C1.3682 6.34486 1.28587 6.45249 1.17559 6.5246C0.814832 6.75805 0.518259 7.0781 0.312918 7.45557C0.107576 7.83303 0 8.2559 0 8.6856C0 9.1153 0.107576 9.53817 0.312918 9.91563C0.518259 10.2931 0.814832 10.6131 1.17559 10.8466C1.28597 10.9186 1.36833 11.0263 1.40891 11.1517C1.44949 11.2771 1.44585 11.4126 1.39859 11.5356C1.24346 11.9367 1.19128 12.3704 1.24681 12.7968C1.30234 13.2233 1.46382 13.6291 1.7165 13.9772C1.96918 14.3252 2.30501 14.6044 2.69334 14.7893C3.08167 14.9742 3.51012 15.0589 3.93959 15.0356C4.07117 15.0299 4.20081 15.0689 4.3074 15.1462C4.41399 15.2236 4.49125 15.3347 4.52659 15.4616C4.63729 15.8768 4.85018 16.2577 5.14583 16.5695C5.44149 16.8813 5.81051 17.1142 6.21924 17.2468C6.62796 17.3794 7.06339 17.4076 7.48581 17.3288C7.90822 17.25 8.30419 17.0667 8.63759 16.7956C8.73999 16.7126 8.86779 16.6673 8.99959 16.6673C9.13139 16.6673 9.25919 16.7126 9.36159 16.7956C9.69521 17.0664 10.0913 17.2494 10.5138 17.328C10.9362 17.4065 11.3717 17.3781 11.7803 17.2453C12.189 17.1125 12.5579 16.8795 12.8535 16.5676C13.1491 16.2557 13.3619 15.8748 13.4726 15.4596C13.5066 15.3319 13.5835 15.2197 13.6904 15.142C13.7972 15.0643 13.9276 15.0256 14.0596 15.0326C14.4891 15.056 14.9175 14.9713 15.3059 14.7864C15.6942 14.6016 16.03 14.3223 16.2826 13.9742C16.5352 13.6261 16.6966 13.2203 16.752 12.7938C16.8073 12.3672 16.755 11.9337 16.5996 11.5326C16.5528 11.4094 16.5495 11.274 16.5902 11.1486C16.631 11.0233 16.7133 10.9157 16.8236 10.8436C17.1843 10.6101 17.4809 10.2901 17.6863 9.91263C17.8916 9.53517 17.9992 9.1123 17.9992 8.6826C17.9992 8.2529 17.8916 7.83003 17.6863 7.45257C17.4809 7.0751 17.1843 6.75505 16.8236 6.5216V6.5246ZM6.99959 5.6956C7.19737 5.6956 7.39071 5.75425 7.55516 5.86413C7.71961 5.97401 7.84778 6.13019 7.92347 6.31292C7.99916 6.49564 8.01896 6.69671 7.98037 6.89069C7.94179 7.08467 7.84655 7.26285 7.7067 7.40271C7.56684 7.54256 7.38866 7.6378 7.19468 7.67638C7.0007 7.71497 6.79963 7.69517 6.61691 7.61948C6.43418 7.54379 6.278 7.41562 6.16812 7.25117C6.05824 7.08672 5.99959 6.89338 5.99959 6.6956C5.99959 6.43038 6.10495 6.17603 6.29248 5.98849C6.48002 5.80096 6.73437 5.6956 6.99959 5.6956ZM10.9996 11.6956C10.8018 11.6956 10.6085 11.6369 10.444 11.5271C10.2796 11.4172 10.1514 11.261 10.0757 11.0783C10 10.8956 9.98022 10.6945 10.0188 10.5005C10.0574 10.3065 10.1526 10.1283 10.2925 9.98849C10.4323 9.84864 10.6105 9.7534 10.8045 9.71481C10.9985 9.67623 11.1995 9.69603 11.3823 9.77172C11.565 9.84741 11.7212 9.97558 11.8311 10.14C11.9409 10.3045 11.9996 10.4978 11.9996 10.6956C11.9996 10.9608 11.8942 11.2152 11.7067 11.4027C11.5192 11.5902 11.2648 11.6956 10.9996 11.6956ZM11.7066 7.4026L7.70659 11.4026C7.61434 11.4981 7.504 11.5743 7.38199 11.6267C7.25999 11.6791 7.12877 11.7067 6.99599 11.7078C6.86321 11.709 6.73153 11.6837 6.60863 11.6334C6.48574 11.5831 6.37409 11.5089 6.28019 11.415C6.1863 11.3211 6.11205 11.2094 6.06177 11.0866C6.01149 10.9637 5.98618 10.832 5.98734 10.6992C5.98849 10.5664 6.01608 10.4352 6.06849 10.3132C6.1209 10.1912 6.19708 10.0808 6.29259 9.9886L10.2926 5.9886C10.3848 5.89309 10.4952 5.81691 10.6172 5.7645C10.7392 5.71209 10.8704 5.6845 11.0032 5.68335C11.136 5.68219 11.2676 5.7075 11.3905 5.75778C11.5134 5.80806 11.6251 5.88231 11.719 5.9762C11.8129 6.0701 11.8871 6.18175 11.9374 6.30464C11.9877 6.42754 12.013 6.55922 12.0118 6.692C12.0107 6.82478 11.9831 6.956 11.9307 7.078C11.8783 7.20001 11.8021 7.31035 11.7066 7.4026Z" fill="white"/>
</svg>
