<svg width="26" height="22" viewBox="0 0 20 16" fill="none" xmlns="http://www.w3.org/2000/svg">
<path fill-rule="evenodd" clip-rule="evenodd" d="M1.14228 1.14228C0 2.28457 0 4.12304 0 7.8C0 11.477 0 13.3154 1.14228 14.4577C2.28457 15.6 4.12304 15.6 7.8 15.6H11.7C15.377 15.6 17.2154 15.6 18.3577 14.4577C19.5 13.3154 19.5 11.477 19.5 7.8C19.5 4.12304 19.5 2.28457 18.3577 1.14228C17.2154 0 15.377 0 11.7 0H7.8C4.12304 0 2.28457 0 1.14228 1.14228ZM16.1618 3.43186C16.4203 3.74212 16.3784 4.20322 16.0681 4.46176L13.9266 6.2464C13.0624 6.96659 12.3619 7.55032 11.7437 7.94793C11.0997 8.36211 10.4726 8.62375 9.75 8.62375C9.02745 8.62375 8.40028 8.36211 7.7563 7.94793C7.13809 7.55032 6.43764 6.9666 5.57345 6.24641L3.43186 4.46176C3.12161 4.20322 3.07969 3.74212 3.33824 3.43186C3.59678 3.12161 4.05788 3.07969 4.36813 3.33824L6.47306 5.09234C7.38269 5.85037 8.01424 6.37495 8.54742 6.71787C9.06354 7.04982 9.41356 7.16125 9.75 7.16125C10.0864 7.16125 10.4365 7.04982 10.9526 6.71787C11.4858 6.37495 12.1173 5.85037 13.0269 5.09234L15.1319 3.33824C15.4421 3.07969 15.9032 3.12161 16.1618 3.43186Z" fill="white"/>
</svg>
