<svg width="20" height="16" viewBox="0 0 20 16" fill="none" xmlns="http://www.w3.org/2000/svg">
<path d="M17.5013 0.5H2.5013C1.94897 0.500651 1.41944 0.720353 1.02888 1.11091C0.638322 1.50147 0.418619 2.031 0.417969 2.58333V13.4167C0.418619 13.969 0.638322 14.4985 1.02888 14.8891C1.41944 15.2796 1.94897 15.4993 2.5013 15.5H17.5013C18.0536 15.4993 18.5832 15.2796 18.9737 14.8891C19.3643 14.4985 19.584 13.969 19.5846 13.4167V2.58333C19.584 2.031 19.3643 1.50147 18.9737 1.11091C18.5832 0.720353 18.0536 0.500651 17.5013 0.5ZM7.08464 10.9167C6.67897 10.9186 6.27737 10.8359 5.90548 10.6738C5.5336 10.5117 5.19961 10.2738 4.92487 9.97538C4.65012 9.67691 4.44066 9.32442 4.30987 8.94041C4.17907 8.55641 4.12982 8.14934 4.16526 7.74522C4.20071 7.3411 4.32006 6.94882 4.5157 6.59344C4.71133 6.23807 4.97895 5.92741 5.30145 5.68132C5.62396 5.43523 5.99425 5.25912 6.38867 5.16425C6.78308 5.06938 7.19296 5.05783 7.59209 5.13033C7.17232 5.48148 6.8347 5.92045 6.60303 6.41628C6.37137 6.9121 6.2513 7.45272 6.2513 8C6.2513 8.54728 6.37137 9.08789 6.60303 9.58372C6.8347 10.0796 7.17232 10.5185 7.59209 10.8697C7.42463 10.9001 7.25483 10.9158 7.08464 10.9167ZM10.0013 10.9167C9.59564 10.9186 9.19403 10.8359 8.82215 10.6738C8.45026 10.5117 8.11628 10.2738 7.84153 9.97538C7.56679 9.67691 7.35733 9.32442 7.22653 8.94041C7.09574 8.55641 7.04649 8.14934 7.08193 7.74522C7.11737 7.3411 7.23672 6.94882 7.43236 6.59344C7.628 6.23807 7.89562 5.92741 8.21812 5.68132C8.54062 5.43523 8.91091 5.25912 9.30533 5.16425C9.69975 5.06938 10.1096 5.05783 10.5088 5.13033C10.089 5.48148 9.75136 5.92045 9.5197 6.41628C9.28803 6.9121 9.16797 7.45272 9.16797 8C9.16797 8.54728 9.28803 9.08789 9.5197 9.58372C9.75136 10.0796 10.089 10.5185 10.5088 10.8697C10.3413 10.9001 10.1715 10.9158 10.0013 10.9167ZM12.918 10.9167C12.3411 10.9167 11.7772 10.7456 11.2976 10.4251C10.8179 10.1046 10.4441 9.64911 10.2233 9.11616C10.0026 8.58321 9.94481 7.99676 10.0573 7.43099C10.1699 6.86521 10.4477 6.34551 10.8556 5.93761C11.2635 5.5297 11.7832 5.25192 12.349 5.13938C12.9147 5.02684 13.5012 5.0846 14.0341 5.30535C14.5671 5.52611 15.0226 5.89994 15.3431 6.37959C15.6636 6.85923 15.8346 7.42314 15.8346 8C15.8346 8.77355 15.5273 9.51541 14.9804 10.0624C14.4334 10.6094 13.6915 10.9167 12.918 10.9167Z" fill="#6A4BFF"/>
</svg>
