<svg width="20" height="21" viewBox="0 0 20 21" fill="none" xmlns="http://www.w3.org/2000/svg">
<path d="M8.22222 2.58398H2.88889C2.65314 2.58398 2.42705 2.67764 2.26035 2.84433C2.09365 3.01103 2 3.23712 2 3.47287V8.80621C2 9.04194 2.09365 9.26807 2.26035 9.43474C2.42705 9.60141 2.65314 9.6951 2.88889 9.6951H8.22222C8.45796 9.6951 8.68409 9.60141 8.85076 9.43474C9.01742 9.26807 9.11111 9.04194 9.11111 8.80621V3.47287C9.11111 3.23712 9.01742 3.01103 8.85076 2.84433C8.68409 2.67764 8.45796 2.58398 8.22222 2.58398ZM17.1111 2.58398H11.7778C11.542 2.58398 11.3159 2.67764 11.1492 2.84433C10.9826 3.01103 10.8889 3.23712 10.8889 3.47287V8.80621C10.8889 9.04194 10.9826 9.26807 11.1492 9.43474C11.3159 9.60141 11.542 9.6951 11.7778 9.6951H17.1111C17.3468 9.6951 17.573 9.60141 17.7396 9.43474C17.9063 9.26807 18 9.04194 18 8.80621V3.47287C18 3.23712 17.9063 3.01103 17.7396 2.84433C17.573 2.67764 17.3468 2.58398 17.1111 2.58398ZM8.22222 11.4729H2.88889C2.65314 11.4729 2.42705 11.5666 2.26035 11.7332C2.09365 11.8999 2 12.126 2 12.3618V17.6951C2 17.9308 2.09365 18.157 2.26035 18.3236C2.42705 18.4903 2.65314 18.584 2.88889 18.584H8.22222C8.45796 18.584 8.68409 18.4903 8.85076 18.3236C9.01742 18.157 9.11111 17.9308 9.11111 17.6951V12.3618C9.11111 12.126 9.01742 11.8999 8.85076 11.7332C8.68409 11.5666 8.45796 11.4729 8.22222 11.4729ZM15.3333 12.3618H13.5556V14.1395H11.7778V15.9173H13.5556V17.6951H15.3333V15.9173H17.1111V14.1395H15.3333V12.3618Z" fill="#6A4BFF"/>
</svg>
