<svg height="20" viewBox="0 0 20 20" width="20" xmlns="http://www.w3.org/2000/svg"><path d="m19.104.896c-.562-.562-1.309-.871-2.104-.871s-1.542.309-2.104.871l-12.75 12.75c-.052.052-.091.114-.116.183l-2 5.5c-.066.183-.021.387.116.524.095.095.223.146.354.146.057 0 .115-.01.171-.03l5.5-2c.069-.025.131-.065.183-.116l12.75-12.75c.562-.562.871-1.309.871-2.104s-.309-1.542-.871-2.104zm-13.379 16.172-4.389 1.596 1.596-4.389 11.068-11.068 2.793 2.793zm12.671-12.672-.896.896-2.793-2.793.896-.896c.373-.373.869-.578 1.396-.578s1.023.205 1.396.578.578.869.578 1.396-.205 1.023-.578 1.396z"/></svg>