<svg xmlns="http://www.w3.org/2000/svg" width="20" height="20" viewBox="0 0 20 20" fill="none">
<path fill-rule="evenodd" clip-rule="evenodd" d="M13.5418 5.83331C13.5418 6.17832 13.2618 6.45831 12.9168 6.45831C12.5718 6.45831 12.2918 6.17832 12.2918 5.83331V4.58332C12.2918 3.31748 11.2659 2.29165 10.0001 2.29165C8.73427 2.29165 7.70844 3.31748 7.70844 4.58332V5.83331C7.70844 6.17832 7.42844 6.45831 7.08344 6.45831C6.73844 6.45831 6.45844 6.17832 6.45844 5.83331V4.58332C6.45844 2.62748 8.04427 1.04165 10.0001 1.04165C11.9559 1.04165 13.5418 2.62748 13.5418 4.58332V5.83331Z" fill="white"/>
<path fill-rule="evenodd" clip-rule="evenodd" d="M16.1184 6.95831L16.7851 16.9583C16.8192 17.4766 16.6376 17.985 16.2834 18.3641C15.9284 18.7433 15.4326 18.9583 14.9142 18.9583H5.08591C4.56758 18.9583 4.07174 18.7433 3.71674 18.3641C3.36258 17.985 3.18091 17.4766 3.21508 16.9583L3.88174 6.95831C3.94758 5.97331 4.76591 5.20831 5.75258 5.20831H14.2476C15.2342 5.20831 16.0526 5.97331 16.1184 6.95831ZM12.0717 8.89831C11.7034 9.67248 10.9142 10.2083 10.0001 10.2083C9.08591 10.2083 8.29674 9.67248 7.92841 8.89831C7.78091 8.58665 7.40758 8.45415 7.09591 8.60248C6.78424 8.74998 6.65174 9.12331 6.79924 9.43498C7.36758 10.6316 8.58758 11.4583 10.0001 11.4583C11.4126 11.4583 12.6326 10.6316 13.2009 9.43498C13.3484 9.12331 13.2159 8.74998 12.9042 8.60248C12.5926 8.45415 12.2192 8.58665 12.0717 8.89831Z" fill="white"/>
</svg>