<svg width="20" height="20" viewBox="0 0 20 20" fill="none" xmlns="http://www.w3.org/2000/svg">
<path fill-rule="evenodd" clip-rule="evenodd" d="M13.5404 5.83268C13.5404 6.17768 13.2604 6.45768 12.9154 6.45768C12.5704 6.45768 12.2904 6.17768 12.2904 5.83268V4.58268C12.2904 3.31685 11.2645 2.29102 9.9987 2.29102C8.73286 2.29102 7.70703 3.31685 7.70703 4.58268V5.83268C7.70703 6.17768 7.42703 6.45768 7.08203 6.45768C6.73703 6.45768 6.45703 6.17768 6.45703 5.83268V4.58268C6.45703 2.62685 8.04286 1.04102 9.9987 1.04102C11.9545 1.04102 13.5404 2.62685 13.5404 4.58268V5.83268Z" fill="white"/>
<path fill-rule="evenodd" clip-rule="evenodd" d="M16.1183 6.95703L16.785 16.957C16.8192 17.4754 16.6375 17.9837 16.2834 18.3629C15.9284 18.742 15.4325 18.957 14.9142 18.957H5.08585C4.56752 18.957 4.07168 18.742 3.71668 18.3629C3.36252 17.9837 3.18085 17.4754 3.21502 16.957L3.88168 6.95703C3.94752 5.97203 4.76585 5.20703 5.75252 5.20703H14.2475C15.2342 5.20703 16.0525 5.97203 16.1183 6.95703ZM12.0717 8.89703C11.7034 9.6712 10.9142 10.207 10 10.207C9.08585 10.207 8.29668 9.6712 7.92835 8.89703C7.78085 8.58536 7.40752 8.45286 7.09585 8.6012C6.78418 8.7487 6.65168 9.12203 6.79918 9.4337C7.36752 10.6304 8.58752 11.457 10 11.457C11.4125 11.457 12.6325 10.6304 13.2008 9.4337C13.3483 9.12203 13.2158 8.7487 12.9042 8.6012C12.5925 8.45286 12.2192 8.58536 12.0717 8.89703Z" fill="white"/>
</svg>
