<svg width="14" height="18" viewBox="0 0 14 18" fill="none" xmlns="http://www.w3.org/2000/svg">
<path fill-rule="evenodd" clip-rule="evenodd" d="M10.5404 4.83268C10.5404 5.17768 10.2604 5.45768 9.91536 5.45768C9.57036 5.45768 9.29036 5.17768 9.29036 4.83268V3.58268C9.29036 2.31685 8.26453 1.29102 6.9987 1.29102C5.73286 1.29102 4.70703 2.31685 4.70703 3.58268V4.83268C4.70703 5.17768 4.42703 5.45768 4.08203 5.45768C3.73703 5.45768 3.45703 5.17768 3.45703 4.83268V3.58268C3.45703 1.62685 5.04286 0.0410156 6.9987 0.0410156C8.95453 0.0410156 10.5404 1.62685 10.5404 3.58268V4.83268Z" fill="#342600"/>
<path fill-rule="evenodd" clip-rule="evenodd" d="M13.1183 5.95703L13.785 15.957C13.8192 16.4754 13.6375 16.9837 13.2834 17.3629C12.9284 17.742 12.4325 17.957 11.9142 17.957H2.08585C1.56752 17.957 1.07168 17.742 0.716682 17.3629C0.362516 16.9837 0.180849 16.4754 0.215016 15.957L0.881682 5.95703C0.947516 4.97203 1.76585 4.20703 2.75252 4.20703H11.2475C12.2342 4.20703 13.0525 4.97203 13.1183 5.95703ZM9.07168 7.89703C8.70335 8.6712 7.91418 9.20703 7.00002 9.20703C6.08585 9.20703 5.29668 8.6712 4.92835 7.89703C4.78085 7.58536 4.40752 7.45286 4.09585 7.6012C3.78418 7.7487 3.65168 8.12203 3.79918 8.4337C4.36752 9.63036 5.58752 10.457 7.00002 10.457C8.41252 10.457 9.63252 9.63036 10.2008 8.4337C10.3483 8.12203 10.2158 7.7487 9.90418 7.6012C9.59252 7.45286 9.21918 7.58536 9.07168 7.89703Z" fill="#342600"/>
</svg>
