<svg viewBox="0 0 16 12" xmlns="http://www.w3.org/2000/svg">
<path d="M7.99978 0C11.5944 0 14.5851 2.58667 15.2124 6C14.5858 9.41333 11.5944 12 7.99978 12C4.40511 12 1.41444 9.41333 0.787109 6C1.41378 2.58667 4.40511 0 7.99978 0ZM7.99978 10.6667C9.35942 10.6664 10.6787 10.2045 11.7417 9.35678C12.8047 8.50901 13.5484 7.32552 13.8511 6C13.5473 4.67554 12.8031 3.49334 11.7402 2.64668C10.6773 1.80003 9.35865 1.33902 7.99978 1.33902C6.64091 1.33902 5.32224 1.80003 4.25936 2.64668C3.19648 3.49334 2.45229 4.67554 2.14844 6C2.45117 7.32552 3.19489 8.50901 4.25787 9.35678C5.32085 10.2045 6.64013 10.6664 7.99978 10.6667ZM7.99978 9C7.20413 9 6.44107 8.68393 5.87846 8.12132C5.31585 7.55871 4.99978 6.79565 4.99978 6C4.99978 5.20435 5.31585 4.44129 5.87846 3.87868C6.44107 3.31607 7.20413 3 7.99978 3C8.79543 3 9.55849 3.31607 10.1211 3.87868C10.6837 4.44129 10.9998 5.20435 10.9998 6C10.9998 6.79565 10.6837 7.55871 10.1211 8.12132C9.55849 8.68393 8.79543 9 7.99978 9ZM7.99978 7.66667C8.44181 7.66667 8.86573 7.49107 9.17829 7.17851C9.49085 6.86595 9.66644 6.44203 9.66644 6C9.66644 5.55797 9.49085 5.13405 9.17829 4.82149C8.86573 4.50893 8.44181 4.33333 7.99978 4.33333C7.55775 4.33333 7.13383 4.50893 6.82127 4.82149C6.50871 5.13405 6.33311 5.55797 6.33311 6C6.33311 6.44203 6.50871 6.86595 6.82127 7.17851C7.13383 7.49107 7.55775 7.66667 7.99978 7.66667Z"/>
</svg>
