<svg height="20" viewBox="0 0 20 20" width="20" xmlns="http://www.w3.org/2000/svg"><path d="m7.631 19.702c-.041 0-.083-.005-.125-.016-.898-.231-1.761-.587-2.564-1.059-.233-.137-.315-.434-.186-.671.159-.292.243-.622.243-.957 0-1.103-.897-2-2-2-.334 0-.665.084-.957.243-.237.129-.534.047-.671-.186-.472-.804-.828-1.666-1.059-2.564-.065-.254.077-.515.325-.598.814-.274 1.362-1.036 1.362-1.895s-.547-1.621-1.362-1.895c-.248-.084-.39-.344-.325-.598.231-.898.587-1.761 1.059-2.564.137-.233.434-.315.671-.186.291.159.622.243.957.243 1.103 0 2-.897 2-2 0-.334-.084-.665-.243-.957-.129-.237-.047-.534.186-.671.804-.472 1.666-.828 2.564-1.059.254-.065.515.077.598.325.274.814 1.036 1.362 1.895 1.362s1.621-.547 1.895-1.362c.084-.248.345-.39.598-.325.898.231 1.761.587 2.564 1.059.233.137.315.434.186.671-.159.292-.243.622-.243.957 0 1.103.897 2 2 2 .334 0 .665-.084.957-.243.237-.129.534-.047.671.186.472.804.828 1.666 1.059 2.564.065.254-.077.515-.325.598-.814.274-1.362 1.036-1.362 1.895s.547 1.621 1.362 1.895c.248.084.39.344.325.598-.231.898-.587 1.761-1.059 2.564-.137.233-.434.315-.671.186-.292-.159-.622-.243-.957-.243-1.103 0-2 .897-2 2 0 .334.084.665.243.957.129.237.047.534-.186.671-.804.472-1.666.828-2.564 1.059-.254.065-.515-.077-.598-.325-.274-.814-1.036-1.362-1.895-1.362s-1.621.547-1.895 1.362c-.07.207-.264.341-.474.341zm2.369-2.702c1.127 0 2.142.628 2.655 1.602.52-.161 1.026-.369 1.51-.622-.108-.314-.164-.646-.164-.98 0-1.654 1.346-3 3-3 .334 0 .666.056.98.164.253-.484.462-.989.622-1.51-.974-.512-1.602-1.527-1.602-2.655s.628-2.142 1.602-2.655c-.161-.52-.369-1.026-.622-1.51-.314.108-.646.164-.98.164-1.654 0-3-1.346-3-3 0-.334.056-.666.164-.98-.484-.253-.989-.462-1.51-.622-.512.974-1.527 1.602-2.655 1.602s-2.142-.628-2.655-1.602c-.52.16-1.026.369-1.51.622.108.314.164.646.164.98 0 1.654-1.346 3-3 3-.334 0-.666-.056-.98-.164-.253.484-.462.989-.622 1.51.974.512 1.602 1.527 1.602 2.655s-.628 2.142-1.602 2.655c.16.52.369 1.026.622 1.51.314-.108.646-.164.98-.164 1.654 0 3 1.346 3 3 0 .334-.056.666-.164.98.484.253.989.462 1.51.622.512-.974 1.527-1.602 2.655-1.602z"/><path d="m10 13c-1.654 0-3-1.346-3-3s1.346-3 3-3 3 1.346 3 3-1.346 3-3 3zm0-5c-1.103 0-2 .897-2 2s.897 2 2 2 2-.897 2-2-.897-2-2-2z"/></svg>