<?xml version="1.0" encoding="utf-8"?>
<!-- Generator: Adobe Illustrator 23.0.0, SVG Export Plug-In . SVG Version: 6.00 Build 0)  -->
<svg version="1.1" id="Layer_1" xmlns="http://www.w3.org/2000/svg" xmlns:xlink="http://www.w3.org/1999/xlink" x="0px" y="0px"
	 viewBox="0 0 500 500" style="enable-background:new 0 0 500 500;" xml:space="preserve">
<style type="text/css">
	.st0{fill:url(#SVGID_1_);}
	.st1{fill:url(#SVGID_2_);}
	.st2{fill:url(#SVGID_3_);}
	.st3{fill:url(#SVGID_4_);}
</style>
<g>
	<linearGradient id="SVGID_1_" gradientUnits="userSpaceOnUse" x1="1.7706" y1="291.2943" x2="502.8916" y2="291.2943">
		<stop  offset="0" style="stop-color:#5725FF"/>
		<stop  offset="1" style="stop-color:#9271FF"/>
	</linearGradient>
	<path class="st0" d="M444.6,301.8l-27.3-6.5v-4.9c17.8-12.4,29.4-33.1,29.4-56.4v-35.5c0-37.9-30.9-68.8-68.8-68.8
		c-17,0-32.6,6.2-44.6,16.5c-13.4-32.8-45.6-55.9-83.1-55.9c-37.6,0-69.8,23.2-83.2,56.1c-12-10.4-27.7-16.6-44.8-16.6
		c-37.9,0-68.8,30.9-68.8,68.8V234c0,23.3,11.7,43.9,29.4,56.4v4.9l-27.3,6.5C22.8,309.6,0,338.5,0,372v28.7
		c0,8.5,6.9,15.4,15.4,15.4H86c-0.1,1.9-0.2,3.7-0.2,5.6V477c0,8.5,6.9,15.4,15.4,15.4h92.4c8.5,0,15.4-6.9,15.4-15.4
		s-6.9-15.4-15.4-15.4h-15.9l-30.7,0h-30.4v-39.9c0-29.6,20.1-55.2,49-62.1l42.2-10.1l28.2,64.2c2.5,5.6,8,9.2,14.1,9.2h0
		c6.1,0,11.6-3.6,14.1-9.2l28.2-64.1l42,10c28.8,6.9,49,32.4,49,62.1v39.8h-78.5c-8.5,0-15.4,6.9-15.4,15.4s6.9,15.4,15.4,15.4h93.9
		c8.5,0,15.4-6.9,15.4-15.4v-55.2c0-1.9-0.1-3.8-0.2-5.7h70.8c8.5,0,15.4-6.9,15.4-15.4V372C500,338.5,477.2,309.6,444.6,301.8z
		 M339.8,231.7c0-0.7,0.1-1.5,0.1-2.2v-13.7c-0.1-19.5-0.1-20.5,3.1-32.4c5.8-13.5,19.3-23,34.9-23c20.1,0,36.7,15.7,38,35.5
		l0.1,30.7v7.3c0,21-17.1,38-38,38s-38-17.1-38-38V231.7z M84.1,226.7l0.1-30.7c1.3-19.8,17.8-35.5,38-35.5c15.6,0,29.1,9.5,34.9,23
		c3.1,12.3,3.1,16.4,3.1,32.4V234c0,21-17.1,38-38,38c-21,0-38-17.1-38-38V226.7z M201.2,325c-3.9-1.7-35.1,2.9-35.1,2.9l-7.8,1.9
		c-30.2,7.2-54,28.3-65.3,55.6H30.7V372c0-19.2,13.2-35.9,31.9-40.4l39.1-9.3c6.9-1.7,11.8-7.8,11.8-14.9v-5.2
		c2.8,0.4,5.7,0.6,8.6,0.6c2.9,0,5.8-0.2,8.6-0.6l0.8-0.1c10.7-1.7,20.9-5.7,29.9-11.7h0c5-3.5,9.4-7.6,13.3-12.2
		c6.9,10.6,15.9,19.6,26.4,26.5V325z M267.9,328.5l-18,40.9l-18-41v-11c5.9,1.2,11.9,1.8,18.2,1.8c6.1,0,12.1-0.6,17.9-1.8V328.5z
		 M250.1,288.5c-32.5,0-59-26.5-59-59v-16.2l0-30.7V180h0c0-32.5,26.5-59,59-59c29.4,0,53.8,21.5,58.3,49.6l0.7,36.1v25.1
		C307.9,263.3,281.9,288.5,250.1,288.5z M469.3,385.4h-62.5c-11.3-27.3-35.1-48.3-65.4-55.6l-7.7-1.8c0,0-31-7.8-35-6v-17
		c10.6-6.9,19.7-15.9,26.7-26.6c3.9,4.6,8.3,8.6,13.2,12c8.8,6.2,19,10.3,29.7,11.7l1,0.1c2.8,0.4,5.7,0.6,8.6,0.6
		c2.9,0,5.8-0.2,8.6-0.6v5.2c0,7.1,4.9,13.3,11.8,14.9l39.1,9.4c18.8,4.5,31.9,21.1,31.9,40.4V385.4z"/>
	<linearGradient id="SVGID_2_" gradientUnits="userSpaceOnUse" x1="1.7706" y1="34.1035" x2="502.8916" y2="34.1035">
		<stop  offset="0" style="stop-color:#5725FF"/>
		<stop  offset="1" style="stop-color:#9271FF"/>
	</linearGradient>
	<path class="st1" d="M249.9,61c8.5,0,15.4-6.9,15.4-15.4v-23c0-8.5-6.9-15.4-15.4-15.4c-8.5,0-15.4,6.9-15.4,15.4v23
		C234.5,54.1,241.4,61,249.9,61z"/>
	<linearGradient id="SVGID_3_" gradientUnits="userSpaceOnUse" x1="1.7706" y1="60.1856" x2="502.8916" y2="60.1856">
		<stop  offset="0" style="stop-color:#5725FF"/>
		<stop  offset="1" style="stop-color:#9271FF"/>
	</linearGradient>
	<path class="st2" d="M171.6,79.1c3,3,6.9,4.5,10.9,4.5c3.9,0,7.9-1.5,10.9-4.5c6-6,6-15.7,0-21.7l-16.1-16.1c-6-6-15.7-6-21.7,0
		c-6,6-6,15.7,0,21.7L171.6,79.1z"/>
	<linearGradient id="SVGID_4_" gradientUnits="userSpaceOnUse" x1="1.7706" y1="60.5333" x2="502.8916" y2="60.5333">
		<stop  offset="0" style="stop-color:#5725FF"/>
		<stop  offset="1" style="stop-color:#9271FF"/>
	</linearGradient>
	<path class="st3" d="M317.1,83.9c3.9,0,7.9-1.5,10.9-4.5l16-16c6-6,6-15.7,0-21.7c-6-6-15.7-6-21.7,0l-16,16c-6,6-6,15.7,0,21.7
		C309.3,82.4,313.2,83.9,317.1,83.9z"/>
</g>
</svg>
