<svg height="20" viewBox="0 0 20 20" width="20" xmlns="http://www.w3.org/2000/svg"><path d="m11.5 7c-.276 0-.5-.224-.5-.5 0-1.378-1.122-2.5-2.5-2.5-.276 0-.5-.224-.5-.5s.224-.5.5-.5c1.378 0 2.5-1.122 2.5-2.5 0-.276.224-.5.5-.5s.5.224.5.5c0 1.378 1.122 2.5 2.5 2.5.276 0 .5.224.5.5s-.224.5-.5.5c-1.378 0-2.5 1.122-2.5 2.5 0 .276-.224.5-.5.5zm-1.199-3.5c.49.296.903.708 1.199 1.199.296-.49.708-.903 1.199-1.199-.49-.296-.903-.708-1.199-1.199-.296.49-.708.903-1.199 1.199z"/><path d="m1.5 10c-.276 0-.5-.224-.5-.5s-.224-.5-.5-.5-.5-.224-.5-.5.224-.5.5-.5.5-.224.5-.5.224-.5.5-.5.5.224.5.5.224.5.5.5.5.224.5.5-.224.5-.5.5-.5.224-.5.5-.224.5-.5.5z"/><path d="m18.147 15.939-10.586-10.586c-.283-.283-.659-.438-1.061-.438s-.778.156-1.061.438l-.586.586c-.283.283-.438.659-.438 1.061s.156.778.438 1.061l10.586 10.586c.283.283.659.438 1.061.438s.778-.156 1.061-.438l.586-.586c.283-.283.438-.659.438-1.061s-.156-.778-.438-1.061zm-12.586-9.293.586-.586c.094-.094.219-.145.354-.145s.26.052.354.145l1.439 1.439-1.293 1.293-1.439-1.439c-.195-.195-.195-.512 0-.707zm11.878 10.708-.586.586c-.094.094-.219.145-.353.145s-.26-.052-.353-.145l-8.439-8.439 1.293-1.293 8.439 8.439c.195.195.195.512 0 .707z"/><path d="m3.5 5c-.276 0-.5-.224-.5-.5 0-.827-.673-1.5-1.5-1.5-.276 0-.5-.224-.5-.5s.224-.5.5-.5c.827 0 1.5-.673 1.5-1.5 0-.276.224-.5.5-.5s.5.224.5.5c0 .827.673 1.5 1.5 1.5.276 0 .5.224.5.5s-.224.5-.5.5c-.827 0-1.5.673-1.5 1.5 0 .276-.224.5-.5.5zm-.502-2.5c.19.143.359.312.502.502.143-.19.312-.359.502-.502-.19-.143-.359-.312-.502-.502-.143.19-.312.359-.502.502z"/><path d="m3.5 15c-.276 0-.5-.224-.5-.5 0-.827-.673-1.5-1.5-1.5-.276 0-.5-.224-.5-.5s.224-.5.5-.5c.827 0 1.5-.673 1.5-1.5 0-.276.224-.5.5-.5s.5.224.5.5c0 .827.673 1.5 1.5 1.5.276 0 .5.224.5.5s-.224.5-.5.5c-.827 0-1.5.673-1.5 1.5 0 .276-.224.5-.5.5zm-.502-2.5c.19.143.359.312.502.502.143-.19.312-.359.502-.502-.19-.143-.359-.312-.502-.502-.143.19-.312.359-.502.502z"/></svg>