<svg width="50" height="24" viewBox="0 0 50 24" fill="none" xmlns="http://www.w3.org/2000/svg">
<g filter="url(#filter0_i_6709_3207)">
<rect x="1" y="1" width="48" height="22" rx="11" fill="#F98824"/>
<rect x="1" y="1" width="48" height="22" rx="11" stroke="#FFCC9F"/>
<path fill-rule="evenodd" clip-rule="evenodd" d="M20.1484 9.55823C20.1484 9.96245 19.8187 10.2921 19.4145 10.2921C19.3685 10.2921 19.3234 10.2876 19.2797 10.2795L18.4951 14.4769C18.4863 14.4767 18.4775 14.4765 18.4686 14.4765H9.5235C9.51464 14.4765 9.50581 14.4767 9.49701 14.4768L8.71246 10.2795C8.66871 10.2876 8.6237 10.2921 8.57766 10.2921C8.17343 10.2921 7.84375 9.96245 7.84375 9.55823C7.84375 9.154 8.17343 8.82432 8.57766 8.82432C8.98188 8.82432 9.31156 9.154 9.31156 9.55823C9.31156 9.72388 9.25614 9.87695 9.16298 9.99999L11.3658 11.6625L13.7002 9.23461C13.3809 9.11433 13.1526 8.80554 13.1526 8.44501C13.1526 7.98046 13.5315 7.60156 13.9961 7.60156C14.4607 7.60156 14.8395 7.98044 14.8395 8.44501C14.8395 8.80554 14.6112 9.11433 14.2919 9.23461L16.6264 11.6624L18.8292 9.99996C18.736 9.87692 18.6806 9.72385 18.6806 9.5582C18.6806 9.15398 19.0103 8.82429 19.4145 8.82429C19.8187 8.82429 20.1484 9.15398 20.1484 9.5582L20.1484 9.55823ZM18.4686 15.2968H9.5235C9.32444 15.2968 9.16155 15.4597 9.16155 15.6588V16.0318C9.16155 16.2308 9.32444 16.3937 9.5235 16.3937H18.4686C18.6677 16.3937 18.8306 16.2308 18.8306 16.0318V15.6588C18.8306 15.4597 18.6677 15.2968 18.4686 15.2968Z" fill="white"/>
<path d="M23.73 15.5V8.5H26.12C26.68 8.5 27.14 8.59333 27.5 8.78C27.86 8.96667 28.1267 9.21667 28.3 9.53C28.4733 9.84333 28.56 10.2 28.56 10.6C28.56 10.98 28.4733 11.33 28.3 11.65C28.1333 11.9633 27.87 12.2167 27.51 12.41C27.15 12.5967 26.6867 12.69 26.12 12.69H24.73V15.5H23.73ZM24.73 11.86H26.08C26.6067 11.86 26.98 11.7467 27.2 11.52C27.4267 11.2867 27.54 10.98 27.54 10.6C27.54 10.1933 27.4267 9.88 27.2 9.66C26.98 9.44 26.6067 9.33 26.08 9.33H24.73V11.86ZM29.6382 15.5V8.5H32.0082C32.5615 8.5 33.0149 8.59333 33.3682 8.78C33.7215 8.96667 33.9815 9.21667 34.1482 9.53C34.3215 9.83667 34.4082 10.1867 34.4082 10.58C34.4082 10.9533 34.3215 11.3 34.1482 11.62C33.9815 11.9333 33.7182 12.1867 33.3582 12.38C32.9982 12.5667 32.5382 12.66 31.9782 12.66H30.6382V15.5H29.6382ZM33.3182 15.5L31.8082 12.39H32.9082L34.4782 15.5H33.3182ZM30.6382 11.9H31.9382C32.4315 11.9 32.7949 11.78 33.0282 11.54C33.2615 11.2933 33.3782 10.98 33.3782 10.6C33.3782 10.2133 33.2649 9.90667 33.0382 9.68C32.8115 9.45333 32.4449 9.34 31.9382 9.34H30.6382V11.9ZM38.8527 15.62C38.1793 15.62 37.586 15.47 37.0727 15.17C36.566 14.8633 36.166 14.44 35.8727 13.9C35.586 13.3533 35.4427 12.72 35.4427 12C35.4427 11.2867 35.586 10.66 35.8727 10.12C36.166 9.57333 36.566 9.14667 37.0727 8.84C37.586 8.53333 38.1793 8.38 38.8527 8.38C39.5393 8.38 40.1393 8.53333 40.6527 8.84C41.166 9.14667 41.5627 9.57333 41.8427 10.12C42.1293 10.66 42.2727 11.2867 42.2727 12C42.2727 12.72 42.1293 13.3533 41.8427 13.9C41.5627 14.44 41.166 14.8633 40.6527 15.17C40.1393 15.47 39.5393 15.62 38.8527 15.62ZM38.8627 14.73C39.3427 14.73 39.7627 14.62 40.1227 14.4C40.4827 14.18 40.7593 13.8667 40.9527 13.46C41.1527 13.0533 41.2527 12.5667 41.2527 12C41.2527 11.4333 41.1527 10.9467 40.9527 10.54C40.7593 10.1333 40.4827 9.82333 40.1227 9.61C39.7627 9.39 39.3427 9.28 38.8627 9.28C38.3827 9.28 37.9627 9.39 37.6027 9.61C37.2427 9.82333 36.9627 10.1333 36.7627 10.54C36.5627 10.9467 36.4627 11.4333 36.4627 12C36.4627 12.5667 36.5627 13.0533 36.7627 13.46C36.9627 13.8667 37.2427 14.18 37.6027 14.4C37.9627 14.62 38.3827 14.73 38.8627 14.73Z" fill="white"/>
</g>
<defs>
<filter id="filter0_i_6709_3207" x="0.5" y="0.5" width="49" height="23" filterUnits="userSpaceOnUse" color-interpolation-filters="sRGB">
<feFlood flood-opacity="0" result="BackgroundImageFix"/>
<feBlend mode="normal" in="SourceGraphic" in2="BackgroundImageFix" result="shape"/>
<feColorMatrix in="SourceAlpha" type="matrix" values="0 0 0 0 0 0 0 0 0 0 0 0 0 0 0 0 0 0 127 0" result="hardAlpha"/>
<feMorphology radius="2" operator="erode" in="SourceAlpha" result="effect1_innerShadow_6709_3207"/>
<feOffset/>
<feGaussianBlur stdDeviation="1"/>
<feComposite in2="hardAlpha" operator="arithmetic" k2="-1" k3="1"/>
<feColorMatrix type="matrix" values="0 0 0 0 1 0 0 0 0 0.809344 0 0 0 0 0.642071 0 0 0 0.5 0"/>
<feBlend mode="normal" in2="shape" result="effect1_innerShadow_6709_3207"/>
</filter>
</defs>
</svg>
