<svg width="20" height="20" viewBox="0 0 512 512" fill="none" xmlns="http://www.w3.org/2000/svg">
<path fill-rule="evenodd" clip-rule="evenodd" d="M286.665 91.1471C272.301 69.1733 239.699 69.1731 225.335 91.1471L152.814 202.085L97.382 170.679C69.6111 154.945 36.2208 179.603 43.7434 210.29L81.4027 363.913C83.0982 370.831 89.379 375.703 96.599 375.703H415.401C422.622 375.703 428.902 370.831 430.598 363.913L468.256 210.29C475.78 179.603 442.389 154.945 414.618 170.679L359.185 202.085L286.665 91.1471ZM260.38 107.836C258.33 104.697 253.67 104.697 251.62 107.836L171.049 231.087C166.54 237.986 157.334 240.19 150.115 236.1L81.7988 197.394C77.8315 195.147 73.0613 198.669 74.1361 203.053L108.905 344.887H403.095L437.865 203.053C438.938 198.669 434.17 195.147 430.202 197.394L361.884 236.1C354.665 240.19 345.461 237.986 340.951 231.087L260.38 107.836Z" fill="#6b4bff"/>
<path d="M110.087 406.517C101.453 406.517 94.4531 413.417 94.4531 421.926C94.4531 430.434 101.453 437.333 110.087 437.333H401.914C410.547 437.333 417.547 430.434 417.547 421.926C417.547 413.417 410.547 406.517 401.914 406.517H110.087Z" fill="#6b4bff"/>
</svg>
