<svg width="20" height="20" viewBox="0 0 22 22" fill="none" xmlns="http://www.w3.org/2000/svg">
<circle cx="11" cy="11" r="11" fill="#F7E6D7"/>
<path d="M6.06398 12.8665C5.83586 11.3837 5.60775 9.90101 5.37964 8.41826C5.32905 8.08958 5.70304 7.8654 5.96906 8.06494C6.67976 8.59796 7.39043 9.13095 8.10113 9.66398C8.33513 9.83948 8.6685 9.78236 8.83073 9.53899L10.6057 6.87649C10.7933 6.59513 11.2067 6.59513 11.3943 6.87649L13.1693 9.53899C13.3315 9.78236 13.6649 9.83944 13.8989 9.66398C14.6096 9.13095 15.3202 8.59796 16.0309 8.06494C16.2969 7.8654 16.6709 8.08958 16.6204 8.41826C16.3923 9.90101 16.1642 11.3837 15.936 12.8665H6.06398Z" fill="#FF9437"/>
<path d="M15.4218 15.3345H6.57914C6.29489 15.3345 6.06445 15.104 6.06445 14.8198V13.6891H15.9365V14.8198C15.9365 15.104 15.706 15.3345 15.4218 15.3345Z" fill="#FF9437"/>
</svg>
