<?xml version="1.0" encoding="UTF-8"?>
<!DOCTYPE svg PUBLIC "-//W3C//DTD SVG 1.1//EN" "http://www.w3.org/Graphics/SVG/1.1/DTD/svg11.dtd">
<svg xmlns="http://www.w3.org/2000/svg" version="1.1" width="512px" height="512px" style="shape-rendering:geometricPrecision; text-rendering:geometricPrecision; image-rendering:optimizeQuality; fill-rule:evenodd; clip-rule:evenodd" xmlns:xlink="http://www.w3.org/1999/xlink">
<g><path style="opacity:0.964" fill="#bdbdbd" d="M 223.5,47.5 C 236.472,45.6525 243.806,51.1525 245.5,64C 245.274,67.0117 244.441,69.845 243,72.5C 238.538,79.9257 233.705,87.0924 228.5,94C 310.61,86.1433 373.777,116.643 418,185.5C 447.22,240.091 450.22,296.091 427,353.5C 397.822,414.189 349.988,450.356 283.5,462C 202.812,470.472 139.979,441.306 95,374.5C 64.244,320.115 60.244,263.781 83,205.5C 88.1966,192.926 95.0299,181.426 103.5,171C 118.102,164.301 127.102,168.801 130.5,184.5C 130,186.5 129.5,188.5 129,190.5C 99.9561,234.517 93.9561,281.517 111,331.5C 131.736,381.302 168.236,413.136 220.5,427C 291.726,439.627 347.559,416.127 388,356.5C 416.969,303.661 416.636,250.994 387,198.5C 350.89,145.532 300.723,121.698 236.5,127C 243.833,131.667 251.167,136.333 258.5,141C 267.721,150.064 267.721,159.064 258.5,168C 251.806,172.461 245.139,172.461 238.5,168C 218.914,155.291 199.414,142.458 180,129.5C 175.763,123.032 175.43,116.365 179,109.5C 191.333,90.5 203.667,71.5 216,52.5C 218.426,50.5476 220.926,48.881 223.5,47.5 Z"/></g>
</svg>
