<svg viewBox="0 0 35 35" xmlns="http://www.w3.org/2000/svg"><path d="m18.867 25.566a1.367 1.367 0 0 1 -1.367 1.368h-8.066a1.367 1.367 0 0 1 0-2.734h8.066a1.367 1.367 0 0 1 1.367 1.366zm16.133-17.353v16.009a7.807 7.807 0 0 1 -2.3 5.557l-2.921 2.921a7.807 7.807 0 0 1 -5.557 2.3h-16.009a8.209 8.209 0 0 1 -8.213-8.213v-18.574a8.209 8.209 0 0 1 8.213-8.213h18.574a8.209 8.209 0 0 1 8.213 8.213zm-2.918 17.376h-3.758a2.737 2.737 0 0 0 -2.734 2.734v3.759a5.1 5.1 0 0 0 2.256-1.317l2.919-2.919a5.1 5.1 0 0 0 1.317-2.257zm.183-17.376a5.476 5.476 0 0 0 -5.479-5.479h-18.573a5.476 5.476 0 0 0 -5.479 5.479v18.574a5.476 5.476 0 0 0 5.479 5.479h14.642v-3.942a5.475 5.475 0 0 1 5.469-5.469h3.942zm-6.7 7.919h-16.131a1.367 1.367 0 1 0 0 2.734h16.132a1.367 1.367 0 1 0 0-2.734zm0-8.066h-16.131a1.367 1.367 0 1 0 0 2.734h16.132a1.367 1.367 0 1 0 0-2.734z"/></svg>