<svg viewBox="0 0 35 35" xmlns="http://www.w3.org/2000/svg"><path d="m10.322 28.779a4.09 4.09 0 0 0 -1.3-3v-.006c.073-1 .132-2.062.176-3.154a6.707 6.707 0 0 1 4.425 2.381 4.954 4.954 0 0 1 .682 3.828 3.088 3.088 0 0 0 2.344 3.768 15.678 15.678 0 0 0 2.961.285 15.49 15.49 0 0 0 15.39-15.381c0-8.656-7.526-15.717-15.387-15.435a17.907 17.907 0 0 0 -10.813 4.599q-.051-.476-.107-.926a24.7 24.7 0 0 0 -.693-3.701c-.176-.61-.594-2.037-1.779-2.037s-1.6 1.427-1.782 2.037a24.707 24.707 0 0 0 -.686 3.7 100.513 100.513 0 0 0 -.608 11.763c0 2.893.1 5.755.279 8.277v.006a4.09 4.09 0 0 0 -1.3 3v2.117a2.114 2.114 0 0 1 -2.124 2.049v2.051h4.17a6.208 6.208 0 0 0 6.152-6.221zm9.364-24.665c6.607-.237 13.265 5.795 13.263 13.386a13.413 13.413 0 0 1 -15.913 13.079 1.047 1.047 0 0 1 -.729-1.307 6.927 6.927 0 0 0 -1.013-5.465c-1.2-1.691-3.232-2.784-6.033-3.255.024-1 .036-3.128.036-3.167a3.076 3.076 0 1 0 -.062-3.943c-.046-1.457-.116-2.854-.209-4.16a16.223 16.223 0 0 1 10.66-5.168zm-9.049 11a1.025 1.025 0 1 1 .725 1.256 1.025 1.025 0 0 1 -.725-1.259zm-4.95-8.248a32.829 32.829 0 0 1 .534-3.522 32.829 32.829 0 0 1 .534 3.522 104.392 104.392 0 0 1 .491 10.634q0 .514 0 1.025h-2.046q0-.511 0-1.025a104.392 104.392 0 0 1 .487-10.634zm-.454 13.709h1.976c-.035 1.448-.095 2.856-.178 4.183a4.1 4.1 0 0 0 -1.62 0c-.083-1.327-.143-2.735-.178-4.183zm-1.063 10.325v-2.121a2.051 2.051 0 0 1 4.1 0 4.141 4.141 0 0 1 -4.1 4.17h-.564a3.991 3.991 0 0 0 .564-2.049z"/><path d="m331.094 131.418a3.076 3.076 0 1 0 -4.35 0 3.074 3.074 0 0 0 4.35 0zm-2.9-2.9a1.025 1.025 0 1 1 0 1.45 1.027 1.027 0 0 1 0-1.45z" transform="translate(-303.568 -117.543)"/><path d="m213.809 101.132a3.076 3.076 0 1 0 -3.768-2.175 3.08 3.08 0 0 0 3.768 2.175zm-1.061-3.962a1.025 1.025 0 1 1 -.725 1.256 1.027 1.027 0 0 1 .725-1.255z" transform="translate(-195.585 -88.585)"/><path d="m272.158 330.771a3.076 3.076 0 1 0 2.175-3.771 3.08 3.08 0 0 0 -2.175 3.771zm2.706-1.787a1.025 1.025 0 1 1 -.725 1.256 1.025 1.025 0 0 1 .725-1.256z" transform="translate(-253.455 -304.551)"/><path d="m357.011 244.325a3.076 3.076 0 1 0 3.768-2.175 3.08 3.08 0 0 0 -3.768 2.175zm3.962 1.062a1.025 1.025 0 1 1 -.725-1.256 1.025 1.025 0 0 1 .725 1.256z" transform="translate(-332.508 -225.499)"/></svg>