<svg viewBox="0 0 35 35" xmlns="http://www.w3.org/2000/svg"><path d="m35 17.5a1.026 1.026 0 0 0 -.487-.871l-3.557-2.193 3.561-2.216a1.025 1.025 0 0 0 0-1.739l-16.473-10.325a1.025 1.025 0 0 0 -1.089 0l-16.474 10.323a1.025 1.025 0 0 0 0 1.739l3.536 2.2-3.535 2.213a1.025 1.025 0 0 0 0 1.74l3.536 2.2-3.536 2.212a1.025 1.025 0 0 0 0 1.738l16.474 10.323a1.025 1.025 0 0 0 1.089 0l16.474-10.323a1.025 1.025 0 0 0 -.006-1.742l-3.557-2.193 3.561-2.216a1.025 1.025 0 0 0 .483-.87zm-32.039-6.155 14.539-9.109 14.539 9.109-14.539 9.049zm29.071 12.315-14.532 9.105-14.542-9.111 3-1.875 11 6.846a1.025 1.025 0 0 0 1.084 0l10.969-6.825zm-14.532 2.886-14.537-9.046 3-1.872 11 6.846a1.025 1.025 0 0 0 1.084 0l10.969-6.827 3.011 1.853z"/></svg>