<?xml version="1.0" encoding="UTF-8"?>
<svg width="1200px" height="100px" viewBox="0 0 1200 100" version="1.1" xmlns="http://www.w3.org/2000/svg" xmlns:xlink="http://www.w3.org/1999/xlink">
    <!-- Generator: Sketch 52.4 (67378) - http://www.bohemiancoding.com/sketch -->
    <title>FomoPress Notification Theme 1 Copy 2</title>
    <desc>Created with Sketch.</desc>
    <g id="FomoPress-Notification-Theme-1-Copy-2" stroke="none" stroke-width="1" fill="none" fill-rule="evenodd">
        <g id="FomoPress-Notification-Theme" transform="translate(25.000000, 20.000000)">
            <rect id="Background" fill="#EDEFF0" x="0" y="0" width="1150" height="60"></rect>
            <g id="Button" transform="translate(940.000000, 14.000000)">
                <rect id="Rectangle" fill="#262625" x="0" y="0" width="126" height="32" rx="3"></rect>
                <path d="M31.7734375,15.5859375 L36.3046875,15.5859375 L36.3046875,21.5078125 C35.5703088,21.747397 34.8789095,21.9153641 34.2304688,22.0117188 C33.582028,22.1080734 32.9192742,22.15625 32.2421875,22.15625 C30.5182205,22.15625 29.2018275,21.6497446 28.2929688,20.6367188 C27.38411,19.6236929 26.9296875,18.1692803 26.9296875,16.2734375 C26.9296875,14.4296783 27.457026,12.9921927 28.5117188,11.9609375 C29.5664115,10.9296823 31.0286365,10.4140625 32.8984375,10.4140625 C34.0703184,10.4140625 35.2005154,10.6484352 36.2890625,11.1171875 L35.484375,13.0546875 C34.6510375,12.6380188 33.7838587,12.4296875 32.8828125,12.4296875 C31.8359323,12.4296875 30.997399,12.7812465 30.3671875,13.484375 C29.736976,14.1875035 29.421875,15.1328066 29.421875,16.3203125 C29.421875,17.559902 29.6757787,18.5065071 30.1835938,19.1601562 C30.6914088,19.8138054 31.4296827,20.140625 32.3984375,20.140625 C32.9036484,20.140625 33.4166641,20.0885422 33.9375,19.984375 L33.9375,17.6015625 L31.7734375,17.6015625 L31.7734375,15.5859375 Z M42.453125,14.796875 C41.9479141,14.796875 41.5520848,14.9570296 41.265625,15.2773438 C40.9791652,15.5976579 40.8151044,16.0520804 40.7734375,16.640625 L44.1171875,16.640625 C44.1067708,16.0520804 43.9531265,15.5976579 43.65625,15.2773438 C43.3593735,14.9570296 42.9583359,14.796875 42.453125,14.796875 Z M42.7890625,22.15625 C41.3828055,22.15625 40.2838581,21.768233 39.4921875,20.9921875 C38.7005169,20.216142 38.3046875,19.1171946 38.3046875,17.6953125 C38.3046875,16.2317635 38.6705693,15.1002644 39.4023438,14.3007812 C40.1341182,13.5012981 41.1458269,13.1015625 42.4375,13.1015625 C43.6718812,13.1015625 44.6328091,13.4531215 45.3203125,14.15625 C46.0078159,14.8593785 46.3515625,15.830723 46.3515625,17.0703125 L46.3515625,18.2265625 L40.71875,18.2265625 C40.7447918,18.9036492 40.9453106,19.4322898 41.3203125,19.8125 C41.6953144,20.1927102 42.2213508,20.3828125 42.8984375,20.3828125 C43.4244818,20.3828125 43.9218727,20.3281255 44.390625,20.21875 C44.8593773,20.1093745 45.3489558,19.934897 45.859375,19.6953125 L45.859375,21.5390625 C45.4427063,21.7473969 44.9973982,21.9023432 44.5234375,22.0039062 C44.0494768,22.1054693 43.4713576,22.15625 42.7890625,22.15625 Z M51.96875,20.2578125 C52.3854187,20.2578125 52.8854137,20.1666676 53.46875,19.984375 L53.46875,21.7578125 C52.874997,22.0234388 52.1458377,22.15625 51.28125,22.15625 C50.3281202,22.15625 49.6341168,21.915367 49.1992188,21.4335938 C48.7643207,20.9518205 48.546875,20.2291715 48.546875,19.265625 L48.546875,15.0546875 L47.40625,15.0546875 L47.40625,14.046875 L48.71875,13.25 L49.40625,11.40625 L50.9296875,11.40625 L50.9296875,13.265625 L53.375,13.265625 L53.375,15.0546875 L50.9296875,15.0546875 L50.9296875,19.265625 C50.9296875,19.6041684 51.0247386,19.8541659 51.2148438,20.015625 C51.4049489,20.1770841 51.6562484,20.2578125 51.96875,20.2578125 Z M69.9453125,16.2734375 C69.9453125,18.164072 69.4765672,19.6171824 68.5390625,20.6328125 C67.6015578,21.6484426 66.2578213,22.15625 64.5078125,22.15625 C62.7578038,22.15625 61.4140672,21.6484426 60.4765625,20.6328125 C59.5390578,19.6171824 59.0703125,18.1588637 59.0703125,16.2578125 C59.0703125,14.3567613 59.5403599,12.9049529 60.4804688,11.9023438 C61.4205776,10.8997346 62.7682204,10.3984375 64.5234375,10.3984375 C66.2786546,10.3984375 67.6210891,10.9036408 68.5507812,11.9140625 C69.4804734,12.9244842 69.9453125,14.3775947 69.9453125,16.2734375 Z M61.609375,16.2734375 C61.609375,17.5494855 61.8515601,18.5104134 62.3359375,19.15625 C62.8203149,19.8020866 63.544266,20.125 64.5078125,20.125 C66.4401138,20.125 67.40625,18.8411587 67.40625,16.2734375 C67.40625,13.700508 66.4453221,12.4140625 64.5234375,12.4140625 C63.559891,12.4140625 62.8333358,12.738278 62.34375,13.3867188 C61.8541642,14.0351595 61.609375,14.9973895 61.609375,16.2734375 Z M76.953125,15.0546875 L74.890625,15.0546875 L74.890625,22 L72.5078125,22 L72.5078125,15.0546875 L71.1953125,15.0546875 L71.1953125,13.90625 L72.5078125,13.265625 L72.5078125,12.625 C72.5078125,11.6302034 72.7526017,10.9036481 73.2421875,10.4453125 C73.7317733,9.98697687 74.5156196,9.7578125 75.59375,9.7578125 C76.4166708,9.7578125 77.1484343,9.88020711 77.7890625,10.125 L77.1796875,11.875 C76.7005184,11.7239576 76.2578145,11.6484375 75.8515625,11.6484375 C75.5130191,11.6484375 75.2682299,11.7486969 75.1171875,11.9492188 C74.9661451,12.1497406 74.890625,12.4062484 74.890625,12.71875 L74.890625,13.265625 L76.953125,13.265625 L76.953125,15.0546875 Z M83.1484375,15.0546875 L81.0859375,15.0546875 L81.0859375,22 L78.703125,22 L78.703125,15.0546875 L77.390625,15.0546875 L77.390625,13.90625 L78.703125,13.265625 L78.703125,12.625 C78.703125,11.6302034 78.9479142,10.9036481 79.4375,10.4453125 C79.9270858,9.98697687 80.7109321,9.7578125 81.7890625,9.7578125 C82.6119833,9.7578125 83.3437468,9.88020711 83.984375,10.125 L83.375,11.875 C82.8958309,11.7239576 82.453127,11.6484375 82.046875,11.6484375 C81.7083316,11.6484375 81.4635424,11.7486969 81.3125,11.9492188 C81.1614576,12.1497406 81.0859375,12.4062484 81.0859375,12.71875 L81.0859375,13.265625 L83.1484375,13.265625 L83.1484375,15.0546875 Z M88.125,14.796875 C87.6197891,14.796875 87.2239598,14.9570296 86.9375,15.2773438 C86.6510402,15.5976579 86.4869794,16.0520804 86.4453125,16.640625 L89.7890625,16.640625 C89.7786458,16.0520804 89.6250015,15.5976579 89.328125,15.2773438 C89.0312485,14.9570296 88.6302109,14.796875 88.125,14.796875 Z M88.4609375,22.15625 C87.0546805,22.15625 85.9557331,21.768233 85.1640625,20.9921875 C84.3723919,20.216142 83.9765625,19.1171946 83.9765625,17.6953125 C83.9765625,16.2317635 84.3424443,15.1002644 85.0742188,14.3007812 C85.8059932,13.5012981 86.8177019,13.1015625 88.109375,13.1015625 C89.3437562,13.1015625 90.3046841,13.4531215 90.9921875,14.15625 C91.6796909,14.8593785 92.0234375,15.830723 92.0234375,17.0703125 L92.0234375,18.2265625 L86.390625,18.2265625 C86.4166668,18.9036492 86.6171856,19.4322898 86.9921875,19.8125 C87.3671894,20.1927102 87.8932258,20.3828125 88.5703125,20.3828125 C89.0963568,20.3828125 89.5937477,20.3281255 90.0625,20.21875 C90.5312523,20.1093745 91.0208308,19.934897 91.53125,19.6953125 L91.53125,21.5390625 C91.1145813,21.7473969 90.6692732,21.9023432 90.1953125,22.0039062 C89.7213518,22.1054693 89.1432326,22.15625 88.4609375,22.15625 Z M98.8359375,13.1015625 C99.1588558,13.1015625 99.4270823,13.1249998 99.640625,13.171875 L99.4609375,15.40625 C99.2682282,15.3541664 99.0338555,15.328125 98.7578125,15.328125 C97.997392,15.328125 97.40495,15.5234355 96.9804688,15.9140625 C96.5559875,16.3046895 96.34375,16.851559 96.34375,17.5546875 L96.34375,22 L93.9609375,22 L93.9609375,13.265625 L95.765625,13.265625 L96.1171875,14.734375 L96.234375,14.734375 C96.5052097,14.2447892 96.8710914,13.8502619 97.3320312,13.5507812 C97.7929711,13.2513006 98.2942681,13.1015625 98.8359375,13.1015625 Z" id="Get-Offer" fill="#FFFFFF"></path>
            </g>
            <path d="M448.015625,32.9609375 C448.015625,33.9661509 447.651045,34.7499972 446.921875,35.3125 C446.192705,35.8750028 445.203131,36.15625 443.953125,36.15625 C442.598952,36.15625 441.557295,35.9817726 440.828125,35.6328125 L440.828125,34.3515625 C441.296877,34.5494802 441.807289,34.7057286 442.359375,34.8203125 C442.911461,34.9348964 443.458331,34.9921875 444,34.9921875 C444.885421,34.9921875 445.552081,34.8242204 446,34.4882812 C446.447919,34.1523421 446.671875,33.6848988 446.671875,33.0859375 C446.671875,32.6901022 446.592449,32.3658867 446.433594,32.1132812 C446.274739,31.8606758 446.009116,31.6276052 445.636719,31.4140625 C445.264321,31.2005198 444.69792,30.9583347 443.9375,30.6875 C442.874995,30.3072898 442.115888,29.8567734 441.660156,29.3359375 C441.204425,28.8151016 440.976562,28.1354209 440.976562,27.296875 C440.976562,26.4166623 441.307288,25.7161484 441.96875,25.1953125 C442.630212,24.6744766 443.505203,24.4140625 444.59375,24.4140625 C445.729172,24.4140625 446.773433,24.6223938 447.726562,25.0390625 L447.3125,26.1953125 C446.369787,25.7994772 445.453129,25.6015625 444.5625,25.6015625 C443.859371,25.6015625 443.309898,25.7526027 442.914062,26.0546875 C442.518227,26.3567723 442.320312,26.776039 442.320312,27.3125 C442.320312,27.7083353 442.393228,28.0325508 442.539062,28.2851562 C442.684897,28.5377617 442.930988,28.7695302 443.277344,28.9804688 C443.6237,29.1914073 444.153642,29.4244779 444.867188,29.6796875 C446.06511,30.106773 446.889321,30.5651017 447.339844,31.0546875 C447.790367,31.5442733 448.015625,32.1796836 448.015625,32.9609375 Z M455.421875,36 L455.164062,34.78125 L455.101562,34.78125 C454.674477,35.317711 454.2487,35.6809886 453.824219,35.8710938 C453.399737,36.0611989 452.869795,36.15625 452.234375,36.15625 C451.385412,36.15625 450.720054,35.9375022 450.238281,35.5 C449.756508,35.0624978 449.515625,34.4401082 449.515625,33.6328125 C449.515625,31.9036372 450.898424,30.9973963 453.664062,30.9140625 L455.117188,30.8671875 L455.117188,30.3359375 C455.117188,29.6640591 454.972658,29.1679704 454.683594,28.8476562 C454.39453,28.5273421 453.932295,28.3671875 453.296875,28.3671875 C452.58333,28.3671875 451.776046,28.5859353 450.875,29.0234375 L450.476562,28.03125 C450.89844,27.8020822 451.360675,27.6223965 451.863281,27.4921875 C452.365888,27.3619785 452.869789,27.296875 453.375,27.296875 C454.395838,27.296875 455.152341,27.5234352 455.644531,27.9765625 C456.136721,28.4296898 456.382812,29.156245 456.382812,30.15625 L456.382812,36 L455.421875,36 Z M452.492188,35.0859375 C453.299483,35.0859375 453.933591,34.8645855 454.394531,34.421875 C454.855471,33.9791645 455.085938,33.359379 455.085938,32.5625 L455.085938,31.7890625 L453.789062,31.84375 C452.757807,31.8802085 452.014325,32.0403632 451.558594,32.3242188 C451.102862,32.6080743 450.875,33.0494762 450.875,33.6484375 C450.875,34.1171898 451.016926,34.4739571 451.300781,34.71875 C451.584637,34.9635429 451.981768,35.0859375 452.492188,35.0859375 Z M460.929688,36 L457.679688,27.4375 L459.070312,27.4375 L460.914062,32.515625 C461.330731,33.7031309 461.57552,34.4739566 461.648438,34.828125 L461.710938,34.828125 C461.768229,34.552082 461.949217,33.9804731 462.253906,33.1132812 C462.558595,32.2460894 463.242182,30.3541812 464.304688,27.4375 L465.695312,27.4375 L462.445312,36 L460.929688,36 Z M470.6875,36.15625 C469.421869,36.15625 468.423181,35.7708372 467.691406,35 C466.959632,34.2291628 466.59375,33.158861 466.59375,31.7890625 C466.59375,30.4088473 466.93359,29.3125041 467.613281,28.5 C468.292972,27.6874959 469.205723,27.28125 470.351562,27.28125 C471.424485,27.28125 472.273434,27.6341111 472.898438,28.3398438 C473.523441,29.0455764 473.835938,29.9765567 473.835938,31.1328125 L473.835938,31.953125 L467.9375,31.953125 C467.963542,32.9583384 468.217446,33.7213516 468.699219,34.2421875 C469.180992,34.7630234 469.859371,35.0234375 470.734375,35.0234375 C471.656255,35.0234375 472.567704,34.8307311 473.46875,34.4453125 L473.46875,35.6015625 C473.010414,35.7994802 472.576825,35.9414058 472.167969,36.0273438 C471.759113,36.1132817 471.265628,36.15625 470.6875,36.15625 Z M470.335938,28.3671875 C469.648434,28.3671875 469.100262,28.5911436 468.691406,29.0390625 C468.28255,29.4869814 468.041667,30.1067669 467.96875,30.8984375 L472.445312,30.8984375 C472.445312,30.0807251 472.263023,29.4544293 471.898438,29.0195312 C471.533852,28.5846332 471.013024,28.3671875 470.335938,28.3671875 Z M480.398438,24.578125 L483.625,24.578125 C485.140633,24.578125 486.236976,24.8046852 486.914062,25.2578125 C487.591149,25.7109398 487.929688,26.4270784 487.929688,27.40625 C487.929688,28.0833367 487.740887,28.6419249 487.363281,29.0820312 C486.985675,29.5221376 486.434899,29.807291 485.710938,29.9375 L485.710938,30.015625 C487.445321,30.3125015 488.3125,31.2239507 488.3125,32.75 C488.3125,33.7708384 487.967451,34.5677055 487.277344,35.140625 C486.587236,35.7135445 485.622402,36 484.382812,36 L480.398438,36 L480.398438,24.578125 Z M481.726562,29.46875 L483.914062,29.46875 C484.851567,29.46875 485.52604,29.3216161 485.9375,29.0273438 C486.34896,28.7330714 486.554688,28.2369827 486.554688,27.5390625 C486.554688,26.8984343 486.325523,26.4361993 485.867188,26.1523438 C485.408852,25.8684882 484.679692,25.7265625 483.679688,25.7265625 L481.726562,25.7265625 L481.726562,29.46875 Z M481.726562,30.59375 L481.726562,34.8671875 L484.109375,34.8671875 C485.031255,34.8671875 485.725258,34.6888039 486.191406,34.3320312 C486.657554,33.9752586 486.890625,33.4166705 486.890625,32.65625 C486.890625,31.9479131 486.652346,31.427085 486.175781,31.09375 C485.699216,30.760415 484.973963,30.59375 484,30.59375 L481.726562,30.59375 Z M491.867188,36 L490.570312,36 L490.570312,27.4375 L491.867188,27.4375 L491.867188,36 Z M490.460938,25.1171875 C490.460938,24.820311 490.533853,24.6028653 490.679688,24.4648438 C490.825522,24.3268222 491.007811,24.2578125 491.226562,24.2578125 C491.434897,24.2578125 491.614583,24.3281243 491.765625,24.46875 C491.916667,24.6093757 491.992188,24.8255194 491.992188,25.1171875 C491.992188,25.4088556 491.916667,25.6263014 491.765625,25.7695312 C491.614583,25.9127611 491.434897,25.984375 491.226562,25.984375 C491.007811,25.984375 490.825522,25.9127611 490.679688,25.7695312 C490.533853,25.6263014 490.460938,25.4088556 490.460938,25.1171875 Z M501.625,27.4375 L501.625,28.2578125 L500.039062,28.4453125 C500.184897,28.6276051 500.315104,28.8658839 500.429688,29.1601562 C500.544271,29.4544286 500.601562,29.7864565 500.601562,30.15625 C500.601562,30.9947959 500.315107,31.66406 499.742188,32.1640625 C499.169268,32.664065 498.382817,32.9140625 497.382812,32.9140625 C497.127603,32.9140625 496.888022,32.8932294 496.664062,32.8515625 C496.111976,33.1432306 495.835938,33.5104145 495.835938,33.953125 C495.835938,34.1875012 495.932291,34.3606765 496.125,34.4726562 C496.317709,34.584636 496.648435,34.640625 497.117188,34.640625 L498.632812,34.640625 C499.5599,34.640625 500.272133,34.8359355 500.769531,35.2265625 C501.26693,35.6171895 501.515625,36.1848921 501.515625,36.9296875 C501.515625,37.8776089 501.13542,38.6002579 500.375,39.0976562 C499.61458,39.5950546 498.505216,39.84375 497.046875,39.84375 C495.927078,39.84375 495.063805,39.6354187 494.457031,39.21875 C493.850257,38.8020813 493.546875,38.2135455 493.546875,37.453125 C493.546875,36.9322891 493.71354,36.4817727 494.046875,36.1015625 C494.38021,35.7213523 494.848955,35.4635423 495.453125,35.328125 C495.234374,35.2291662 495.050782,35.0755219 494.902344,34.8671875 C494.753906,34.6588531 494.679688,34.416668 494.679688,34.140625 C494.679688,33.8281234 494.76302,33.5546887 494.929688,33.3203125 C495.096355,33.0859363 495.359373,32.8593761 495.71875,32.640625 C495.276039,32.4583324 494.915366,32.1484397 494.636719,31.7109375 C494.358072,31.2734353 494.21875,30.7734403 494.21875,30.2109375 C494.21875,29.2734328 494.499997,28.5507838 495.0625,28.0429688 C495.625003,27.5351537 496.42187,27.28125 497.453125,27.28125 C497.901044,27.28125 498.304686,27.3333328 498.664062,27.4375 L501.625,27.4375 Z M494.796875,37.4375 C494.796875,37.901044 494.992186,38.252603 495.382812,38.4921875 C495.773439,38.731772 496.33333,38.8515625 497.0625,38.8515625 C498.151047,38.8515625 498.957029,38.6888037 499.480469,38.3632812 C500.003909,38.0377588 500.265625,37.596357 500.265625,37.0390625 C500.265625,36.5755185 500.122397,36.2539071 499.835938,36.0742188 C499.549478,35.8945304 499.010421,35.8046875 498.21875,35.8046875 L496.664062,35.8046875 C496.075518,35.8046875 495.617189,35.9453111 495.289062,36.2265625 C494.960936,36.5078139 494.796875,36.9114557 494.796875,37.4375 Z M495.5,30.1796875 C495.5,30.7786488 495.669269,31.2317693 496.007812,31.5390625 C496.346356,31.8463557 496.817705,32 497.421875,32 C498.687506,32 499.320312,31.3854228 499.320312,30.15625 C499.320312,28.8697852 498.679694,28.2265625 497.398438,28.2265625 C496.789059,28.2265625 496.320314,28.3906234 495.992188,28.71875 C495.664061,29.0468766 495.5,29.5338509 495.5,30.1796875 Z M509.398438,26.8515625 C509.398438,27.2109393 509.492187,27.5533838 509.679688,27.8789062 C509.867188,28.2044287 510.187498,28.5963519 510.640625,29.0546875 C511.312503,28.6640605 511.779947,28.3033871 512.042969,27.9726562 C512.305991,27.6419254 512.4375,27.2604188 512.4375,26.828125 C512.4375,26.4270813 512.303387,26.1002617 512.035156,25.8476562 C511.766926,25.5950508 511.408856,25.46875 510.960938,25.46875 C510.497394,25.46875 510.121095,25.5937487 509.832031,25.84375 C509.542967,26.0937513 509.398438,26.4296854 509.398438,26.8515625 Z M510.609375,34.9921875 C511.86459,34.9921875 512.906246,34.5911498 513.734375,33.7890625 L510.320312,30.4765625 C509.742185,30.8307309 509.333335,31.1236968 509.09375,31.3554688 C508.854165,31.5872407 508.677084,31.8359362 508.5625,32.1015625 C508.447916,32.3671888 508.390625,32.6692691 508.390625,33.0078125 C508.390625,33.6171905 508.592446,34.1002586 508.996094,34.4570312 C509.399742,34.8138039 509.937497,34.9921875 510.609375,34.9921875 Z M507.046875,33.0390625 C507.046875,32.3619758 507.227863,31.7630234 507.589844,31.2421875 C507.951825,30.7213516 508.601558,30.1953152 509.539062,29.6640625 C509.096352,29.1692684 508.795574,28.7942721 508.636719,28.5390625 C508.477864,28.2838529 508.351563,28.0182305 508.257812,27.7421875 C508.164062,27.4661445 508.117188,27.179689 508.117188,26.8828125 C508.117188,26.1015586 508.372393,25.4921897 508.882812,25.0546875 C509.393232,24.6171853 510.104162,24.3984375 511.015625,24.3984375 C511.859379,24.3984375 512.523435,24.6158832 513.007812,25.0507812 C513.49219,25.4856793 513.734375,26.091142 513.734375,26.8671875 C513.734375,27.424482 513.557293,27.9387997 513.203125,28.4101562 C512.848957,28.8815128 512.263025,29.3593726 511.445312,29.84375 L514.625,32.8984375 C514.916668,32.5755192 515.149739,32.1966168 515.324219,31.7617188 C515.498699,31.3268207 515.645833,30.8515651 515.765625,30.3359375 L517.078125,30.3359375 C516.723957,31.8255283 516.190108,32.9557253 515.476562,33.7265625 L517.8125,36 L516.023438,36 L514.578125,34.609375 C513.963539,35.1614611 513.338545,35.5572905 512.703125,35.796875 C512.067705,36.0364595 511.359379,36.15625 510.578125,36.15625 C509.458328,36.15625 508.589847,35.8802111 507.972656,35.328125 C507.355466,34.7760389 507.046875,34.0130257 507.046875,33.0390625 Z M528.59375,30.015625 L532.476562,30.015625 L532.476562,35.5703125 C531.872393,35.7630218 531.257816,35.9088537 530.632812,36.0078125 C530.007809,36.1067713 529.283858,36.15625 528.460938,36.15625 C526.731762,36.15625 525.385421,35.6419322 524.421875,34.6132812 C523.458329,33.5846303 522.976562,32.1432384 522.976562,30.2890625 C522.976562,29.1015566 523.214841,28.0612024 523.691406,27.1679688 C524.167971,26.2747351 524.854162,25.5924503 525.75,25.1210938 C526.645838,24.6497372 527.695306,24.4140625 528.898438,24.4140625 C530.117194,24.4140625 531.252599,24.6380186 532.304688,25.0859375 L531.789062,26.2578125 C530.757807,25.8203103 529.76563,25.6015625 528.8125,25.6015625 C527.421868,25.6015625 526.335941,26.0156209 525.554688,26.84375 C524.773434,27.6718791 524.382812,28.8203052 524.382812,30.2890625 C524.382812,31.8307369 524.759111,32.999996 525.511719,33.796875 C526.264327,34.593754 527.369784,34.9921875 528.828125,34.9921875 C529.619796,34.9921875 530.393225,34.9010426 531.148438,34.71875 L531.148438,31.203125 L528.59375,31.203125 L528.59375,30.015625 Z M538.640625,36.15625 C537.374994,36.15625 536.376306,35.7708372 535.644531,35 C534.912757,34.2291628 534.546875,33.158861 534.546875,31.7890625 C534.546875,30.4088473 534.886715,29.3125041 535.566406,28.5 C536.246097,27.6874959 537.158848,27.28125 538.304688,27.28125 C539.37761,27.28125 540.226559,27.6341111 540.851562,28.3398438 C541.476566,29.0455764 541.789062,29.9765567 541.789062,31.1328125 L541.789062,31.953125 L535.890625,31.953125 C535.916667,32.9583384 536.170571,33.7213516 536.652344,34.2421875 C537.134117,34.7630234 537.812496,35.0234375 538.6875,35.0234375 C539.60938,35.0234375 540.520829,34.8307311 541.421875,34.4453125 L541.421875,35.6015625 C540.963539,35.7994802 540.52995,35.9414058 540.121094,36.0273438 C539.712238,36.1132817 539.218753,36.15625 538.640625,36.15625 Z M538.289062,28.3671875 C537.601559,28.3671875 537.053387,28.5911436 536.644531,29.0390625 C536.235675,29.4869814 535.994792,30.1067669 535.921875,30.8984375 L540.398438,30.8984375 C540.398438,30.0807251 540.216148,29.4544293 539.851562,29.0195312 C539.486977,28.5846332 538.966149,28.3671875 538.289062,28.3671875 Z M546.765625,35.0859375 C546.994793,35.0859375 547.216145,35.0690106 547.429688,35.0351562 C547.64323,35.0013019 547.812499,34.966146 547.9375,34.9296875 L547.9375,35.921875 C547.796874,35.9895837 547.589845,36.0455727 547.316406,36.0898438 C547.042967,36.1341148 546.796876,36.15625 546.578125,36.15625 C544.921867,36.15625 544.09375,35.2838629 544.09375,33.5390625 L544.09375,28.4453125 L542.867188,28.4453125 L542.867188,27.8203125 L544.09375,27.28125 L544.640625,25.453125 L545.390625,25.453125 L545.390625,27.4375 L547.875,27.4375 L547.875,28.4453125 L545.390625,28.4453125 L545.390625,33.484375 C545.390625,34.0000026 545.51302,34.395832 545.757812,34.671875 C546.002605,34.947918 546.33854,35.0859375 546.765625,35.0859375 Z M554,36 L554,24.578125 L555.328125,24.578125 L555.328125,34.796875 L560.367188,34.796875 L560.367188,36 L554,36 Z M563.40625,36 L562.109375,36 L562.109375,27.4375 L563.40625,27.4375 L563.40625,36 Z M562,25.1171875 C562,24.820311 562.072916,24.6028653 562.21875,24.4648438 C562.364584,24.3268222 562.546874,24.2578125 562.765625,24.2578125 C562.973959,24.2578125 563.153645,24.3281243 563.304688,24.46875 C563.45573,24.6093757 563.53125,24.8255194 563.53125,25.1171875 C563.53125,25.4088556 563.45573,25.6263014 563.304688,25.7695312 C563.153645,25.9127611 562.973959,25.984375 562.765625,25.984375 C562.546874,25.984375 562.364584,25.9127611 562.21875,25.7695312 C562.072916,25.6263014 562,25.4088556 562,25.1171875 Z M570.015625,28.4453125 L567.835938,28.4453125 L567.835938,36 L566.539062,36 L566.539062,28.4453125 L565.007812,28.4453125 L565.007812,27.859375 L566.539062,27.390625 L566.539062,26.9140625 C566.539062,24.8098853 567.458324,23.7578125 569.296875,23.7578125 C569.750002,23.7578125 570.281247,23.8489574 570.890625,24.03125 L570.554688,25.0703125 C570.054685,24.9088534 569.627606,24.828125 569.273438,24.828125 C568.783852,24.828125 568.421876,24.9908838 568.1875,25.3164062 C567.953124,25.6419287 567.835938,26.1640589 567.835938,26.8828125 L567.835938,27.4375 L570.015625,27.4375 L570.015625,28.4453125 Z M575.195312,36.15625 C573.929681,36.15625 572.930993,35.7708372 572.199219,35 C571.467444,34.2291628 571.101562,33.158861 571.101562,31.7890625 C571.101562,30.4088473 571.441403,29.3125041 572.121094,28.5 C572.800785,27.6874959 573.713536,27.28125 574.859375,27.28125 C575.932297,27.28125 576.781247,27.6341111 577.40625,28.3398438 C578.031253,29.0455764 578.34375,29.9765567 578.34375,31.1328125 L578.34375,31.953125 L572.445312,31.953125 C572.471354,32.9583384 572.725258,33.7213516 573.207031,34.2421875 C573.688804,34.7630234 574.367183,35.0234375 575.242188,35.0234375 C576.164067,35.0234375 577.075516,34.8307311 577.976562,34.4453125 L577.976562,35.6015625 C577.518227,35.7994802 577.084637,35.9414058 576.675781,36.0273438 C576.266925,36.1132817 575.77344,36.15625 575.195312,36.15625 Z M574.84375,28.3671875 C574.156247,28.3671875 573.608075,28.5911436 573.199219,29.0390625 C572.790363,29.4869814 572.54948,30.1067669 572.476562,30.8984375 L576.953125,30.8984375 C576.953125,30.0807251 576.770835,29.4544293 576.40625,29.0195312 C576.041665,28.5846332 575.520837,28.3671875 574.84375,28.3671875 Z M583.320312,35.0859375 C583.54948,35.0859375 583.770832,35.0690106 583.984375,35.0351562 C584.197918,35.0013019 584.367187,34.966146 584.492188,34.9296875 L584.492188,35.921875 C584.351562,35.9895837 584.144533,36.0455727 583.871094,36.0898438 C583.597655,36.1341148 583.351564,36.15625 583.132812,36.15625 C581.476554,36.15625 580.648438,35.2838629 580.648438,33.5390625 L580.648438,28.4453125 L579.421875,28.4453125 L579.421875,27.8203125 L580.648438,27.28125 L581.195312,25.453125 L581.945312,25.453125 L581.945312,27.4375 L584.429688,27.4375 L584.429688,28.4453125 L581.945312,28.4453125 L581.945312,33.484375 C581.945312,34.0000026 582.067707,34.395832 582.3125,34.671875 C582.557293,34.947918 582.893227,35.0859375 583.320312,35.0859375 Z M587.5,36 L586.203125,36 L586.203125,27.4375 L587.5,27.4375 L587.5,36 Z M586.09375,25.1171875 C586.09375,24.820311 586.166666,24.6028653 586.3125,24.4648438 C586.458334,24.3268222 586.640624,24.2578125 586.859375,24.2578125 C587.067709,24.2578125 587.247395,24.3281243 587.398438,24.46875 C587.54948,24.6093757 587.625,24.8255194 587.625,25.1171875 C587.625,25.4088556 587.54948,25.6263014 587.398438,25.7695312 C587.247395,25.9127611 587.067709,25.984375 586.859375,25.984375 C586.640624,25.984375 586.458334,25.9127611 586.3125,25.7695312 C586.166666,25.6263014 586.09375,25.4088556 586.09375,25.1171875 Z M601.164062,36 L601.164062,30.4296875 C601.164062,29.7473924 601.018231,29.2356788 600.726562,28.8945312 C600.434894,28.5533837 599.981774,28.3828125 599.367188,28.3828125 C598.559892,28.3828125 597.963544,28.614581 597.578125,29.078125 C597.192706,29.541669 597,30.2552035 597,31.21875 L597,36 L595.703125,36 L595.703125,30.4296875 C595.703125,29.7473924 595.557293,29.2356788 595.265625,28.8945312 C594.973957,28.5533837 594.518232,28.3828125 593.898438,28.3828125 C593.085933,28.3828125 592.490887,28.6262996 592.113281,29.1132812 C591.735675,29.6002629 591.546875,30.398432 591.546875,31.5078125 L591.546875,36 L590.25,36 L590.25,27.4375 L591.304688,27.4375 L591.515625,28.609375 L591.578125,28.609375 C591.822918,28.1927063 592.167967,27.8671887 592.613281,27.6328125 C593.058596,27.3984363 593.557289,27.28125 594.109375,27.28125 C595.447923,27.28125 596.322915,27.7656202 596.734375,28.734375 L596.796875,28.734375 C597.052085,28.2864561 597.421873,27.932293 597.90625,27.671875 C598.390627,27.411457 598.942705,27.28125 599.5625,27.28125 C600.531255,27.28125 601.256508,27.5299454 601.738281,28.0273438 C602.220054,28.5247421 602.460938,29.320307 602.460938,30.4140625 L602.460938,36 L601.164062,36 Z M608.75,36.15625 C607.484369,36.15625 606.485681,35.7708372 605.753906,35 C605.022132,34.2291628 604.65625,33.158861 604.65625,31.7890625 C604.65625,30.4088473 604.99609,29.3125041 605.675781,28.5 C606.355472,27.6874959 607.268223,27.28125 608.414062,27.28125 C609.486985,27.28125 610.335934,27.6341111 610.960938,28.3398438 C611.585941,29.0455764 611.898438,29.9765567 611.898438,31.1328125 L611.898438,31.953125 L606,31.953125 C606.026042,32.9583384 606.279946,33.7213516 606.761719,34.2421875 C607.243492,34.7630234 607.921871,35.0234375 608.796875,35.0234375 C609.718755,35.0234375 610.630204,34.8307311 611.53125,34.4453125 L611.53125,35.6015625 C611.072914,35.7994802 610.639325,35.9414058 610.230469,36.0273438 C609.821613,36.1132817 609.328128,36.15625 608.75,36.15625 Z M608.398438,28.3671875 C607.710934,28.3671875 607.162762,28.5911436 606.753906,29.0390625 C606.34505,29.4869814 606.104167,30.1067669 606.03125,30.8984375 L610.507812,30.8984375 C610.507812,30.0807251 610.325523,29.4544293 609.960938,29.0195312 C609.596352,28.5846332 609.075524,28.3671875 608.398438,28.3671875 Z M627.085938,24.578125 L627.085938,31.96875 C627.085938,33.2708398 626.692712,34.2942671 625.90625,35.0390625 C625.119788,35.7838579 624.039069,36.15625 622.664062,36.15625 C621.289056,36.15625 620.225264,35.7812537 619.472656,35.03125 C618.720048,34.2812462 618.34375,33.2500066 618.34375,31.9375 L618.34375,24.578125 L619.671875,24.578125 L619.671875,32.03125 C619.671875,32.9843798 619.932289,33.7161433 620.453125,34.2265625 C620.973961,34.7369817 621.739578,34.9921875 622.75,34.9921875 C623.713546,34.9921875 624.455727,34.7356796 624.976562,34.2226562 C625.497398,33.7096329 625.757812,32.9739631 625.757812,32.015625 L625.757812,24.578125 L627.085938,24.578125 Z M635.773438,36 L635.773438,30.4609375 C635.773438,29.7630173 635.614585,29.2421892 635.296875,28.8984375 C634.979165,28.5546858 634.481774,28.3828125 633.804688,28.3828125 C632.90885,28.3828125 632.252606,28.6249976 631.835938,29.109375 C631.419269,29.5937524 631.210938,30.3932236 631.210938,31.5078125 L631.210938,36 L629.914062,36 L629.914062,27.4375 L630.96875,27.4375 L631.179688,28.609375 L631.242188,28.609375 C631.507814,28.1874979 631.880206,27.8606782 632.359375,27.6289062 C632.838544,27.3971343 633.372393,27.28125 633.960938,27.28125 C634.992193,27.28125 635.768227,27.5299454 636.289062,28.0273438 C636.809898,28.5247421 637.070312,29.320307 637.070312,30.4140625 L637.070312,36 L635.773438,36 Z M641.03125,36 L639.734375,36 L639.734375,23.84375 L641.03125,23.84375 L641.03125,36 Z M645.078125,36 L643.78125,36 L643.78125,27.4375 L645.078125,27.4375 L645.078125,36 Z M643.671875,25.1171875 C643.671875,24.820311 643.744791,24.6028653 643.890625,24.4648438 C644.036459,24.3268222 644.218749,24.2578125 644.4375,24.2578125 C644.645834,24.2578125 644.82552,24.3281243 644.976562,24.46875 C645.127605,24.6093757 645.203125,24.8255194 645.203125,25.1171875 C645.203125,25.4088556 645.127605,25.6263014 644.976562,25.7695312 C644.82552,25.9127611 644.645834,25.984375 644.4375,25.984375 C644.218749,25.984375 644.036459,25.9127611 643.890625,25.7695312 C643.744791,25.6263014 643.671875,25.4088556 643.671875,25.1171875 Z M658.742188,36 L658.742188,30.4296875 C658.742188,29.7473924 658.596356,29.2356788 658.304688,28.8945312 C658.013019,28.5533837 657.559899,28.3828125 656.945312,28.3828125 C656.138017,28.3828125 655.541669,28.614581 655.15625,29.078125 C654.770831,29.541669 654.578125,30.2552035 654.578125,31.21875 L654.578125,36 L653.28125,36 L653.28125,30.4296875 C653.28125,29.7473924 653.135418,29.2356788 652.84375,28.8945312 C652.552082,28.5533837 652.096357,28.3828125 651.476562,28.3828125 C650.664058,28.3828125 650.069012,28.6262996 649.691406,29.1132812 C649.3138,29.6002629 649.125,30.398432 649.125,31.5078125 L649.125,36 L647.828125,36 L647.828125,27.4375 L648.882812,27.4375 L649.09375,28.609375 L649.15625,28.609375 C649.401043,28.1927063 649.746092,27.8671887 650.191406,27.6328125 C650.636721,27.3984363 651.135414,27.28125 651.6875,27.28125 C653.026048,27.28125 653.90104,27.7656202 654.3125,28.734375 L654.375,28.734375 C654.63021,28.2864561 654.999998,27.932293 655.484375,27.671875 C655.968752,27.411457 656.52083,27.28125 657.140625,27.28125 C658.10938,27.28125 658.834633,27.5299454 659.316406,28.0273438 C659.798179,28.5247421 660.039062,29.320307 660.039062,30.4140625 L660.039062,36 L658.742188,36 Z M664.007812,36 L662.710938,36 L662.710938,27.4375 L664.007812,27.4375 L664.007812,36 Z M662.601562,25.1171875 C662.601562,24.820311 662.674478,24.6028653 662.820312,24.4648438 C662.966147,24.3268222 663.148436,24.2578125 663.367188,24.2578125 C663.575522,24.2578125 663.755208,24.3281243 663.90625,24.46875 C664.057292,24.6093757 664.132812,24.8255194 664.132812,25.1171875 C664.132812,25.4088556 664.057292,25.6263014 663.90625,25.7695312 C663.755208,25.9127611 663.575522,25.984375 663.367188,25.984375 C663.148436,25.984375 662.966147,25.9127611 662.820312,25.7695312 C662.674478,25.6263014 662.601562,25.4088556 662.601562,25.1171875 Z M669.523438,35.0859375 C669.752605,35.0859375 669.973957,35.0690106 670.1875,35.0351562 C670.401043,35.0013019 670.570312,34.966146 670.695312,34.9296875 L670.695312,35.921875 C670.554687,35.9895837 670.347658,36.0455727 670.074219,36.0898438 C669.80078,36.1341148 669.554689,36.15625 669.335938,36.15625 C667.679679,36.15625 666.851562,35.2838629 666.851562,33.5390625 L666.851562,28.4453125 L665.625,28.4453125 L665.625,27.8203125 L666.851562,27.28125 L667.398438,25.453125 L668.148438,25.453125 L668.148438,27.4375 L670.632812,27.4375 L670.632812,28.4453125 L668.148438,28.4453125 L668.148438,33.484375 C668.148438,34.0000026 668.270832,34.395832 668.515625,34.671875 C668.760418,34.947918 669.096352,35.0859375 669.523438,35.0859375 Z M676.023438,36.15625 C674.757806,36.15625 673.759118,35.7708372 673.027344,35 C672.295569,34.2291628 671.929688,33.158861 671.929688,31.7890625 C671.929688,30.4088473 672.269528,29.3125041 672.949219,28.5 C673.62891,27.6874959 674.541661,27.28125 675.6875,27.28125 C676.760422,27.28125 677.609372,27.6341111 678.234375,28.3398438 C678.859378,29.0455764 679.171875,29.9765567 679.171875,31.1328125 L679.171875,31.953125 L673.273438,31.953125 C673.299479,32.9583384 673.553383,33.7213516 674.035156,34.2421875 C674.516929,34.7630234 675.195308,35.0234375 676.070312,35.0234375 C676.992192,35.0234375 677.903641,34.8307311 678.804688,34.4453125 L678.804688,35.6015625 C678.346352,35.7994802 677.912762,35.9414058 677.503906,36.0273438 C677.09505,36.1132817 676.601565,36.15625 676.023438,36.15625 Z M675.671875,28.3671875 C674.984372,28.3671875 674.4362,28.5911436 674.027344,29.0390625 C673.618488,29.4869814 673.377605,30.1067669 673.304688,30.8984375 L677.78125,30.8984375 C677.78125,30.0807251 677.59896,29.4544293 677.234375,29.0195312 C676.86979,28.5846332 676.348962,28.3671875 675.671875,28.3671875 Z M687.210938,34.8515625 L687.140625,34.8515625 C686.541664,35.7213585 685.645839,36.15625 684.453125,36.15625 C683.333328,36.15625 682.462243,35.7734413 681.839844,35.0078125 C681.217445,34.2421837 680.90625,33.1536529 680.90625,31.7421875 C680.90625,30.3307221 681.218747,29.2343789 681.84375,28.453125 C682.468753,27.6718711 683.338536,27.28125 684.453125,27.28125 C685.614589,27.28125 686.505205,27.7031208 687.125,28.546875 L687.226562,28.546875 L687.171875,27.9296875 L687.140625,27.328125 L687.140625,23.84375 L688.4375,23.84375 L688.4375,36 L687.382812,36 L687.210938,34.8515625 Z M684.617188,35.0703125 C685.502609,35.0703125 686.144529,34.8294295 686.542969,34.3476562 C686.941408,33.865883 687.140625,33.088547 687.140625,32.015625 L687.140625,31.7421875 C687.140625,30.5286398 686.938804,29.662763 686.535156,29.1445312 C686.131508,28.6262995 685.486984,28.3671875 684.601562,28.3671875 C683.841142,28.3671875 683.259117,28.6627575 682.855469,29.2539062 C682.451821,29.845055 682.25,30.6796821 682.25,31.7578125 C682.25,32.851568 682.450519,33.6770805 682.851562,34.234375 C683.252606,34.7916695 683.841142,35.0703125 684.617188,35.0703125 Z M702.734375,31.7109375 C702.734375,33.1067778 702.382816,34.1966107 701.679688,34.9804688 C700.976559,35.7643268 700.005215,36.15625 698.765625,36.15625 C697.999996,36.15625 697.320315,35.9765643 696.726562,35.6171875 C696.13281,35.2578107 695.674481,34.7421909 695.351562,34.0703125 C695.028644,33.3984341 694.867188,32.6119837 694.867188,31.7109375 C694.867188,30.3150972 695.216142,29.2278685 695.914062,28.4492188 C696.611983,27.670569 697.580723,27.28125 698.820312,27.28125 C700.018235,27.28125 700.970049,27.6796835 701.675781,28.4765625 C702.381514,29.2734415 702.734375,30.3515557 702.734375,31.7109375 Z M696.210938,31.7109375 C696.210938,32.804693 696.429685,33.638018 696.867188,34.2109375 C697.30469,34.783857 697.947912,35.0703125 698.796875,35.0703125 C699.645838,35.0703125 700.290362,34.7851591 700.730469,34.2148438 C701.170575,33.6445284 701.390625,32.8099013 701.390625,31.7109375 C701.390625,30.6223904 701.170575,29.7955757 700.730469,29.2304688 C700.290362,28.6653618 699.640629,28.3828125 698.78125,28.3828125 C697.932287,28.3828125 697.291669,28.6614555 696.859375,29.21875 C696.427081,29.7760445 696.210938,30.6067653 696.210938,31.7109375 Z M708.867188,28.4453125 L706.6875,28.4453125 L706.6875,36 L705.390625,36 L705.390625,28.4453125 L703.859375,28.4453125 L703.859375,27.859375 L705.390625,27.390625 L705.390625,26.9140625 C705.390625,24.8098853 706.309887,23.7578125 708.148438,23.7578125 C708.601565,23.7578125 709.132809,23.8489574 709.742188,24.03125 L709.40625,25.0703125 C708.906248,24.9088534 708.479168,24.828125 708.125,24.828125 C707.635414,24.828125 707.273439,24.9908838 707.039062,25.3164062 C706.804686,25.6419287 706.6875,26.1640589 706.6875,26.8828125 L706.6875,27.4375 L708.867188,27.4375 L708.867188,28.4453125 Z M717.03125,36 L714.648438,36 L714.648438,24.578125 L721.195312,24.578125 L721.195312,26.5625 L717.03125,26.5625 L717.03125,29.5078125 L720.90625,29.5078125 L720.90625,31.484375 L717.03125,31.484375 L717.03125,36 Z M725.140625,31.6171875 C725.140625,32.4817752 725.282551,33.1354145 725.566406,33.578125 C725.850262,34.0208355 726.312497,34.2421875 726.953125,34.2421875 C727.588545,34.2421875 728.045572,34.0221376 728.324219,33.5820312 C728.602866,33.1419249 728.742188,32.4869835 728.742188,31.6171875 C728.742188,30.7525998 728.601564,30.1041688 728.320312,29.671875 C728.039061,29.2395812 727.578128,29.0234375 726.9375,29.0234375 C726.30208,29.0234375 725.843751,29.2382791 725.5625,29.6679688 C725.281249,30.0976584 725.140625,30.7473915 725.140625,31.6171875 Z M731.179688,31.6171875 C731.179688,33.0390696 730.804691,34.1510377 730.054688,34.953125 C729.304684,35.7552123 728.260423,36.15625 726.921875,36.15625 C726.083329,36.15625 725.343753,35.9726581 724.703125,35.6054688 C724.062497,35.2382794 723.570314,34.7109409 723.226562,34.0234375 C722.882811,33.3359341 722.710938,32.5338588 722.710938,31.6171875 C722.710938,30.190097 723.08333,29.0807331 723.828125,28.2890625 C724.57292,27.4973919 725.619785,27.1015625 726.96875,27.1015625 C727.807296,27.1015625 728.546872,27.2838523 729.1875,27.6484375 C729.828128,28.0130227 730.320311,28.5364549 730.664062,29.21875 C731.007814,29.9010451 731.179688,30.7005162 731.179688,31.6171875 Z M740.96875,36 L738.585938,36 L738.585938,30.8984375 C738.585938,30.268226 738.48047,29.7955745 738.269531,29.4804688 C738.058593,29.165363 737.726565,29.0078125 737.273438,29.0078125 C736.664059,29.0078125 736.221356,29.2317686 735.945312,29.6796875 C735.669269,30.1276064 735.53125,30.8645782 735.53125,31.890625 L735.53125,36 L733.148438,36 L733.148438,27.265625 L734.96875,27.265625 L735.289062,28.3828125 L735.421875,28.3828125 C735.656251,27.9817688 735.994789,27.6679699 736.4375,27.4414062 C736.880211,27.2148426 737.388018,27.1015625 737.960938,27.1015625 C739.268236,27.1015625 740.153644,27.5286416 740.617188,28.3828125 L740.828125,28.3828125 C741.062501,27.9765605 741.40755,27.6614595 741.863281,27.4375 C742.319013,27.2135405 742.83333,27.1015625 743.40625,27.1015625 C744.395838,27.1015625 745.144529,27.3554662 745.652344,27.8632812 C746.160159,28.3710963 746.414062,29.1848902 746.414062,30.3046875 L746.414062,36 L744.023438,36 L744.023438,30.8984375 C744.023438,30.268226 743.91797,29.7955745 743.707031,29.4804688 C743.496093,29.165363 743.164065,29.0078125 742.710938,29.0078125 C742.127601,29.0078125 741.691408,29.2161438 741.402344,29.6328125 C741.11328,30.0494812 740.96875,30.710933 740.96875,31.6171875 L740.96875,36 Z M750.757812,31.6171875 C750.757812,32.4817752 750.899738,33.1354145 751.183594,33.578125 C751.467449,34.0208355 751.929684,34.2421875 752.570312,34.2421875 C753.205732,34.2421875 753.662759,34.0221376 753.941406,33.5820312 C754.220053,33.1419249 754.359375,32.4869835 754.359375,31.6171875 C754.359375,30.7525998 754.218751,30.1041688 753.9375,29.671875 C753.656249,29.2395812 753.195316,29.0234375 752.554688,29.0234375 C751.919268,29.0234375 751.460939,29.2382791 751.179688,29.6679688 C750.898436,30.0976584 750.757812,30.7473915 750.757812,31.6171875 Z M756.796875,31.6171875 C756.796875,33.0390696 756.421879,34.1510377 755.671875,34.953125 C754.921871,35.7552123 753.877611,36.15625 752.539062,36.15625 C751.700517,36.15625 750.960941,35.9726581 750.320312,35.6054688 C749.679684,35.2382794 749.187502,34.7109409 748.84375,34.0234375 C748.499998,33.3359341 748.328125,32.5338588 748.328125,31.6171875 C748.328125,30.190097 748.700517,29.0807331 749.445312,28.2890625 C750.190108,27.4973919 751.236972,27.1015625 752.585938,27.1015625 C753.424483,27.1015625 754.164059,27.2838523 754.804688,27.6484375 C755.445316,28.0130227 755.937498,28.5364549 756.28125,29.21875 C756.625002,29.9010451 756.796875,30.7005162 756.796875,31.6171875 Z M761.375,29.953125 L762.171875,29.953125 C762.91667,29.953125 763.473956,29.8059911 763.84375,29.5117188 C764.213544,29.2174464 764.398438,28.7890653 764.398438,28.2265625 C764.398438,27.6588513 764.243491,27.2395847 763.933594,26.96875 C763.623696,26.6979153 763.138024,26.5625 762.476562,26.5625 L761.375,26.5625 L761.375,29.953125 Z M766.84375,28.140625 C766.84375,29.3697978 766.459639,30.3098926 765.691406,30.9609375 C764.923173,31.6119824 763.830736,31.9375 762.414062,31.9375 L761.375,31.9375 L761.375,36 L758.953125,36 L758.953125,24.578125 L762.601562,24.578125 C763.986986,24.578125 765.040361,24.8762991 765.761719,25.4726562 C766.483077,26.0690134 766.84375,26.9583274 766.84375,28.140625 Z M773.6875,27.1015625 C774.010418,27.1015625 774.278645,27.1249998 774.492188,27.171875 L774.3125,29.40625 C774.119791,29.3541664 773.885418,29.328125 773.609375,29.328125 C772.848955,29.328125 772.256513,29.5234355 771.832031,29.9140625 C771.40755,30.3046895 771.195312,30.851559 771.195312,31.5546875 L771.195312,36 L768.8125,36 L768.8125,27.265625 L770.617188,27.265625 L770.96875,28.734375 L771.085938,28.734375 C771.356772,28.2447892 771.722654,27.8502619 772.183594,27.5507812 C772.644534,27.2513006 773.145831,27.1015625 773.6875,27.1015625 Z M779.375,28.796875 C778.869789,28.796875 778.47396,28.9570296 778.1875,29.2773438 C777.90104,29.5976579 777.736979,30.0520804 777.695312,30.640625 L781.039062,30.640625 C781.028646,30.0520804 780.875001,29.5976579 780.578125,29.2773438 C780.281249,28.9570296 779.880211,28.796875 779.375,28.796875 Z M779.710938,36.15625 C778.30468,36.15625 777.205733,35.768233 776.414062,34.9921875 C775.622392,34.216142 775.226562,33.1171946 775.226562,31.6953125 C775.226562,30.2317635 775.592444,29.1002644 776.324219,28.3007812 C777.055993,27.5012981 778.067702,27.1015625 779.359375,27.1015625 C780.593756,27.1015625 781.554684,27.4531215 782.242188,28.15625 C782.929691,28.8593785 783.273438,29.830723 783.273438,31.0703125 L783.273438,32.2265625 L777.640625,32.2265625 C777.666667,32.9036492 777.867186,33.4322898 778.242188,33.8125 C778.617189,34.1927102 779.143226,34.3828125 779.820312,34.3828125 C780.346357,34.3828125 780.843748,34.3281255 781.3125,34.21875 C781.781252,34.1093745 782.270831,33.934897 782.78125,33.6953125 L782.78125,35.5390625 C782.364581,35.7473969 781.919273,35.9023432 781.445312,36.0039062 C780.971352,36.1054693 780.393233,36.15625 779.710938,36.15625 Z M791.304688,33.40625 C791.304688,34.3020878 790.993493,34.9843727 790.371094,35.453125 C789.748695,35.9218773 788.817715,36.15625 787.578125,36.15625 C786.942705,36.15625 786.401044,36.1132817 785.953125,36.0273438 C785.505206,35.9414058 785.085939,35.815105 784.695312,35.6484375 L784.695312,33.6796875 C785.138023,33.8880219 785.636716,34.0624993 786.191406,34.203125 C786.746097,34.3437507 787.234373,34.4140625 787.65625,34.4140625 C788.520838,34.4140625 788.953125,34.164065 788.953125,33.6640625 C788.953125,33.4765616 788.895834,33.3242193 788.78125,33.2070312 C788.666666,33.0898432 788.468751,32.957032 788.1875,32.8085938 C787.906249,32.6601555 787.531252,32.4869802 787.0625,32.2890625 C786.390622,32.0078111 785.897137,31.747397 785.582031,31.5078125 C785.266926,31.268228 785.037761,30.9934911 784.894531,30.6835938 C784.751301,30.3736964 784.679688,29.9921898 784.679688,29.5390625 C784.679688,28.763017 784.980466,28.1627625 785.582031,27.7382812 C786.183597,27.3138 787.036453,27.1015625 788.140625,27.1015625 C789.192714,27.1015625 790.216141,27.3307269 791.210938,27.7890625 L790.492188,29.5078125 C790.054685,29.3203116 789.645835,29.1666673 789.265625,29.046875 C788.885415,28.9270827 788.497398,28.8671875 788.101562,28.8671875 C787.398434,28.8671875 787.046875,29.0572898 787.046875,29.4375 C787.046875,29.6510427 787.160155,29.8359367 787.386719,29.9921875 C787.613282,30.1484383 788.109371,30.3802068 788.875,30.6875 C789.557295,30.963543 790.05729,31.221353 790.375,31.4609375 C790.69271,31.700522 790.927083,31.9765609 791.078125,32.2890625 C791.229167,32.6015641 791.304688,32.9739562 791.304688,33.40625 Z M799.257812,33.40625 C799.257812,34.3020878 798.946618,34.9843727 798.324219,35.453125 C797.70182,35.9218773 796.77084,36.15625 795.53125,36.15625 C794.89583,36.15625 794.354169,36.1132817 793.90625,36.0273438 C793.458331,35.9414058 793.039064,35.815105 792.648438,35.6484375 L792.648438,33.6796875 C793.091148,33.8880219 793.589841,34.0624993 794.144531,34.203125 C794.699222,34.3437507 795.187498,34.4140625 795.609375,34.4140625 C796.473963,34.4140625 796.90625,34.164065 796.90625,33.6640625 C796.90625,33.4765616 796.848959,33.3242193 796.734375,33.2070312 C796.619791,33.0898432 796.421876,32.957032 796.140625,32.8085938 C795.859374,32.6601555 795.484377,32.4869802 795.015625,32.2890625 C794.343747,32.0078111 793.850262,31.747397 793.535156,31.5078125 C793.220051,31.268228 792.990886,30.9934911 792.847656,30.6835938 C792.704426,30.3736964 792.632812,29.9921898 792.632812,29.5390625 C792.632812,28.763017 792.933591,28.1627625 793.535156,27.7382812 C794.136722,27.3138 794.989578,27.1015625 796.09375,27.1015625 C797.145839,27.1015625 798.169266,27.3307269 799.164062,27.7890625 L798.445312,29.5078125 C798.00781,29.3203116 797.59896,29.1666673 797.21875,29.046875 C796.83854,28.9270827 796.450523,28.8671875 796.054688,28.8671875 C795.351559,28.8671875 795,29.0572898 795,29.4375 C795,29.6510427 795.11328,29.8359367 795.339844,29.9921875 C795.566407,30.1484383 796.062496,30.3802068 796.828125,30.6875 C797.51042,30.963543 798.010415,31.221353 798.328125,31.4609375 C798.645835,31.700522 798.880208,31.9765609 799.03125,32.2890625 C799.182292,32.6015641 799.257812,32.9739562 799.257812,33.40625 Z M809.257812,28.4453125 L807.078125,28.4453125 L807.078125,36 L805.78125,36 L805.78125,28.4453125 L804.25,28.4453125 L804.25,27.859375 L805.78125,27.390625 L805.78125,26.9140625 C805.78125,24.8098853 806.700512,23.7578125 808.539062,23.7578125 C808.99219,23.7578125 809.523434,23.8489574 810.132812,24.03125 L809.796875,25.0703125 C809.296873,24.9088534 808.869793,24.828125 808.515625,24.828125 C808.026039,24.828125 807.664064,24.9908838 807.429688,25.3164062 C807.195311,25.6419287 807.078125,26.1640589 807.078125,26.8828125 L807.078125,27.4375 L809.257812,27.4375 L809.257812,28.4453125 Z M818.210938,31.7109375 C818.210938,33.1067778 817.859379,34.1966107 817.15625,34.9804688 C816.453121,35.7643268 815.481777,36.15625 814.242188,36.15625 C813.476559,36.15625 812.796878,35.9765643 812.203125,35.6171875 C811.609372,35.2578107 811.151043,34.7421909 810.828125,34.0703125 C810.505207,33.3984341 810.34375,32.6119837 810.34375,31.7109375 C810.34375,30.3150972 810.692705,29.2278685 811.390625,28.4492188 C812.088545,27.670569 813.057285,27.28125 814.296875,27.28125 C815.494798,27.28125 816.446611,27.6796835 817.152344,28.4765625 C817.858076,29.2734415 818.210938,30.3515557 818.210938,31.7109375 Z M811.6875,31.7109375 C811.6875,32.804693 811.906248,33.638018 812.34375,34.2109375 C812.781252,34.783857 813.424475,35.0703125 814.273438,35.0703125 C815.1224,35.0703125 815.766925,34.7851591 816.207031,34.2148438 C816.647138,33.6445284 816.867188,32.8099013 816.867188,31.7109375 C816.867188,30.6223904 816.647138,29.7955757 816.207031,29.2304688 C815.766925,28.6653618 815.117192,28.3828125 814.257812,28.3828125 C813.40885,28.3828125 812.768231,28.6614555 812.335938,29.21875 C811.903644,29.7760445 811.6875,30.6067653 811.6875,31.7109375 Z M824.390625,27.28125 C824.770835,27.28125 825.111978,27.3124997 825.414062,27.375 L825.234375,28.578125 C824.880207,28.4999996 824.56771,28.4609375 824.296875,28.4609375 C823.604163,28.4609375 823.011721,28.7421847 822.519531,29.3046875 C822.027341,29.8671903 821.78125,30.5677041 821.78125,31.40625 L821.78125,36 L820.484375,36 L820.484375,27.4375 L821.554688,27.4375 L821.703125,29.0234375 L821.765625,29.0234375 C822.083335,28.466143 822.466144,28.0364598 822.914062,27.734375 C823.361981,27.4322902 823.854164,27.28125 824.390625,27.28125 Z M838.328125,32.4296875 C838.328125,33.2578166 838.028649,33.9231746 837.429688,34.4257812 C836.830726,34.9283879 835.992193,35.2291662 834.914062,35.328125 L834.914062,36.9296875 L833.84375,36.9296875 L833.84375,35.359375 C832.57291,35.3333332 831.458338,35.1093771 830.5,34.6875 L830.5,32.625 C830.953127,32.8489595 831.498695,33.0468741 832.136719,33.21875 C832.774743,33.3906259 833.343747,33.4921873 833.84375,33.5234375 L833.84375,31.1015625 L833.320312,30.8984375 C832.289057,30.4921855 831.558596,30.0507836 831.128906,29.5742188 C830.699217,29.0976539 830.484375,28.507816 830.484375,27.8046875 C830.484375,27.0494754 830.779945,26.4283879 831.371094,25.9414062 C831.962243,25.4544246 832.786453,25.1588547 833.84375,25.0546875 L833.84375,23.859375 L834.914062,23.859375 L834.914062,25.0234375 C836.106777,25.0755211 837.184891,25.315102 838.148438,25.7421875 L837.414062,27.5703125 C836.601558,27.2369775 835.768233,27.0338545 834.914062,26.9609375 L834.914062,29.265625 C835.929693,29.656252 836.652342,29.9947902 837.082031,30.28125 C837.511721,30.5677098 837.826822,30.8828108 838.027344,31.2265625 C838.227866,31.5703142 838.328125,31.9713519 838.328125,32.4296875 Z M835.976562,32.546875 C835.976562,32.3281239 835.888022,32.1432299 835.710938,31.9921875 C835.533853,31.8411451 835.268231,31.6848966 834.914062,31.5234375 L834.914062,33.46875 C835.622399,33.3489577 835.976562,33.0416691 835.976562,32.546875 Z M832.835938,27.8046875 C832.835938,28.0338553 832.915364,28.2226555 833.074219,28.3710938 C833.233074,28.519532 833.489582,28.6718742 833.84375,28.828125 L833.84375,26.9921875 C833.171872,27.0911463 832.835938,27.361977 832.835938,27.8046875 Z M847.507812,29.453125 C847.507812,31.7031363 847.033859,33.382807 846.085938,34.4921875 C845.138016,35.601568 843.703135,36.15625 841.78125,36.15625 C841.104163,36.15625 840.591148,36.119792 840.242188,36.046875 L840.242188,34.109375 C840.67969,34.2187505 841.138018,34.2734375 841.617188,34.2734375 C842.424483,34.2734375 843.088539,34.1549491 843.609375,33.9179688 C844.130211,33.6809884 844.528644,33.3085963 844.804688,32.8007812 C845.080731,32.2929662 845.239583,31.5937545 845.28125,30.703125 L845.1875,30.703125 C844.885415,31.1927108 844.53646,31.5364573 844.140625,31.734375 C843.74479,31.9322927 843.250003,32.03125 842.65625,32.03125 C841.661453,32.03125 840.877607,31.7122428 840.304688,31.0742188 C839.731768,30.4361947 839.445312,29.5494848 839.445312,28.4140625 C839.445312,27.190098 839.792965,26.2226598 840.488281,25.5117188 C841.183597,24.8007777 842.130202,24.4453125 843.328125,24.4453125 C844.171879,24.4453125 844.910153,24.6432272 845.542969,25.0390625 C846.175784,25.4348978 846.661457,26.0091108 847,26.7617188 C847.338543,27.5143267 847.507812,28.4114531 847.507812,29.453125 Z M843.375,26.3828125 C842.874998,26.3828125 842.484376,26.5546858 842.203125,26.8984375 C841.921874,27.2421892 841.78125,27.7369759 841.78125,28.3828125 C841.78125,28.9348986 841.908853,29.3723942 842.164062,29.6953125 C842.419272,30.0182308 842.807289,30.1796875 843.328125,30.1796875 C843.817711,30.1796875 844.236977,30.0195329 844.585938,29.6992188 C844.934898,29.3789046 845.109375,29.0104187 845.109375,28.59375 C845.109375,27.9739552 844.946616,27.450523 844.621094,27.0234375 C844.295571,26.596352 843.880211,26.3828125 843.375,26.3828125 Z M856.640625,29.453125 C856.640625,31.7031363 856.166671,33.382807 855.21875,34.4921875 C854.270829,35.601568 852.835947,36.15625 850.914062,36.15625 C850.236976,36.15625 849.72396,36.119792 849.375,36.046875 L849.375,34.109375 C849.812502,34.2187505 850.270831,34.2734375 850.75,34.2734375 C851.557296,34.2734375 852.221352,34.1549491 852.742188,33.9179688 C853.263023,33.6809884 853.661457,33.3085963 853.9375,32.8007812 C854.213543,32.2929662 854.372396,31.5937545 854.414062,30.703125 L854.320312,30.703125 C854.018228,31.1927108 853.669273,31.5364573 853.273438,31.734375 C852.877602,31.9322927 852.382815,32.03125 851.789062,32.03125 C850.794266,32.03125 850.01042,31.7122428 849.4375,31.0742188 C848.86458,30.4361947 848.578125,29.5494848 848.578125,28.4140625 C848.578125,27.190098 848.925778,26.2226598 849.621094,25.5117188 C850.31641,24.8007777 851.263015,24.4453125 852.460938,24.4453125 C853.304692,24.4453125 854.042966,24.6432272 854.675781,25.0390625 C855.308597,25.4348978 855.794269,26.0091108 856.132812,26.7617188 C856.471356,27.5143267 856.640625,28.4114531 856.640625,29.453125 Z M852.507812,26.3828125 C852.00781,26.3828125 851.617189,26.5546858 851.335938,26.8984375 C851.054686,27.2421892 850.914062,27.7369759 850.914062,28.3828125 C850.914062,28.9348986 851.041665,29.3723942 851.296875,29.6953125 C851.552085,30.0182308 851.940102,30.1796875 852.460938,30.1796875 C852.950523,30.1796875 853.36979,30.0195329 853.71875,29.6992188 C854.06771,29.3789046 854.242188,29.0104187 854.242188,28.59375 C854.242188,27.9739552 854.079429,27.450523 853.753906,27.0234375 C853.428384,26.596352 853.013023,26.3828125 852.507812,26.3828125 Z" id="Save-Big-&amp;-Get-Lifet" fill="#262625"></path>
            <g id="Countdown-Texts" transform="translate(41.000000, 10.000000)">
                <rect id="Rectangle" fill="#262625" x="74" y="0" width="248" height="40"></rect>
                <path d="M111.488,11.72 L122.528,11.72 C124.256,11.72 125.648,13.112 125.648,14.84 L125.648,18.776 C125.648,20.504 124.256,21.896 122.528,21.896 L111.488,21.896 C111.2,21.896 110.96,22.136 110.96,22.424 L110.96,25.88 C110.96,26.168 111.2,26.408 111.488,26.408 L125.648,26.408 L125.648,29 L108.368,29 L108.368,22.424 C108.368,20.696 109.76,19.304 111.488,19.304 L122.528,19.304 C122.816,19.304 123.056,19.064 123.056,18.776 L123.056,14.84 C123.056,14.552 122.816,14.312 122.528,14.312 L111.488,14.312 C111.2,14.312 110.96,14.552 110.96,14.84 L110.96,15.848 L108.368,15.848 L108.368,14.84 C108.368,13.112 109.76,11.72 111.488,11.72 Z M130.88,14.84 L130.88,18.296 C130.88,18.584 131.12,18.824 131.408,18.824 L142.448,18.824 C144.176,18.824 145.568,20.216 145.568,21.944 L145.568,25.88 C145.568,27.608 144.176,29 142.448,29 L131.408,29 C129.68,29 128.288,27.608 128.288,25.88 L128.288,24.872 L130.88,24.872 L130.88,25.88 C130.88,26.168 131.12,26.408 131.408,26.408 L142.448,26.408 C142.736,26.408 142.976,26.168 142.976,25.88 L142.976,21.944 C142.976,21.656 142.736,21.416 142.448,21.416 L128.288,21.416 L128.288,18.824 L128.336,18.824 C128.312,18.656 128.288,18.488 128.288,18.296 L128.288,11.72 L145.568,11.72 L145.568,14.312 L131.408,14.312 C131.12,14.312 130.88,14.552 130.88,14.84 Z M155.096,26.408 L157.688,26.408 L157.688,29 L155.096,29 L155.096,26.408 Z M157.688,14.888 L157.688,17.48 L155.096,17.48 L155.096,14.888 L157.688,14.888 Z M170.384,11.72 L181.424,11.72 C183.152,11.72 184.544,13.112 184.544,14.84 L184.544,18.776 C184.544,20.504 183.152,21.896 181.424,21.896 L170.384,21.896 C170.096,21.896 169.856,22.136 169.856,22.424 L169.856,25.88 C169.856,26.168 170.096,26.408 170.384,26.408 L184.544,26.408 L184.544,29 L167.264,29 L167.264,22.424 C167.264,20.696 168.656,19.304 170.384,19.304 L181.424,19.304 C181.712,19.304 181.952,19.064 181.952,18.776 L181.952,14.84 C181.952,14.552 181.712,14.312 181.424,14.312 L170.384,14.312 C170.096,14.312 169.856,14.552 169.856,14.84 L169.856,15.848 L167.264,15.848 L167.264,14.84 C167.264,13.112 168.656,11.72 170.384,11.72 Z M185.84,17.552 L190.712,11.72 L193.808,11.72 L193.808,29 L191.216,29 L191.216,15.176 L189.224,17.552 L185.84,17.552 Z M203.456,26.408 L206.048,26.408 L206.048,29 L203.456,29 L203.456,26.408 Z M206.048,14.888 L206.048,17.48 L203.456,17.48 L203.456,14.888 L206.048,14.888 Z M218.744,11.72 L229.784,11.72 C231.512,11.72 232.904,13.112 232.904,14.84 L232.904,18.776 C232.904,20.504 231.512,21.896 229.784,21.896 L218.744,21.896 C218.456,21.896 218.216,22.136 218.216,22.424 L218.216,25.88 C218.216,26.168 218.456,26.408 218.744,26.408 L232.904,26.408 L232.904,29 L215.624,29 L215.624,22.424 C215.624,20.696 217.016,19.304 218.744,19.304 L229.784,19.304 C230.072,19.304 230.312,19.064 230.312,18.776 L230.312,14.84 C230.312,14.552 230.072,14.312 229.784,14.312 L218.744,14.312 C218.456,14.312 218.216,14.552 218.216,14.84 L218.216,15.848 L215.624,15.848 L215.624,14.84 C215.624,13.112 217.016,11.72 218.744,11.72 Z M242.432,26.408 L245.024,26.408 L245.024,29 L242.432,29 L242.432,26.408 Z M245.024,14.888 L245.024,17.48 L242.432,17.48 L242.432,14.888 L245.024,14.888 Z M257.72,11.72 L268.76,11.72 C270.488,11.72 271.88,13.112 271.88,14.84 L271.88,18.776 C271.88,20.504 270.488,21.896 268.76,21.896 L257.72,21.896 C257.432,21.896 257.192,22.136 257.192,22.424 L257.192,25.88 C257.192,26.168 257.432,26.408 257.72,26.408 L271.88,26.408 L271.88,29 L254.6,29 L254.6,22.424 C254.6,20.696 255.992,19.304 257.72,19.304 L268.76,19.304 C269.048,19.304 269.288,19.064 269.288,18.776 L269.288,14.84 C269.288,14.552 269.048,14.312 268.76,14.312 L257.72,14.312 C257.432,14.312 257.192,14.552 257.192,14.84 L257.192,15.848 L254.6,15.848 L254.6,14.84 C254.6,13.112 255.992,11.72 257.72,11.72 Z M273.464,11.72 L284.504,11.72 C286.232,11.72 287.624,13.112 287.624,14.84 L287.624,29 L285.032,29 L285.032,14.84 C285.032,14.552 284.792,14.312 284.504,14.312 L273.224,14.312 L273.224,11.72 C273.296,11.72 273.392,11.72 273.464,11.72 Z" id="25-:-21-:-2-:-27" fill="#EAF3F5"></path>
                <path d="M5.47460938,25 L0.225097656,25 L0.225097656,15.7197266 L5.47460938,15.7197266 L5.47460938,17.0019531 L1.7421875,17.0019531 L1.7421875,19.5283203 L5.23974609,19.5283203 L5.23974609,20.7978516 L1.7421875,20.7978516 L1.7421875,23.7114258 L5.47460938,23.7114258 L5.47460938,25 Z M13.4980469,25 L12,25 L12,20.6835938 C12,20.1419244 11.891033,19.7377943 11.6730957,19.4711914 C11.4551584,19.2045885 11.1092146,19.0712891 10.6352539,19.0712891 C10.0047169,19.0712891 9.54345849,19.2574851 9.25146484,19.6298828 C8.9594712,20.0022805 8.81347656,20.6264605 8.81347656,21.5024414 L8.81347656,25 L7.32177734,25 L7.32177734,17.9794922 L8.48974609,17.9794922 L8.69921875,18.8999023 L8.77539062,18.8999023 C8.98698022,18.5655908 9.28743295,18.3074553 9.67675781,18.1254883 C10.0660827,17.9435212 10.497719,17.8525391 10.9716797,17.8525391 C12.6559329,17.8525391 13.4980469,18.7094641 13.4980469,20.4233398 L13.4980469,25 Z M17.9414062,25.1269531 C17.0654253,25.1269531 16.3820012,24.8095735 15.8911133,24.1748047 C15.4002254,23.5400359 15.1547852,22.649257 15.1547852,21.5024414 C15.1547852,20.351394 15.4033992,19.4553255 15.9006348,18.814209 C16.3978703,18.1730925 17.0865841,17.8525391 17.9667969,17.8525391 C18.8893275,17.8525391 19.5917945,18.1931932 20.0742188,18.8745117 L20.1503906,18.8745117 C20.0784502,18.3709285 20.0424805,17.973146 20.0424805,17.6811523 L20.0424805,15.1230469 L21.5405273,15.1230469 L21.5405273,25 L20.3725586,25 L20.1123047,24.0795898 L20.0424805,24.0795898 C19.564288,24.7778355 18.8639369,25.1269531 17.9414062,25.1269531 Z M18.3413086,23.9208984 C18.9549184,23.9208984 19.4013658,23.7484555 19.6806641,23.4035645 C19.9599623,23.0586734 20.1038411,22.4990273 20.1123047,21.7246094 L20.1123047,21.5151367 C20.1123047,20.6306922 19.9684259,20.0022805 19.6806641,19.6298828 C19.3929022,19.2574851 18.9422231,19.0712891 18.3286133,19.0712891 C17.8038711,19.0712891 17.399741,19.2839334 17.1162109,19.7092285 C16.8326809,20.1345236 16.690918,20.7407187 16.690918,21.527832 C16.690918,22.3064818 16.8284491,22.8999817 17.1035156,23.3083496 C17.3785821,23.7167175 17.7911756,23.9208984 18.3413086,23.9208984 Z M25.1650391,25 L23.6733398,25 L23.6733398,17.9794922 L25.1650391,17.9794922 L25.1650391,25 Z M23.5844727,16.1196289 C23.5844727,15.853026 23.65747,15.6477872 23.8034668,15.5039062 C23.9494636,15.3600253 24.1578763,15.2880859 24.4287109,15.2880859 C24.691082,15.2880859 24.8952629,15.3600253 25.0412598,15.5039062 C25.1872566,15.6477872 25.2602539,15.853026 25.2602539,16.1196289 C25.2602539,16.3735364 25.1872566,16.5734856 25.0412598,16.7194824 C24.8952629,16.8654792 24.691082,16.9384766 24.4287109,16.9384766 C24.1578763,16.9384766 23.9494636,16.8654792 23.8034668,16.7194824 C23.65747,16.5734856 23.5844727,16.3735364 23.5844727,16.1196289 Z M33.4741211,25 L31.9760742,25 L31.9760742,20.6835938 C31.9760742,20.1419244 31.8671072,19.7377943 31.6491699,19.4711914 C31.4312326,19.2045885 31.0852888,19.0712891 30.6113281,19.0712891 C29.9807911,19.0712891 29.5195327,19.2574851 29.2275391,19.6298828 C28.9355454,20.0022805 28.7895508,20.6264605 28.7895508,21.5024414 L28.7895508,25 L27.2978516,25 L27.2978516,17.9794922 L28.4658203,17.9794922 L28.675293,18.8999023 L28.7514648,18.8999023 C28.9630544,18.5655908 29.2635072,18.3074553 29.652832,18.1254883 C30.0421569,17.9435212 30.4737932,17.8525391 30.9477539,17.8525391 C32.6320071,17.8525391 33.4741211,18.7094641 33.4741211,20.4233398 L33.4741211,25 Z M41.4785156,17.9794922 L41.4785156,18.7983398 L40.2788086,19.0205078 C40.3888352,19.1686205 40.4798173,19.3505849 40.5517578,19.5664062 C40.6236983,19.7822276 40.659668,20.010741 40.659668,20.2519531 C40.659668,20.9755896 40.409996,21.544757 39.9106445,21.9594727 C39.4112931,22.3741883 38.7236372,22.581543 37.8476562,22.581543 C37.6233713,22.581543 37.4202483,22.5646161 37.2382812,22.5307617 C36.9166651,22.7296559 36.7558594,22.962401 36.7558594,23.2290039 C36.7558594,23.389812 36.8309726,23.5104163 36.9812012,23.5908203 C37.1314298,23.6712244 37.4075501,23.7114258 37.8095703,23.7114258 L39.034668,23.7114258 C39.8090859,23.7114258 40.3972962,23.8764632 40.7993164,24.206543 C41.2013366,24.5366227 41.4023438,25.0126922 41.4023438,25.6347656 C41.4023438,26.4303425 41.0743848,27.0439432 40.418457,27.4755859 C39.7625293,27.9072287 38.8146221,28.1230469 37.574707,28.1230469 C36.618322,28.1230469 35.8883489,27.9537777 35.3847656,27.6152344 C34.8811824,27.276691 34.6293945,26.794274 34.6293945,26.1679688 C34.6293945,25.736326 34.7658678,25.3734552 35.0388184,25.0793457 C35.3117689,24.7852362 35.6936824,24.5810553 36.1845703,24.4667969 C35.9856761,24.382161 35.8216966,24.2456878 35.692627,24.057373 C35.5635573,23.8690583 35.4990234,23.671225 35.4990234,23.4638672 C35.4990234,23.2014961 35.5730787,22.9793303 35.7211914,22.7973633 C35.8693041,22.6153962 36.089354,22.4355478 36.3813477,22.2578125 C36.0174135,22.1012362 35.7222505,21.8462746 35.4958496,21.4929199 C35.2694487,21.1395653 35.15625,20.7259138 35.15625,20.2519531 C35.15625,19.4902306 35.3964006,18.8999044 35.876709,18.480957 C36.3570174,18.0620096 37.0414995,17.8525391 37.9301758,17.8525391 C38.12907,17.8525391 38.3374826,17.8662922 38.5554199,17.8937988 C38.7733572,17.9213055 38.9373367,17.9498696 39.0473633,17.9794922 L41.4785156,17.9794922 Z M35.9624023,26.0917969 C35.9624023,26.4134131 36.107339,26.6609692 36.3972168,26.8344727 C36.6870945,27.0079761 37.0943984,27.0947266 37.6191406,27.0947266 C38.4316447,27.0947266 39.0367819,26.978354 39.4345703,26.7456055 C39.8323588,26.5128569 40.03125,26.2039407 40.03125,25.8188477 C40.03125,25.5141586 39.922283,25.2972825 39.7043457,25.1682129 C39.4864084,25.0391432 39.0812204,24.9746094 38.4887695,24.9746094 L37.3588867,24.9746094 C36.9314757,24.9746094 36.5918795,25.0751129 36.3400879,25.276123 C36.0882963,25.4771332 35.9624023,25.7490217 35.9624023,26.0917969 Z M36.6035156,20.2519531 C36.6035156,20.6920595 36.7167144,21.0305978 36.9431152,21.2675781 C37.1695161,21.5045585 37.4943013,21.6230469 37.9174805,21.6230469 C38.780766,21.6230469 39.2124023,21.1617885 39.2124023,20.2392578 C39.2124023,19.7822243 39.1055512,19.4299329 38.8918457,19.182373 C38.6781402,18.9348132 38.353355,18.8110352 37.9174805,18.8110352 C37.4858377,18.8110352 37.1589367,18.9337553 36.9367676,19.1791992 C36.7145985,19.4246432 36.6035156,19.7822242 36.6035156,20.2519531 Z M47.6484375,25 L46.1567383,25 L46.1567383,17.9794922 L47.6484375,17.9794922 L47.6484375,25 Z M46.0678711,16.1196289 C46.0678711,15.853026 46.1408684,15.6477872 46.2868652,15.5039062 C46.4328621,15.3600253 46.6412747,15.2880859 46.9121094,15.2880859 C47.1744805,15.2880859 47.3786614,15.3600253 47.5246582,15.5039062 C47.670655,15.6477872 47.7436523,15.853026 47.7436523,16.1196289 C47.7436523,16.3735364 47.670655,16.5734856 47.5246582,16.7194824 C47.3786614,16.8654792 47.1744805,16.9384766 46.9121094,16.9384766 C46.6412747,16.9384766 46.4328621,16.8654792 46.2868652,16.7194824 C46.1408684,16.5734856 46.0678711,16.3735364 46.0678711,16.1196289 Z M55.9575195,25 L54.4594727,25 L54.4594727,20.6835938 C54.4594727,20.1419244 54.3505056,19.7377943 54.1325684,19.4711914 C53.9146311,19.2045885 53.5686873,19.0712891 53.0947266,19.0712891 C52.4641896,19.0712891 52.0029311,19.2574851 51.7109375,19.6298828 C51.4189439,20.0022805 51.2729492,20.6264605 51.2729492,21.5024414 L51.2729492,25 L49.78125,25 L49.78125,17.9794922 L50.9492188,17.9794922 L51.1586914,18.8999023 L51.2348633,18.8999023 C51.4464529,18.5655908 51.7469056,18.3074553 52.1362305,18.1254883 C52.5255553,17.9435212 52.9571916,17.8525391 53.4311523,17.8525391 C55.1154056,17.8525391 55.9575195,18.7094641 55.9575195,20.4233398 L55.9575195,25 Z" id="Ending-in" fill="#262625"></path>
            </g>
            <g id="cross-icon" transform="translate(1121.000000, 26.000000)" fill="#000000">
                <polygon id="Path" points="0.703826955 0 0.0224625624 0.683069224 3.81863561 4.48874062 0 8.32443703 0.673876872 9 4.5 5.17180984 8.31863561 9 9 8.31693078 5.18136439 4.48874062 8.97753744 0.683069224 8.29617304 0 4.5 3.80567139"></polygon>
            </g>
        </g>
    </g>
</svg>