<?xml version="1.0" encoding="UTF-8"?>
<svg width="1200px" height="100px" viewBox="0 0 1200 100" version="1.1" xmlns="http://www.w3.org/2000/svg" xmlns:xlink="http://www.w3.org/1999/xlink">
    <!-- Generator: Sketch 52.4 (67378) - http://www.bohemiancoding.com/sketch -->
    <title>FomoPress Notification Theme 1 Copy</title>
    <desc>Created with Sketch.</desc>
    <defs>
        <linearGradient x1="50%" y1="0%" x2="50%" y2="100%" id="linearGradient-1">
            <stop stop-color="#05172A" offset="0%"></stop>
            <stop stop-color="#051E2A" offset="100%"></stop>
        </linearGradient>
    </defs>
    <g id="FomoPress-Notification-Theme-1-Copy" stroke="none" stroke-width="1" fill="none" fill-rule="evenodd">
        <g id="FomoPress-Notification-Theme" transform="translate(25.000000, 20.000000)">
            <rect id="Background" fill="url(#linearGradient-1)" x="0" y="0" width="1150" height="60"></rect>
            <g id="Button" transform="translate(940.000000, 14.000000)">
                <rect id="Rectangle" fill="#510FA8" x="0" y="0" width="126" height="32" rx="3"></rect>
                <path d="M31.7734375,15.5859375 L36.3046875,15.5859375 L36.3046875,21.5078125 C35.5703088,21.747397 34.8789095,21.9153641 34.2304688,22.0117188 C33.582028,22.1080734 32.9192742,22.15625 32.2421875,22.15625 C30.5182205,22.15625 29.2018275,21.6497446 28.2929688,20.6367188 C27.38411,19.6236929 26.9296875,18.1692803 26.9296875,16.2734375 C26.9296875,14.4296783 27.457026,12.9921927 28.5117188,11.9609375 C29.5664115,10.9296823 31.0286365,10.4140625 32.8984375,10.4140625 C34.0703184,10.4140625 35.2005154,10.6484352 36.2890625,11.1171875 L35.484375,13.0546875 C34.6510375,12.6380188 33.7838587,12.4296875 32.8828125,12.4296875 C31.8359323,12.4296875 30.997399,12.7812465 30.3671875,13.484375 C29.736976,14.1875035 29.421875,15.1328066 29.421875,16.3203125 C29.421875,17.559902 29.6757787,18.5065071 30.1835938,19.1601562 C30.6914088,19.8138054 31.4296827,20.140625 32.3984375,20.140625 C32.9036484,20.140625 33.4166641,20.0885422 33.9375,19.984375 L33.9375,17.6015625 L31.7734375,17.6015625 L31.7734375,15.5859375 Z M42.453125,14.796875 C41.9479141,14.796875 41.5520848,14.9570296 41.265625,15.2773438 C40.9791652,15.5976579 40.8151044,16.0520804 40.7734375,16.640625 L44.1171875,16.640625 C44.1067708,16.0520804 43.9531265,15.5976579 43.65625,15.2773438 C43.3593735,14.9570296 42.9583359,14.796875 42.453125,14.796875 Z M42.7890625,22.15625 C41.3828055,22.15625 40.2838581,21.768233 39.4921875,20.9921875 C38.7005169,20.216142 38.3046875,19.1171946 38.3046875,17.6953125 C38.3046875,16.2317635 38.6705693,15.1002644 39.4023438,14.3007812 C40.1341182,13.5012981 41.1458269,13.1015625 42.4375,13.1015625 C43.6718812,13.1015625 44.6328091,13.4531215 45.3203125,14.15625 C46.0078159,14.8593785 46.3515625,15.830723 46.3515625,17.0703125 L46.3515625,18.2265625 L40.71875,18.2265625 C40.7447918,18.9036492 40.9453106,19.4322898 41.3203125,19.8125 C41.6953144,20.1927102 42.2213508,20.3828125 42.8984375,20.3828125 C43.4244818,20.3828125 43.9218727,20.3281255 44.390625,20.21875 C44.8593773,20.1093745 45.3489558,19.934897 45.859375,19.6953125 L45.859375,21.5390625 C45.4427063,21.7473969 44.9973982,21.9023432 44.5234375,22.0039062 C44.0494768,22.1054693 43.4713576,22.15625 42.7890625,22.15625 Z M51.96875,20.2578125 C52.3854187,20.2578125 52.8854137,20.1666676 53.46875,19.984375 L53.46875,21.7578125 C52.874997,22.0234388 52.1458377,22.15625 51.28125,22.15625 C50.3281202,22.15625 49.6341168,21.915367 49.1992188,21.4335938 C48.7643207,20.9518205 48.546875,20.2291715 48.546875,19.265625 L48.546875,15.0546875 L47.40625,15.0546875 L47.40625,14.046875 L48.71875,13.25 L49.40625,11.40625 L50.9296875,11.40625 L50.9296875,13.265625 L53.375,13.265625 L53.375,15.0546875 L50.9296875,15.0546875 L50.9296875,19.265625 C50.9296875,19.6041684 51.0247386,19.8541659 51.2148438,20.015625 C51.4049489,20.1770841 51.6562484,20.2578125 51.96875,20.2578125 Z M69.9453125,16.2734375 C69.9453125,18.164072 69.4765672,19.6171824 68.5390625,20.6328125 C67.6015578,21.6484426 66.2578213,22.15625 64.5078125,22.15625 C62.7578038,22.15625 61.4140672,21.6484426 60.4765625,20.6328125 C59.5390578,19.6171824 59.0703125,18.1588637 59.0703125,16.2578125 C59.0703125,14.3567613 59.5403599,12.9049529 60.4804688,11.9023438 C61.4205776,10.8997346 62.7682204,10.3984375 64.5234375,10.3984375 C66.2786546,10.3984375 67.6210891,10.9036408 68.5507812,11.9140625 C69.4804734,12.9244842 69.9453125,14.3775947 69.9453125,16.2734375 Z M61.609375,16.2734375 C61.609375,17.5494855 61.8515601,18.5104134 62.3359375,19.15625 C62.8203149,19.8020866 63.544266,20.125 64.5078125,20.125 C66.4401138,20.125 67.40625,18.8411587 67.40625,16.2734375 C67.40625,13.700508 66.4453221,12.4140625 64.5234375,12.4140625 C63.559891,12.4140625 62.8333358,12.738278 62.34375,13.3867188 C61.8541642,14.0351595 61.609375,14.9973895 61.609375,16.2734375 Z M76.953125,15.0546875 L74.890625,15.0546875 L74.890625,22 L72.5078125,22 L72.5078125,15.0546875 L71.1953125,15.0546875 L71.1953125,13.90625 L72.5078125,13.265625 L72.5078125,12.625 C72.5078125,11.6302034 72.7526017,10.9036481 73.2421875,10.4453125 C73.7317733,9.98697687 74.5156196,9.7578125 75.59375,9.7578125 C76.4166708,9.7578125 77.1484343,9.88020711 77.7890625,10.125 L77.1796875,11.875 C76.7005184,11.7239576 76.2578145,11.6484375 75.8515625,11.6484375 C75.5130191,11.6484375 75.2682299,11.7486969 75.1171875,11.9492188 C74.9661451,12.1497406 74.890625,12.4062484 74.890625,12.71875 L74.890625,13.265625 L76.953125,13.265625 L76.953125,15.0546875 Z M83.1484375,15.0546875 L81.0859375,15.0546875 L81.0859375,22 L78.703125,22 L78.703125,15.0546875 L77.390625,15.0546875 L77.390625,13.90625 L78.703125,13.265625 L78.703125,12.625 C78.703125,11.6302034 78.9479142,10.9036481 79.4375,10.4453125 C79.9270858,9.98697687 80.7109321,9.7578125 81.7890625,9.7578125 C82.6119833,9.7578125 83.3437468,9.88020711 83.984375,10.125 L83.375,11.875 C82.8958309,11.7239576 82.453127,11.6484375 82.046875,11.6484375 C81.7083316,11.6484375 81.4635424,11.7486969 81.3125,11.9492188 C81.1614576,12.1497406 81.0859375,12.4062484 81.0859375,12.71875 L81.0859375,13.265625 L83.1484375,13.265625 L83.1484375,15.0546875 Z M88.125,14.796875 C87.6197891,14.796875 87.2239598,14.9570296 86.9375,15.2773438 C86.6510402,15.5976579 86.4869794,16.0520804 86.4453125,16.640625 L89.7890625,16.640625 C89.7786458,16.0520804 89.6250015,15.5976579 89.328125,15.2773438 C89.0312485,14.9570296 88.6302109,14.796875 88.125,14.796875 Z M88.4609375,22.15625 C87.0546805,22.15625 85.9557331,21.768233 85.1640625,20.9921875 C84.3723919,20.216142 83.9765625,19.1171946 83.9765625,17.6953125 C83.9765625,16.2317635 84.3424443,15.1002644 85.0742188,14.3007812 C85.8059932,13.5012981 86.8177019,13.1015625 88.109375,13.1015625 C89.3437562,13.1015625 90.3046841,13.4531215 90.9921875,14.15625 C91.6796909,14.8593785 92.0234375,15.830723 92.0234375,17.0703125 L92.0234375,18.2265625 L86.390625,18.2265625 C86.4166668,18.9036492 86.6171856,19.4322898 86.9921875,19.8125 C87.3671894,20.1927102 87.8932258,20.3828125 88.5703125,20.3828125 C89.0963568,20.3828125 89.5937477,20.3281255 90.0625,20.21875 C90.5312523,20.1093745 91.0208308,19.934897 91.53125,19.6953125 L91.53125,21.5390625 C91.1145813,21.7473969 90.6692732,21.9023432 90.1953125,22.0039062 C89.7213518,22.1054693 89.1432326,22.15625 88.4609375,22.15625 Z M98.8359375,13.1015625 C99.1588558,13.1015625 99.4270823,13.1249998 99.640625,13.171875 L99.4609375,15.40625 C99.2682282,15.3541664 99.0338555,15.328125 98.7578125,15.328125 C97.997392,15.328125 97.40495,15.5234355 96.9804688,15.9140625 C96.5559875,16.3046895 96.34375,16.851559 96.34375,17.5546875 L96.34375,22 L93.9609375,22 L93.9609375,13.265625 L95.765625,13.265625 L96.1171875,14.734375 L96.234375,14.734375 C96.5052097,14.2447892 96.8710914,13.8502619 97.3320312,13.5507812 C97.7929711,13.2513006 98.2942681,13.1015625 98.8359375,13.1015625 Z" id="Get-Offer" fill="#FFFFFF"></path>
            </g>
            <path d="M448.015625,32.9609375 C448.015625,33.9661509 447.651045,34.7499972 446.921875,35.3125 C446.192705,35.8750028 445.203131,36.15625 443.953125,36.15625 C442.598952,36.15625 441.557295,35.9817726 440.828125,35.6328125 L440.828125,34.3515625 C441.296877,34.5494802 441.807289,34.7057286 442.359375,34.8203125 C442.911461,34.9348964 443.458331,34.9921875 444,34.9921875 C444.885421,34.9921875 445.552081,34.8242204 446,34.4882812 C446.447919,34.1523421 446.671875,33.6848988 446.671875,33.0859375 C446.671875,32.6901022 446.592449,32.3658867 446.433594,32.1132812 C446.274739,31.8606758 446.009116,31.6276052 445.636719,31.4140625 C445.264321,31.2005198 444.69792,30.9583347 443.9375,30.6875 C442.874995,30.3072898 442.115888,29.8567734 441.660156,29.3359375 C441.204425,28.8151016 440.976562,28.1354209 440.976562,27.296875 C440.976562,26.4166623 441.307288,25.7161484 441.96875,25.1953125 C442.630212,24.6744766 443.505203,24.4140625 444.59375,24.4140625 C445.729172,24.4140625 446.773433,24.6223938 447.726562,25.0390625 L447.3125,26.1953125 C446.369787,25.7994772 445.453129,25.6015625 444.5625,25.6015625 C443.859371,25.6015625 443.309898,25.7526027 442.914062,26.0546875 C442.518227,26.3567723 442.320312,26.776039 442.320312,27.3125 C442.320312,27.7083353 442.393228,28.0325508 442.539062,28.2851562 C442.684897,28.5377617 442.930988,28.7695302 443.277344,28.9804688 C443.6237,29.1914073 444.153642,29.4244779 444.867188,29.6796875 C446.06511,30.106773 446.889321,30.5651017 447.339844,31.0546875 C447.790367,31.5442733 448.015625,32.1796836 448.015625,32.9609375 Z M455.421875,36 L455.164062,34.78125 L455.101562,34.78125 C454.674477,35.317711 454.2487,35.6809886 453.824219,35.8710938 C453.399737,36.0611989 452.869795,36.15625 452.234375,36.15625 C451.385412,36.15625 450.720054,35.9375022 450.238281,35.5 C449.756508,35.0624978 449.515625,34.4401082 449.515625,33.6328125 C449.515625,31.9036372 450.898424,30.9973963 453.664062,30.9140625 L455.117188,30.8671875 L455.117188,30.3359375 C455.117188,29.6640591 454.972658,29.1679704 454.683594,28.8476562 C454.39453,28.5273421 453.932295,28.3671875 453.296875,28.3671875 C452.58333,28.3671875 451.776046,28.5859353 450.875,29.0234375 L450.476562,28.03125 C450.89844,27.8020822 451.360675,27.6223965 451.863281,27.4921875 C452.365888,27.3619785 452.869789,27.296875 453.375,27.296875 C454.395838,27.296875 455.152341,27.5234352 455.644531,27.9765625 C456.136721,28.4296898 456.382812,29.156245 456.382812,30.15625 L456.382812,36 L455.421875,36 Z M452.492188,35.0859375 C453.299483,35.0859375 453.933591,34.8645855 454.394531,34.421875 C454.855471,33.9791645 455.085938,33.359379 455.085938,32.5625 L455.085938,31.7890625 L453.789062,31.84375 C452.757807,31.8802085 452.014325,32.0403632 451.558594,32.3242188 C451.102862,32.6080743 450.875,33.0494762 450.875,33.6484375 C450.875,34.1171898 451.016926,34.4739571 451.300781,34.71875 C451.584637,34.9635429 451.981768,35.0859375 452.492188,35.0859375 Z M460.929688,36 L457.679688,27.4375 L459.070312,27.4375 L460.914062,32.515625 C461.330731,33.7031309 461.57552,34.4739566 461.648438,34.828125 L461.710938,34.828125 C461.768229,34.552082 461.949217,33.9804731 462.253906,33.1132812 C462.558595,32.2460894 463.242182,30.3541812 464.304688,27.4375 L465.695312,27.4375 L462.445312,36 L460.929688,36 Z M470.6875,36.15625 C469.421869,36.15625 468.423181,35.7708372 467.691406,35 C466.959632,34.2291628 466.59375,33.158861 466.59375,31.7890625 C466.59375,30.4088473 466.93359,29.3125041 467.613281,28.5 C468.292972,27.6874959 469.205723,27.28125 470.351562,27.28125 C471.424485,27.28125 472.273434,27.6341111 472.898438,28.3398438 C473.523441,29.0455764 473.835938,29.9765567 473.835938,31.1328125 L473.835938,31.953125 L467.9375,31.953125 C467.963542,32.9583384 468.217446,33.7213516 468.699219,34.2421875 C469.180992,34.7630234 469.859371,35.0234375 470.734375,35.0234375 C471.656255,35.0234375 472.567704,34.8307311 473.46875,34.4453125 L473.46875,35.6015625 C473.010414,35.7994802 472.576825,35.9414058 472.167969,36.0273438 C471.759113,36.1132817 471.265628,36.15625 470.6875,36.15625 Z M470.335938,28.3671875 C469.648434,28.3671875 469.100262,28.5911436 468.691406,29.0390625 C468.28255,29.4869814 468.041667,30.1067669 467.96875,30.8984375 L472.445312,30.8984375 C472.445312,30.0807251 472.263023,29.4544293 471.898438,29.0195312 C471.533852,28.5846332 471.013024,28.3671875 470.335938,28.3671875 Z M480.398438,24.578125 L483.625,24.578125 C485.140633,24.578125 486.236976,24.8046852 486.914062,25.2578125 C487.591149,25.7109398 487.929688,26.4270784 487.929688,27.40625 C487.929688,28.0833367 487.740887,28.6419249 487.363281,29.0820312 C486.985675,29.5221376 486.434899,29.807291 485.710938,29.9375 L485.710938,30.015625 C487.445321,30.3125015 488.3125,31.2239507 488.3125,32.75 C488.3125,33.7708384 487.967451,34.5677055 487.277344,35.140625 C486.587236,35.7135445 485.622402,36 484.382812,36 L480.398438,36 L480.398438,24.578125 Z M481.726562,29.46875 L483.914062,29.46875 C484.851567,29.46875 485.52604,29.3216161 485.9375,29.0273438 C486.34896,28.7330714 486.554688,28.2369827 486.554688,27.5390625 C486.554688,26.8984343 486.325523,26.4361993 485.867188,26.1523438 C485.408852,25.8684882 484.679692,25.7265625 483.679688,25.7265625 L481.726562,25.7265625 L481.726562,29.46875 Z M481.726562,30.59375 L481.726562,34.8671875 L484.109375,34.8671875 C485.031255,34.8671875 485.725258,34.6888039 486.191406,34.3320312 C486.657554,33.9752586 486.890625,33.4166705 486.890625,32.65625 C486.890625,31.9479131 486.652346,31.427085 486.175781,31.09375 C485.699216,30.760415 484.973963,30.59375 484,30.59375 L481.726562,30.59375 Z M491.867188,36 L490.570312,36 L490.570312,27.4375 L491.867188,27.4375 L491.867188,36 Z M490.460938,25.1171875 C490.460938,24.820311 490.533853,24.6028653 490.679688,24.4648438 C490.825522,24.3268222 491.007811,24.2578125 491.226562,24.2578125 C491.434897,24.2578125 491.614583,24.3281243 491.765625,24.46875 C491.916667,24.6093757 491.992188,24.8255194 491.992188,25.1171875 C491.992188,25.4088556 491.916667,25.6263014 491.765625,25.7695312 C491.614583,25.9127611 491.434897,25.984375 491.226562,25.984375 C491.007811,25.984375 490.825522,25.9127611 490.679688,25.7695312 C490.533853,25.6263014 490.460938,25.4088556 490.460938,25.1171875 Z M501.625,27.4375 L501.625,28.2578125 L500.039062,28.4453125 C500.184897,28.6276051 500.315104,28.8658839 500.429688,29.1601562 C500.544271,29.4544286 500.601562,29.7864565 500.601562,30.15625 C500.601562,30.9947959 500.315107,31.66406 499.742188,32.1640625 C499.169268,32.664065 498.382817,32.9140625 497.382812,32.9140625 C497.127603,32.9140625 496.888022,32.8932294 496.664062,32.8515625 C496.111976,33.1432306 495.835938,33.5104145 495.835938,33.953125 C495.835938,34.1875012 495.932291,34.3606765 496.125,34.4726562 C496.317709,34.584636 496.648435,34.640625 497.117188,34.640625 L498.632812,34.640625 C499.5599,34.640625 500.272133,34.8359355 500.769531,35.2265625 C501.26693,35.6171895 501.515625,36.1848921 501.515625,36.9296875 C501.515625,37.8776089 501.13542,38.6002579 500.375,39.0976562 C499.61458,39.5950546 498.505216,39.84375 497.046875,39.84375 C495.927078,39.84375 495.063805,39.6354187 494.457031,39.21875 C493.850257,38.8020813 493.546875,38.2135455 493.546875,37.453125 C493.546875,36.9322891 493.71354,36.4817727 494.046875,36.1015625 C494.38021,35.7213523 494.848955,35.4635423 495.453125,35.328125 C495.234374,35.2291662 495.050782,35.0755219 494.902344,34.8671875 C494.753906,34.6588531 494.679688,34.416668 494.679688,34.140625 C494.679688,33.8281234 494.76302,33.5546887 494.929688,33.3203125 C495.096355,33.0859363 495.359373,32.8593761 495.71875,32.640625 C495.276039,32.4583324 494.915366,32.1484397 494.636719,31.7109375 C494.358072,31.2734353 494.21875,30.7734403 494.21875,30.2109375 C494.21875,29.2734328 494.499997,28.5507838 495.0625,28.0429688 C495.625003,27.5351537 496.42187,27.28125 497.453125,27.28125 C497.901044,27.28125 498.304686,27.3333328 498.664062,27.4375 L501.625,27.4375 Z M494.796875,37.4375 C494.796875,37.901044 494.992186,38.252603 495.382812,38.4921875 C495.773439,38.731772 496.33333,38.8515625 497.0625,38.8515625 C498.151047,38.8515625 498.957029,38.6888037 499.480469,38.3632812 C500.003909,38.0377588 500.265625,37.596357 500.265625,37.0390625 C500.265625,36.5755185 500.122397,36.2539071 499.835938,36.0742188 C499.549478,35.8945304 499.010421,35.8046875 498.21875,35.8046875 L496.664062,35.8046875 C496.075518,35.8046875 495.617189,35.9453111 495.289062,36.2265625 C494.960936,36.5078139 494.796875,36.9114557 494.796875,37.4375 Z M495.5,30.1796875 C495.5,30.7786488 495.669269,31.2317693 496.007812,31.5390625 C496.346356,31.8463557 496.817705,32 497.421875,32 C498.687506,32 499.320312,31.3854228 499.320312,30.15625 C499.320312,28.8697852 498.679694,28.2265625 497.398438,28.2265625 C496.789059,28.2265625 496.320314,28.3906234 495.992188,28.71875 C495.664061,29.0468766 495.5,29.5338509 495.5,30.1796875 Z M509.398438,26.8515625 C509.398438,27.2109393 509.492187,27.5533838 509.679688,27.8789062 C509.867188,28.2044287 510.187498,28.5963519 510.640625,29.0546875 C511.312503,28.6640605 511.779947,28.3033871 512.042969,27.9726562 C512.305991,27.6419254 512.4375,27.2604188 512.4375,26.828125 C512.4375,26.4270813 512.303387,26.1002617 512.035156,25.8476562 C511.766926,25.5950508 511.408856,25.46875 510.960938,25.46875 C510.497394,25.46875 510.121095,25.5937487 509.832031,25.84375 C509.542967,26.0937513 509.398438,26.4296854 509.398438,26.8515625 Z M510.609375,34.9921875 C511.86459,34.9921875 512.906246,34.5911498 513.734375,33.7890625 L510.320312,30.4765625 C509.742185,30.8307309 509.333335,31.1236968 509.09375,31.3554688 C508.854165,31.5872407 508.677084,31.8359362 508.5625,32.1015625 C508.447916,32.3671888 508.390625,32.6692691 508.390625,33.0078125 C508.390625,33.6171905 508.592446,34.1002586 508.996094,34.4570312 C509.399742,34.8138039 509.937497,34.9921875 510.609375,34.9921875 Z M507.046875,33.0390625 C507.046875,32.3619758 507.227863,31.7630234 507.589844,31.2421875 C507.951825,30.7213516 508.601558,30.1953152 509.539062,29.6640625 C509.096352,29.1692684 508.795574,28.7942721 508.636719,28.5390625 C508.477864,28.2838529 508.351563,28.0182305 508.257812,27.7421875 C508.164062,27.4661445 508.117188,27.179689 508.117188,26.8828125 C508.117188,26.1015586 508.372393,25.4921897 508.882812,25.0546875 C509.393232,24.6171853 510.104162,24.3984375 511.015625,24.3984375 C511.859379,24.3984375 512.523435,24.6158832 513.007812,25.0507812 C513.49219,25.4856793 513.734375,26.091142 513.734375,26.8671875 C513.734375,27.424482 513.557293,27.9387997 513.203125,28.4101562 C512.848957,28.8815128 512.263025,29.3593726 511.445312,29.84375 L514.625,32.8984375 C514.916668,32.5755192 515.149739,32.1966168 515.324219,31.7617188 C515.498699,31.3268207 515.645833,30.8515651 515.765625,30.3359375 L517.078125,30.3359375 C516.723957,31.8255283 516.190108,32.9557253 515.476562,33.7265625 L517.8125,36 L516.023438,36 L514.578125,34.609375 C513.963539,35.1614611 513.338545,35.5572905 512.703125,35.796875 C512.067705,36.0364595 511.359379,36.15625 510.578125,36.15625 C509.458328,36.15625 508.589847,35.8802111 507.972656,35.328125 C507.355466,34.7760389 507.046875,34.0130257 507.046875,33.0390625 Z M528.59375,30.015625 L532.476562,30.015625 L532.476562,35.5703125 C531.872393,35.7630218 531.257816,35.9088537 530.632812,36.0078125 C530.007809,36.1067713 529.283858,36.15625 528.460938,36.15625 C526.731762,36.15625 525.385421,35.6419322 524.421875,34.6132812 C523.458329,33.5846303 522.976562,32.1432384 522.976562,30.2890625 C522.976562,29.1015566 523.214841,28.0612024 523.691406,27.1679688 C524.167971,26.2747351 524.854162,25.5924503 525.75,25.1210938 C526.645838,24.6497372 527.695306,24.4140625 528.898438,24.4140625 C530.117194,24.4140625 531.252599,24.6380186 532.304688,25.0859375 L531.789062,26.2578125 C530.757807,25.8203103 529.76563,25.6015625 528.8125,25.6015625 C527.421868,25.6015625 526.335941,26.0156209 525.554688,26.84375 C524.773434,27.6718791 524.382812,28.8203052 524.382812,30.2890625 C524.382812,31.8307369 524.759111,32.999996 525.511719,33.796875 C526.264327,34.593754 527.369784,34.9921875 528.828125,34.9921875 C529.619796,34.9921875 530.393225,34.9010426 531.148438,34.71875 L531.148438,31.203125 L528.59375,31.203125 L528.59375,30.015625 Z M538.640625,36.15625 C537.374994,36.15625 536.376306,35.7708372 535.644531,35 C534.912757,34.2291628 534.546875,33.158861 534.546875,31.7890625 C534.546875,30.4088473 534.886715,29.3125041 535.566406,28.5 C536.246097,27.6874959 537.158848,27.28125 538.304688,27.28125 C539.37761,27.28125 540.226559,27.6341111 540.851562,28.3398438 C541.476566,29.0455764 541.789062,29.9765567 541.789062,31.1328125 L541.789062,31.953125 L535.890625,31.953125 C535.916667,32.9583384 536.170571,33.7213516 536.652344,34.2421875 C537.134117,34.7630234 537.812496,35.0234375 538.6875,35.0234375 C539.60938,35.0234375 540.520829,34.8307311 541.421875,34.4453125 L541.421875,35.6015625 C540.963539,35.7994802 540.52995,35.9414058 540.121094,36.0273438 C539.712238,36.1132817 539.218753,36.15625 538.640625,36.15625 Z M538.289062,28.3671875 C537.601559,28.3671875 537.053387,28.5911436 536.644531,29.0390625 C536.235675,29.4869814 535.994792,30.1067669 535.921875,30.8984375 L540.398438,30.8984375 C540.398438,30.0807251 540.216148,29.4544293 539.851562,29.0195312 C539.486977,28.5846332 538.966149,28.3671875 538.289062,28.3671875 Z M546.765625,35.0859375 C546.994793,35.0859375 547.216145,35.0690106 547.429688,35.0351562 C547.64323,35.0013019 547.812499,34.966146 547.9375,34.9296875 L547.9375,35.921875 C547.796874,35.9895837 547.589845,36.0455727 547.316406,36.0898438 C547.042967,36.1341148 546.796876,36.15625 546.578125,36.15625 C544.921867,36.15625 544.09375,35.2838629 544.09375,33.5390625 L544.09375,28.4453125 L542.867188,28.4453125 L542.867188,27.8203125 L544.09375,27.28125 L544.640625,25.453125 L545.390625,25.453125 L545.390625,27.4375 L547.875,27.4375 L547.875,28.4453125 L545.390625,28.4453125 L545.390625,33.484375 C545.390625,34.0000026 545.51302,34.395832 545.757812,34.671875 C546.002605,34.947918 546.33854,35.0859375 546.765625,35.0859375 Z M554,36 L554,24.578125 L555.328125,24.578125 L555.328125,34.796875 L560.367188,34.796875 L560.367188,36 L554,36 Z M563.40625,36 L562.109375,36 L562.109375,27.4375 L563.40625,27.4375 L563.40625,36 Z M562,25.1171875 C562,24.820311 562.072916,24.6028653 562.21875,24.4648438 C562.364584,24.3268222 562.546874,24.2578125 562.765625,24.2578125 C562.973959,24.2578125 563.153645,24.3281243 563.304688,24.46875 C563.45573,24.6093757 563.53125,24.8255194 563.53125,25.1171875 C563.53125,25.4088556 563.45573,25.6263014 563.304688,25.7695312 C563.153645,25.9127611 562.973959,25.984375 562.765625,25.984375 C562.546874,25.984375 562.364584,25.9127611 562.21875,25.7695312 C562.072916,25.6263014 562,25.4088556 562,25.1171875 Z M570.015625,28.4453125 L567.835938,28.4453125 L567.835938,36 L566.539062,36 L566.539062,28.4453125 L565.007812,28.4453125 L565.007812,27.859375 L566.539062,27.390625 L566.539062,26.9140625 C566.539062,24.8098853 567.458324,23.7578125 569.296875,23.7578125 C569.750002,23.7578125 570.281247,23.8489574 570.890625,24.03125 L570.554688,25.0703125 C570.054685,24.9088534 569.627606,24.828125 569.273438,24.828125 C568.783852,24.828125 568.421876,24.9908838 568.1875,25.3164062 C567.953124,25.6419287 567.835938,26.1640589 567.835938,26.8828125 L567.835938,27.4375 L570.015625,27.4375 L570.015625,28.4453125 Z M575.195312,36.15625 C573.929681,36.15625 572.930993,35.7708372 572.199219,35 C571.467444,34.2291628 571.101562,33.158861 571.101562,31.7890625 C571.101562,30.4088473 571.441403,29.3125041 572.121094,28.5 C572.800785,27.6874959 573.713536,27.28125 574.859375,27.28125 C575.932297,27.28125 576.781247,27.6341111 577.40625,28.3398438 C578.031253,29.0455764 578.34375,29.9765567 578.34375,31.1328125 L578.34375,31.953125 L572.445312,31.953125 C572.471354,32.9583384 572.725258,33.7213516 573.207031,34.2421875 C573.688804,34.7630234 574.367183,35.0234375 575.242188,35.0234375 C576.164067,35.0234375 577.075516,34.8307311 577.976562,34.4453125 L577.976562,35.6015625 C577.518227,35.7994802 577.084637,35.9414058 576.675781,36.0273438 C576.266925,36.1132817 575.77344,36.15625 575.195312,36.15625 Z M574.84375,28.3671875 C574.156247,28.3671875 573.608075,28.5911436 573.199219,29.0390625 C572.790363,29.4869814 572.54948,30.1067669 572.476562,30.8984375 L576.953125,30.8984375 C576.953125,30.0807251 576.770835,29.4544293 576.40625,29.0195312 C576.041665,28.5846332 575.520837,28.3671875 574.84375,28.3671875 Z M583.320312,35.0859375 C583.54948,35.0859375 583.770832,35.0690106 583.984375,35.0351562 C584.197918,35.0013019 584.367187,34.966146 584.492188,34.9296875 L584.492188,35.921875 C584.351562,35.9895837 584.144533,36.0455727 583.871094,36.0898438 C583.597655,36.1341148 583.351564,36.15625 583.132812,36.15625 C581.476554,36.15625 580.648438,35.2838629 580.648438,33.5390625 L580.648438,28.4453125 L579.421875,28.4453125 L579.421875,27.8203125 L580.648438,27.28125 L581.195312,25.453125 L581.945312,25.453125 L581.945312,27.4375 L584.429688,27.4375 L584.429688,28.4453125 L581.945312,28.4453125 L581.945312,33.484375 C581.945312,34.0000026 582.067707,34.395832 582.3125,34.671875 C582.557293,34.947918 582.893227,35.0859375 583.320312,35.0859375 Z M587.5,36 L586.203125,36 L586.203125,27.4375 L587.5,27.4375 L587.5,36 Z M586.09375,25.1171875 C586.09375,24.820311 586.166666,24.6028653 586.3125,24.4648438 C586.458334,24.3268222 586.640624,24.2578125 586.859375,24.2578125 C587.067709,24.2578125 587.247395,24.3281243 587.398438,24.46875 C587.54948,24.6093757 587.625,24.8255194 587.625,25.1171875 C587.625,25.4088556 587.54948,25.6263014 587.398438,25.7695312 C587.247395,25.9127611 587.067709,25.984375 586.859375,25.984375 C586.640624,25.984375 586.458334,25.9127611 586.3125,25.7695312 C586.166666,25.6263014 586.09375,25.4088556 586.09375,25.1171875 Z M601.164062,36 L601.164062,30.4296875 C601.164062,29.7473924 601.018231,29.2356788 600.726562,28.8945312 C600.434894,28.5533837 599.981774,28.3828125 599.367188,28.3828125 C598.559892,28.3828125 597.963544,28.614581 597.578125,29.078125 C597.192706,29.541669 597,30.2552035 597,31.21875 L597,36 L595.703125,36 L595.703125,30.4296875 C595.703125,29.7473924 595.557293,29.2356788 595.265625,28.8945312 C594.973957,28.5533837 594.518232,28.3828125 593.898438,28.3828125 C593.085933,28.3828125 592.490887,28.6262996 592.113281,29.1132812 C591.735675,29.6002629 591.546875,30.398432 591.546875,31.5078125 L591.546875,36 L590.25,36 L590.25,27.4375 L591.304688,27.4375 L591.515625,28.609375 L591.578125,28.609375 C591.822918,28.1927063 592.167967,27.8671887 592.613281,27.6328125 C593.058596,27.3984363 593.557289,27.28125 594.109375,27.28125 C595.447923,27.28125 596.322915,27.7656202 596.734375,28.734375 L596.796875,28.734375 C597.052085,28.2864561 597.421873,27.932293 597.90625,27.671875 C598.390627,27.411457 598.942705,27.28125 599.5625,27.28125 C600.531255,27.28125 601.256508,27.5299454 601.738281,28.0273438 C602.220054,28.5247421 602.460938,29.320307 602.460938,30.4140625 L602.460938,36 L601.164062,36 Z M608.75,36.15625 C607.484369,36.15625 606.485681,35.7708372 605.753906,35 C605.022132,34.2291628 604.65625,33.158861 604.65625,31.7890625 C604.65625,30.4088473 604.99609,29.3125041 605.675781,28.5 C606.355472,27.6874959 607.268223,27.28125 608.414062,27.28125 C609.486985,27.28125 610.335934,27.6341111 610.960938,28.3398438 C611.585941,29.0455764 611.898438,29.9765567 611.898438,31.1328125 L611.898438,31.953125 L606,31.953125 C606.026042,32.9583384 606.279946,33.7213516 606.761719,34.2421875 C607.243492,34.7630234 607.921871,35.0234375 608.796875,35.0234375 C609.718755,35.0234375 610.630204,34.8307311 611.53125,34.4453125 L611.53125,35.6015625 C611.072914,35.7994802 610.639325,35.9414058 610.230469,36.0273438 C609.821613,36.1132817 609.328128,36.15625 608.75,36.15625 Z M608.398438,28.3671875 C607.710934,28.3671875 607.162762,28.5911436 606.753906,29.0390625 C606.34505,29.4869814 606.104167,30.1067669 606.03125,30.8984375 L610.507812,30.8984375 C610.507812,30.0807251 610.325523,29.4544293 609.960938,29.0195312 C609.596352,28.5846332 609.075524,28.3671875 608.398438,28.3671875 Z M627.085938,24.578125 L627.085938,31.96875 C627.085938,33.2708398 626.692712,34.2942671 625.90625,35.0390625 C625.119788,35.7838579 624.039069,36.15625 622.664062,36.15625 C621.289056,36.15625 620.225264,35.7812537 619.472656,35.03125 C618.720048,34.2812462 618.34375,33.2500066 618.34375,31.9375 L618.34375,24.578125 L619.671875,24.578125 L619.671875,32.03125 C619.671875,32.9843798 619.932289,33.7161433 620.453125,34.2265625 C620.973961,34.7369817 621.739578,34.9921875 622.75,34.9921875 C623.713546,34.9921875 624.455727,34.7356796 624.976562,34.2226562 C625.497398,33.7096329 625.757812,32.9739631 625.757812,32.015625 L625.757812,24.578125 L627.085938,24.578125 Z M635.773438,36 L635.773438,30.4609375 C635.773438,29.7630173 635.614585,29.2421892 635.296875,28.8984375 C634.979165,28.5546858 634.481774,28.3828125 633.804688,28.3828125 C632.90885,28.3828125 632.252606,28.6249976 631.835938,29.109375 C631.419269,29.5937524 631.210938,30.3932236 631.210938,31.5078125 L631.210938,36 L629.914062,36 L629.914062,27.4375 L630.96875,27.4375 L631.179688,28.609375 L631.242188,28.609375 C631.507814,28.1874979 631.880206,27.8606782 632.359375,27.6289062 C632.838544,27.3971343 633.372393,27.28125 633.960938,27.28125 C634.992193,27.28125 635.768227,27.5299454 636.289062,28.0273438 C636.809898,28.5247421 637.070312,29.320307 637.070312,30.4140625 L637.070312,36 L635.773438,36 Z M641.03125,36 L639.734375,36 L639.734375,23.84375 L641.03125,23.84375 L641.03125,36 Z M645.078125,36 L643.78125,36 L643.78125,27.4375 L645.078125,27.4375 L645.078125,36 Z M643.671875,25.1171875 C643.671875,24.820311 643.744791,24.6028653 643.890625,24.4648438 C644.036459,24.3268222 644.218749,24.2578125 644.4375,24.2578125 C644.645834,24.2578125 644.82552,24.3281243 644.976562,24.46875 C645.127605,24.6093757 645.203125,24.8255194 645.203125,25.1171875 C645.203125,25.4088556 645.127605,25.6263014 644.976562,25.7695312 C644.82552,25.9127611 644.645834,25.984375 644.4375,25.984375 C644.218749,25.984375 644.036459,25.9127611 643.890625,25.7695312 C643.744791,25.6263014 643.671875,25.4088556 643.671875,25.1171875 Z M658.742188,36 L658.742188,30.4296875 C658.742188,29.7473924 658.596356,29.2356788 658.304688,28.8945312 C658.013019,28.5533837 657.559899,28.3828125 656.945312,28.3828125 C656.138017,28.3828125 655.541669,28.614581 655.15625,29.078125 C654.770831,29.541669 654.578125,30.2552035 654.578125,31.21875 L654.578125,36 L653.28125,36 L653.28125,30.4296875 C653.28125,29.7473924 653.135418,29.2356788 652.84375,28.8945312 C652.552082,28.5533837 652.096357,28.3828125 651.476562,28.3828125 C650.664058,28.3828125 650.069012,28.6262996 649.691406,29.1132812 C649.3138,29.6002629 649.125,30.398432 649.125,31.5078125 L649.125,36 L647.828125,36 L647.828125,27.4375 L648.882812,27.4375 L649.09375,28.609375 L649.15625,28.609375 C649.401043,28.1927063 649.746092,27.8671887 650.191406,27.6328125 C650.636721,27.3984363 651.135414,27.28125 651.6875,27.28125 C653.026048,27.28125 653.90104,27.7656202 654.3125,28.734375 L654.375,28.734375 C654.63021,28.2864561 654.999998,27.932293 655.484375,27.671875 C655.968752,27.411457 656.52083,27.28125 657.140625,27.28125 C658.10938,27.28125 658.834633,27.5299454 659.316406,28.0273438 C659.798179,28.5247421 660.039062,29.320307 660.039062,30.4140625 L660.039062,36 L658.742188,36 Z M664.007812,36 L662.710938,36 L662.710938,27.4375 L664.007812,27.4375 L664.007812,36 Z M662.601562,25.1171875 C662.601562,24.820311 662.674478,24.6028653 662.820312,24.4648438 C662.966147,24.3268222 663.148436,24.2578125 663.367188,24.2578125 C663.575522,24.2578125 663.755208,24.3281243 663.90625,24.46875 C664.057292,24.6093757 664.132812,24.8255194 664.132812,25.1171875 C664.132812,25.4088556 664.057292,25.6263014 663.90625,25.7695312 C663.755208,25.9127611 663.575522,25.984375 663.367188,25.984375 C663.148436,25.984375 662.966147,25.9127611 662.820312,25.7695312 C662.674478,25.6263014 662.601562,25.4088556 662.601562,25.1171875 Z M669.523438,35.0859375 C669.752605,35.0859375 669.973957,35.0690106 670.1875,35.0351562 C670.401043,35.0013019 670.570312,34.966146 670.695312,34.9296875 L670.695312,35.921875 C670.554687,35.9895837 670.347658,36.0455727 670.074219,36.0898438 C669.80078,36.1341148 669.554689,36.15625 669.335938,36.15625 C667.679679,36.15625 666.851562,35.2838629 666.851562,33.5390625 L666.851562,28.4453125 L665.625,28.4453125 L665.625,27.8203125 L666.851562,27.28125 L667.398438,25.453125 L668.148438,25.453125 L668.148438,27.4375 L670.632812,27.4375 L670.632812,28.4453125 L668.148438,28.4453125 L668.148438,33.484375 C668.148438,34.0000026 668.270832,34.395832 668.515625,34.671875 C668.760418,34.947918 669.096352,35.0859375 669.523438,35.0859375 Z M676.023438,36.15625 C674.757806,36.15625 673.759118,35.7708372 673.027344,35 C672.295569,34.2291628 671.929688,33.158861 671.929688,31.7890625 C671.929688,30.4088473 672.269528,29.3125041 672.949219,28.5 C673.62891,27.6874959 674.541661,27.28125 675.6875,27.28125 C676.760422,27.28125 677.609372,27.6341111 678.234375,28.3398438 C678.859378,29.0455764 679.171875,29.9765567 679.171875,31.1328125 L679.171875,31.953125 L673.273438,31.953125 C673.299479,32.9583384 673.553383,33.7213516 674.035156,34.2421875 C674.516929,34.7630234 675.195308,35.0234375 676.070312,35.0234375 C676.992192,35.0234375 677.903641,34.8307311 678.804688,34.4453125 L678.804688,35.6015625 C678.346352,35.7994802 677.912762,35.9414058 677.503906,36.0273438 C677.09505,36.1132817 676.601565,36.15625 676.023438,36.15625 Z M675.671875,28.3671875 C674.984372,28.3671875 674.4362,28.5911436 674.027344,29.0390625 C673.618488,29.4869814 673.377605,30.1067669 673.304688,30.8984375 L677.78125,30.8984375 C677.78125,30.0807251 677.59896,29.4544293 677.234375,29.0195312 C676.86979,28.5846332 676.348962,28.3671875 675.671875,28.3671875 Z M687.210938,34.8515625 L687.140625,34.8515625 C686.541664,35.7213585 685.645839,36.15625 684.453125,36.15625 C683.333328,36.15625 682.462243,35.7734413 681.839844,35.0078125 C681.217445,34.2421837 680.90625,33.1536529 680.90625,31.7421875 C680.90625,30.3307221 681.218747,29.2343789 681.84375,28.453125 C682.468753,27.6718711 683.338536,27.28125 684.453125,27.28125 C685.614589,27.28125 686.505205,27.7031208 687.125,28.546875 L687.226562,28.546875 L687.171875,27.9296875 L687.140625,27.328125 L687.140625,23.84375 L688.4375,23.84375 L688.4375,36 L687.382812,36 L687.210938,34.8515625 Z M684.617188,35.0703125 C685.502609,35.0703125 686.144529,34.8294295 686.542969,34.3476562 C686.941408,33.865883 687.140625,33.088547 687.140625,32.015625 L687.140625,31.7421875 C687.140625,30.5286398 686.938804,29.662763 686.535156,29.1445312 C686.131508,28.6262995 685.486984,28.3671875 684.601562,28.3671875 C683.841142,28.3671875 683.259117,28.6627575 682.855469,29.2539062 C682.451821,29.845055 682.25,30.6796821 682.25,31.7578125 C682.25,32.851568 682.450519,33.6770805 682.851562,34.234375 C683.252606,34.7916695 683.841142,35.0703125 684.617188,35.0703125 Z M702.734375,31.7109375 C702.734375,33.1067778 702.382816,34.1966107 701.679688,34.9804688 C700.976559,35.7643268 700.005215,36.15625 698.765625,36.15625 C697.999996,36.15625 697.320315,35.9765643 696.726562,35.6171875 C696.13281,35.2578107 695.674481,34.7421909 695.351562,34.0703125 C695.028644,33.3984341 694.867188,32.6119837 694.867188,31.7109375 C694.867188,30.3150972 695.216142,29.2278685 695.914062,28.4492188 C696.611983,27.670569 697.580723,27.28125 698.820312,27.28125 C700.018235,27.28125 700.970049,27.6796835 701.675781,28.4765625 C702.381514,29.2734415 702.734375,30.3515557 702.734375,31.7109375 Z M696.210938,31.7109375 C696.210938,32.804693 696.429685,33.638018 696.867188,34.2109375 C697.30469,34.783857 697.947912,35.0703125 698.796875,35.0703125 C699.645838,35.0703125 700.290362,34.7851591 700.730469,34.2148438 C701.170575,33.6445284 701.390625,32.8099013 701.390625,31.7109375 C701.390625,30.6223904 701.170575,29.7955757 700.730469,29.2304688 C700.290362,28.6653618 699.640629,28.3828125 698.78125,28.3828125 C697.932287,28.3828125 697.291669,28.6614555 696.859375,29.21875 C696.427081,29.7760445 696.210938,30.6067653 696.210938,31.7109375 Z M708.867188,28.4453125 L706.6875,28.4453125 L706.6875,36 L705.390625,36 L705.390625,28.4453125 L703.859375,28.4453125 L703.859375,27.859375 L705.390625,27.390625 L705.390625,26.9140625 C705.390625,24.8098853 706.309887,23.7578125 708.148438,23.7578125 C708.601565,23.7578125 709.132809,23.8489574 709.742188,24.03125 L709.40625,25.0703125 C708.906248,24.9088534 708.479168,24.828125 708.125,24.828125 C707.635414,24.828125 707.273439,24.9908838 707.039062,25.3164062 C706.804686,25.6419287 706.6875,26.1640589 706.6875,26.8828125 L706.6875,27.4375 L708.867188,27.4375 L708.867188,28.4453125 Z M717.03125,36 L714.648438,36 L714.648438,24.578125 L721.195312,24.578125 L721.195312,26.5625 L717.03125,26.5625 L717.03125,29.5078125 L720.90625,29.5078125 L720.90625,31.484375 L717.03125,31.484375 L717.03125,36 Z M725.140625,31.6171875 C725.140625,32.4817752 725.282551,33.1354145 725.566406,33.578125 C725.850262,34.0208355 726.312497,34.2421875 726.953125,34.2421875 C727.588545,34.2421875 728.045572,34.0221376 728.324219,33.5820312 C728.602866,33.1419249 728.742188,32.4869835 728.742188,31.6171875 C728.742188,30.7525998 728.601564,30.1041688 728.320312,29.671875 C728.039061,29.2395812 727.578128,29.0234375 726.9375,29.0234375 C726.30208,29.0234375 725.843751,29.2382791 725.5625,29.6679688 C725.281249,30.0976584 725.140625,30.7473915 725.140625,31.6171875 Z M731.179688,31.6171875 C731.179688,33.0390696 730.804691,34.1510377 730.054688,34.953125 C729.304684,35.7552123 728.260423,36.15625 726.921875,36.15625 C726.083329,36.15625 725.343753,35.9726581 724.703125,35.6054688 C724.062497,35.2382794 723.570314,34.7109409 723.226562,34.0234375 C722.882811,33.3359341 722.710938,32.5338588 722.710938,31.6171875 C722.710938,30.190097 723.08333,29.0807331 723.828125,28.2890625 C724.57292,27.4973919 725.619785,27.1015625 726.96875,27.1015625 C727.807296,27.1015625 728.546872,27.2838523 729.1875,27.6484375 C729.828128,28.0130227 730.320311,28.5364549 730.664062,29.21875 C731.007814,29.9010451 731.179688,30.7005162 731.179688,31.6171875 Z M740.96875,36 L738.585938,36 L738.585938,30.8984375 C738.585938,30.268226 738.48047,29.7955745 738.269531,29.4804688 C738.058593,29.165363 737.726565,29.0078125 737.273438,29.0078125 C736.664059,29.0078125 736.221356,29.2317686 735.945312,29.6796875 C735.669269,30.1276064 735.53125,30.8645782 735.53125,31.890625 L735.53125,36 L733.148438,36 L733.148438,27.265625 L734.96875,27.265625 L735.289062,28.3828125 L735.421875,28.3828125 C735.656251,27.9817688 735.994789,27.6679699 736.4375,27.4414062 C736.880211,27.2148426 737.388018,27.1015625 737.960938,27.1015625 C739.268236,27.1015625 740.153644,27.5286416 740.617188,28.3828125 L740.828125,28.3828125 C741.062501,27.9765605 741.40755,27.6614595 741.863281,27.4375 C742.319013,27.2135405 742.83333,27.1015625 743.40625,27.1015625 C744.395838,27.1015625 745.144529,27.3554662 745.652344,27.8632812 C746.160159,28.3710963 746.414062,29.1848902 746.414062,30.3046875 L746.414062,36 L744.023438,36 L744.023438,30.8984375 C744.023438,30.268226 743.91797,29.7955745 743.707031,29.4804688 C743.496093,29.165363 743.164065,29.0078125 742.710938,29.0078125 C742.127601,29.0078125 741.691408,29.2161438 741.402344,29.6328125 C741.11328,30.0494812 740.96875,30.710933 740.96875,31.6171875 L740.96875,36 Z M750.757812,31.6171875 C750.757812,32.4817752 750.899738,33.1354145 751.183594,33.578125 C751.467449,34.0208355 751.929684,34.2421875 752.570312,34.2421875 C753.205732,34.2421875 753.662759,34.0221376 753.941406,33.5820312 C754.220053,33.1419249 754.359375,32.4869835 754.359375,31.6171875 C754.359375,30.7525998 754.218751,30.1041688 753.9375,29.671875 C753.656249,29.2395812 753.195316,29.0234375 752.554688,29.0234375 C751.919268,29.0234375 751.460939,29.2382791 751.179688,29.6679688 C750.898436,30.0976584 750.757812,30.7473915 750.757812,31.6171875 Z M756.796875,31.6171875 C756.796875,33.0390696 756.421879,34.1510377 755.671875,34.953125 C754.921871,35.7552123 753.877611,36.15625 752.539062,36.15625 C751.700517,36.15625 750.960941,35.9726581 750.320312,35.6054688 C749.679684,35.2382794 749.187502,34.7109409 748.84375,34.0234375 C748.499998,33.3359341 748.328125,32.5338588 748.328125,31.6171875 C748.328125,30.190097 748.700517,29.0807331 749.445312,28.2890625 C750.190108,27.4973919 751.236972,27.1015625 752.585938,27.1015625 C753.424483,27.1015625 754.164059,27.2838523 754.804688,27.6484375 C755.445316,28.0130227 755.937498,28.5364549 756.28125,29.21875 C756.625002,29.9010451 756.796875,30.7005162 756.796875,31.6171875 Z M761.375,29.953125 L762.171875,29.953125 C762.91667,29.953125 763.473956,29.8059911 763.84375,29.5117188 C764.213544,29.2174464 764.398438,28.7890653 764.398438,28.2265625 C764.398438,27.6588513 764.243491,27.2395847 763.933594,26.96875 C763.623696,26.6979153 763.138024,26.5625 762.476562,26.5625 L761.375,26.5625 L761.375,29.953125 Z M766.84375,28.140625 C766.84375,29.3697978 766.459639,30.3098926 765.691406,30.9609375 C764.923173,31.6119824 763.830736,31.9375 762.414062,31.9375 L761.375,31.9375 L761.375,36 L758.953125,36 L758.953125,24.578125 L762.601562,24.578125 C763.986986,24.578125 765.040361,24.8762991 765.761719,25.4726562 C766.483077,26.0690134 766.84375,26.9583274 766.84375,28.140625 Z M773.6875,27.1015625 C774.010418,27.1015625 774.278645,27.1249998 774.492188,27.171875 L774.3125,29.40625 C774.119791,29.3541664 773.885418,29.328125 773.609375,29.328125 C772.848955,29.328125 772.256513,29.5234355 771.832031,29.9140625 C771.40755,30.3046895 771.195312,30.851559 771.195312,31.5546875 L771.195312,36 L768.8125,36 L768.8125,27.265625 L770.617188,27.265625 L770.96875,28.734375 L771.085938,28.734375 C771.356772,28.2447892 771.722654,27.8502619 772.183594,27.5507812 C772.644534,27.2513006 773.145831,27.1015625 773.6875,27.1015625 Z M779.375,28.796875 C778.869789,28.796875 778.47396,28.9570296 778.1875,29.2773438 C777.90104,29.5976579 777.736979,30.0520804 777.695312,30.640625 L781.039062,30.640625 C781.028646,30.0520804 780.875001,29.5976579 780.578125,29.2773438 C780.281249,28.9570296 779.880211,28.796875 779.375,28.796875 Z M779.710938,36.15625 C778.30468,36.15625 777.205733,35.768233 776.414062,34.9921875 C775.622392,34.216142 775.226562,33.1171946 775.226562,31.6953125 C775.226562,30.2317635 775.592444,29.1002644 776.324219,28.3007812 C777.055993,27.5012981 778.067702,27.1015625 779.359375,27.1015625 C780.593756,27.1015625 781.554684,27.4531215 782.242188,28.15625 C782.929691,28.8593785 783.273438,29.830723 783.273438,31.0703125 L783.273438,32.2265625 L777.640625,32.2265625 C777.666667,32.9036492 777.867186,33.4322898 778.242188,33.8125 C778.617189,34.1927102 779.143226,34.3828125 779.820312,34.3828125 C780.346357,34.3828125 780.843748,34.3281255 781.3125,34.21875 C781.781252,34.1093745 782.270831,33.934897 782.78125,33.6953125 L782.78125,35.5390625 C782.364581,35.7473969 781.919273,35.9023432 781.445312,36.0039062 C780.971352,36.1054693 780.393233,36.15625 779.710938,36.15625 Z M791.304688,33.40625 C791.304688,34.3020878 790.993493,34.9843727 790.371094,35.453125 C789.748695,35.9218773 788.817715,36.15625 787.578125,36.15625 C786.942705,36.15625 786.401044,36.1132817 785.953125,36.0273438 C785.505206,35.9414058 785.085939,35.815105 784.695312,35.6484375 L784.695312,33.6796875 C785.138023,33.8880219 785.636716,34.0624993 786.191406,34.203125 C786.746097,34.3437507 787.234373,34.4140625 787.65625,34.4140625 C788.520838,34.4140625 788.953125,34.164065 788.953125,33.6640625 C788.953125,33.4765616 788.895834,33.3242193 788.78125,33.2070312 C788.666666,33.0898432 788.468751,32.957032 788.1875,32.8085938 C787.906249,32.6601555 787.531252,32.4869802 787.0625,32.2890625 C786.390622,32.0078111 785.897137,31.747397 785.582031,31.5078125 C785.266926,31.268228 785.037761,30.9934911 784.894531,30.6835938 C784.751301,30.3736964 784.679688,29.9921898 784.679688,29.5390625 C784.679688,28.763017 784.980466,28.1627625 785.582031,27.7382812 C786.183597,27.3138 787.036453,27.1015625 788.140625,27.1015625 C789.192714,27.1015625 790.216141,27.3307269 791.210938,27.7890625 L790.492188,29.5078125 C790.054685,29.3203116 789.645835,29.1666673 789.265625,29.046875 C788.885415,28.9270827 788.497398,28.8671875 788.101562,28.8671875 C787.398434,28.8671875 787.046875,29.0572898 787.046875,29.4375 C787.046875,29.6510427 787.160155,29.8359367 787.386719,29.9921875 C787.613282,30.1484383 788.109371,30.3802068 788.875,30.6875 C789.557295,30.963543 790.05729,31.221353 790.375,31.4609375 C790.69271,31.700522 790.927083,31.9765609 791.078125,32.2890625 C791.229167,32.6015641 791.304688,32.9739562 791.304688,33.40625 Z M799.257812,33.40625 C799.257812,34.3020878 798.946618,34.9843727 798.324219,35.453125 C797.70182,35.9218773 796.77084,36.15625 795.53125,36.15625 C794.89583,36.15625 794.354169,36.1132817 793.90625,36.0273438 C793.458331,35.9414058 793.039064,35.815105 792.648438,35.6484375 L792.648438,33.6796875 C793.091148,33.8880219 793.589841,34.0624993 794.144531,34.203125 C794.699222,34.3437507 795.187498,34.4140625 795.609375,34.4140625 C796.473963,34.4140625 796.90625,34.164065 796.90625,33.6640625 C796.90625,33.4765616 796.848959,33.3242193 796.734375,33.2070312 C796.619791,33.0898432 796.421876,32.957032 796.140625,32.8085938 C795.859374,32.6601555 795.484377,32.4869802 795.015625,32.2890625 C794.343747,32.0078111 793.850262,31.747397 793.535156,31.5078125 C793.220051,31.268228 792.990886,30.9934911 792.847656,30.6835938 C792.704426,30.3736964 792.632812,29.9921898 792.632812,29.5390625 C792.632812,28.763017 792.933591,28.1627625 793.535156,27.7382812 C794.136722,27.3138 794.989578,27.1015625 796.09375,27.1015625 C797.145839,27.1015625 798.169266,27.3307269 799.164062,27.7890625 L798.445312,29.5078125 C798.00781,29.3203116 797.59896,29.1666673 797.21875,29.046875 C796.83854,28.9270827 796.450523,28.8671875 796.054688,28.8671875 C795.351559,28.8671875 795,29.0572898 795,29.4375 C795,29.6510427 795.11328,29.8359367 795.339844,29.9921875 C795.566407,30.1484383 796.062496,30.3802068 796.828125,30.6875 C797.51042,30.963543 798.010415,31.221353 798.328125,31.4609375 C798.645835,31.700522 798.880208,31.9765609 799.03125,32.2890625 C799.182292,32.6015641 799.257812,32.9739562 799.257812,33.40625 Z M809.257812,28.4453125 L807.078125,28.4453125 L807.078125,36 L805.78125,36 L805.78125,28.4453125 L804.25,28.4453125 L804.25,27.859375 L805.78125,27.390625 L805.78125,26.9140625 C805.78125,24.8098853 806.700512,23.7578125 808.539062,23.7578125 C808.99219,23.7578125 809.523434,23.8489574 810.132812,24.03125 L809.796875,25.0703125 C809.296873,24.9088534 808.869793,24.828125 808.515625,24.828125 C808.026039,24.828125 807.664064,24.9908838 807.429688,25.3164062 C807.195311,25.6419287 807.078125,26.1640589 807.078125,26.8828125 L807.078125,27.4375 L809.257812,27.4375 L809.257812,28.4453125 Z M818.210938,31.7109375 C818.210938,33.1067778 817.859379,34.1966107 817.15625,34.9804688 C816.453121,35.7643268 815.481777,36.15625 814.242188,36.15625 C813.476559,36.15625 812.796878,35.9765643 812.203125,35.6171875 C811.609372,35.2578107 811.151043,34.7421909 810.828125,34.0703125 C810.505207,33.3984341 810.34375,32.6119837 810.34375,31.7109375 C810.34375,30.3150972 810.692705,29.2278685 811.390625,28.4492188 C812.088545,27.670569 813.057285,27.28125 814.296875,27.28125 C815.494798,27.28125 816.446611,27.6796835 817.152344,28.4765625 C817.858076,29.2734415 818.210938,30.3515557 818.210938,31.7109375 Z M811.6875,31.7109375 C811.6875,32.804693 811.906248,33.638018 812.34375,34.2109375 C812.781252,34.783857 813.424475,35.0703125 814.273438,35.0703125 C815.1224,35.0703125 815.766925,34.7851591 816.207031,34.2148438 C816.647138,33.6445284 816.867188,32.8099013 816.867188,31.7109375 C816.867188,30.6223904 816.647138,29.7955757 816.207031,29.2304688 C815.766925,28.6653618 815.117192,28.3828125 814.257812,28.3828125 C813.40885,28.3828125 812.768231,28.6614555 812.335938,29.21875 C811.903644,29.7760445 811.6875,30.6067653 811.6875,31.7109375 Z M824.390625,27.28125 C824.770835,27.28125 825.111978,27.3124997 825.414062,27.375 L825.234375,28.578125 C824.880207,28.4999996 824.56771,28.4609375 824.296875,28.4609375 C823.604163,28.4609375 823.011721,28.7421847 822.519531,29.3046875 C822.027341,29.8671903 821.78125,30.5677041 821.78125,31.40625 L821.78125,36 L820.484375,36 L820.484375,27.4375 L821.554688,27.4375 L821.703125,29.0234375 L821.765625,29.0234375 C822.083335,28.466143 822.466144,28.0364598 822.914062,27.734375 C823.361981,27.4322902 823.854164,27.28125 824.390625,27.28125 Z M838.328125,32.4296875 C838.328125,33.2578166 838.028649,33.9231746 837.429688,34.4257812 C836.830726,34.9283879 835.992193,35.2291662 834.914062,35.328125 L834.914062,36.9296875 L833.84375,36.9296875 L833.84375,35.359375 C832.57291,35.3333332 831.458338,35.1093771 830.5,34.6875 L830.5,32.625 C830.953127,32.8489595 831.498695,33.0468741 832.136719,33.21875 C832.774743,33.3906259 833.343747,33.4921873 833.84375,33.5234375 L833.84375,31.1015625 L833.320312,30.8984375 C832.289057,30.4921855 831.558596,30.0507836 831.128906,29.5742188 C830.699217,29.0976539 830.484375,28.507816 830.484375,27.8046875 C830.484375,27.0494754 830.779945,26.4283879 831.371094,25.9414062 C831.962243,25.4544246 832.786453,25.1588547 833.84375,25.0546875 L833.84375,23.859375 L834.914062,23.859375 L834.914062,25.0234375 C836.106777,25.0755211 837.184891,25.315102 838.148438,25.7421875 L837.414062,27.5703125 C836.601558,27.2369775 835.768233,27.0338545 834.914062,26.9609375 L834.914062,29.265625 C835.929693,29.656252 836.652342,29.9947902 837.082031,30.28125 C837.511721,30.5677098 837.826822,30.8828108 838.027344,31.2265625 C838.227866,31.5703142 838.328125,31.9713519 838.328125,32.4296875 Z M835.976562,32.546875 C835.976562,32.3281239 835.888022,32.1432299 835.710938,31.9921875 C835.533853,31.8411451 835.268231,31.6848966 834.914062,31.5234375 L834.914062,33.46875 C835.622399,33.3489577 835.976562,33.0416691 835.976562,32.546875 Z M832.835938,27.8046875 C832.835938,28.0338553 832.915364,28.2226555 833.074219,28.3710938 C833.233074,28.519532 833.489582,28.6718742 833.84375,28.828125 L833.84375,26.9921875 C833.171872,27.0911463 832.835938,27.361977 832.835938,27.8046875 Z M847.507812,29.453125 C847.507812,31.7031363 847.033859,33.382807 846.085938,34.4921875 C845.138016,35.601568 843.703135,36.15625 841.78125,36.15625 C841.104163,36.15625 840.591148,36.119792 840.242188,36.046875 L840.242188,34.109375 C840.67969,34.2187505 841.138018,34.2734375 841.617188,34.2734375 C842.424483,34.2734375 843.088539,34.1549491 843.609375,33.9179688 C844.130211,33.6809884 844.528644,33.3085963 844.804688,32.8007812 C845.080731,32.2929662 845.239583,31.5937545 845.28125,30.703125 L845.1875,30.703125 C844.885415,31.1927108 844.53646,31.5364573 844.140625,31.734375 C843.74479,31.9322927 843.250003,32.03125 842.65625,32.03125 C841.661453,32.03125 840.877607,31.7122428 840.304688,31.0742188 C839.731768,30.4361947 839.445312,29.5494848 839.445312,28.4140625 C839.445312,27.190098 839.792965,26.2226598 840.488281,25.5117188 C841.183597,24.8007777 842.130202,24.4453125 843.328125,24.4453125 C844.171879,24.4453125 844.910153,24.6432272 845.542969,25.0390625 C846.175784,25.4348978 846.661457,26.0091108 847,26.7617188 C847.338543,27.5143267 847.507812,28.4114531 847.507812,29.453125 Z M843.375,26.3828125 C842.874998,26.3828125 842.484376,26.5546858 842.203125,26.8984375 C841.921874,27.2421892 841.78125,27.7369759 841.78125,28.3828125 C841.78125,28.9348986 841.908853,29.3723942 842.164062,29.6953125 C842.419272,30.0182308 842.807289,30.1796875 843.328125,30.1796875 C843.817711,30.1796875 844.236977,30.0195329 844.585938,29.6992188 C844.934898,29.3789046 845.109375,29.0104187 845.109375,28.59375 C845.109375,27.9739552 844.946616,27.450523 844.621094,27.0234375 C844.295571,26.596352 843.880211,26.3828125 843.375,26.3828125 Z M856.640625,29.453125 C856.640625,31.7031363 856.166671,33.382807 855.21875,34.4921875 C854.270829,35.601568 852.835947,36.15625 850.914062,36.15625 C850.236976,36.15625 849.72396,36.119792 849.375,36.046875 L849.375,34.109375 C849.812502,34.2187505 850.270831,34.2734375 850.75,34.2734375 C851.557296,34.2734375 852.221352,34.1549491 852.742188,33.9179688 C853.263023,33.6809884 853.661457,33.3085963 853.9375,32.8007812 C854.213543,32.2929662 854.372396,31.5937545 854.414062,30.703125 L854.320312,30.703125 C854.018228,31.1927108 853.669273,31.5364573 853.273438,31.734375 C852.877602,31.9322927 852.382815,32.03125 851.789062,32.03125 C850.794266,32.03125 850.01042,31.7122428 849.4375,31.0742188 C848.86458,30.4361947 848.578125,29.5494848 848.578125,28.4140625 C848.578125,27.190098 848.925778,26.2226598 849.621094,25.5117188 C850.31641,24.8007777 851.263015,24.4453125 852.460938,24.4453125 C853.304692,24.4453125 854.042966,24.6432272 854.675781,25.0390625 C855.308597,25.4348978 855.794269,26.0091108 856.132812,26.7617188 C856.471356,27.5143267 856.640625,28.4114531 856.640625,29.453125 Z M852.507812,26.3828125 C852.00781,26.3828125 851.617189,26.5546858 851.335938,26.8984375 C851.054686,27.2421892 850.914062,27.7369759 850.914062,28.3828125 C850.914062,28.9348986 851.041665,29.3723942 851.296875,29.6953125 C851.552085,30.0182308 851.940102,30.1796875 852.460938,30.1796875 C852.950523,30.1796875 853.36979,30.0195329 853.71875,29.6992188 C854.06771,29.3789046 854.242188,29.0104187 854.242188,28.59375 C854.242188,27.9739552 854.079429,27.450523 853.753906,27.0234375 C853.428384,26.596352 853.013023,26.3828125 852.507812,26.3828125 Z" id="Save-Big-&amp;-Get-Lifet" fill="#FFFFFF"></path>
            <g id="Countdown-Texts" transform="translate(40.000000, 12.000000)">
                <g id="Sec" transform="translate(263.000000, 0.000000)">
                    <rect id="Rectangle" fill="#510FA8" x="0" y="0" width="60" height="36" rx="3"></rect>
                    <path d="M27.1484375,27.8676758 C27.1484375,28.5659215 26.8959986,29.1137675 26.3911133,29.5112305 C25.8862279,29.9086934 25.1897831,30.1074219 24.3017578,30.1074219 C23.4137325,30.1074219 22.6868518,29.9695652 22.1210938,29.6938477 L22.1210938,28.4799805 C22.4791685,28.6482756 22.8596171,28.7807612 23.2624512,28.8774414 C23.6652852,28.9741216 24.0403628,29.0224609 24.3876953,29.0224609 C24.8961614,29.0224609 25.271239,28.9257822 25.5129395,28.7324219 C25.7546399,28.5390615 25.8754883,28.2794613 25.8754883,27.9536133 C25.8754883,27.659992 25.7644868,27.4111338 25.5424805,27.2070312 C25.3204742,27.0029287 24.8621454,26.7612319 24.1674805,26.4819336 C23.4513311,26.1918931 22.9464533,25.8606789 22.652832,25.4882812 C22.3592108,25.1158836 22.2124023,24.6682969 22.2124023,24.1455078 C22.2124023,23.4902311 22.4451474,22.9746113 22.9106445,22.5986328 C23.3761417,22.2226544 24.0009726,22.034668 24.7851562,22.034668 C25.5371131,22.034668 26.285478,22.1993799 27.0302734,22.5288086 L26.6220703,23.5761719 C25.9238246,23.2825506 25.300784,23.1357422 24.7529297,23.1357422 C24.337563,23.1357422 24.022462,23.2261547 23.8076172,23.4069824 C23.5927724,23.5878101 23.4853516,23.8268214 23.4853516,24.1240234 C23.4853516,24.328126 23.5283199,24.5026848 23.6142578,24.6477051 C23.7001957,24.7927253 23.8416331,24.9296869 24.0385742,25.0585938 C24.2355153,25.1875006 24.590004,25.3575836 25.1020508,25.5688477 C25.6785511,25.8087577 26.1010729,26.032551 26.3696289,26.2402344 C26.6381849,26.4479177 26.8351231,26.6824531 26.9604492,26.9438477 C27.0857754,27.2052422 27.1484375,27.5131818 27.1484375,27.8676758 Z M31.128418,30.1074219 C30.2045852,30.1074219 29.4821803,29.8379747 28.9611816,29.2990723 C28.4401829,28.7601698 28.1796875,28.0180711 28.1796875,27.0727539 C28.1796875,26.1023715 28.4213843,25.3396838 28.9047852,24.784668 C29.388186,24.2296522 30.0524046,23.9521484 30.8974609,23.9521484 C31.6816445,23.9521484 32.3011045,24.1902645 32.7558594,24.6665039 C33.2106143,25.1427433 33.4379883,25.7980102 33.4379883,26.6323242 L33.4379883,27.3144531 L29.4794922,27.3144531 C29.4973959,27.8909534 29.6531561,28.3340642 29.9467773,28.6437988 C30.2403986,28.9535334 30.6539687,29.1083984 31.1875,29.1083984 C31.5384132,29.1083984 31.8651515,29.075277 32.1677246,29.0090332 C32.4702977,28.9427894 32.7952457,28.8326831 33.1425781,28.6787109 L33.1425781,29.7045898 C32.8346339,29.8514005 32.5231136,29.9552406 32.2080078,30.0161133 C31.8929021,30.076986 31.5330424,30.1074219 31.128418,30.1074219 Z M30.8974609,24.9082031 C30.4964173,24.9082031 30.17505,25.0353177 29.9333496,25.2895508 C29.6916492,25.5437838 29.5475263,25.9143856 29.5009766,26.4013672 L32.1972656,26.4013672 C32.1901041,25.9108048 32.0719413,25.5393079 31.8427734,25.2868652 C31.6136056,25.0344226 31.2985046,24.9082031 30.8974609,24.9082031 Z M37.2675781,30.1074219 C36.3688106,30.1074219 35.6857934,29.8451361 35.2185059,29.3205566 C34.7512184,28.7959772 34.5175781,28.0431364 34.5175781,27.0620117 C34.5175781,26.0629833 34.7619604,25.2949246 35.2507324,24.7578125 C35.7395044,24.2207004 36.4457962,23.9521484 37.3696289,23.9521484 C37.9962596,23.9521484 38.5602188,24.068521 39.0615234,24.3012695 L38.6801758,25.3164062 C38.1466445,25.1087229 37.7062192,25.0048828 37.3588867,25.0048828 C36.3312123,25.0048828 35.8173828,25.6870049 35.8173828,27.0512695 C35.8173828,27.7172885 35.9453926,28.2176904 36.201416,28.5524902 C36.4574394,28.8872901 36.8325171,29.0546875 37.3266602,29.0546875 C37.8888374,29.0546875 38.4205704,28.9150405 38.921875,28.6357422 L38.921875,29.7368164 C38.6962879,29.869304 38.4554863,29.9641924 38.1994629,30.0214844 C37.9434395,30.0787763 37.6328143,30.1074219 37.2675781,30.1074219 Z" fill="#FFFFFF"></path>
                    <path d="M30.2714844,15.9750977 L29.0209961,15.9750977 L29.0209961,18 L27.5673828,18 L27.5673828,15.9750977 L23.3271484,15.9750977 L23.3271484,14.8261719 L27.5673828,8.69433594 L29.0209961,8.69433594 L29.0209961,14.7373047 L30.2714844,14.7373047 L30.2714844,15.9750977 Z M27.5673828,14.7373047 L27.5673828,12.4077148 C27.5673828,11.5782836 27.5885415,10.8990912 27.6308594,10.3701172 L27.5800781,10.3701172 C27.4615879,10.6494155 27.2753919,10.9879537 27.0214844,11.3857422 L24.7172852,14.7373047 L27.5673828,14.7373047 Z M37.3618164,13.3598633 C37.3618164,14.972176 37.102623,16.1697552 36.5842285,16.9526367 C36.065834,17.7355182 35.2734428,18.1269531 34.2070312,18.1269531 C33.174474,18.1269531 32.3916042,17.7228231 31.8583984,16.9145508 C31.3251926,16.1062785 31.0585938,14.9213945 31.0585938,13.3598633 C31.0585938,11.7221598 31.3177871,10.5150592 31.8361816,9.73852539 C32.3545762,8.96199156 33.1448515,8.57373047 34.2070312,8.57373047 C35.2438203,8.57373047 36.0288059,8.97997641 36.5620117,9.79248047 C37.0952175,10.6049845 37.3618164,11.7941002 37.3618164,13.3598633 Z M32.5693359,13.3598633 C32.5693359,14.6251691 32.6994616,15.5286431 32.9597168,16.0703125 C33.219972,16.6119819 33.6357393,16.8828125 34.2070312,16.8828125 C34.7783232,16.8828125 35.1962064,16.6077501 35.4606934,16.0576172 C35.7251804,15.5074842 35.8574219,14.6082419 35.8574219,13.3598633 C35.8574219,12.1157164 35.7251804,11.2154162 35.4606934,10.6589355 C35.1962064,10.1024549 34.7783232,9.82421875 34.2070312,9.82421875 C33.6357393,9.82421875 33.219972,10.0971652 32.9597168,10.6430664 C32.6994616,11.1889676 32.5693359,12.0945575 32.5693359,13.3598633 Z" id="40" fill="#FFFFFF"></path>
                </g>
                <g id="Min" transform="translate(198.000000, 0.000000)">
                    <rect id="Rectangle" fill="#510FA8" x="0" y="0" width="60" height="36" rx="3"></rect>
                    <path d="M22.1533203,30 L19.8759766,23.4418945 L19.8330078,23.4418945 C19.8938805,24.4158577 19.9243164,25.3289345 19.9243164,26.1811523 L19.9243164,30 L18.7587891,30 L18.7587891,22.1474609 L20.5688477,22.1474609 L22.7495117,28.394043 L22.7817383,28.394043 L25.0268555,22.1474609 L26.8422852,22.1474609 L26.8422852,30 L25.6069336,30 L25.6069336,26.1166992 C25.6069336,25.7263978 25.6167805,25.2179393 25.6364746,24.5913086 C25.6561687,23.9646779 25.673177,23.5851244 25.6875,23.4526367 L25.6445312,23.4526367 L23.2866211,30 L22.1533203,30 Z M30.0380859,30 L28.7758789,30 L28.7758789,24.0595703 L30.0380859,24.0595703 L30.0380859,30 Z M28.7006836,22.4858398 C28.7006836,22.2602528 28.7624506,22.0865892 28.8859863,21.9648438 C29.0095221,21.8430983 29.1858712,21.7822266 29.4150391,21.7822266 C29.6370454,21.7822266 29.8098138,21.8430983 29.9333496,21.9648438 C30.0568854,22.0865892 30.1186523,22.2602528 30.1186523,22.4858398 C30.1186523,22.7006847 30.0568854,22.8698724 29.9333496,22.9934082 C29.8098138,23.116944 29.6370454,23.1787109 29.4150391,23.1787109 C29.1858712,23.1787109 29.0095221,23.116944 28.8859863,22.9934082 C28.7624506,22.8698724 28.7006836,22.7006847 28.7006836,22.4858398 Z M37.0688477,30 L35.8012695,30 L35.8012695,26.3476562 C35.8012695,25.8893206 35.7090667,25.5473644 35.5246582,25.3217773 C35.3402497,25.0961903 35.047528,24.9833984 34.6464844,24.9833984 C34.1129531,24.9833984 33.7226575,25.1409489 33.4755859,25.4560547 C33.2285144,25.7711604 33.1049805,26.2993127 33.1049805,27.0405273 L33.1049805,30 L31.8427734,30 L31.8427734,24.0595703 L32.8310547,24.0595703 L33.0083008,24.8383789 L33.0727539,24.8383789 C33.2517913,24.5554999 33.5060205,24.3370776 33.8354492,24.1831055 C34.1648779,24.0291333 34.5301087,23.9521484 34.9311523,23.9521484 C36.3562897,23.9521484 37.0688477,24.6772388 37.0688477,26.1274414 L37.0688477,30 Z M42.815918,28.3081055 C42.815918,28.8881865 42.6046571,29.3330876 42.1821289,29.6428223 C41.7596008,29.9525569 41.1544636,30.1074219 40.3666992,30.1074219 C39.5753541,30.1074219 38.939781,29.9874686 38.4599609,29.7475586 L38.4599609,28.6572266 C39.1582066,28.9794938 39.8081025,29.140625 40.409668,29.140625 C41.1866901,29.140625 41.5751953,28.9060896 41.5751953,28.4370117 C41.5751953,28.2866203 41.532227,28.1612961 41.4462891,28.0610352 C41.3603511,27.9607742 41.2189137,27.8569341 41.0219727,27.7495117 C40.8250316,27.6420893 40.5511085,27.5203457 40.2001953,27.3842773 C39.5162726,27.1193021 39.053468,26.8543308 38.8117676,26.5893555 C38.5700672,26.3243802 38.4492188,25.9806336 38.4492188,25.5581055 C38.4492188,25.0496394 38.6542134,24.6548679 39.064209,24.3737793 C39.4742045,24.0926907 40.0318975,23.9521484 40.7373047,23.9521484 C41.4355504,23.9521484 42.0961883,24.0935858 42.7192383,24.3764648 L42.3110352,25.3271484 C41.6700814,25.0621732 41.1311871,24.9296875 40.6943359,24.9296875 C40.028317,24.9296875 39.6953125,25.1194642 39.6953125,25.4990234 C39.6953125,25.6852223 39.7821443,25.8427728 39.9558105,25.9716797 C40.1294768,26.1005866 40.5081351,26.2778309 41.0917969,26.503418 C41.5823592,26.6931976 41.9386382,26.8668612 42.1606445,27.0244141 C42.3826508,27.1819669 42.5473627,27.3636871 42.6547852,27.5695801 C42.7622076,27.775473 42.815918,28.0216457 42.815918,28.3081055 Z" id="Mins" fill="#FFFFFF"></path>
                    <path d="M29.5922852,10.8525391 C29.5922852,11.4407581 29.4209002,11.9305807 29.078125,12.3220215 C28.7353498,12.7134622 28.2529328,12.9768873 27.6308594,13.1123047 L27.6308594,13.1630859 C28.3756548,13.2561854 28.9342429,13.4878725 29.3066406,13.8581543 C29.6790383,14.2284361 29.8652344,14.7203745 29.8652344,15.3339844 C29.8652344,16.2268925 29.5499706,16.9156063 28.9194336,17.4001465 C28.2888966,17.8846867 27.3917701,18.1269531 26.2280273,18.1269531 C25.1997019,18.1269531 24.3321975,17.9597998 23.6254883,17.6254883 L23.6254883,16.2988281 C24.0190449,16.4934906 24.4358702,16.6437169 24.8759766,16.7495117 C25.3160829,16.8553065 25.7392558,16.9082031 26.1455078,16.9082031 C26.8649125,16.9082031 27.402342,16.7749037 27.7578125,16.5083008 C28.113283,16.2416979 28.2910156,15.8291044 28.2910156,15.2705078 C28.2910156,14.7753881 28.0942402,14.4114595 27.7006836,14.1787109 C27.3071269,13.9459624 26.6892946,13.8295898 25.847168,13.8295898 L25.0410156,13.8295898 L25.0410156,12.6171875 L25.8598633,12.6171875 C27.3409905,12.6171875 28.081543,12.1051483 28.081543,11.0810547 C28.081543,10.6832662 27.9524752,10.3764659 27.6943359,10.1606445 C27.4361966,9.94482314 27.0553411,9.83691406 26.5517578,9.83691406 C26.2005191,9.83691406 25.8619808,9.88663687 25.5361328,9.98608398 C25.2102848,10.0855311 24.8251975,10.2791327 24.3808594,10.5668945 L23.6508789,9.52587891 C24.5014691,8.89957369 25.4895777,8.58642578 26.6152344,8.58642578 C27.5504604,8.58642578 28.2804336,8.78743289 28.8051758,9.18945312 C29.329918,9.59147336 29.5922852,10.1458298 29.5922852,10.8525391 Z M37.3618164,13.3598633 C37.3618164,14.972176 37.102623,16.1697552 36.5842285,16.9526367 C36.065834,17.7355182 35.2734428,18.1269531 34.2070312,18.1269531 C33.174474,18.1269531 32.3916042,17.7228231 31.8583984,16.9145508 C31.3251926,16.1062785 31.0585938,14.9213945 31.0585938,13.3598633 C31.0585938,11.7221598 31.3177871,10.5150592 31.8361816,9.73852539 C32.3545762,8.96199156 33.1448515,8.57373047 34.2070312,8.57373047 C35.2438203,8.57373047 36.0288059,8.97997641 36.5620117,9.79248047 C37.0952175,10.6049845 37.3618164,11.7941002 37.3618164,13.3598633 Z M32.5693359,13.3598633 C32.5693359,14.6251691 32.6994616,15.5286431 32.9597168,16.0703125 C33.219972,16.6119819 33.6357393,16.8828125 34.2070312,16.8828125 C34.7783232,16.8828125 35.1962064,16.6077501 35.4606934,16.0576172 C35.7251804,15.5074842 35.8574219,14.6082419 35.8574219,13.3598633 C35.8574219,12.1157164 35.7251804,11.2154162 35.4606934,10.6589355 C35.1962064,10.1024549 34.7783232,9.82421875 34.2070312,9.82421875 C33.6357393,9.82421875 33.219972,10.0971652 32.9597168,10.6430664 C32.6994616,11.1889676 32.5693359,12.0945575 32.5693359,13.3598633 Z" id="30" fill="#FFFFFF"></path>
                </g>
                <g id="Hrs" transform="translate(132.000000, 0.000000)">
                    <rect id="Rectangle" fill="#510FA8" x="0" y="0" width="60" height="36" rx="3"></rect>
                    <path d="M28.550293,30 L27.2612305,30 L27.2612305,26.4604492 L23.6411133,26.4604492 L23.6411133,30 L22.3574219,30 L22.3574219,22.1474609 L23.6411133,22.1474609 L23.6411133,25.359375 L27.2612305,25.359375 L27.2612305,22.1474609 L28.550293,22.1474609 L28.550293,30 Z M33.4970703,23.9521484 C33.7513034,23.9521484 33.9607739,23.9700519 34.1254883,24.0058594 L34.0019531,25.1821289 C33.8229158,25.1391599 33.6367197,25.1176758 33.4433594,25.1176758 C32.938474,25.1176758 32.5293798,25.2823877 32.2160645,25.6118164 C31.9027491,25.9412451 31.7460938,26.369138 31.7460938,26.8955078 L31.7460938,30 L30.4838867,30 L30.4838867,24.0595703 L31.472168,24.0595703 L31.6386719,25.1069336 L31.703125,25.1069336 C31.9000661,24.7524396 32.1569808,24.4713552 32.473877,24.2636719 C32.7907731,24.0559885 33.1318341,23.9521484 33.4970703,23.9521484 Z M39.2172852,28.3081055 C39.2172852,28.8881865 39.0060242,29.3330876 38.5834961,29.6428223 C38.1609679,29.9525569 37.5558308,30.1074219 36.7680664,30.1074219 C35.9767213,30.1074219 35.3411482,29.9874686 34.8613281,29.7475586 L34.8613281,28.6572266 C35.5595738,28.9794938 36.2094696,29.140625 36.8110352,29.140625 C37.5880573,29.140625 37.9765625,28.9060896 37.9765625,28.4370117 C37.9765625,28.2866203 37.9335942,28.1612961 37.8476562,28.0610352 C37.7617183,27.9607742 37.6202809,27.8569341 37.4233398,27.7495117 C37.2263988,27.6420893 36.9524757,27.5203457 36.6015625,27.3842773 C35.9176398,27.1193021 35.4548352,26.8543308 35.2131348,26.5893555 C34.9714343,26.3243802 34.8505859,25.9806336 34.8505859,25.5581055 C34.8505859,25.0496394 35.0555806,24.6548679 35.4655762,24.3737793 C35.8755717,24.0926907 36.4332647,23.9521484 37.1386719,23.9521484 C37.8369176,23.9521484 38.4975555,24.0935858 39.1206055,24.3764648 L38.7124023,25.3271484 C38.0714486,25.0621732 37.5325543,24.9296875 37.0957031,24.9296875 C36.4296842,24.9296875 36.0966797,25.1194642 36.0966797,25.4990234 C36.0966797,25.6852223 36.1835115,25.8427728 36.3571777,25.9716797 C36.530844,26.1005866 36.9095023,26.2778309 37.4931641,26.503418 C37.9837264,26.6931976 38.3400054,26.8668612 38.5620117,27.0244141 C38.784018,27.1819669 38.9487299,27.3636871 39.0561523,27.5695801 C39.1635748,27.775473 39.2172852,28.0216457 39.2172852,28.3081055 Z" fill="#FFFFFF"></path>
                    <path d="M28.0307617,18 L26.5390625,18 L26.5390625,12.0078125 C26.5390625,11.2926397 26.5559894,10.725588 26.5898438,10.3066406 C26.4925125,10.4082036 26.3729662,10.5203444 26.2312012,10.6430664 C26.0894361,10.7657884 25.6144246,11.1551074 24.8061523,11.8110352 L24.0571289,10.8652344 L26.7866211,8.71972656 L28.0307617,8.71972656 L28.0307617,18 Z M37.3618164,13.3598633 C37.3618164,14.972176 37.102623,16.1697552 36.5842285,16.9526367 C36.065834,17.7355182 35.2734428,18.1269531 34.2070312,18.1269531 C33.174474,18.1269531 32.3916042,17.7228231 31.8583984,16.9145508 C31.3251926,16.1062785 31.0585938,14.9213945 31.0585938,13.3598633 C31.0585938,11.7221598 31.3177871,10.5150592 31.8361816,9.73852539 C32.3545762,8.96199156 33.1448515,8.57373047 34.2070312,8.57373047 C35.2438203,8.57373047 36.0288059,8.97997641 36.5620117,9.79248047 C37.0952175,10.6049845 37.3618164,11.7941002 37.3618164,13.3598633 Z M32.5693359,13.3598633 C32.5693359,14.6251691 32.6994616,15.5286431 32.9597168,16.0703125 C33.219972,16.6119819 33.6357393,16.8828125 34.2070312,16.8828125 C34.7783232,16.8828125 35.1962064,16.6077501 35.4606934,16.0576172 C35.7251804,15.5074842 35.8574219,14.6082419 35.8574219,13.3598633 C35.8574219,12.1157164 35.7251804,11.2154162 35.4606934,10.6589355 C35.1962064,10.1024549 34.7783232,9.82421875 34.2070312,9.82421875 C33.6357393,9.82421875 33.219972,10.0971652 32.9597168,10.6430664 C32.6994616,11.1889676 32.5693359,12.0945575 32.5693359,13.3598633 Z" id="10" fill="#FFFFFF"></path>
                </g>
                <g id="Days-" transform="translate(68.000000, 0.000000)">
                    <rect id="Rectangle" fill="#510FA8" x="0" y="0" width="60" height="36" rx="3"></rect>
                    <path d="M25.0698242,25.9985352 C25.0698242,27.2947656 24.7099645,28.2857225 23.9902344,28.9714355 C23.2705042,29.6571486 22.2338935,30 20.8803711,30 L18.6835938,30 L18.6835938,22.1474609 L21.1113281,22.1474609 C22.3610089,22.1474609 23.3331671,22.4840461 24.027832,23.1572266 C24.722497,23.830407 25.0698242,24.7775004 25.0698242,25.9985352 Z M23.7163086,26.0415039 C23.7163086,24.1616117 22.8372484,23.2216797 21.0791016,23.2216797 L19.9672852,23.2216797 L19.9672852,28.9204102 L20.8803711,28.9204102 C22.7710055,28.9204102 23.7163086,27.9607843 23.7163086,26.0415039 Z M30.3388672,30 L30.0864258,29.1728516 L30.043457,29.1728516 C29.7569973,29.534507 29.4687515,29.7806797 29.1787109,29.911377 C28.8886704,30.0420742 28.5162783,30.1074219 28.0615234,30.1074219 C27.4778617,30.1074219 27.0222184,29.9498714 26.6945801,29.6347656 C26.3669417,29.3196599 26.203125,28.8738636 26.203125,28.2973633 C26.203125,27.6850555 26.430499,27.2231461 26.8852539,26.9116211 C27.3400088,26.6000961 28.0328729,26.4300132 28.9638672,26.4013672 L29.9897461,26.3691406 L29.9897461,26.0522461 C29.9897461,25.6726869 29.9011239,25.388917 29.723877,25.2009277 C29.54663,25.0129385 29.2718118,24.9189453 28.8994141,24.9189453 C28.5950506,24.9189453 28.3032241,24.963704 28.0239258,25.0532227 C27.7446275,25.1427413 27.4760755,25.2483718 27.2182617,25.3701172 L26.8100586,24.4677734 C27.1323258,24.2994783 27.4850241,24.1714685 27.8681641,24.0837402 C28.251304,23.9960119 28.612954,23.9521484 28.953125,23.9521484 C29.7086626,23.9521484 30.278888,24.1168603 30.6638184,24.4462891 C31.0487487,24.7757178 31.2412109,25.293128 31.2412109,25.9985352 L31.2412109,30 L30.3388672,30 Z M28.4589844,29.140625 C28.91732,29.140625 29.2852362,29.0126152 29.5627441,28.7565918 C29.840252,28.5005684 29.9790039,28.1416039 29.9790039,27.6796875 L29.9790039,27.1640625 L29.2163086,27.1962891 C28.6219046,27.2177735 28.1895359,27.3171378 27.9191895,27.4943848 C27.648843,27.6716317 27.5136719,27.9428693 27.5136719,28.3081055 C27.5136719,28.5730808 27.5924471,28.7780754 27.75,28.9230957 C27.9075529,29.068116 28.1438786,29.140625 28.4589844,29.140625 Z M32.1005859,24.0595703 L33.4755859,24.0595703 L34.684082,27.4272461 C34.8667001,27.9070662 34.9884437,28.3582336 35.0493164,28.7807617 L35.0922852,28.7807617 C35.1245119,28.5838206 35.1835933,28.3448093 35.2695312,28.0637207 C35.3554692,27.7826321 35.8102172,26.4479286 36.6337891,24.0595703 L37.9980469,24.0595703 L35.4575195,30.7895508 C34.9956032,32.0249085 34.2257541,32.6425781 33.1479492,32.6425781 C32.8686509,32.6425781 32.5965183,32.6121422 32.331543,32.5512695 L32.331543,31.5522461 C32.5213226,31.5952151 32.7379545,31.6166992 32.9814453,31.6166992 C33.5901723,31.6166992 34.0180652,31.2640009 34.2651367,30.5585938 L34.4853516,30 L32.1005859,24.0595703 Z M42.8911133,28.3081055 C42.8911133,28.8881865 42.6798524,29.3330876 42.2573242,29.6428223 C41.8347961,29.9525569 41.2296589,30.1074219 40.4418945,30.1074219 C39.6505494,30.1074219 39.0149764,29.9874686 38.5351562,29.7475586 L38.5351562,28.6572266 C39.2334019,28.9794938 39.8832978,29.140625 40.4848633,29.140625 C41.2618854,29.140625 41.6503906,28.9060896 41.6503906,28.4370117 C41.6503906,28.2866203 41.6074223,28.1612961 41.5214844,28.0610352 C41.4355464,27.9607742 41.2941091,27.8569341 41.097168,27.7495117 C40.9002269,27.6420893 40.6263038,27.5203457 40.2753906,27.3842773 C39.5914679,27.1193021 39.1286633,26.8543308 38.8869629,26.5893555 C38.6452625,26.3243802 38.5244141,25.9806336 38.5244141,25.5581055 C38.5244141,25.0496394 38.7294088,24.6548679 39.1394043,24.3737793 C39.5493998,24.0926907 40.1070928,23.9521484 40.8125,23.9521484 C41.5107457,23.9521484 42.1713836,24.0935858 42.7944336,24.3764648 L42.3862305,25.3271484 C41.7452767,25.0621732 41.2063824,24.9296875 40.7695312,24.9296875 C40.1035123,24.9296875 39.7705078,25.1194642 39.7705078,25.4990234 C39.7705078,25.6852223 39.8573396,25.8427728 40.0310059,25.9716797 C40.2046721,26.1005866 40.5833304,26.2778309 41.1669922,26.503418 C41.6575545,26.6931976 42.0138335,26.8668612 42.2358398,27.0244141 C42.4578462,27.1819669 42.6225581,27.3636871 42.7299805,27.5695801 C42.8374029,27.775473 42.8911133,28.0216457 42.8911133,28.3081055 Z" id="Days" fill="#FFFFFF"></path>
                    <path d="M33.1516113,18 L26.861084,18 L26.861084,16.8701172 L29.2541504,14.4643555 C29.9608597,13.740719 30.4295236,13.227622 30.6601562,12.9250488 C30.8907889,12.6224757 31.0590001,12.337892 31.1647949,12.0712891 C31.2705897,11.8046862 31.3234863,11.5190445 31.3234863,11.2143555 C31.3234863,10.7954081 31.1975924,10.4653332 30.9458008,10.2241211 C30.6940092,9.98290895 30.3459495,9.86230469 29.9016113,9.86230469 C29.5461408,9.86230469 29.2023129,9.92789648 28.8701172,10.059082 C28.5379215,10.1902676 28.1538922,10.4272444 27.7180176,10.7700195 L26.9118652,9.78613281 C27.4281439,9.35025824 27.9296037,9.04134206 28.4162598,8.859375 C28.9029158,8.67740794 29.4213026,8.58642578 29.9714355,8.58642578 C30.8347211,8.58642578 31.5266087,8.81176532 32.0471191,9.26245117 C32.5676296,9.71313702 32.8278809,10.3193321 32.8278809,11.0810547 C32.8278809,11.5000021 32.7527677,11.8977846 32.6025391,12.2744141 C32.4523104,12.6510435 32.2216812,13.0393046 31.9106445,13.439209 C31.5996078,13.8391133 31.082279,14.3797166 30.3586426,15.0610352 L28.7463379,16.6225586 L28.7463379,16.6860352 L33.1516113,16.6860352 L33.1516113,18 Z" id="2" fill="#FFFFFF"></path>
                </g>
                <path d="M6.47460938,23 L1.22509766,23 L1.22509766,13.7197266 L6.47460938,13.7197266 L6.47460938,15.0019531 L2.7421875,15.0019531 L2.7421875,17.5283203 L6.23974609,17.5283203 L6.23974609,18.7978516 L2.7421875,18.7978516 L2.7421875,21.7114258 L6.47460938,21.7114258 L6.47460938,23 Z M14.4980469,23 L13,23 L13,18.6835938 C13,18.1419244 12.891033,17.7377943 12.6730957,17.4711914 C12.4551584,17.2045885 12.1092146,17.0712891 11.6352539,17.0712891 C11.0047169,17.0712891 10.5434585,17.2574851 10.2514648,17.6298828 C9.9594712,18.0022805 9.81347656,18.6264605 9.81347656,19.5024414 L9.81347656,23 L8.32177734,23 L8.32177734,15.9794922 L9.48974609,15.9794922 L9.69921875,16.8999023 L9.77539062,16.8999023 C9.98698022,16.5655908 10.2874329,16.3074553 10.6767578,16.1254883 C11.0660827,15.9435212 11.497719,15.8525391 11.9716797,15.8525391 C13.6559329,15.8525391 14.4980469,16.7094641 14.4980469,18.4233398 L14.4980469,23 Z M18.9414062,23.1269531 C18.0654253,23.1269531 17.3820012,22.8095735 16.8911133,22.1748047 C16.4002254,21.5400359 16.1547852,20.649257 16.1547852,19.5024414 C16.1547852,18.351394 16.4033992,17.4553255 16.9006348,16.814209 C17.3978703,16.1730925 18.0865841,15.8525391 18.9667969,15.8525391 C19.8893275,15.8525391 20.5917945,16.1931932 21.0742188,16.8745117 L21.1503906,16.8745117 C21.0784502,16.3709285 21.0424805,15.973146 21.0424805,15.6811523 L21.0424805,13.1230469 L22.5405273,13.1230469 L22.5405273,23 L21.3725586,23 L21.1123047,22.0795898 L21.0424805,22.0795898 C20.564288,22.7778355 19.8639369,23.1269531 18.9414062,23.1269531 Z M19.3413086,21.9208984 C19.9549184,21.9208984 20.4013658,21.7484555 20.6806641,21.4035645 C20.9599623,21.0586734 21.1038411,20.4990273 21.1123047,19.7246094 L21.1123047,19.5151367 C21.1123047,18.6306922 20.9684259,18.0022805 20.6806641,17.6298828 C20.3929022,17.2574851 19.9422231,17.0712891 19.3286133,17.0712891 C18.8038711,17.0712891 18.399741,17.2839334 18.1162109,17.7092285 C17.8326809,18.1345236 17.690918,18.7407187 17.690918,19.527832 C17.690918,20.3064818 17.8284491,20.8999817 18.1035156,21.3083496 C18.3785821,21.7167175 18.7911756,21.9208984 19.3413086,21.9208984 Z M26.1650391,23 L24.6733398,23 L24.6733398,15.9794922 L26.1650391,15.9794922 L26.1650391,23 Z M24.5844727,14.1196289 C24.5844727,13.853026 24.65747,13.6477872 24.8034668,13.5039062 C24.9494636,13.3600253 25.1578763,13.2880859 25.4287109,13.2880859 C25.691082,13.2880859 25.8952629,13.3600253 26.0412598,13.5039062 C26.1872566,13.6477872 26.2602539,13.853026 26.2602539,14.1196289 C26.2602539,14.3735364 26.1872566,14.5734856 26.0412598,14.7194824 C25.8952629,14.8654792 25.691082,14.9384766 25.4287109,14.9384766 C25.1578763,14.9384766 24.9494636,14.8654792 24.8034668,14.7194824 C24.65747,14.5734856 24.5844727,14.3735364 24.5844727,14.1196289 Z M34.4741211,23 L32.9760742,23 L32.9760742,18.6835938 C32.9760742,18.1419244 32.8671072,17.7377943 32.6491699,17.4711914 C32.4312326,17.2045885 32.0852888,17.0712891 31.6113281,17.0712891 C30.9807911,17.0712891 30.5195327,17.2574851 30.2275391,17.6298828 C29.9355454,18.0022805 29.7895508,18.6264605 29.7895508,19.5024414 L29.7895508,23 L28.2978516,23 L28.2978516,15.9794922 L29.4658203,15.9794922 L29.675293,16.8999023 L29.7514648,16.8999023 C29.9630544,16.5655908 30.2635072,16.3074553 30.652832,16.1254883 C31.0421569,15.9435212 31.4737932,15.8525391 31.9477539,15.8525391 C33.6320071,15.8525391 34.4741211,16.7094641 34.4741211,18.4233398 L34.4741211,23 Z M42.4785156,15.9794922 L42.4785156,16.7983398 L41.2788086,17.0205078 C41.3888352,17.1686205 41.4798173,17.3505849 41.5517578,17.5664062 C41.6236983,17.7822276 41.659668,18.010741 41.659668,18.2519531 C41.659668,18.9755896 41.409996,19.544757 40.9106445,19.9594727 C40.4112931,20.3741883 39.7236372,20.581543 38.8476562,20.581543 C38.6233713,20.581543 38.4202483,20.5646161 38.2382812,20.5307617 C37.9166651,20.7296559 37.7558594,20.962401 37.7558594,21.2290039 C37.7558594,21.389812 37.8309726,21.5104163 37.9812012,21.5908203 C38.1314298,21.6712244 38.4075501,21.7114258 38.8095703,21.7114258 L40.034668,21.7114258 C40.8090859,21.7114258 41.3972962,21.8764632 41.7993164,22.206543 C42.2013366,22.5366227 42.4023438,23.0126922 42.4023438,23.6347656 C42.4023438,24.4303425 42.0743848,25.0439432 41.418457,25.4755859 C40.7625293,25.9072287 39.8146221,26.1230469 38.574707,26.1230469 C37.618322,26.1230469 36.8883489,25.9537777 36.3847656,25.6152344 C35.8811824,25.276691 35.6293945,24.794274 35.6293945,24.1679688 C35.6293945,23.736326 35.7658678,23.3734552 36.0388184,23.0793457 C36.3117689,22.7852362 36.6936824,22.5810553 37.1845703,22.4667969 C36.9856761,22.382161 36.8216966,22.2456878 36.692627,22.057373 C36.5635573,21.8690583 36.4990234,21.671225 36.4990234,21.4638672 C36.4990234,21.2014961 36.5730787,20.9793303 36.7211914,20.7973633 C36.8693041,20.6153962 37.089354,20.4355478 37.3813477,20.2578125 C37.0174135,20.1012362 36.7222505,19.8462746 36.4958496,19.4929199 C36.2694487,19.1395653 36.15625,18.7259138 36.15625,18.2519531 C36.15625,17.4902306 36.3964006,16.8999044 36.876709,16.480957 C37.3570174,16.0620096 38.0414995,15.8525391 38.9301758,15.8525391 C39.12907,15.8525391 39.3374826,15.8662922 39.5554199,15.8937988 C39.7733572,15.9213055 39.9373367,15.9498696 40.0473633,15.9794922 L42.4785156,15.9794922 Z M36.9624023,24.0917969 C36.9624023,24.4134131 37.107339,24.6609692 37.3972168,24.8344727 C37.6870945,25.0079761 38.0943984,25.0947266 38.6191406,25.0947266 C39.4316447,25.0947266 40.0367819,24.978354 40.4345703,24.7456055 C40.8323588,24.5128569 41.03125,24.2039407 41.03125,23.8188477 C41.03125,23.5141586 40.922283,23.2972825 40.7043457,23.1682129 C40.4864084,23.0391432 40.0812204,22.9746094 39.4887695,22.9746094 L38.3588867,22.9746094 C37.9314757,22.9746094 37.5918795,23.0751129 37.3400879,23.276123 C37.0882963,23.4771332 36.9624023,23.7490217 36.9624023,24.0917969 Z M37.6035156,18.2519531 C37.6035156,18.6920595 37.7167144,19.0305978 37.9431152,19.2675781 C38.1695161,19.5045585 38.4943013,19.6230469 38.9174805,19.6230469 C39.780766,19.6230469 40.2124023,19.1617885 40.2124023,18.2392578 C40.2124023,17.7822243 40.1055512,17.4299329 39.8918457,17.182373 C39.6781402,16.9348132 39.353355,16.8110352 38.9174805,16.8110352 C38.4858377,16.8110352 38.1589367,16.9337553 37.9367676,17.1791992 C37.7145985,17.4246432 37.6035156,17.7822242 37.6035156,18.2519531 Z M48.6484375,23 L47.1567383,23 L47.1567383,15.9794922 L48.6484375,15.9794922 L48.6484375,23 Z M47.0678711,14.1196289 C47.0678711,13.853026 47.1408684,13.6477872 47.2868652,13.5039062 C47.4328621,13.3600253 47.6412747,13.2880859 47.9121094,13.2880859 C48.1744805,13.2880859 48.3786614,13.3600253 48.5246582,13.5039062 C48.670655,13.6477872 48.7436523,13.853026 48.7436523,14.1196289 C48.7436523,14.3735364 48.670655,14.5734856 48.5246582,14.7194824 C48.3786614,14.8654792 48.1744805,14.9384766 47.9121094,14.9384766 C47.6412747,14.9384766 47.4328621,14.8654792 47.2868652,14.7194824 C47.1408684,14.5734856 47.0678711,14.3735364 47.0678711,14.1196289 Z M56.9575195,23 L55.4594727,23 L55.4594727,18.6835938 C55.4594727,18.1419244 55.3505056,17.7377943 55.1325684,17.4711914 C54.9146311,17.2045885 54.5686873,17.0712891 54.0947266,17.0712891 C53.4641896,17.0712891 53.0029311,17.2574851 52.7109375,17.6298828 C52.4189439,18.0022805 52.2729492,18.6264605 52.2729492,19.5024414 L52.2729492,23 L50.78125,23 L50.78125,15.9794922 L51.9492188,15.9794922 L52.1586914,16.8999023 L52.2348633,16.8999023 C52.4464529,16.5655908 52.7469056,16.3074553 53.1362305,16.1254883 C53.5255553,15.9435212 53.9571916,15.8525391 54.4311523,15.8525391 C56.1154056,15.8525391 56.9575195,16.7094641 56.9575195,18.4233398 L56.9575195,23 Z" id="Ending-in" fill="#FFFFFF"></path>
            </g>
            <g id="cross-icon" transform="translate(1121.000000, 26.000000)" fill="#FFFFFF">
                <polygon id="Path" points="0.703826955 0 0.0224625624 0.683069224 3.81863561 4.48874062 0 8.32443703 0.673876872 9 4.5 5.17180984 8.31863561 9 9 8.31693078 5.18136439 4.48874062 8.97753744 0.683069224 8.29617304 0 4.5 3.80567139"></polygon>
            </g>
        </g>
    </g>
</svg>