<svg width="20" height="20" viewBox="0 0 20 20" fill="none" xmlns="http://www.w3.org/2000/svg">
<path d="M16.7431 11.938L16.904 10.3596C16.9898 9.51748 17.0464 8.96138 17.002 8.61101L17.0175 8.6111C17.7442 8.6111 18.3333 7.98927 18.3333 7.22221C18.3333 6.45515 17.7442 5.83332 17.0175 5.83332C16.2908 5.83332 15.7017 6.45515 15.7017 7.22221C15.7017 7.56912 15.8222 7.88632 16.0214 8.12974C15.7354 8.31607 15.3615 8.70925 14.7987 9.30104L14.7986 9.30105L14.7986 9.30106C14.365 9.75698 14.1482 9.98494 13.9064 10.0202C13.7724 10.0398 13.6358 10.0197 13.5121 9.96217C13.2887 9.85836 13.1398 9.57655 12.842 9.01292L11.2723 6.04203C11.0886 5.69432 10.9348 5.4033 10.7962 5.16911C11.3649 4.86283 11.7543 4.23868 11.7543 3.51851C11.7543 2.49576 10.9689 1.66666 9.99996 1.66666C9.03104 1.66666 8.24557 2.49576 8.24557 3.51851C8.24557 4.23868 8.63503 4.86283 9.20376 5.16911C9.06511 5.40331 8.91137 5.69429 8.72763 6.04203L7.1579 9.01292C6.8601 9.57654 6.71119 9.85836 6.48786 9.96217C6.36411 10.0197 6.22757 10.0398 6.09355 10.0202C5.85169 9.98494 5.63488 9.75698 5.20127 9.30105C4.63844 8.70926 4.26449 8.31607 3.97849 8.12974C4.17771 7.88632 4.29821 7.56912 4.29821 7.22221C4.29821 6.45515 3.70911 5.83332 2.98242 5.83332C2.25572 5.83332 1.66663 6.45515 1.66663 7.22221C1.66663 7.98927 2.25572 8.6111 2.98242 8.6111L2.99795 8.61101C2.95348 8.96138 3.01015 9.51748 3.09596 10.3596L3.2568 11.938C3.34608 12.8142 3.42032 13.6478 3.51125 14.3981H16.4887C16.5796 13.6478 16.6538 12.8142 16.7431 11.938Z" fill="white"/>
<path d="M9.04563 18.3333H10.9543C13.4419 18.3333 14.6858 18.3333 15.5157 17.5492C15.8779 17.207 16.1073 16.59 16.2728 15.787H3.72711C3.89263 16.59 4.12201 17.207 4.48424 17.5492C5.31414 18.3333 6.55797 18.3333 9.04563 18.3333Z" fill="white"/>
</svg>
