<svg width="180" height="48" viewBox="0 0 180 48" fill="none" xmlns="http://www.w3.org/2000/svg">
<g clip-path="url(#clip0_883_1605)">
<path d="M16.812 37.9963H26.5823C26.4074 39.1276 24.1896 40.5681 22.3015 40.7716C20.1244 41.0076 17.4834 39.6892 16.8161 37.9963H16.812Z" fill="#5614D5"/>
<path d="M37.1787 33.4471C36.9793 33.4308 36.7718 33.439 36.5724 33.439C36.0881 33.439 35.608 33.439 35.0098 33.439V32.5518C35.0098 28.5395 35.0261 24.5272 34.9935 20.5149C34.9854 19.6075 34.904 18.6878 34.7249 17.8007C33.2315 10.415 25.7969 5.76382 18.4763 7.60313C12.6328 9.07214 8.42521 14.3988 8.44962 20.458C8.4659 24.104 8.44962 27.7542 8.44962 31.4002C8.44962 31.7299 8.44962 32.7594 8.44962 33.443C8.00607 33.443 6.72425 33.4308 6.27256 33.4593C5.60927 33.5 5.16165 34.0127 5.16979 34.6719C5.17793 35.3149 5.60113 35.7706 6.25628 35.8276C6.4394 35.8439 6.62252 35.8398 6.80157 35.8398C16.7509 35.8398 26.7003 35.8439 36.6497 35.848C36.8328 35.848 37.0159 35.848 37.195 35.8317C37.8379 35.7666 38.2774 35.2945 38.2896 34.6679C38.3018 34.0331 37.8216 33.5081 37.1746 33.4512L37.1787 33.4471Z" fill="#5614D5"/>
<path d="M29.3739 27.8273C30.1104 27.8273 30.7045 28.4255 30.7045 29.1579C30.7045 29.8904 30.1063 30.4886 29.3739 30.4886C28.6414 30.4886 28.0432 29.8904 28.0432 29.1579C28.0432 28.4255 28.6414 27.8273 29.3739 27.8273Z" fill="#836EFF"/>
<path d="M30.5908 19.2004L30.6111 19.1882C30.5948 19.0743 30.5786 18.9603 30.5541 18.8505C29.7443 14.8585 26.3017 11.9123 22.2569 11.6723C22.2528 11.6723 22.2447 11.6723 22.2406 11.6723C22.0656 11.66 21.8947 11.656 21.7197 11.656H21.6953C21.5203 11.656 21.3454 11.6641 21.1745 11.6723C21.1704 11.6723 21.1622 11.6723 21.1582 11.6723C17.1133 11.9123 13.6707 14.8585 12.8609 18.8505C12.8406 18.9603 12.8243 19.0743 12.804 19.1882L12.8243 19.2004C12.747 19.6724 12.7063 20.1567 12.7063 20.645C12.7063 21.0316 12.7063 29.2312 12.7063 30.3462L15.4693 33.3289C15.4693 31.2414 15.4693 21.821 15.4653 20.6328C15.4531 17.8291 17.4389 15.2939 20.1856 14.6021C20.4135 14.5452 20.6455 14.5004 20.8733 14.4719C20.914 14.4678 20.9506 14.4597 20.9913 14.4556C21.0809 14.4434 21.1663 14.4394 21.2518 14.4312C21.3779 14.4231 21.5041 14.4149 21.6302 14.4149C21.6546 14.4149 21.675 14.4149 21.6994 14.4149C21.7238 14.4149 21.7442 14.4149 21.7686 14.4149C21.8947 14.4149 22.0209 14.4231 22.147 14.4312C22.2365 14.4394 22.322 14.4475 22.4074 14.4556C22.4481 14.4597 22.4848 14.4678 22.5255 14.4719C22.7574 14.5045 22.9853 14.5452 23.2132 14.6021C25.9599 15.2939 27.9457 17.8291 27.9335 20.6328C27.9335 21.0763 27.9335 24.9584 27.9335 26.7733L30.6966 24.9299C30.6966 23.8801 30.6966 20.763 30.6966 20.645C30.6966 20.1567 30.6559 19.6724 30.5785 19.2004H30.5908Z" fill="#836EFF"/>
<path d="M34.9937 20.5188C34.9937 21.0356 34.9977 21.5483 35.0018 22.0651L38.3671 19.8311L36.1982 16.5757L34.6763 17.5808C34.6925 17.654 34.7129 17.7273 34.7292 17.8046C34.9082 18.6917 34.9896 19.6154 34.9977 20.5188H34.9937Z" fill="#00F9AC"/>
<path opacity="0.9" d="M12.6492 24.527L9.77222 27.1761L16.4825 34.4194L35.0017 22.0691C35.0017 21.5523 35.0017 21.0396 34.9936 20.5228C34.9854 19.6153 34.9041 18.6957 34.725 17.8086C34.7087 17.7313 34.6884 17.658 34.6721 17.5848L17.0928 29.3084L12.6492 24.527Z" fill="#21D8A3"/>
<path d="M59.8936 17.4628C59.5152 17.4628 59.2018 17.6011 58.9577 17.8738C58.7176 18.1423 58.5955 18.4272 58.5955 18.7202V27.5057C58.5955 27.5057 53.8914 20.3601 52.4102 18.1016C52.1946 17.6784 51.8202 17.4668 51.2953 17.4668C50.9209 17.4668 50.6035 17.6052 50.3552 17.8738C50.1111 18.1423 49.989 18.4272 49.989 18.7202V30.2322C49.989 30.5862 50.1192 30.8914 50.3756 31.1396C50.6279 31.3838 50.9412 31.5099 51.2993 31.5099C51.6574 31.5099 51.9667 31.3838 52.223 31.1396C52.4794 30.8914 52.6096 30.5862 52.6096 30.2322V21.5036C52.6096 21.5036 57.2812 28.5922 58.7664 30.8629C59.0228 31.2902 59.4053 31.5099 59.8977 31.5099C60.2558 31.5099 60.5651 31.3878 60.8133 31.1437C61.0615 30.8995 61.1877 30.5943 61.1877 30.2322V18.7202C61.1877 18.4109 61.0656 18.122 60.8296 17.8616C60.5895 17.5971 60.2761 17.4628 59.9018 17.4628H59.8936Z" fill="#1F3155"/>
<path d="M73.0616 23.0621C72.6994 22.6715 72.2762 22.3378 71.792 22.0692C71.3118 21.8006 70.8031 21.5972 70.2823 21.4751C69.7614 21.353 69.2243 21.2879 68.6871 21.2879C68.15 21.2879 67.6128 21.3489 67.092 21.4751C66.5711 21.6012 66.0624 21.8006 65.5823 22.0692C65.1021 22.3418 64.6748 22.6755 64.3127 23.0621C63.9505 23.4528 63.6534 23.9411 63.4378 24.5148C63.218 25.0845 63.1082 25.7193 63.1082 26.3948C63.1082 27.0703 63.218 27.7051 63.4378 28.2748C63.6575 28.8486 63.9505 29.3369 64.3127 29.7276C64.6748 30.1182 65.098 30.4519 65.5823 30.7205C66.0624 30.9891 66.5711 31.1925 67.092 31.3146C67.6128 31.4367 68.15 31.5018 68.6871 31.5018C69.2243 31.5018 69.7614 31.4407 70.2823 31.3146C70.8031 31.1884 71.3118 30.9891 71.792 30.7205C72.2722 30.4478 72.6994 30.1142 73.0616 29.7276C73.4238 29.3369 73.7208 28.8486 73.9365 28.2748C74.1562 27.7051 74.2661 27.0703 74.2661 26.3948C74.2661 25.7193 74.1562 25.0845 73.9365 24.5148C73.7168 23.9411 73.4238 23.4528 73.0616 23.0621ZM71.6821 26.3948C71.6821 27.5546 71.3973 28.458 70.8398 29.0724C70.2741 29.695 69.5702 29.9962 68.6871 29.9962C67.8041 29.9962 67.0879 29.6869 66.5263 29.0724C65.9607 28.458 65.6718 27.5546 65.6718 26.3948C65.6718 25.2351 65.9607 24.3317 66.5263 23.7132C67.0879 23.0987 67.8163 22.7854 68.6871 22.7854C69.558 22.7854 70.2741 23.0906 70.8398 23.7132C71.4013 24.3317 71.6821 25.2351 71.6821 26.3989V26.3948Z" fill="#1F3155"/>
<path d="M82.1566 22.9888C82.3682 22.9888 82.5514 22.9196 82.6938 22.7812C82.8362 22.6429 82.9094 22.4435 82.9094 22.2319C82.9094 22.0203 82.8362 21.8372 82.6938 21.6988C82.5514 21.5605 82.3682 21.4913 82.1566 21.4913H78.7832V19.9043C78.7832 19.5421 78.653 19.2369 78.3966 18.9887C78.1443 18.7445 77.831 18.6184 77.4729 18.6184C77.1148 18.6184 76.8015 18.7445 76.5492 18.9887C76.2928 19.2369 76.1626 19.5462 76.1626 19.9043V27.7905C76.1626 28.7794 76.5288 29.6583 77.2491 30.3949C77.9694 31.1355 78.8727 31.5098 79.9267 31.5098C80.5493 31.5098 81.1149 31.3756 81.6114 31.1111C82.1037 30.8506 82.4985 30.5454 82.7792 30.2117C82.8647 30.1263 82.9054 30.0123 82.9054 29.8659C82.9054 29.7397 82.8565 29.6176 82.763 29.4996C82.6612 29.3735 82.5269 29.3084 82.3723 29.3084C82.2543 29.3084 82.1363 29.3531 82.002 29.4589C81.6317 29.8496 81.1963 30.0408 80.6795 30.0408C80.1627 30.0408 79.7517 29.8618 79.361 29.4915C78.9704 29.1252 78.7791 28.6654 78.7791 28.0917V22.9928H82.1526L82.1566 22.9888Z" fill="#1F3155"/>
<path d="M85.8799 17.2878C85.5218 17.2878 85.2085 17.414 84.9562 17.6581C84.6998 17.9064 84.5696 18.2156 84.5696 18.5737C84.5696 18.9318 84.6998 19.2452 84.9521 19.4934C85.2044 19.7416 85.5177 19.8718 85.8758 19.8718C86.2339 19.8718 86.5473 19.7457 86.7995 19.4934C87.0559 19.2411 87.1821 18.9318 87.1821 18.5737C87.1821 18.2156 87.0518 17.9064 86.7955 17.6581C86.5432 17.414 86.2298 17.2878 85.8718 17.2878H85.8799Z" fill="#1F3155"/>
<path d="M85.88 21.2879C85.5015 21.2879 85.1882 21.4263 84.94 21.703C84.6958 21.9756 84.5737 22.2605 84.5737 22.5534V30.2322C84.5737 30.5862 84.7039 30.8914 84.9603 31.1396C85.2126 31.3838 85.5259 31.5099 85.884 31.5099C86.2421 31.5099 86.5514 31.3878 86.7915 31.1437C87.0356 30.8995 87.1577 30.5943 87.1577 30.2362V22.5575C87.1577 22.2483 87.0397 21.9593 86.8078 21.6948C86.5717 21.4263 86.2584 21.2879 85.88 21.2879Z" fill="#1F3155"/>
<path d="M92.818 18.5289C93.2086 18.1668 93.64 17.9877 94.1446 17.9877C94.6492 17.9877 95.1049 18.1749 95.4874 18.5737C95.5973 18.6551 95.7153 18.6958 95.8374 18.6958C95.992 18.6958 96.1263 18.6347 96.224 18.5208C96.3216 18.4109 96.3705 18.2889 96.3705 18.1627C96.3705 18.004 96.3298 17.8819 96.2525 17.8046C95.9635 17.4628 95.5688 17.1576 95.0764 16.8931C94.58 16.6245 94.0144 16.4902 93.3918 16.4902C92.3378 16.4902 91.4385 16.8687 90.7142 17.6174C89.9939 18.3621 89.6277 19.2451 89.6277 20.234V30.2525C89.6277 30.5781 89.7579 30.871 90.0183 31.1274C90.2747 31.3797 90.584 31.5099 90.938 31.5099C91.292 31.5099 91.6013 31.3797 91.8576 31.1274C92.114 30.8751 92.2483 30.5781 92.2483 30.2525V22.9848H95.2555C95.4671 22.9848 95.6502 22.9156 95.7926 22.7773C95.9391 22.6389 96.0083 22.4477 96.0083 22.232C96.0083 22.0163 95.9351 21.8373 95.7926 21.6989C95.6502 21.5606 95.4712 21.4914 95.2555 21.4914H92.2483V19.9288C92.2483 19.355 92.4355 18.8992 92.8221 18.5371L92.818 18.5289Z" fill="#1F3155"/>
<path d="M98.8487 21.2879C98.4703 21.2879 98.1569 21.4263 97.9087 21.703C97.6646 21.9756 97.5425 22.2605 97.5425 22.5534V30.2322C97.5425 30.5862 97.6727 30.8914 97.925 31.1396C98.1773 31.3878 98.4906 31.5099 98.8487 31.5099C99.2068 31.5099 99.5161 31.3878 99.7562 31.1437C100 30.8995 100.122 30.5943 100.122 30.2362V22.5575C100.122 22.2483 100.004 21.9593 99.7724 21.6948C99.5364 21.4263 99.2231 21.2879 98.8446 21.2879H98.8487Z" fill="#1F3155"/>
<path d="M98.8486 17.2878C98.4905 17.2878 98.1772 17.414 97.9249 17.6581C97.6685 17.9064 97.5383 18.2156 97.5383 18.5737C97.5383 18.9318 97.6685 19.2452 97.9208 19.4934C98.1731 19.7416 98.4865 19.8718 98.8446 19.8718C99.2027 19.8718 99.516 19.7457 99.7683 19.4934C100.025 19.2411 100.151 18.9318 100.151 18.5737C100.151 18.2156 100.021 17.9064 99.7642 17.6581C99.5119 17.414 99.1986 17.2878 98.8405 17.2878H98.8486Z" fill="#1F3155"/>
<path d="M108.013 22.7854C108.562 22.7854 109.099 22.9238 109.608 23.1923C110.117 23.4609 110.54 23.8393 110.869 24.3236C110.926 24.405 111.04 24.4986 111.24 24.4986C111.386 24.4986 111.512 24.4457 111.618 24.3399C111.724 24.2341 111.777 24.1079 111.777 23.9614C111.777 23.8638 111.756 23.7742 111.716 23.6888C111.293 22.9726 110.654 22.3866 109.82 21.9471C108.985 21.5076 108.106 21.2879 107.203 21.2879C106.58 21.2879 105.962 21.4018 105.36 21.6297C104.757 21.8576 104.204 22.1831 103.712 22.5941C103.215 23.0092 102.812 23.5545 102.507 24.2137C102.202 24.8689 102.051 25.6054 102.051 26.3948C102.051 27.1843 102.206 27.9208 102.507 28.576C102.812 29.2352 103.215 29.7764 103.712 30.1955C104.204 30.6065 104.757 30.9321 105.36 31.16C105.962 31.3878 106.584 31.5059 107.203 31.5059C108.106 31.5059 108.989 31.282 109.82 30.8466C110.654 30.4071 111.293 29.8212 111.724 29.0928C111.761 29.0155 111.781 28.93 111.781 28.8405C111.781 28.694 111.728 28.5678 111.622 28.462C111.516 28.3562 111.39 28.3033 111.248 28.3033C111.052 28.3033 110.939 28.3888 110.873 28.4742C110.548 28.9544 110.125 29.3288 109.616 29.5974C109.107 29.8619 108.57 30.0002 108.017 30.0002C107.093 30.0002 106.287 29.6665 105.62 29.0155C104.953 28.3603 104.615 27.4813 104.615 26.3989C104.615 25.3165 104.953 24.4375 105.62 23.7783C106.287 23.1191 107.093 22.7854 108.017 22.7854H108.013Z" fill="#1F3155"/>
<path d="M118.279 21.2879C117.27 21.2879 116.371 21.5036 115.606 21.9268C114.845 22.35 114.243 22.8708 113.824 23.4649C113.742 23.5748 113.701 23.6888 113.701 23.8068C113.701 23.9573 113.75 24.0835 113.848 24.1852C113.946 24.2869 114.076 24.3398 114.239 24.3398C114.454 24.3398 114.576 24.2381 114.633 24.1649C115.427 23.2493 116.399 22.7854 117.518 22.7854C118.467 22.7854 119.28 23.0906 119.948 23.6928C120.558 24.2462 120.892 24.9624 120.937 25.8211C120.574 25.5037 120.135 25.2473 119.626 25.0642C118.992 24.8322 118.304 24.7142 117.579 24.7142C116.757 24.7142 116.013 24.8363 115.362 25.0804C114.703 25.3246 114.161 25.7153 113.75 26.2361C113.339 26.7611 113.128 27.3959 113.128 28.1121C113.128 28.8282 113.335 29.4631 113.75 29.988C114.157 30.5089 114.703 30.8954 115.362 31.1437C116.013 31.3838 116.757 31.5099 117.579 31.5099C118.353 31.5099 119.093 31.3756 119.781 31.107C120.33 30.8954 120.79 30.5943 121.152 30.2118V30.3339C121.152 30.6798 121.27 30.9687 121.502 31.1844C121.73 31.396 122.007 31.5058 122.324 31.5058C122.642 31.5058 122.918 31.396 123.15 31.1844C123.386 30.9687 123.508 30.6798 123.508 30.3339V26.0286C123.508 24.702 123.008 23.5667 122.023 22.6552C121.042 21.7436 119.785 21.2838 118.283 21.2838L118.279 21.2879ZM115.712 28.1121C115.712 27.4732 115.948 26.993 116.432 26.639C116.924 26.2809 117.559 26.0978 118.32 26.0978C119.081 26.0978 119.716 26.2809 120.212 26.639C120.701 26.993 120.941 27.4732 120.941 28.1121C120.941 28.7509 120.701 29.2352 120.212 29.5973C119.716 29.9636 119.077 30.1467 118.32 30.1467C117.563 30.1467 116.928 29.9636 116.432 29.6014C115.944 29.2433 115.708 28.7591 115.708 28.1121H115.712Z" fill="#1F3155"/>
<path d="M131.968 22.9888C132.18 22.9888 132.363 22.9196 132.506 22.7812C132.652 22.6429 132.721 22.4476 132.721 22.2319C132.721 22.0162 132.648 21.8372 132.506 21.6988C132.363 21.5605 132.18 21.4913 131.968 21.4913H128.595V19.9043C128.595 19.5421 128.465 19.2369 128.208 18.9887C127.956 18.7445 127.643 18.6184 127.285 18.6184C126.927 18.6184 126.613 18.7445 126.361 18.9887C126.105 19.2369 125.974 19.5462 125.974 19.9043V27.7905C125.974 28.7794 126.341 29.6583 127.061 30.3949C127.781 31.1355 128.685 31.5098 129.738 31.5098C130.361 31.5098 130.927 31.3756 131.423 31.1111C131.916 30.8506 132.31 30.5454 132.591 30.2117C132.676 30.1263 132.717 30.0123 132.717 29.8659C132.717 29.7397 132.668 29.6176 132.575 29.4996C132.473 29.3735 132.339 29.3084 132.184 29.3084C132.066 29.3084 131.948 29.3531 131.814 29.4589C131.443 29.8496 131.008 30.0408 130.491 30.0408C129.974 30.0408 129.563 29.8618 129.173 29.4915C128.782 29.1252 128.591 28.6654 128.591 28.0917V22.9888H131.964H131.968Z" fill="#1F3155"/>
<path d="M135.692 21.2879C135.314 21.2879 135 21.4263 134.752 21.703C134.508 21.9756 134.386 22.2605 134.386 22.5534V30.2322C134.386 30.5862 134.516 30.8914 134.772 31.1396C135.025 31.3838 135.338 31.5099 135.696 31.5099C136.054 31.5099 136.363 31.3878 136.603 31.1437C136.848 30.8995 136.97 30.5943 136.97 30.2362V22.5575C136.97 22.2483 136.852 21.9593 136.62 21.6948C136.384 21.4263 136.07 21.2879 135.692 21.2879Z" fill="#1F3155"/>
<path d="M135.692 17.2878C135.334 17.2878 135.025 17.414 134.768 17.6581C134.512 17.9064 134.382 18.2156 134.382 18.5737C134.382 18.9318 134.512 19.2452 134.764 19.4934C135.016 19.7416 135.33 19.8718 135.688 19.8718C136.046 19.8718 136.359 19.7457 136.612 19.4934C136.868 19.2411 136.994 18.9318 136.994 18.5737C136.994 18.2156 136.864 17.9064 136.607 17.6581C136.355 17.414 136.042 17.2878 135.684 17.2878H135.692Z" fill="#1F3155"/>
<path d="M148.848 23.0621C148.486 22.6715 148.059 22.3378 147.578 22.0692C147.098 21.8006 146.59 21.5972 146.069 21.4751C145.548 21.353 145.011 21.2879 144.474 21.2879C143.936 21.2879 143.399 21.3489 142.878 21.4751C142.357 21.6012 141.849 21.8006 141.369 22.0692C140.888 22.3418 140.461 22.6755 140.099 23.0621C139.737 23.4528 139.44 23.9411 139.224 24.5148C139.004 25.0845 138.895 25.7193 138.895 26.3948C138.895 27.0703 139.004 27.7051 139.224 28.2748C139.444 28.8486 139.737 29.3369 140.099 29.7276C140.461 30.1182 140.888 30.4519 141.369 30.7205C141.849 30.9891 142.357 31.1925 142.878 31.3146C143.399 31.4367 143.936 31.5018 144.474 31.5018C145.011 31.5018 145.548 31.4407 146.069 31.3146C146.59 31.1884 147.098 30.9891 147.578 30.7205C148.059 30.4478 148.486 30.1142 148.848 29.7276C149.21 29.3369 149.507 28.8486 149.723 28.2748C149.943 27.7051 150.052 27.0703 150.052 26.3948C150.052 25.7193 149.943 25.0845 149.723 24.5148C149.503 23.9411 149.21 23.4528 148.848 23.0621ZM147.468 26.3948C147.468 27.5546 147.184 28.458 146.626 29.0724C146.069 29.6828 145.344 29.9962 144.474 29.9962C143.603 29.9962 142.874 29.6869 142.313 29.0724C141.747 28.458 141.458 27.5546 141.458 26.3948C141.458 25.2351 141.747 24.3317 142.313 23.7132C142.874 23.0987 143.603 22.7854 144.474 22.7854C145.344 22.7854 146.069 23.0987 146.626 23.7132C147.188 24.3317 147.468 25.2351 147.468 26.3989V26.3948Z" fill="#1F3155"/>
<path d="M159.798 21.8047C159.151 21.4588 158.459 21.2879 157.735 21.2879C156.958 21.2879 156.234 21.4832 155.583 21.8739C155.082 22.1709 154.663 22.5534 154.333 23.0092V22.4599C154.333 22.1587 154.219 21.882 153.995 21.646C153.768 21.4059 153.487 21.2879 153.161 21.2879C152.836 21.2879 152.543 21.41 152.307 21.646C152.075 21.882 151.957 22.1587 151.957 22.4599V30.2322C151.957 30.5862 152.087 30.8914 152.343 31.1396C152.596 31.3838 152.909 31.5099 153.267 31.5099C153.625 31.5099 153.939 31.3838 154.191 31.1396C154.447 30.8914 154.577 30.5862 154.577 30.2322V25.227C154.577 24.5433 154.809 23.9777 155.29 23.4975C155.77 23.0173 156.323 22.7854 156.986 22.7854C157.65 22.7854 158.223 23.0214 158.708 23.5057C159.192 23.9899 159.428 24.5515 159.428 25.227V30.2322C159.428 30.5903 159.554 30.8995 159.802 31.1437C160.051 31.3878 160.356 31.5099 160.718 31.5099C161.08 31.5099 161.385 31.3878 161.638 31.1437C161.89 30.8995 162.016 30.5943 162.016 30.2322V25.5403C162.016 24.7224 161.809 23.9736 161.398 23.3144C160.987 22.6592 160.453 22.1506 159.806 21.8047H159.798Z" fill="#1F3155"/>
<path d="M174.488 29.3491L165.862 17.8494C165.63 17.5971 165.316 17.4669 164.926 17.4669C164.596 17.4669 164.311 17.5808 164.079 17.8005C163.815 18.0569 163.68 18.3824 163.68 18.765C163.68 19.1068 163.786 19.3957 163.982 19.6073L172.621 31.1111C172.873 31.3716 173.186 31.5018 173.552 31.5018C173.898 31.5018 174.191 31.3838 174.427 31.16C174.696 30.9077 174.83 30.5943 174.83 30.2281C174.83 29.8904 174.712 29.5933 174.488 29.3573V29.3491Z" fill="#1F3155"/>
<path d="M164.612 31.5425C164.425 31.5425 164.238 31.4855 164.079 31.3634C163.685 31.0704 163.603 30.5089 163.9 30.1141L173.117 17.7883C173.41 17.3936 173.972 17.3122 174.366 17.6093C174.761 17.9023 174.843 18.4638 174.545 18.8585L165.329 31.1844C165.154 31.4163 164.885 31.5425 164.612 31.5425Z" fill="#1F3155"/>
</g>
<defs>
<clipPath id="clip0_883_1605">
<rect width="169.66" height="33.6" fill="white" transform="translate(5.16992 7.20001)"/>
</clipPath>
</defs>
</svg>
