<svg width="512" height="512" viewBox="0 0 512 512" fill="none" xmlns="http://www.w3.org/2000/svg">
<path d="M255.995 0.125C334.856 0.125 406.321 37.1069 453.098 93.1796L472.288 74.2888C476.186 70.0908 482.185 68.5916 487.581 70.6905C492.978 72.1898 496.876 76.9865 497.477 82.6837L511.869 181.635C513.494 193.817 499.444 200.761 494.777 198.427C491.728 197.993 389.452 183.428 395.826 184.335C390.128 183.734 385.63 179.836 383.831 174.439C382.031 169.042 383.232 163.044 387.429 158.848L410.218 136.059C374.535 90.4799 318.064 61.0952 255.993 61.0952C148.945 61.0952 60.3885 148.352 60.0886 255.399C60.0886 255.699 60.0886 255.699 60.0886 256C60.0886 259.812 60.2146 263.626 60.4514 267.408C61.0422 276.89 52.7542 284.56 43.3008 283.178L13.0796 278.754C5.91608 277.705 0.513733 271.687 0.264854 264.453C0.167902 261.612 0.117923 258.782 0.117923 255.999C0.119922 115.62 114.985 0.125 255.995 0.125Z" fill="#87ADBD"/>
<path d="M17.2116 310.573C20.2611 311.007 122.537 325.573 116.163 324.665C121.86 325.266 126.359 329.164 128.158 334.561C129.958 339.959 128.757 345.956 124.56 350.155L100.571 374.143C135.956 420.62 193.027 450.906 255.996 450.906C363.345 450.906 451.9 363.347 451.9 256.001C451.799 254.05 452.142 249.85 451.485 241.867C450.694 232.249 459.063 224.445 468.519 225.778L498.735 230.031C505.873 231.037 511.299 236.983 511.623 244.187C512 252.539 511.83 259.265 511.87 262.296C508.572 399.93 394.527 511.875 255.995 511.875C176.235 511.875 104.168 474.292 57.391 417.021L39.7006 434.712C35.7625 439.087 29.2177 440.235 24.4081 438.31C19.0107 436.811 15.1126 432.014 14.5119 426.317L0.119934 327.365C-1.11946 318.083 7.44938 308.945 17.2116 310.573Z" fill="#87ADBD"/>
</svg>
